G04 #@! TF.GenerationSoftware,KiCad,Pcbnew,(5.1.2)-2*
G04 #@! TF.CreationDate,2019-08-28T15:44:57+02:00*
G04 #@! TF.ProjectId,esp_pmc,6573705f-706d-4632-9e6b-696361645f70,0.0.1*
G04 #@! TF.SameCoordinates,Original*
G04 #@! TF.FileFunction,Legend,Bot*
G04 #@! TF.FilePolarity,Positive*
%FSLAX46Y46*%
G04 Gerber Fmt 4.6, Leading zero omitted, Abs format (unit mm)*
G04 Created by KiCad (PCBNEW (5.1.2)-2) date 2019-08-28 15:44:57*
%MOMM*%
%LPD*%
G04 APERTURE LIST*
%ADD10C,0.120000*%
%ADD11C,0.150000*%
G04 APERTURE END LIST*
D10*
X75550214Y-86713857D02*
X75050214Y-86535285D01*
X75550214Y-86356714D01*
X75800214Y-85928142D02*
X75800214Y-85856714D01*
X75764500Y-85785285D01*
X75728785Y-85749571D01*
X75657357Y-85713857D01*
X75514500Y-85678142D01*
X75335928Y-85678142D01*
X75193071Y-85713857D01*
X75121642Y-85749571D01*
X75085928Y-85785285D01*
X75050214Y-85856714D01*
X75050214Y-85928142D01*
X75085928Y-85999571D01*
X75121642Y-86035285D01*
X75193071Y-86071000D01*
X75335928Y-86106714D01*
X75514500Y-86106714D01*
X75657357Y-86071000D01*
X75728785Y-86035285D01*
X75764500Y-85999571D01*
X75800214Y-85928142D01*
X75121642Y-85356714D02*
X75085928Y-85321000D01*
X75050214Y-85356714D01*
X75085928Y-85392428D01*
X75121642Y-85356714D01*
X75050214Y-85356714D01*
X75800214Y-84856714D02*
X75800214Y-84785285D01*
X75764500Y-84713857D01*
X75728785Y-84678142D01*
X75657357Y-84642428D01*
X75514500Y-84606714D01*
X75335928Y-84606714D01*
X75193071Y-84642428D01*
X75121642Y-84678142D01*
X75085928Y-84713857D01*
X75050214Y-84785285D01*
X75050214Y-84856714D01*
X75085928Y-84928142D01*
X75121642Y-84963857D01*
X75193071Y-84999571D01*
X75335928Y-85035285D01*
X75514500Y-85035285D01*
X75657357Y-84999571D01*
X75728785Y-84963857D01*
X75764500Y-84928142D01*
X75800214Y-84856714D01*
X75121642Y-84285285D02*
X75085928Y-84249571D01*
X75050214Y-84285285D01*
X75085928Y-84321000D01*
X75121642Y-84285285D01*
X75050214Y-84285285D01*
X75050214Y-83535285D02*
X75050214Y-83963857D01*
X75050214Y-83749571D02*
X75800214Y-83749571D01*
X75693071Y-83821000D01*
X75621642Y-83892428D01*
X75585928Y-83963857D01*
X75050214Y-82285285D02*
X75050214Y-82642428D01*
X75800214Y-82642428D01*
X75085928Y-81749571D02*
X75050214Y-81821000D01*
X75050214Y-81963857D01*
X75085928Y-82035285D01*
X75157357Y-82071000D01*
X75443071Y-82071000D01*
X75514500Y-82035285D01*
X75550214Y-81963857D01*
X75550214Y-81821000D01*
X75514500Y-81749571D01*
X75443071Y-81713857D01*
X75371642Y-81713857D01*
X75300214Y-82071000D01*
X75050214Y-81285285D02*
X75085928Y-81356714D01*
X75121642Y-81392428D01*
X75193071Y-81428142D01*
X75407357Y-81428142D01*
X75478785Y-81392428D01*
X75514500Y-81356714D01*
X75550214Y-81285285D01*
X75550214Y-81178142D01*
X75514500Y-81106714D01*
X75478785Y-81071000D01*
X75407357Y-81035285D01*
X75193071Y-81035285D01*
X75121642Y-81071000D01*
X75085928Y-81106714D01*
X75050214Y-81178142D01*
X75050214Y-81285285D01*
X75550214Y-80713857D02*
X75050214Y-80713857D01*
X75478785Y-80713857D02*
X75514500Y-80678142D01*
X75550214Y-80606714D01*
X75550214Y-80499571D01*
X75514500Y-80428142D01*
X75443071Y-80392428D01*
X75050214Y-80392428D01*
X75050214Y-79713857D02*
X75443071Y-79713857D01*
X75514500Y-79749571D01*
X75550214Y-79821000D01*
X75550214Y-79963857D01*
X75514500Y-80035285D01*
X75085928Y-79713857D02*
X75050214Y-79785285D01*
X75050214Y-79963857D01*
X75085928Y-80035285D01*
X75157357Y-80071000D01*
X75228785Y-80071000D01*
X75300214Y-80035285D01*
X75335928Y-79963857D01*
X75335928Y-79785285D01*
X75371642Y-79713857D01*
X75050214Y-79356714D02*
X75550214Y-79356714D01*
X75407357Y-79356714D02*
X75478785Y-79321000D01*
X75514500Y-79285285D01*
X75550214Y-79213857D01*
X75550214Y-79142428D01*
X75050214Y-78571000D02*
X75800214Y-78571000D01*
X75085928Y-78571000D02*
X75050214Y-78642428D01*
X75050214Y-78785285D01*
X75085928Y-78856714D01*
X75121642Y-78892428D01*
X75193071Y-78928142D01*
X75407357Y-78928142D01*
X75478785Y-78892428D01*
X75514500Y-78856714D01*
X75550214Y-78785285D01*
X75550214Y-78642428D01*
X75514500Y-78571000D01*
X75050214Y-78106714D02*
X75085928Y-78178142D01*
X75121642Y-78213857D01*
X75193071Y-78249571D01*
X75407357Y-78249571D01*
X75478785Y-78213857D01*
X75514500Y-78178142D01*
X75550214Y-78106714D01*
X75550214Y-77999571D01*
X75514500Y-77928142D01*
X75478785Y-77892428D01*
X75407357Y-77856714D01*
X75193071Y-77856714D01*
X75121642Y-77892428D01*
X75085928Y-77928142D01*
X75050214Y-77999571D01*
X75050214Y-78106714D01*
X75443071Y-76713857D02*
X75407357Y-76606714D01*
X75371642Y-76571000D01*
X75300214Y-76535285D01*
X75193071Y-76535285D01*
X75121642Y-76571000D01*
X75085928Y-76606714D01*
X75050214Y-76678142D01*
X75050214Y-76963857D01*
X75800214Y-76963857D01*
X75800214Y-76713857D01*
X75764500Y-76642428D01*
X75728785Y-76606714D01*
X75657357Y-76571000D01*
X75585928Y-76571000D01*
X75514500Y-76606714D01*
X75478785Y-76642428D01*
X75443071Y-76713857D01*
X75443071Y-76963857D01*
X75050214Y-76213857D02*
X75550214Y-76213857D01*
X75800214Y-76213857D02*
X75764500Y-76249571D01*
X75728785Y-76213857D01*
X75764500Y-76178142D01*
X75800214Y-76213857D01*
X75728785Y-76213857D01*
X75085928Y-75892428D02*
X75050214Y-75821000D01*
X75050214Y-75678142D01*
X75085928Y-75606714D01*
X75157357Y-75571000D01*
X75193071Y-75571000D01*
X75264500Y-75606714D01*
X75300214Y-75678142D01*
X75300214Y-75785285D01*
X75335928Y-75856714D01*
X75407357Y-75892428D01*
X75443071Y-75892428D01*
X75514500Y-75856714D01*
X75550214Y-75785285D01*
X75550214Y-75678142D01*
X75514500Y-75606714D01*
X75550214Y-75249571D02*
X74800214Y-75249571D01*
X75514500Y-75249571D02*
X75550214Y-75178142D01*
X75550214Y-75035285D01*
X75514500Y-74963857D01*
X75478785Y-74928142D01*
X75407357Y-74892428D01*
X75193071Y-74892428D01*
X75121642Y-74928142D01*
X75085928Y-74963857D01*
X75050214Y-75035285D01*
X75050214Y-75178142D01*
X75085928Y-75249571D01*
X75050214Y-74463857D02*
X75085928Y-74535285D01*
X75121642Y-74571000D01*
X75193071Y-74606714D01*
X75407357Y-74606714D01*
X75478785Y-74571000D01*
X75514500Y-74535285D01*
X75550214Y-74463857D01*
X75550214Y-74356714D01*
X75514500Y-74285285D01*
X75478785Y-74249571D01*
X75407357Y-74213857D01*
X75193071Y-74213857D01*
X75121642Y-74249571D01*
X75085928Y-74285285D01*
X75050214Y-74356714D01*
X75050214Y-74463857D01*
X74483785Y-83160285D02*
X74519500Y-83124571D01*
X74555214Y-83053142D01*
X74555214Y-82874571D01*
X74519500Y-82803142D01*
X74483785Y-82767428D01*
X74412357Y-82731714D01*
X74340928Y-82731714D01*
X74233785Y-82767428D01*
X73805214Y-83196000D01*
X73805214Y-82731714D01*
X74555214Y-82267428D02*
X74555214Y-82196000D01*
X74519500Y-82124571D01*
X74483785Y-82088857D01*
X74412357Y-82053142D01*
X74269500Y-82017428D01*
X74090928Y-82017428D01*
X73948071Y-82053142D01*
X73876642Y-82088857D01*
X73840928Y-82124571D01*
X73805214Y-82196000D01*
X73805214Y-82267428D01*
X73840928Y-82338857D01*
X73876642Y-82374571D01*
X73948071Y-82410285D01*
X74090928Y-82446000D01*
X74269500Y-82446000D01*
X74412357Y-82410285D01*
X74483785Y-82374571D01*
X74519500Y-82338857D01*
X74555214Y-82267428D01*
X73805214Y-81303142D02*
X73805214Y-81731714D01*
X73805214Y-81517428D02*
X74555214Y-81517428D01*
X74448071Y-81588857D01*
X74376642Y-81660285D01*
X74340928Y-81731714D01*
X73805214Y-80946000D02*
X73805214Y-80803142D01*
X73840928Y-80731714D01*
X73876642Y-80696000D01*
X73983785Y-80624571D01*
X74126642Y-80588857D01*
X74412357Y-80588857D01*
X74483785Y-80624571D01*
X74519500Y-80660285D01*
X74555214Y-80731714D01*
X74555214Y-80874571D01*
X74519500Y-80946000D01*
X74483785Y-80981714D01*
X74412357Y-81017428D01*
X74233785Y-81017428D01*
X74162357Y-80981714D01*
X74126642Y-80946000D01*
X74090928Y-80874571D01*
X74090928Y-80731714D01*
X74126642Y-80660285D01*
X74162357Y-80624571D01*
X74233785Y-80588857D01*
X74555214Y-80124571D02*
X74555214Y-80053142D01*
X74519500Y-79981714D01*
X74483785Y-79946000D01*
X74412357Y-79910285D01*
X74269500Y-79874571D01*
X74090928Y-79874571D01*
X73948071Y-79910285D01*
X73876642Y-79946000D01*
X73840928Y-79981714D01*
X73805214Y-80053142D01*
X73805214Y-80124571D01*
X73840928Y-80196000D01*
X73876642Y-80231714D01*
X73948071Y-80267428D01*
X74090928Y-80303142D01*
X74269500Y-80303142D01*
X74412357Y-80267428D01*
X74483785Y-80231714D01*
X74519500Y-80196000D01*
X74555214Y-80124571D01*
X74233785Y-79446000D02*
X74269500Y-79517428D01*
X74305214Y-79553142D01*
X74376642Y-79588857D01*
X74412357Y-79588857D01*
X74483785Y-79553142D01*
X74519500Y-79517428D01*
X74555214Y-79446000D01*
X74555214Y-79303142D01*
X74519500Y-79231714D01*
X74483785Y-79196000D01*
X74412357Y-79160285D01*
X74376642Y-79160285D01*
X74305214Y-79196000D01*
X74269500Y-79231714D01*
X74233785Y-79303142D01*
X74233785Y-79446000D01*
X74198071Y-79517428D01*
X74162357Y-79553142D01*
X74090928Y-79588857D01*
X73948071Y-79588857D01*
X73876642Y-79553142D01*
X73840928Y-79517428D01*
X73805214Y-79446000D01*
X73805214Y-79303142D01*
X73840928Y-79231714D01*
X73876642Y-79196000D01*
X73948071Y-79160285D01*
X74090928Y-79160285D01*
X74162357Y-79196000D01*
X74198071Y-79231714D01*
X74233785Y-79303142D01*
X73805214Y-78446000D02*
X73805214Y-78874571D01*
X73805214Y-78660285D02*
X74555214Y-78660285D01*
X74448071Y-78731714D01*
X74376642Y-78803142D01*
X74340928Y-78874571D01*
X74555214Y-77767428D02*
X74555214Y-78124571D01*
X74198071Y-78160285D01*
X74233785Y-78124571D01*
X74269500Y-78053142D01*
X74269500Y-77874571D01*
X74233785Y-77803142D01*
X74198071Y-77767428D01*
X74126642Y-77731714D01*
X73948071Y-77731714D01*
X73876642Y-77767428D01*
X73840928Y-77803142D01*
X73805214Y-77874571D01*
X73805214Y-78053142D01*
X73840928Y-78124571D01*
X73876642Y-78160285D01*
X73028904Y-76196000D02*
X73124142Y-76148380D01*
X73267000Y-76148380D01*
X73409857Y-76196000D01*
X73505095Y-76291238D01*
X73552714Y-76386476D01*
X73600333Y-76576952D01*
X73600333Y-76719809D01*
X73552714Y-76910285D01*
X73505095Y-77005523D01*
X73409857Y-77100761D01*
X73267000Y-77148380D01*
X73171761Y-77148380D01*
X73028904Y-77100761D01*
X72981285Y-77053142D01*
X72981285Y-76719809D01*
X73171761Y-76719809D01*
X72552714Y-77148380D02*
X72552714Y-76148380D01*
X71981285Y-77148380D01*
X71981285Y-76148380D01*
X71505095Y-77148380D02*
X71505095Y-76148380D01*
X71267000Y-76148380D01*
X71124142Y-76196000D01*
X71028904Y-76291238D01*
X70981285Y-76386476D01*
X70933666Y-76576952D01*
X70933666Y-76719809D01*
X70981285Y-76910285D01*
X71028904Y-77005523D01*
X71124142Y-77100761D01*
X71267000Y-77148380D01*
X71505095Y-77148380D01*
X68219380Y-72372190D02*
X69219380Y-72705523D01*
X68219380Y-73038857D01*
X68695571Y-73705523D02*
X68743190Y-73848380D01*
X68790809Y-73896000D01*
X68886047Y-73943619D01*
X69028904Y-73943619D01*
X69124142Y-73896000D01*
X69171761Y-73848380D01*
X69219380Y-73753142D01*
X69219380Y-73372190D01*
X68219380Y-73372190D01*
X68219380Y-73705523D01*
X68267000Y-73800761D01*
X68314619Y-73848380D01*
X68409857Y-73896000D01*
X68505095Y-73896000D01*
X68600333Y-73848380D01*
X68647952Y-73800761D01*
X68695571Y-73705523D01*
X68695571Y-73372190D01*
X68933666Y-74324571D02*
X68933666Y-74800761D01*
X69219380Y-74229333D02*
X68219380Y-74562666D01*
X69219380Y-74896000D01*
X68219380Y-75086476D02*
X68219380Y-75657904D01*
X69219380Y-75372190D02*
X68219380Y-75372190D01*
X68219380Y-75848380D02*
X68219380Y-76419809D01*
X69219380Y-76134095D02*
X68219380Y-76134095D01*
X61219380Y-72172190D02*
X62219380Y-72505523D01*
X61219380Y-72838857D01*
X61695571Y-73505523D02*
X61743190Y-73648380D01*
X61790809Y-73696000D01*
X61886047Y-73743619D01*
X62028904Y-73743619D01*
X62124142Y-73696000D01*
X62171761Y-73648380D01*
X62219380Y-73553142D01*
X62219380Y-73172190D01*
X61219380Y-73172190D01*
X61219380Y-73505523D01*
X61267000Y-73600761D01*
X61314619Y-73648380D01*
X61409857Y-73696000D01*
X61505095Y-73696000D01*
X61600333Y-73648380D01*
X61647952Y-73600761D01*
X61695571Y-73505523D01*
X61695571Y-73172190D01*
X61933666Y-74124571D02*
X61933666Y-74600761D01*
X62219380Y-74029333D02*
X61219380Y-74362666D01*
X62219380Y-74696000D01*
X61219380Y-74886476D02*
X61219380Y-75457904D01*
X62219380Y-75172190D02*
X61219380Y-75172190D01*
X61219380Y-75648380D02*
X61219380Y-76219809D01*
X62219380Y-75934095D02*
X61219380Y-75934095D01*
X57802714Y-75571000D02*
X57874142Y-75535285D01*
X57981285Y-75535285D01*
X58088428Y-75571000D01*
X58159857Y-75642428D01*
X58195571Y-75713857D01*
X58231285Y-75856714D01*
X58231285Y-75963857D01*
X58195571Y-76106714D01*
X58159857Y-76178142D01*
X58088428Y-76249571D01*
X57981285Y-76285285D01*
X57909857Y-76285285D01*
X57802714Y-76249571D01*
X57767000Y-76213857D01*
X57767000Y-75963857D01*
X57909857Y-75963857D01*
X57445571Y-76285285D02*
X57445571Y-75535285D01*
X57017000Y-76285285D01*
X57017000Y-75535285D01*
X56659857Y-76285285D02*
X56659857Y-75535285D01*
X56481285Y-75535285D01*
X56374142Y-75571000D01*
X56302714Y-75642428D01*
X56267000Y-75713857D01*
X56231285Y-75856714D01*
X56231285Y-75963857D01*
X56267000Y-76106714D01*
X56302714Y-76178142D01*
X56374142Y-76249571D01*
X56481285Y-76285285D01*
X56659857Y-76285285D01*
X55909857Y-75785285D02*
X55338428Y-75999571D01*
X55909857Y-76213857D01*
X75174142Y-72635285D02*
X75745571Y-72849571D01*
X75174142Y-73063857D01*
X74924142Y-72385285D02*
X74674142Y-73135285D01*
X74424142Y-72385285D01*
X74031285Y-72385285D02*
X73888428Y-72385285D01*
X73817000Y-72421000D01*
X73745571Y-72492428D01*
X73709857Y-72635285D01*
X73709857Y-72885285D01*
X73745571Y-73028142D01*
X73817000Y-73099571D01*
X73888428Y-73135285D01*
X74031285Y-73135285D01*
X74102714Y-73099571D01*
X74174142Y-73028142D01*
X74209857Y-72885285D01*
X74209857Y-72635285D01*
X74174142Y-72492428D01*
X74102714Y-72421000D01*
X74031285Y-72385285D01*
X73388428Y-72385285D02*
X73388428Y-72992428D01*
X73352714Y-73063857D01*
X73317000Y-73099571D01*
X73245571Y-73135285D01*
X73102714Y-73135285D01*
X73031285Y-73099571D01*
X72995571Y-73063857D01*
X72959857Y-72992428D01*
X72959857Y-72385285D01*
X72709857Y-72385285D02*
X72281285Y-72385285D01*
X72495571Y-73135285D02*
X72495571Y-72385285D01*
X72410428Y-79045285D02*
X72410428Y-78295285D01*
X72124714Y-78295285D01*
X72053285Y-78331000D01*
X72017571Y-78366714D01*
X71981857Y-78438142D01*
X71981857Y-78545285D01*
X72017571Y-78616714D01*
X72053285Y-78652428D01*
X72124714Y-78688142D01*
X72410428Y-78688142D01*
X71553285Y-79045285D02*
X71624714Y-79009571D01*
X71660428Y-78973857D01*
X71696142Y-78902428D01*
X71696142Y-78688142D01*
X71660428Y-78616714D01*
X71624714Y-78581000D01*
X71553285Y-78545285D01*
X71446142Y-78545285D01*
X71374714Y-78581000D01*
X71339000Y-78616714D01*
X71303285Y-78688142D01*
X71303285Y-78902428D01*
X71339000Y-78973857D01*
X71374714Y-79009571D01*
X71446142Y-79045285D01*
X71553285Y-79045285D01*
X71089000Y-78545285D02*
X70803285Y-78545285D01*
X70981857Y-78295285D02*
X70981857Y-78938142D01*
X70946142Y-79009571D01*
X70874714Y-79045285D01*
X70803285Y-79045285D01*
X70267571Y-79009571D02*
X70339000Y-79045285D01*
X70481857Y-79045285D01*
X70553285Y-79009571D01*
X70589000Y-78938142D01*
X70589000Y-78652428D01*
X70553285Y-78581000D01*
X70481857Y-78545285D01*
X70339000Y-78545285D01*
X70267571Y-78581000D01*
X70231857Y-78652428D01*
X70231857Y-78723857D01*
X70589000Y-78795285D01*
X69910428Y-78545285D02*
X69910428Y-79045285D01*
X69910428Y-78616714D02*
X69874714Y-78581000D01*
X69803285Y-78545285D01*
X69696142Y-78545285D01*
X69624714Y-78581000D01*
X69589000Y-78652428D01*
X69589000Y-79045285D01*
X69339000Y-78545285D02*
X69053285Y-78545285D01*
X69231857Y-78295285D02*
X69231857Y-78938142D01*
X69196142Y-79009571D01*
X69124714Y-79045285D01*
X69053285Y-79045285D01*
X68803285Y-79045285D02*
X68803285Y-78545285D01*
X68803285Y-78295285D02*
X68839000Y-78331000D01*
X68803285Y-78366714D01*
X68767571Y-78331000D01*
X68803285Y-78295285D01*
X68803285Y-78366714D01*
X68339000Y-79045285D02*
X68410428Y-79009571D01*
X68446142Y-78973857D01*
X68481857Y-78902428D01*
X68481857Y-78688142D01*
X68446142Y-78616714D01*
X68410428Y-78581000D01*
X68339000Y-78545285D01*
X68231857Y-78545285D01*
X68160428Y-78581000D01*
X68124714Y-78616714D01*
X68089000Y-78688142D01*
X68089000Y-78902428D01*
X68124714Y-78973857D01*
X68160428Y-79009571D01*
X68231857Y-79045285D01*
X68339000Y-79045285D01*
X67767571Y-79045285D02*
X67767571Y-78545285D01*
X67767571Y-78616714D02*
X67731857Y-78581000D01*
X67660428Y-78545285D01*
X67553285Y-78545285D01*
X67481857Y-78581000D01*
X67446142Y-78652428D01*
X67446142Y-79045285D01*
X67446142Y-78652428D02*
X67410428Y-78581000D01*
X67339000Y-78545285D01*
X67231857Y-78545285D01*
X67160428Y-78581000D01*
X67124714Y-78652428D01*
X67124714Y-79045285D01*
X66481857Y-79009571D02*
X66553285Y-79045285D01*
X66696142Y-79045285D01*
X66767571Y-79009571D01*
X66803285Y-78938142D01*
X66803285Y-78652428D01*
X66767571Y-78581000D01*
X66696142Y-78545285D01*
X66553285Y-78545285D01*
X66481857Y-78581000D01*
X66446142Y-78652428D01*
X66446142Y-78723857D01*
X66803285Y-78795285D01*
X66231857Y-78545285D02*
X65946142Y-78545285D01*
X66124714Y-78295285D02*
X66124714Y-78938142D01*
X66089000Y-79009571D01*
X66017571Y-79045285D01*
X65946142Y-79045285D01*
X65410428Y-79009571D02*
X65481857Y-79045285D01*
X65624714Y-79045285D01*
X65696142Y-79009571D01*
X65731857Y-78938142D01*
X65731857Y-78652428D01*
X65696142Y-78581000D01*
X65624714Y-78545285D01*
X65481857Y-78545285D01*
X65410428Y-78581000D01*
X65374714Y-78652428D01*
X65374714Y-78723857D01*
X65731857Y-78795285D01*
X65053285Y-79045285D02*
X65053285Y-78545285D01*
X65053285Y-78688142D02*
X65017571Y-78616714D01*
X64981857Y-78581000D01*
X64910428Y-78545285D01*
X64838999Y-78545285D01*
X64088999Y-78545285D02*
X63910428Y-79045285D01*
X63731857Y-78545285D01*
X63481857Y-79009571D02*
X63410428Y-79045285D01*
X63267571Y-79045285D01*
X63196142Y-79009571D01*
X63160428Y-78938142D01*
X63160428Y-78902428D01*
X63196142Y-78831000D01*
X63267571Y-78795285D01*
X63374714Y-78795285D01*
X63446142Y-78759571D01*
X63481857Y-78688142D01*
X63481857Y-78652428D01*
X63446142Y-78581000D01*
X63374714Y-78545285D01*
X63267571Y-78545285D01*
X63196142Y-78581000D01*
X62303285Y-79009571D02*
X62196142Y-79045285D01*
X62017571Y-79045285D01*
X61946142Y-79009571D01*
X61910428Y-78973857D01*
X61874714Y-78902428D01*
X61874714Y-78831000D01*
X61910428Y-78759571D01*
X61946142Y-78723857D01*
X62017571Y-78688142D01*
X62160428Y-78652428D01*
X62231857Y-78616714D01*
X62267571Y-78581000D01*
X62303285Y-78509571D01*
X62303285Y-78438142D01*
X62267571Y-78366714D01*
X62231857Y-78331000D01*
X62160428Y-78295285D01*
X61981857Y-78295285D01*
X61874714Y-78331000D01*
X61446142Y-79045285D02*
X61517571Y-79009571D01*
X61553285Y-78938142D01*
X61553285Y-78295285D01*
X60874714Y-79009571D02*
X60946142Y-79045285D01*
X61088999Y-79045285D01*
X61160428Y-79009571D01*
X61196142Y-78938142D01*
X61196142Y-78652428D01*
X61160428Y-78581000D01*
X61088999Y-78545285D01*
X60946142Y-78545285D01*
X60874714Y-78581000D01*
X60838999Y-78652428D01*
X60838999Y-78723857D01*
X61196142Y-78795285D01*
X60231857Y-79009571D02*
X60303285Y-79045285D01*
X60446142Y-79045285D01*
X60517571Y-79009571D01*
X60553285Y-78938142D01*
X60553285Y-78652428D01*
X60517571Y-78581000D01*
X60446142Y-78545285D01*
X60303285Y-78545285D01*
X60231857Y-78581000D01*
X60196142Y-78652428D01*
X60196142Y-78723857D01*
X60553285Y-78795285D01*
X59874714Y-78545285D02*
X59874714Y-79295285D01*
X59874714Y-78581000D02*
X59803285Y-78545285D01*
X59660428Y-78545285D01*
X59588999Y-78581000D01*
X59553285Y-78616714D01*
X59517571Y-78688142D01*
X59517571Y-78902428D01*
X59553285Y-78973857D01*
X59588999Y-79009571D01*
X59660428Y-79045285D01*
X59803285Y-79045285D01*
X59874714Y-79009571D01*
X58731857Y-78295285D02*
X58303285Y-78295285D01*
X58517571Y-79045285D02*
X58517571Y-78295285D01*
X58053285Y-79045285D02*
X58053285Y-78545285D01*
X58053285Y-78295285D02*
X58088999Y-78331000D01*
X58053285Y-78366714D01*
X58017571Y-78331000D01*
X58053285Y-78295285D01*
X58053285Y-78366714D01*
X57696142Y-79045285D02*
X57696142Y-78545285D01*
X57696142Y-78616714D02*
X57660428Y-78581000D01*
X57588999Y-78545285D01*
X57481857Y-78545285D01*
X57410428Y-78581000D01*
X57374714Y-78652428D01*
X57374714Y-79045285D01*
X57374714Y-78652428D02*
X57338999Y-78581000D01*
X57267571Y-78545285D01*
X57160428Y-78545285D01*
X57088999Y-78581000D01*
X57053285Y-78652428D01*
X57053285Y-79045285D01*
X56410428Y-79009571D02*
X56481857Y-79045285D01*
X56624714Y-79045285D01*
X56696142Y-79009571D01*
X56731857Y-78938142D01*
X56731857Y-78652428D01*
X56696142Y-78581000D01*
X56624714Y-78545285D01*
X56481857Y-78545285D01*
X56410428Y-78581000D01*
X56374714Y-78652428D01*
X56374714Y-78723857D01*
X56731857Y-78795285D01*
X72481857Y-79540285D02*
X72017571Y-79540285D01*
X72267571Y-79826000D01*
X72160428Y-79826000D01*
X72089000Y-79861714D01*
X72053285Y-79897428D01*
X72017571Y-79968857D01*
X72017571Y-80147428D01*
X72053285Y-80218857D01*
X72089000Y-80254571D01*
X72160428Y-80290285D01*
X72374714Y-80290285D01*
X72446142Y-80254571D01*
X72481857Y-80218857D01*
X71553285Y-79540285D02*
X71481857Y-79540285D01*
X71410428Y-79576000D01*
X71374714Y-79611714D01*
X71339000Y-79683142D01*
X71303285Y-79826000D01*
X71303285Y-80004571D01*
X71339000Y-80147428D01*
X71374714Y-80218857D01*
X71410428Y-80254571D01*
X71481857Y-80290285D01*
X71553285Y-80290285D01*
X71624714Y-80254571D01*
X71660428Y-80218857D01*
X71696142Y-80147428D01*
X71731857Y-80004571D01*
X71731857Y-79826000D01*
X71696142Y-79683142D01*
X71660428Y-79611714D01*
X71624714Y-79576000D01*
X71553285Y-79540285D01*
X71017571Y-80254571D02*
X70946142Y-80290285D01*
X70803285Y-80290285D01*
X70731857Y-80254571D01*
X70696142Y-80183142D01*
X70696142Y-80147428D01*
X70731857Y-80076000D01*
X70803285Y-80040285D01*
X70910428Y-80040285D01*
X70981857Y-80004571D01*
X71017571Y-79933142D01*
X71017571Y-79897428D01*
X70981857Y-79826000D01*
X70910428Y-79790285D01*
X70803285Y-79790285D01*
X70731857Y-79826000D01*
X70374714Y-80004571D02*
X69803285Y-80004571D01*
X69446142Y-80004571D02*
X68874714Y-80004571D01*
X68517571Y-80004571D02*
X67946142Y-80004571D01*
X67589000Y-80004571D02*
X67017571Y-80004571D01*
X66660428Y-80004571D02*
X66089000Y-80004571D01*
X65731857Y-80004571D02*
X65160428Y-80004571D01*
X64803285Y-80004571D02*
X64231857Y-80004571D01*
X63481857Y-80290285D02*
X63910428Y-80290285D01*
X63696142Y-80290285D02*
X63696142Y-79540285D01*
X63767571Y-79647428D01*
X63838999Y-79718857D01*
X63910428Y-79754571D01*
X62838999Y-79540285D02*
X62981857Y-79540285D01*
X63053285Y-79576000D01*
X63088999Y-79611714D01*
X63160428Y-79718857D01*
X63196142Y-79861714D01*
X63196142Y-80147428D01*
X63160428Y-80218857D01*
X63124714Y-80254571D01*
X63053285Y-80290285D01*
X62910428Y-80290285D01*
X62838999Y-80254571D01*
X62803285Y-80218857D01*
X62767571Y-80147428D01*
X62767571Y-79968857D01*
X62803285Y-79897428D01*
X62838999Y-79861714D01*
X62910428Y-79826000D01*
X63053285Y-79826000D01*
X63124714Y-79861714D01*
X63160428Y-79897428D01*
X63196142Y-79968857D01*
X62446142Y-80218857D02*
X62410428Y-80254571D01*
X62446142Y-80290285D01*
X62481857Y-80254571D01*
X62446142Y-80218857D01*
X62446142Y-80290285D01*
X62160428Y-79540285D02*
X61660428Y-79540285D01*
X61981857Y-80290285D01*
X61267571Y-79861714D02*
X61338999Y-79826000D01*
X61374714Y-79790285D01*
X61410428Y-79718857D01*
X61410428Y-79683142D01*
X61374714Y-79611714D01*
X61338999Y-79576000D01*
X61267571Y-79540285D01*
X61124714Y-79540285D01*
X61053285Y-79576000D01*
X61017571Y-79611714D01*
X60981857Y-79683142D01*
X60981857Y-79718857D01*
X61017571Y-79790285D01*
X61053285Y-79826000D01*
X61124714Y-79861714D01*
X61267571Y-79861714D01*
X61338999Y-79897428D01*
X61374714Y-79933142D01*
X61410428Y-80004571D01*
X61410428Y-80147428D01*
X61374714Y-80218857D01*
X61338999Y-80254571D01*
X61267571Y-80290285D01*
X61124714Y-80290285D01*
X61053285Y-80254571D01*
X61017571Y-80218857D01*
X60981857Y-80147428D01*
X60981857Y-80004571D01*
X61017571Y-79933142D01*
X61053285Y-79897428D01*
X61124714Y-79861714D01*
X60660428Y-80290285D02*
X60660428Y-79540285D01*
X60231857Y-80290285D02*
X60553285Y-79861714D01*
X60231857Y-79540285D02*
X60660428Y-79968857D01*
X72017571Y-81535285D02*
X72446142Y-81535285D01*
X72231857Y-81535285D02*
X72231857Y-80785285D01*
X72303285Y-80892428D01*
X72374714Y-80963857D01*
X72446142Y-80999571D01*
X71696142Y-81535285D02*
X71696142Y-81035285D01*
X71696142Y-81106714D02*
X71660428Y-81071000D01*
X71589000Y-81035285D01*
X71481857Y-81035285D01*
X71410428Y-81071000D01*
X71374714Y-81142428D01*
X71374714Y-81535285D01*
X71374714Y-81142428D02*
X71339000Y-81071000D01*
X71267571Y-81035285D01*
X71160428Y-81035285D01*
X71089000Y-81071000D01*
X71053285Y-81142428D01*
X71053285Y-81535285D01*
X70696142Y-81249571D02*
X70124714Y-81249571D01*
X69767571Y-81249571D02*
X69196142Y-81249571D01*
X68839000Y-81249571D02*
X68267571Y-81249571D01*
X67910428Y-81249571D02*
X67339000Y-81249571D01*
X66981857Y-81249571D02*
X66410428Y-81249571D01*
X66053285Y-81249571D02*
X65481857Y-81249571D01*
X65124714Y-81249571D02*
X64553285Y-81249571D01*
X64196142Y-81249571D02*
X63624714Y-81249571D01*
X63303285Y-80856714D02*
X63267571Y-80821000D01*
X63196142Y-80785285D01*
X63017571Y-80785285D01*
X62946142Y-80821000D01*
X62910428Y-80856714D01*
X62874714Y-80928142D01*
X62874714Y-80999571D01*
X62910428Y-81106714D01*
X63338999Y-81535285D01*
X62874714Y-81535285D01*
X62588999Y-80856714D02*
X62553285Y-80821000D01*
X62481857Y-80785285D01*
X62303285Y-80785285D01*
X62231857Y-80821000D01*
X62196142Y-80856714D01*
X62160428Y-80928142D01*
X62160428Y-80999571D01*
X62196142Y-81106714D01*
X62624714Y-81535285D01*
X62160428Y-81535285D01*
X61838999Y-81463857D02*
X61803285Y-81499571D01*
X61838999Y-81535285D01*
X61874714Y-81499571D01*
X61838999Y-81463857D01*
X61838999Y-81535285D01*
X61338999Y-80785285D02*
X61267571Y-80785285D01*
X61196142Y-80821000D01*
X61160428Y-80856714D01*
X61124714Y-80928142D01*
X61088999Y-81071000D01*
X61088999Y-81249571D01*
X61124714Y-81392428D01*
X61160428Y-81463857D01*
X61196142Y-81499571D01*
X61267571Y-81535285D01*
X61338999Y-81535285D01*
X61410428Y-81499571D01*
X61446142Y-81463857D01*
X61481857Y-81392428D01*
X61517571Y-81249571D01*
X61517571Y-81071000D01*
X61481857Y-80928142D01*
X61446142Y-80856714D01*
X61410428Y-80821000D01*
X61338999Y-80785285D01*
X60803285Y-80856714D02*
X60767571Y-80821000D01*
X60696142Y-80785285D01*
X60517571Y-80785285D01*
X60446142Y-80821000D01*
X60410428Y-80856714D01*
X60374714Y-80928142D01*
X60374714Y-80999571D01*
X60410428Y-81106714D01*
X60838999Y-81535285D01*
X60374714Y-81535285D01*
X60053285Y-81535285D02*
X60053285Y-80785285D01*
X59624714Y-81535285D02*
X59946142Y-81106714D01*
X59624714Y-80785285D02*
X60053285Y-81213857D01*
X72017571Y-82780285D02*
X72446142Y-82780285D01*
X72231857Y-82780285D02*
X72231857Y-82030285D01*
X72303285Y-82137428D01*
X72374714Y-82208857D01*
X72446142Y-82244571D01*
X71553285Y-82030285D02*
X71481857Y-82030285D01*
X71410428Y-82066000D01*
X71374714Y-82101714D01*
X71339000Y-82173142D01*
X71303285Y-82316000D01*
X71303285Y-82494571D01*
X71339000Y-82637428D01*
X71374714Y-82708857D01*
X71410428Y-82744571D01*
X71481857Y-82780285D01*
X71553285Y-82780285D01*
X71624714Y-82744571D01*
X71660428Y-82708857D01*
X71696142Y-82637428D01*
X71731857Y-82494571D01*
X71731857Y-82316000D01*
X71696142Y-82173142D01*
X71660428Y-82101714D01*
X71624714Y-82066000D01*
X71553285Y-82030285D01*
X70981857Y-82780285D02*
X70981857Y-82280285D01*
X70981857Y-82351714D02*
X70946142Y-82316000D01*
X70874714Y-82280285D01*
X70767571Y-82280285D01*
X70696142Y-82316000D01*
X70660428Y-82387428D01*
X70660428Y-82780285D01*
X70660428Y-82387428D02*
X70624714Y-82316000D01*
X70553285Y-82280285D01*
X70446142Y-82280285D01*
X70374714Y-82316000D01*
X70339000Y-82387428D01*
X70339000Y-82780285D01*
X69981857Y-82494571D02*
X69410428Y-82494571D01*
X69053285Y-82494571D02*
X68481857Y-82494571D01*
X68124714Y-82494571D02*
X67553285Y-82494571D01*
X67196142Y-82494571D02*
X66624714Y-82494571D01*
X66267571Y-82494571D02*
X65696142Y-82494571D01*
X65338999Y-82494571D02*
X64767571Y-82494571D01*
X64410428Y-82494571D02*
X63838999Y-82494571D01*
X63124714Y-82030285D02*
X63481857Y-82030285D01*
X63517571Y-82387428D01*
X63481857Y-82351714D01*
X63410428Y-82316000D01*
X63231857Y-82316000D01*
X63160428Y-82351714D01*
X63124714Y-82387428D01*
X63088999Y-82458857D01*
X63088999Y-82637428D01*
X63124714Y-82708857D01*
X63160428Y-82744571D01*
X63231857Y-82780285D01*
X63410428Y-82780285D01*
X63481857Y-82744571D01*
X63517571Y-82708857D01*
X62838999Y-82030285D02*
X62338999Y-82030285D01*
X62660428Y-82780285D01*
X62053285Y-82708857D02*
X62017571Y-82744571D01*
X62053285Y-82780285D01*
X62088999Y-82744571D01*
X62053285Y-82708857D01*
X62053285Y-82780285D01*
X61374714Y-82280285D02*
X61374714Y-82780285D01*
X61553285Y-81994571D02*
X61731857Y-82530285D01*
X61267571Y-82530285D01*
X60660428Y-82280285D02*
X60660428Y-82780285D01*
X60838999Y-81994571D02*
X61017571Y-82530285D01*
X60553285Y-82530285D01*
X60267571Y-82780285D02*
X60267571Y-82030285D01*
X59838999Y-82780285D02*
X60160428Y-82351714D01*
X59838999Y-82030285D02*
X60267571Y-82458857D01*
X72017571Y-84025285D02*
X72446142Y-84025285D01*
X72231857Y-84025285D02*
X72231857Y-83275285D01*
X72303285Y-83382428D01*
X72374714Y-83453857D01*
X72446142Y-83489571D01*
X71696142Y-84025285D02*
X71696142Y-83275285D01*
X71374714Y-84025285D02*
X71374714Y-83632428D01*
X71410428Y-83561000D01*
X71481857Y-83525285D01*
X71589000Y-83525285D01*
X71660428Y-83561000D01*
X71696142Y-83596714D01*
X71017571Y-83739571D02*
X70446142Y-83739571D01*
X70089000Y-83739571D02*
X69517571Y-83739571D01*
X69160428Y-83739571D02*
X68589000Y-83739571D01*
X68231857Y-83739571D02*
X67660428Y-83739571D01*
X67303285Y-83739571D02*
X66731857Y-83739571D01*
X66374714Y-83739571D02*
X65803285Y-83739571D01*
X65446142Y-83739571D02*
X64874714Y-83739571D01*
X64517571Y-83739571D02*
X63946142Y-83739571D01*
X63196142Y-84025285D02*
X63624714Y-84025285D01*
X63410428Y-84025285D02*
X63410428Y-83275285D01*
X63481857Y-83382428D01*
X63553285Y-83453857D01*
X63624714Y-83489571D01*
X62910428Y-83346714D02*
X62874714Y-83311000D01*
X62803285Y-83275285D01*
X62624714Y-83275285D01*
X62553285Y-83311000D01*
X62517571Y-83346714D01*
X62481857Y-83418142D01*
X62481857Y-83489571D01*
X62517571Y-83596714D01*
X62946142Y-84025285D01*
X62481857Y-84025285D01*
X61838999Y-83525285D02*
X61838999Y-84025285D01*
X62017571Y-83239571D02*
X62196142Y-83775285D01*
X61731857Y-83775285D01*
X61446142Y-83953857D02*
X61410428Y-83989571D01*
X61446142Y-84025285D01*
X61481857Y-83989571D01*
X61446142Y-83953857D01*
X61446142Y-84025285D01*
X61053285Y-84025285D02*
X60910428Y-84025285D01*
X60838999Y-83989571D01*
X60803285Y-83953857D01*
X60731857Y-83846714D01*
X60696142Y-83703857D01*
X60696142Y-83418142D01*
X60731857Y-83346714D01*
X60767571Y-83311000D01*
X60838999Y-83275285D01*
X60981857Y-83275285D01*
X61053285Y-83311000D01*
X61088999Y-83346714D01*
X61124714Y-83418142D01*
X61124714Y-83596714D01*
X61088999Y-83668142D01*
X61053285Y-83703857D01*
X60981857Y-83739571D01*
X60838999Y-83739571D01*
X60767571Y-83703857D01*
X60731857Y-83668142D01*
X60696142Y-83596714D01*
X59981857Y-84025285D02*
X60410428Y-84025285D01*
X60196142Y-84025285D02*
X60196142Y-83275285D01*
X60267571Y-83382428D01*
X60338999Y-83453857D01*
X60410428Y-83489571D01*
X59660428Y-84025285D02*
X59660428Y-83275285D01*
X59231857Y-84025285D02*
X59553285Y-83596714D01*
X59231857Y-83275285D02*
X59660428Y-83703857D01*
X57072500Y-86896000D02*
X58472500Y-86896000D01*
X59172500Y-86196000D02*
X59172500Y-85596000D01*
X58472500Y-84896000D02*
X57072500Y-84896000D01*
X56372500Y-85596000D02*
X56372500Y-86196000D01*
X56372500Y-86196000D02*
G75*
G03X57072500Y-86896000I700000J0D01*
G01*
X57072500Y-84896000D02*
G75*
G03X56372500Y-85596000I0J-700000D01*
G01*
X59172500Y-85596000D02*
G75*
G03X58472500Y-84896000I-700000J0D01*
G01*
X58472500Y-86896000D02*
G75*
G03X59172500Y-86196000I0J700000D01*
G01*
X74665000Y-89976000D02*
X73265000Y-89976000D01*
X72565000Y-90676000D02*
X72565000Y-91276000D01*
X73265000Y-91976000D02*
X74665000Y-91976000D01*
X75365000Y-91276000D02*
X75365000Y-90676000D01*
X75365000Y-90676000D02*
G75*
G03X74665000Y-89976000I-700000J0D01*
G01*
X74665000Y-91976000D02*
G75*
G03X75365000Y-91276000I0J700000D01*
G01*
X72565000Y-91276000D02*
G75*
G03X73265000Y-91976000I700000J0D01*
G01*
X73265000Y-89976000D02*
G75*
G03X72565000Y-90676000I0J-700000D01*
G01*
X73265000Y-89436000D02*
X74665000Y-89436000D01*
X75365000Y-88736000D02*
X75365000Y-88136000D01*
X74665000Y-87436000D02*
X73265000Y-87436000D01*
X72565000Y-88136000D02*
X72565000Y-88736000D01*
X72565000Y-88736000D02*
G75*
G03X73265000Y-89436000I700000J0D01*
G01*
X73265000Y-87436000D02*
G75*
G03X72565000Y-88136000I0J-700000D01*
G01*
X75365000Y-88136000D02*
G75*
G03X74665000Y-87436000I-700000J0D01*
G01*
X74665000Y-89436000D02*
G75*
G03X75365000Y-88736000I0J700000D01*
G01*
D11*
X67503380Y-85824571D02*
X67170047Y-85824571D01*
X67027190Y-86348380D02*
X67503380Y-86348380D01*
X67503380Y-85348380D01*
X67027190Y-85348380D01*
X66646238Y-86300761D02*
X66503380Y-86348380D01*
X66265285Y-86348380D01*
X66170047Y-86300761D01*
X66122428Y-86253142D01*
X66074809Y-86157904D01*
X66074809Y-86062666D01*
X66122428Y-85967428D01*
X66170047Y-85919809D01*
X66265285Y-85872190D01*
X66455761Y-85824571D01*
X66551000Y-85776952D01*
X66598619Y-85729333D01*
X66646238Y-85634095D01*
X66646238Y-85538857D01*
X66598619Y-85443619D01*
X66551000Y-85396000D01*
X66455761Y-85348380D01*
X66217666Y-85348380D01*
X66074809Y-85396000D01*
X65646238Y-86348380D02*
X65646238Y-85348380D01*
X65265285Y-85348380D01*
X65170047Y-85396000D01*
X65122428Y-85443619D01*
X65074809Y-85538857D01*
X65074809Y-85681714D01*
X65122428Y-85776952D01*
X65170047Y-85824571D01*
X65265285Y-85872190D01*
X65646238Y-85872190D01*
X64741476Y-85348380D02*
X64122428Y-85348380D01*
X64455761Y-85729333D01*
X64312904Y-85729333D01*
X64217666Y-85776952D01*
X64170047Y-85824571D01*
X64122428Y-85919809D01*
X64122428Y-86157904D01*
X64170047Y-86253142D01*
X64217666Y-86300761D01*
X64312904Y-86348380D01*
X64598619Y-86348380D01*
X64693857Y-86300761D01*
X64741476Y-86253142D01*
X63741476Y-85443619D02*
X63693857Y-85396000D01*
X63598619Y-85348380D01*
X63360523Y-85348380D01*
X63265285Y-85396000D01*
X63217666Y-85443619D01*
X63170047Y-85538857D01*
X63170047Y-85634095D01*
X63217666Y-85776952D01*
X63789095Y-86348380D01*
X63170047Y-86348380D01*
X62027190Y-86062666D02*
X61550999Y-86062666D01*
X62122428Y-86348380D02*
X61789095Y-85348380D01*
X61455761Y-86348380D01*
X61122428Y-86348380D02*
X61122428Y-85348380D01*
X60884333Y-85348380D01*
X60741476Y-85396000D01*
X60646238Y-85491238D01*
X60598619Y-85586476D01*
X60550999Y-85776952D01*
X60550999Y-85919809D01*
X60598619Y-86110285D01*
X60646238Y-86205523D01*
X60741476Y-86300761D01*
X60884333Y-86348380D01*
X61122428Y-86348380D01*
X59550999Y-86253142D02*
X59598619Y-86300761D01*
X59741476Y-86348380D01*
X59836714Y-86348380D01*
X59979571Y-86300761D01*
X60074809Y-86205523D01*
X60122428Y-86110285D01*
X60170047Y-85919809D01*
X60170047Y-85776952D01*
X60122428Y-85586476D01*
X60074809Y-85491238D01*
X59979571Y-85396000D01*
X59836714Y-85348380D01*
X59741476Y-85348380D01*
X59598619Y-85396000D01*
X59550999Y-85443619D01*
X72043523Y-90428380D02*
X71805428Y-91428380D01*
X71614952Y-90714095D01*
X71424476Y-91428380D01*
X71186380Y-90428380D01*
X70424476Y-91380761D02*
X70519714Y-91428380D01*
X70710190Y-91428380D01*
X70805428Y-91380761D01*
X70853047Y-91285523D01*
X70853047Y-90904571D01*
X70805428Y-90809333D01*
X70710190Y-90761714D01*
X70519714Y-90761714D01*
X70424476Y-90809333D01*
X70376857Y-90904571D01*
X70376857Y-90999809D01*
X70853047Y-91095047D01*
X69948285Y-91428380D02*
X69948285Y-90761714D01*
X69948285Y-90856952D02*
X69900666Y-90809333D01*
X69805428Y-90761714D01*
X69662571Y-90761714D01*
X69567333Y-90809333D01*
X69519714Y-90904571D01*
X69519714Y-91428380D01*
X69519714Y-90904571D02*
X69472095Y-90809333D01*
X69376857Y-90761714D01*
X69234000Y-90761714D01*
X69138761Y-90809333D01*
X69091142Y-90904571D01*
X69091142Y-91428380D01*
X68472095Y-91428380D02*
X68567333Y-91380761D01*
X68614952Y-91333142D01*
X68662571Y-91237904D01*
X68662571Y-90952190D01*
X68614952Y-90856952D01*
X68567333Y-90809333D01*
X68472095Y-90761714D01*
X68329238Y-90761714D01*
X68234000Y-90809333D01*
X68186380Y-90856952D01*
X68138761Y-90952190D01*
X68138761Y-91237904D01*
X68186380Y-91333142D01*
X68234000Y-91380761D01*
X68329238Y-91428380D01*
X68472095Y-91428380D01*
X67757809Y-91380761D02*
X67662571Y-91428380D01*
X67472095Y-91428380D01*
X67376857Y-91380761D01*
X67329238Y-91285523D01*
X67329238Y-91237904D01*
X67376857Y-91142666D01*
X67472095Y-91095047D01*
X67614952Y-91095047D01*
X67710190Y-91047428D01*
X67757809Y-90952190D01*
X67757809Y-90904571D01*
X67710190Y-90809333D01*
X67614952Y-90761714D01*
X67472095Y-90761714D01*
X67376857Y-90809333D01*
X66186380Y-91380761D02*
X66043523Y-91428380D01*
X65805428Y-91428380D01*
X65710190Y-91380761D01*
X65662571Y-91333142D01*
X65614952Y-91237904D01*
X65614952Y-91142666D01*
X65662571Y-91047428D01*
X65710190Y-90999809D01*
X65805428Y-90952190D01*
X65995904Y-90904571D01*
X66091142Y-90856952D01*
X66138761Y-90809333D01*
X66186380Y-90714095D01*
X66186380Y-90618857D01*
X66138761Y-90523619D01*
X66091142Y-90476000D01*
X65995904Y-90428380D01*
X65757809Y-90428380D01*
X65614952Y-90476000D01*
X65043523Y-91428380D02*
X65138761Y-91380761D01*
X65186380Y-91285523D01*
X65186380Y-90428380D01*
X64281619Y-91380761D02*
X64376857Y-91428380D01*
X64567333Y-91428380D01*
X64662571Y-91380761D01*
X64710190Y-91285523D01*
X64710190Y-90904571D01*
X64662571Y-90809333D01*
X64567333Y-90761714D01*
X64376857Y-90761714D01*
X64281619Y-90809333D01*
X64234000Y-90904571D01*
X64234000Y-90999809D01*
X64710190Y-91095047D01*
X63424476Y-91380761D02*
X63519714Y-91428380D01*
X63710190Y-91428380D01*
X63805428Y-91380761D01*
X63853047Y-91285523D01*
X63853047Y-90904571D01*
X63805428Y-90809333D01*
X63710190Y-90761714D01*
X63519714Y-90761714D01*
X63424476Y-90809333D01*
X63376857Y-90904571D01*
X63376857Y-90999809D01*
X63853047Y-91095047D01*
X62948285Y-90761714D02*
X62948285Y-91761714D01*
X62948285Y-90809333D02*
X62853047Y-90761714D01*
X62662571Y-90761714D01*
X62567333Y-90809333D01*
X62519714Y-90856952D01*
X62472095Y-90952190D01*
X62472095Y-91237904D01*
X62519714Y-91333142D01*
X62567333Y-91380761D01*
X62662571Y-91428380D01*
X62853047Y-91428380D01*
X62948285Y-91380761D01*
X72249976Y-87888380D02*
X72011880Y-88888380D01*
X71821404Y-88174095D01*
X71630928Y-88888380D01*
X71392833Y-87888380D01*
X70630928Y-88840761D02*
X70726166Y-88888380D01*
X70916642Y-88888380D01*
X71011880Y-88840761D01*
X71059500Y-88745523D01*
X71059500Y-88364571D01*
X71011880Y-88269333D01*
X70916642Y-88221714D01*
X70726166Y-88221714D01*
X70630928Y-88269333D01*
X70583309Y-88364571D01*
X70583309Y-88459809D01*
X71059500Y-88555047D01*
X70154738Y-88888380D02*
X70154738Y-88221714D01*
X70154738Y-88316952D02*
X70107119Y-88269333D01*
X70011880Y-88221714D01*
X69869023Y-88221714D01*
X69773785Y-88269333D01*
X69726166Y-88364571D01*
X69726166Y-88888380D01*
X69726166Y-88364571D02*
X69678547Y-88269333D01*
X69583309Y-88221714D01*
X69440452Y-88221714D01*
X69345214Y-88269333D01*
X69297595Y-88364571D01*
X69297595Y-88888380D01*
X68678547Y-88888380D02*
X68773785Y-88840761D01*
X68821404Y-88793142D01*
X68869023Y-88697904D01*
X68869023Y-88412190D01*
X68821404Y-88316952D01*
X68773785Y-88269333D01*
X68678547Y-88221714D01*
X68535690Y-88221714D01*
X68440452Y-88269333D01*
X68392833Y-88316952D01*
X68345214Y-88412190D01*
X68345214Y-88697904D01*
X68392833Y-88793142D01*
X68440452Y-88840761D01*
X68535690Y-88888380D01*
X68678547Y-88888380D01*
X67964261Y-88840761D02*
X67869023Y-88888380D01*
X67678547Y-88888380D01*
X67583309Y-88840761D01*
X67535690Y-88745523D01*
X67535690Y-88697904D01*
X67583309Y-88602666D01*
X67678547Y-88555047D01*
X67821404Y-88555047D01*
X67916642Y-88507428D01*
X67964261Y-88412190D01*
X67964261Y-88364571D01*
X67916642Y-88269333D01*
X67821404Y-88221714D01*
X67678547Y-88221714D01*
X67583309Y-88269333D01*
X66392833Y-88602666D02*
X65916642Y-88602666D01*
X66488071Y-88888380D02*
X66154738Y-87888380D01*
X65821404Y-88888380D01*
X65488071Y-88888380D02*
X65488071Y-87888380D01*
X65249976Y-87888380D01*
X65107119Y-87936000D01*
X65011880Y-88031238D01*
X64964261Y-88126476D01*
X64916642Y-88316952D01*
X64916642Y-88459809D01*
X64964261Y-88650285D01*
X65011880Y-88745523D01*
X65107119Y-88840761D01*
X65249976Y-88888380D01*
X65488071Y-88888380D01*
X63916642Y-88793142D02*
X63964261Y-88840761D01*
X64107119Y-88888380D01*
X64202357Y-88888380D01*
X64345214Y-88840761D01*
X64440452Y-88745523D01*
X64488071Y-88650285D01*
X64535690Y-88459809D01*
X64535690Y-88316952D01*
X64488071Y-88126476D01*
X64440452Y-88031238D01*
X64345214Y-87936000D01*
X64202357Y-87888380D01*
X64107119Y-87888380D01*
X63964261Y-87936000D01*
X63916642Y-87983619D01*
M02*
