G04 #@! TF.GenerationSoftware,KiCad,Pcbnew,(5.1.2)-2*
G04 #@! TF.CreationDate,2019-08-28T15:44:57+02:00*
G04 #@! TF.ProjectId,esp_pmc,6573705f-706d-4632-9e6b-696361645f70,0.0.1*
G04 #@! TF.SameCoordinates,Original*
G04 #@! TF.FileFunction,Legend,Top*
G04 #@! TF.FilePolarity,Positive*
%FSLAX46Y46*%
G04 Gerber Fmt 4.6, Leading zero omitted, Abs format (unit mm)*
G04 Created by KiCad (PCBNEW (5.1.2)-2) date 2019-08-28 15:44:57*
%MOMM*%
%LPD*%
G04 APERTURE LIST*
%ADD10C,0.120000*%
%ADD11C,0.175000*%
%ADD12C,0.125000*%
%ADD13C,0.150000*%
G04 APERTURE END LIST*
D10*
X56209857Y-76035285D02*
X55638428Y-76249571D01*
X56209857Y-76463857D01*
X56959857Y-75821000D02*
X56888428Y-75785285D01*
X56781285Y-75785285D01*
X56674142Y-75821000D01*
X56602714Y-75892428D01*
X56567000Y-75963857D01*
X56531285Y-76106714D01*
X56531285Y-76213857D01*
X56567000Y-76356714D01*
X56602714Y-76428142D01*
X56674142Y-76499571D01*
X56781285Y-76535285D01*
X56852714Y-76535285D01*
X56959857Y-76499571D01*
X56995571Y-76463857D01*
X56995571Y-76213857D01*
X56852714Y-76213857D01*
X57317000Y-76535285D02*
X57317000Y-75785285D01*
X57745571Y-76535285D01*
X57745571Y-75785285D01*
X58102714Y-76535285D02*
X58102714Y-75785285D01*
X58281285Y-75785285D01*
X58388428Y-75821000D01*
X58459857Y-75892428D01*
X58495571Y-75963857D01*
X58531285Y-76106714D01*
X58531285Y-76213857D01*
X58495571Y-76356714D01*
X58459857Y-76428142D01*
X58388428Y-76499571D01*
X58281285Y-76535285D01*
X58102714Y-76535285D01*
X72281285Y-72385285D02*
X72531285Y-73135285D01*
X72781285Y-72385285D01*
X73174142Y-72385285D02*
X73317000Y-72385285D01*
X73388428Y-72421000D01*
X73459857Y-72492428D01*
X73495571Y-72635285D01*
X73495571Y-72885285D01*
X73459857Y-73028142D01*
X73388428Y-73099571D01*
X73317000Y-73135285D01*
X73174142Y-73135285D01*
X73102714Y-73099571D01*
X73031285Y-73028142D01*
X72995571Y-72885285D01*
X72995571Y-72635285D01*
X73031285Y-72492428D01*
X73102714Y-72421000D01*
X73174142Y-72385285D01*
X73817000Y-72385285D02*
X73817000Y-72992428D01*
X73852714Y-73063857D01*
X73888428Y-73099571D01*
X73959857Y-73135285D01*
X74102714Y-73135285D01*
X74174142Y-73099571D01*
X74209857Y-73063857D01*
X74245571Y-72992428D01*
X74245571Y-72385285D01*
X74495571Y-72385285D02*
X74924142Y-72385285D01*
X74709857Y-73135285D02*
X74709857Y-72385285D01*
X75174142Y-72635285D02*
X75745571Y-72849571D01*
X75174142Y-73063857D01*
D11*
X62695571Y-91621000D02*
X62624142Y-91585285D01*
X62517000Y-91585285D01*
X62409857Y-91621000D01*
X62338428Y-91692428D01*
X62302714Y-91763857D01*
X62267000Y-91906714D01*
X62267000Y-92013857D01*
X62302714Y-92156714D01*
X62338428Y-92228142D01*
X62409857Y-92299571D01*
X62517000Y-92335285D01*
X62588428Y-92335285D01*
X62695571Y-92299571D01*
X62731285Y-92263857D01*
X62731285Y-92013857D01*
X62588428Y-92013857D01*
X63052714Y-92335285D02*
X63052714Y-91585285D01*
X63481285Y-92335285D01*
X63481285Y-91585285D01*
X63838428Y-92335285D02*
X63838428Y-91585285D01*
X64017000Y-91585285D01*
X64124142Y-91621000D01*
X64195571Y-91692428D01*
X64231285Y-91763857D01*
X64267000Y-91906714D01*
X64267000Y-92013857D01*
X64231285Y-92156714D01*
X64195571Y-92228142D01*
X64124142Y-92299571D01*
X64017000Y-92335285D01*
X63838428Y-92335285D01*
D10*
X71695571Y-76321000D02*
X71624142Y-76285285D01*
X71517000Y-76285285D01*
X71409857Y-76321000D01*
X71338428Y-76392428D01*
X71302714Y-76463857D01*
X71267000Y-76606714D01*
X71267000Y-76713857D01*
X71302714Y-76856714D01*
X71338428Y-76928142D01*
X71409857Y-76999571D01*
X71517000Y-77035285D01*
X71588428Y-77035285D01*
X71695571Y-76999571D01*
X71731285Y-76963857D01*
X71731285Y-76713857D01*
X71588428Y-76713857D01*
X72052714Y-77035285D02*
X72052714Y-76285285D01*
X72481285Y-77035285D01*
X72481285Y-76285285D01*
X72838428Y-77035285D02*
X72838428Y-76285285D01*
X73017000Y-76285285D01*
X73124142Y-76321000D01*
X73195571Y-76392428D01*
X73231285Y-76463857D01*
X73267000Y-76606714D01*
X73267000Y-76713857D01*
X73231285Y-76856714D01*
X73195571Y-76928142D01*
X73124142Y-76999571D01*
X73017000Y-77035285D01*
X72838428Y-77035285D01*
X61356285Y-75713857D02*
X62106285Y-75463857D01*
X61356285Y-75213857D01*
X61713428Y-74713857D02*
X61749142Y-74606714D01*
X61784857Y-74571000D01*
X61856285Y-74535285D01*
X61963428Y-74535285D01*
X62034857Y-74571000D01*
X62070571Y-74606714D01*
X62106285Y-74678142D01*
X62106285Y-74963857D01*
X61356285Y-74963857D01*
X61356285Y-74713857D01*
X61392000Y-74642428D01*
X61427714Y-74606714D01*
X61499142Y-74571000D01*
X61570571Y-74571000D01*
X61642000Y-74606714D01*
X61677714Y-74642428D01*
X61713428Y-74713857D01*
X61713428Y-74963857D01*
X61892000Y-74249571D02*
X61892000Y-73892428D01*
X62106285Y-74321000D02*
X61356285Y-74071000D01*
X62106285Y-73821000D01*
X61356285Y-73678142D02*
X61356285Y-73249571D01*
X62106285Y-73463857D02*
X61356285Y-73463857D01*
X61356285Y-73106714D02*
X61356285Y-72678142D01*
X62106285Y-72892428D02*
X61356285Y-72892428D01*
X68356285Y-75713857D02*
X69106285Y-75463857D01*
X68356285Y-75213857D01*
X68713428Y-74713857D02*
X68749142Y-74606714D01*
X68784857Y-74571000D01*
X68856285Y-74535285D01*
X68963428Y-74535285D01*
X69034857Y-74571000D01*
X69070571Y-74606714D01*
X69106285Y-74678142D01*
X69106285Y-74963857D01*
X68356285Y-74963857D01*
X68356285Y-74713857D01*
X68392000Y-74642428D01*
X68427714Y-74606714D01*
X68499142Y-74571000D01*
X68570571Y-74571000D01*
X68642000Y-74606714D01*
X68677714Y-74642428D01*
X68713428Y-74713857D01*
X68713428Y-74963857D01*
X68892000Y-74249571D02*
X68892000Y-73892428D01*
X69106285Y-74321000D02*
X68356285Y-74071000D01*
X69106285Y-73821000D01*
X68356285Y-73678142D02*
X68356285Y-73249571D01*
X69106285Y-73463857D02*
X68356285Y-73463857D01*
X68356285Y-73106714D02*
X68356285Y-72678142D01*
X69106285Y-72892428D02*
X68356285Y-72892428D01*
D12*
X67717000Y-91196000D02*
G75*
G03X67717000Y-91196000I-1450000J0D01*
G01*
X62717000Y-78896000D02*
G75*
G03X62717000Y-78896000I-700000J0D01*
G01*
X73637000Y-74466000D02*
G75*
G03X73637000Y-74466000I-1450000J0D01*
G01*
X67668000Y-74466000D02*
G75*
G03X67668000Y-74466000I-1450000J0D01*
G01*
X60937000Y-74466000D02*
G75*
G03X60937000Y-74466000I-1450000J0D01*
G01*
X53077000Y-74466000D02*
X55737000Y-74466000D01*
X53077000Y-74466000D02*
X53077000Y-92306000D01*
X53077000Y-92306000D02*
X55737000Y-92306000D01*
X55737000Y-74466000D02*
X55737000Y-92306000D01*
X55737000Y-71866000D02*
X55737000Y-73196000D01*
X54407000Y-71866000D02*
X55737000Y-71866000D01*
X77267000Y-92326000D02*
X75937000Y-92326000D01*
X75937000Y-92326000D02*
X75937000Y-90996000D01*
X75937000Y-89726000D02*
X75937000Y-71886000D01*
X78597000Y-71886000D02*
X75937000Y-71886000D01*
X78597000Y-89726000D02*
X78597000Y-71886000D01*
X78597000Y-89726000D02*
X75937000Y-89726000D01*
X61097000Y-82440000D02*
X61097000Y-79990000D01*
X57877000Y-80640000D02*
X57877000Y-82440000D01*
X66795571Y-89278000D02*
G75*
G03X66795571Y-89278000I-125000J0D01*
G01*
X67867000Y-80696000D02*
X67867000Y-79996000D01*
X67167000Y-80696000D02*
X67867000Y-80696000D01*
X63367000Y-77296000D02*
X63367000Y-77896000D01*
X66267000Y-77296000D02*
X63367000Y-77296000D01*
X63367000Y-80496000D02*
X63367000Y-79896000D01*
X66267000Y-80496000D02*
X63367000Y-80496000D01*
X67367000Y-79096000D02*
X67367000Y-78696000D01*
X57577000Y-82254578D02*
X57577000Y-81737422D01*
X56157000Y-82254578D02*
X56157000Y-81737422D01*
X69957000Y-86894422D02*
X69957000Y-87411578D01*
X71377000Y-86894422D02*
X71377000Y-87411578D01*
X74057000Y-86894422D02*
X74057000Y-87411578D01*
X75477000Y-86894422D02*
X75477000Y-87411578D01*
X71864142Y-86894422D02*
X71864142Y-87411578D01*
X73284142Y-86894422D02*
X73284142Y-87411578D01*
X67807000Y-86894422D02*
X67807000Y-87411578D01*
X69227000Y-86894422D02*
X69227000Y-87411578D01*
X66767000Y-81296000D02*
X63767000Y-81296000D01*
X66767000Y-84496000D02*
X63767000Y-84496000D01*
X70567000Y-90230000D02*
X71967000Y-90230000D01*
X72667000Y-90930000D02*
X72667000Y-91530000D01*
X71967000Y-92230000D02*
X70567000Y-92230000D01*
X69867000Y-91530000D02*
X69867000Y-90930000D01*
X69867000Y-90930000D02*
G75*
G02X70567000Y-90230000I700000J0D01*
G01*
X70567000Y-92230000D02*
G75*
G02X69867000Y-91530000I0J700000D01*
G01*
X72667000Y-91530000D02*
G75*
G02X71967000Y-92230000I-700000J0D01*
G01*
X71967000Y-90230000D02*
G75*
G02X72667000Y-90930000I0J-700000D01*
G01*
X59745578Y-77528000D02*
X59228422Y-77528000D01*
X59745578Y-78948000D02*
X59228422Y-78948000D01*
X74143000Y-82296578D02*
X74143000Y-81779422D01*
X72723000Y-82296578D02*
X72723000Y-81779422D01*
X72111000Y-82296578D02*
X72111000Y-81779422D01*
X70691000Y-82296578D02*
X70691000Y-81779422D01*
X69976000Y-82266578D02*
X69976000Y-81749422D01*
X68556000Y-82266578D02*
X68556000Y-81749422D01*
X56307000Y-86894422D02*
X56307000Y-87411578D01*
X57727000Y-86894422D02*
X57727000Y-87411578D01*
X58499857Y-86894422D02*
X58499857Y-87411578D01*
X59919857Y-86894422D02*
X59919857Y-87411578D01*
X60692714Y-86894422D02*
X60692714Y-87411578D01*
X62112714Y-86894422D02*
X62112714Y-87411578D01*
D13*
X62356285Y-77413857D02*
X61999142Y-77663857D01*
X62356285Y-77842428D02*
X61606285Y-77842428D01*
X61606285Y-77556714D01*
X61642000Y-77485285D01*
X61677714Y-77449571D01*
X61749142Y-77413857D01*
X61856285Y-77413857D01*
X61927714Y-77449571D01*
X61963428Y-77485285D01*
X61999142Y-77556714D01*
X61999142Y-77842428D01*
X56195571Y-78985285D02*
X56195571Y-79592428D01*
X56231285Y-79663857D01*
X56267000Y-79699571D01*
X56338428Y-79735285D01*
X56481285Y-79735285D01*
X56552714Y-79699571D01*
X56588428Y-79663857D01*
X56624142Y-79592428D01*
X56624142Y-78985285D01*
X56945571Y-79056714D02*
X56981285Y-79021000D01*
X57052714Y-78985285D01*
X57231285Y-78985285D01*
X57302714Y-79021000D01*
X57338428Y-79056714D01*
X57374142Y-79128142D01*
X57374142Y-79199571D01*
X57338428Y-79306714D01*
X56909857Y-79735285D01*
X57374142Y-79735285D01*
D12*
X62662142Y-89485285D02*
X62662142Y-90092428D01*
X62697856Y-90163857D01*
X62733571Y-90199571D01*
X62804999Y-90235285D01*
X62947856Y-90235285D01*
X63019285Y-90199571D01*
X63054999Y-90163857D01*
X63090713Y-90092428D01*
X63090713Y-89485285D01*
X63840713Y-90235285D02*
X63412142Y-90235285D01*
X63626428Y-90235285D02*
X63626428Y-89485285D01*
X63554999Y-89592428D01*
X63483571Y-89663857D01*
X63412142Y-89699571D01*
D13*
X63620571Y-76735285D02*
X63370571Y-76378142D01*
X63192000Y-76735285D02*
X63192000Y-75985285D01*
X63477714Y-75985285D01*
X63549142Y-76021000D01*
X63584857Y-76056714D01*
X63620571Y-76128142D01*
X63620571Y-76235285D01*
X63584857Y-76306714D01*
X63549142Y-76342428D01*
X63477714Y-76378142D01*
X63192000Y-76378142D01*
X63834857Y-75985285D02*
X64084857Y-76735285D01*
X64334857Y-75985285D01*
X64977714Y-76735285D02*
X64549142Y-76735285D01*
X64763428Y-76735285D02*
X64763428Y-75985285D01*
X64692000Y-76092428D01*
X64620571Y-76163857D01*
X64549142Y-76199571D01*
X57206285Y-84521000D02*
X56849142Y-84771000D01*
X57206285Y-84949571D02*
X56456285Y-84949571D01*
X56456285Y-84663857D01*
X56492000Y-84592428D01*
X56527714Y-84556714D01*
X56599142Y-84521000D01*
X56706285Y-84521000D01*
X56777714Y-84556714D01*
X56813428Y-84592428D01*
X56849142Y-84663857D01*
X56849142Y-84949571D01*
X56456285Y-83842428D02*
X56456285Y-84199571D01*
X56813428Y-84235285D01*
X56777714Y-84199571D01*
X56742000Y-84128142D01*
X56742000Y-83949571D01*
X56777714Y-83878142D01*
X56813428Y-83842428D01*
X56884857Y-83806714D01*
X57063428Y-83806714D01*
X57134857Y-83842428D01*
X57170571Y-83878142D01*
X57206285Y-83949571D01*
X57206285Y-84128142D01*
X57170571Y-84199571D01*
X57134857Y-84235285D01*
X71006285Y-84778000D02*
X70649142Y-85028000D01*
X71006285Y-85206571D02*
X70256285Y-85206571D01*
X70256285Y-84920857D01*
X70292000Y-84849428D01*
X70327714Y-84813714D01*
X70399142Y-84778000D01*
X70506285Y-84778000D01*
X70577714Y-84813714D01*
X70613428Y-84849428D01*
X70649142Y-84920857D01*
X70649142Y-85206571D01*
X70506285Y-84135142D02*
X71006285Y-84135142D01*
X70220571Y-84313714D02*
X70756285Y-84492285D01*
X70756285Y-84028000D01*
X75106285Y-84778000D02*
X74749142Y-85028000D01*
X75106285Y-85206571D02*
X74356285Y-85206571D01*
X74356285Y-84920857D01*
X74392000Y-84849428D01*
X74427714Y-84813714D01*
X74499142Y-84778000D01*
X74606285Y-84778000D01*
X74677714Y-84813714D01*
X74713428Y-84849428D01*
X74749142Y-84920857D01*
X74749142Y-85206571D01*
X74356285Y-84528000D02*
X74356285Y-84063714D01*
X74642000Y-84313714D01*
X74642000Y-84206571D01*
X74677714Y-84135142D01*
X74713428Y-84099428D01*
X74784857Y-84063714D01*
X74963428Y-84063714D01*
X75034857Y-84099428D01*
X75070571Y-84135142D01*
X75106285Y-84206571D01*
X75106285Y-84420857D01*
X75070571Y-84492285D01*
X75034857Y-84528000D01*
X73006285Y-84821000D02*
X72649142Y-85071000D01*
X73006285Y-85249571D02*
X72256285Y-85249571D01*
X72256285Y-84963857D01*
X72292000Y-84892428D01*
X72327714Y-84856714D01*
X72399142Y-84821000D01*
X72506285Y-84821000D01*
X72577714Y-84856714D01*
X72613428Y-84892428D01*
X72649142Y-84963857D01*
X72649142Y-85249571D01*
X72327714Y-84535285D02*
X72292000Y-84499571D01*
X72256285Y-84428142D01*
X72256285Y-84249571D01*
X72292000Y-84178142D01*
X72327714Y-84142428D01*
X72399142Y-84106714D01*
X72470571Y-84106714D01*
X72577714Y-84142428D01*
X73006285Y-84571000D01*
X73006285Y-84106714D01*
X68856285Y-84778000D02*
X68499142Y-85028000D01*
X68856285Y-85206571D02*
X68106285Y-85206571D01*
X68106285Y-84920857D01*
X68142000Y-84849428D01*
X68177714Y-84813714D01*
X68249142Y-84778000D01*
X68356285Y-84778000D01*
X68427714Y-84813714D01*
X68463428Y-84849428D01*
X68499142Y-84920857D01*
X68499142Y-85206571D01*
X68856285Y-84063714D02*
X68856285Y-84492285D01*
X68856285Y-84278000D02*
X68106285Y-84278000D01*
X68213428Y-84349428D01*
X68284857Y-84420857D01*
X68320571Y-84492285D01*
X62348000Y-81965285D02*
X61990857Y-81965285D01*
X61990857Y-81215285D01*
X62990857Y-81965285D02*
X62562285Y-81965285D01*
X62776571Y-81965285D02*
X62776571Y-81215285D01*
X62705142Y-81322428D01*
X62633714Y-81393857D01*
X62562285Y-81429571D01*
X73223714Y-91283571D02*
X73795142Y-91283571D01*
X73509428Y-91569285D02*
X73509428Y-90997857D01*
X74509428Y-90819285D02*
X74152285Y-90819285D01*
X74116571Y-91176428D01*
X74152285Y-91140714D01*
X74223714Y-91105000D01*
X74402285Y-91105000D01*
X74473714Y-91140714D01*
X74509428Y-91176428D01*
X74545142Y-91247857D01*
X74545142Y-91426428D01*
X74509428Y-91497857D01*
X74473714Y-91533571D01*
X74402285Y-91569285D01*
X74223714Y-91569285D01*
X74152285Y-91533571D01*
X74116571Y-91497857D01*
X74759428Y-90819285D02*
X75009428Y-91569285D01*
X75259428Y-90819285D01*
X56642000Y-78163857D02*
X56606285Y-78199571D01*
X56499142Y-78235285D01*
X56427714Y-78235285D01*
X56320571Y-78199571D01*
X56249142Y-78128142D01*
X56213428Y-78056714D01*
X56177714Y-77913857D01*
X56177714Y-77806714D01*
X56213428Y-77663857D01*
X56249142Y-77592428D01*
X56320571Y-77521000D01*
X56427714Y-77485285D01*
X56499142Y-77485285D01*
X56606285Y-77521000D01*
X56642000Y-77556714D01*
X56892000Y-77485285D02*
X57392000Y-77485285D01*
X57070571Y-78235285D01*
X73700857Y-79115000D02*
X73736571Y-79150714D01*
X73772285Y-79257857D01*
X73772285Y-79329285D01*
X73736571Y-79436428D01*
X73665142Y-79507857D01*
X73593714Y-79543571D01*
X73450857Y-79579285D01*
X73343714Y-79579285D01*
X73200857Y-79543571D01*
X73129428Y-79507857D01*
X73058000Y-79436428D01*
X73022285Y-79329285D01*
X73022285Y-79257857D01*
X73058000Y-79150714D01*
X73093714Y-79115000D01*
X73022285Y-78472142D02*
X73022285Y-78615000D01*
X73058000Y-78686428D01*
X73093714Y-78722142D01*
X73200857Y-78793571D01*
X73343714Y-78829285D01*
X73629428Y-78829285D01*
X73700857Y-78793571D01*
X73736571Y-78757857D01*
X73772285Y-78686428D01*
X73772285Y-78543571D01*
X73736571Y-78472142D01*
X73700857Y-78436428D01*
X73629428Y-78400714D01*
X73450857Y-78400714D01*
X73379428Y-78436428D01*
X73343714Y-78472142D01*
X73308000Y-78543571D01*
X73308000Y-78686428D01*
X73343714Y-78757857D01*
X73379428Y-78793571D01*
X73450857Y-78829285D01*
X71668857Y-79115000D02*
X71704571Y-79150714D01*
X71740285Y-79257857D01*
X71740285Y-79329285D01*
X71704571Y-79436428D01*
X71633142Y-79507857D01*
X71561714Y-79543571D01*
X71418857Y-79579285D01*
X71311714Y-79579285D01*
X71168857Y-79543571D01*
X71097428Y-79507857D01*
X71026000Y-79436428D01*
X70990285Y-79329285D01*
X70990285Y-79257857D01*
X71026000Y-79150714D01*
X71061714Y-79115000D01*
X70990285Y-78436428D02*
X70990285Y-78793571D01*
X71347428Y-78829285D01*
X71311714Y-78793571D01*
X71276000Y-78722142D01*
X71276000Y-78543571D01*
X71311714Y-78472142D01*
X71347428Y-78436428D01*
X71418857Y-78400714D01*
X71597428Y-78400714D01*
X71668857Y-78436428D01*
X71704571Y-78472142D01*
X71740285Y-78543571D01*
X71740285Y-78722142D01*
X71704571Y-78793571D01*
X71668857Y-78829285D01*
X69509857Y-79115000D02*
X69545571Y-79150714D01*
X69581285Y-79257857D01*
X69581285Y-79329285D01*
X69545571Y-79436428D01*
X69474142Y-79507857D01*
X69402714Y-79543571D01*
X69259857Y-79579285D01*
X69152714Y-79579285D01*
X69009857Y-79543571D01*
X68938428Y-79507857D01*
X68867000Y-79436428D01*
X68831285Y-79329285D01*
X68831285Y-79257857D01*
X68867000Y-79150714D01*
X68902714Y-79115000D01*
X69081285Y-78472142D02*
X69581285Y-78472142D01*
X68795571Y-78650714D02*
X69331285Y-78829285D01*
X69331285Y-78365000D01*
X57203857Y-89945000D02*
X57239571Y-89980714D01*
X57275285Y-90087857D01*
X57275285Y-90159285D01*
X57239571Y-90266428D01*
X57168142Y-90337857D01*
X57096714Y-90373571D01*
X56953857Y-90409285D01*
X56846714Y-90409285D01*
X56703857Y-90373571D01*
X56632428Y-90337857D01*
X56561000Y-90266428D01*
X56525285Y-90159285D01*
X56525285Y-90087857D01*
X56561000Y-89980714D01*
X56596714Y-89945000D01*
X56525285Y-89695000D02*
X56525285Y-89230714D01*
X56811000Y-89480714D01*
X56811000Y-89373571D01*
X56846714Y-89302142D01*
X56882428Y-89266428D01*
X56953857Y-89230714D01*
X57132428Y-89230714D01*
X57203857Y-89266428D01*
X57239571Y-89302142D01*
X57275285Y-89373571D01*
X57275285Y-89587857D01*
X57239571Y-89659285D01*
X57203857Y-89695000D01*
X59477714Y-89945000D02*
X59513428Y-89980714D01*
X59549142Y-90087857D01*
X59549142Y-90159285D01*
X59513428Y-90266428D01*
X59441999Y-90337857D01*
X59370571Y-90373571D01*
X59227714Y-90409285D01*
X59120571Y-90409285D01*
X58977714Y-90373571D01*
X58906285Y-90337857D01*
X58834857Y-90266428D01*
X58799142Y-90159285D01*
X58799142Y-90087857D01*
X58834857Y-89980714D01*
X58870571Y-89945000D01*
X58870571Y-89659285D02*
X58834857Y-89623571D01*
X58799142Y-89552142D01*
X58799142Y-89373571D01*
X58834857Y-89302142D01*
X58870571Y-89266428D01*
X58941999Y-89230714D01*
X59013428Y-89230714D01*
X59120571Y-89266428D01*
X59549142Y-89695000D01*
X59549142Y-89230714D01*
X61670571Y-89945000D02*
X61706285Y-89980714D01*
X61741999Y-90087857D01*
X61741999Y-90159285D01*
X61706285Y-90266428D01*
X61634856Y-90337857D01*
X61563428Y-90373571D01*
X61420571Y-90409285D01*
X61313428Y-90409285D01*
X61170571Y-90373571D01*
X61099142Y-90337857D01*
X61027714Y-90266428D01*
X60991999Y-90159285D01*
X60991999Y-90087857D01*
X61027714Y-89980714D01*
X61063428Y-89945000D01*
X61741999Y-89230714D02*
X61741999Y-89659285D01*
X61741999Y-89445000D02*
X60991999Y-89445000D01*
X61099142Y-89516428D01*
X61170571Y-89587857D01*
X61206285Y-89659285D01*
M02*
