G04 #@! TF.GenerationSoftware,KiCad,Pcbnew,(5.1.2)-2*
G04 #@! TF.CreationDate,2019-08-28T15:44:57+02:00*
G04 #@! TF.ProjectId,esp_pmc,6573705f-706d-4632-9e6b-696361645f70,0.0.1*
G04 #@! TF.SameCoordinates,Original*
G04 #@! TF.FileFunction,Soldermask,Top*
G04 #@! TF.FilePolarity,Negative*
%FSLAX46Y46*%
G04 Gerber Fmt 4.6, Leading zero omitted, Abs format (unit mm)*
G04 Created by KiCad (PCBNEW (5.1.2)-2) date 2019-08-28 15:44:57*
%MOMM*%
%LPD*%
G04 APERTURE LIST*
%ADD10C,0.100000*%
G04 APERTURE END LIST*
D10*
G36*
X66646487Y-89944996D02*
G01*
X66883253Y-90043068D01*
X66883255Y-90043069D01*
X67096339Y-90185447D01*
X67277553Y-90366661D01*
X67404906Y-90557258D01*
X67419932Y-90579747D01*
X67518004Y-90816513D01*
X67568000Y-91067861D01*
X67568000Y-91324139D01*
X67518004Y-91575487D01*
X67454508Y-91728779D01*
X67419931Y-91812255D01*
X67277553Y-92025339D01*
X67096339Y-92206553D01*
X66883255Y-92348931D01*
X66883254Y-92348932D01*
X66883253Y-92348932D01*
X66646487Y-92447004D01*
X66395139Y-92497000D01*
X66138861Y-92497000D01*
X65887513Y-92447004D01*
X65650747Y-92348932D01*
X65650746Y-92348932D01*
X65650745Y-92348931D01*
X65437661Y-92206553D01*
X65256447Y-92025339D01*
X65114069Y-91812255D01*
X65079492Y-91728779D01*
X65015996Y-91575487D01*
X64966000Y-91324139D01*
X64966000Y-91067861D01*
X65015996Y-90816513D01*
X65114068Y-90579747D01*
X65129095Y-90557258D01*
X65256447Y-90366661D01*
X65437661Y-90185447D01*
X65650745Y-90043069D01*
X65650747Y-90043068D01*
X65887513Y-89944996D01*
X66138861Y-89895000D01*
X66395139Y-89895000D01*
X66646487Y-89944996D01*
X66646487Y-89944996D01*
G37*
G36*
X71126999Y-90429737D02*
G01*
X71136608Y-90432652D01*
X71145472Y-90437390D01*
X71153237Y-90443763D01*
X71163448Y-90456206D01*
X71170378Y-90466575D01*
X71187705Y-90483902D01*
X71208080Y-90497515D01*
X71230720Y-90506891D01*
X71254753Y-90511671D01*
X71279257Y-90511670D01*
X71303290Y-90506888D01*
X71325929Y-90497510D01*
X71346302Y-90483895D01*
X71363629Y-90466568D01*
X71370558Y-90456198D01*
X71380763Y-90443763D01*
X71388528Y-90437390D01*
X71397392Y-90432652D01*
X71407001Y-90429737D01*
X71423140Y-90428148D01*
X71910861Y-90428148D01*
X71929199Y-90429954D01*
X71941450Y-90430556D01*
X71959869Y-90430556D01*
X71982149Y-90432750D01*
X72066233Y-90449476D01*
X72087660Y-90455976D01*
X72166858Y-90488780D01*
X72172303Y-90491691D01*
X72172309Y-90491693D01*
X72181169Y-90496429D01*
X72181173Y-90496432D01*
X72186614Y-90499340D01*
X72257899Y-90546971D01*
X72275204Y-90561172D01*
X72335828Y-90621796D01*
X72350029Y-90639101D01*
X72397660Y-90710386D01*
X72400568Y-90715827D01*
X72400571Y-90715831D01*
X72405307Y-90724691D01*
X72405309Y-90724697D01*
X72408220Y-90730142D01*
X72441024Y-90809340D01*
X72447524Y-90830767D01*
X72464250Y-90914851D01*
X72466444Y-90937131D01*
X72466444Y-90955550D01*
X72467046Y-90967801D01*
X72468852Y-90986139D01*
X72468852Y-91473862D01*
X72467046Y-91492199D01*
X72466444Y-91504450D01*
X72466444Y-91522869D01*
X72464250Y-91545149D01*
X72447524Y-91629233D01*
X72441024Y-91650660D01*
X72408220Y-91729858D01*
X72405309Y-91735303D01*
X72405307Y-91735309D01*
X72400571Y-91744169D01*
X72400568Y-91744173D01*
X72397660Y-91749614D01*
X72350029Y-91820899D01*
X72335828Y-91838204D01*
X72275204Y-91898828D01*
X72257899Y-91913029D01*
X72186614Y-91960660D01*
X72181173Y-91963568D01*
X72181169Y-91963571D01*
X72172309Y-91968307D01*
X72172303Y-91968309D01*
X72166858Y-91971220D01*
X72087660Y-92004024D01*
X72066233Y-92010524D01*
X71982149Y-92027250D01*
X71959869Y-92029444D01*
X71941450Y-92029444D01*
X71929199Y-92030046D01*
X71910862Y-92031852D01*
X71423140Y-92031852D01*
X71407001Y-92030263D01*
X71397392Y-92027348D01*
X71388528Y-92022610D01*
X71380763Y-92016237D01*
X71370552Y-92003794D01*
X71363622Y-91993425D01*
X71346295Y-91976098D01*
X71325920Y-91962485D01*
X71303280Y-91953109D01*
X71279247Y-91948329D01*
X71254743Y-91948330D01*
X71230710Y-91953112D01*
X71208071Y-91962490D01*
X71187698Y-91976105D01*
X71170371Y-91993432D01*
X71163442Y-92003802D01*
X71153237Y-92016237D01*
X71145472Y-92022610D01*
X71136608Y-92027348D01*
X71126999Y-92030263D01*
X71110860Y-92031852D01*
X70623138Y-92031852D01*
X70604801Y-92030046D01*
X70592550Y-92029444D01*
X70574131Y-92029444D01*
X70551851Y-92027250D01*
X70467767Y-92010524D01*
X70446340Y-92004024D01*
X70367142Y-91971220D01*
X70361697Y-91968309D01*
X70361691Y-91968307D01*
X70352831Y-91963571D01*
X70352827Y-91963568D01*
X70347386Y-91960660D01*
X70276101Y-91913029D01*
X70258796Y-91898828D01*
X70198172Y-91838204D01*
X70183971Y-91820899D01*
X70136340Y-91749614D01*
X70133432Y-91744173D01*
X70133429Y-91744169D01*
X70128693Y-91735309D01*
X70128691Y-91735303D01*
X70125780Y-91729858D01*
X70092976Y-91650660D01*
X70086476Y-91629233D01*
X70069750Y-91545149D01*
X70067556Y-91522869D01*
X70067556Y-91504450D01*
X70066954Y-91492199D01*
X70065148Y-91473862D01*
X70065148Y-90986139D01*
X70066954Y-90967801D01*
X70067556Y-90955550D01*
X70067556Y-90937131D01*
X70069750Y-90914851D01*
X70086476Y-90830767D01*
X70092976Y-90809340D01*
X70125780Y-90730142D01*
X70128691Y-90724697D01*
X70128693Y-90724691D01*
X70133429Y-90715831D01*
X70133432Y-90715827D01*
X70136340Y-90710386D01*
X70183971Y-90639101D01*
X70198172Y-90621796D01*
X70258796Y-90561172D01*
X70276101Y-90546971D01*
X70347386Y-90499340D01*
X70352827Y-90496432D01*
X70352831Y-90496429D01*
X70361691Y-90491693D01*
X70361697Y-90491691D01*
X70367142Y-90488780D01*
X70446340Y-90455976D01*
X70467767Y-90449476D01*
X70551851Y-90432750D01*
X70574131Y-90430556D01*
X70592550Y-90430556D01*
X70604801Y-90429954D01*
X70623139Y-90428148D01*
X71110860Y-90428148D01*
X71126999Y-90429737D01*
X71126999Y-90429737D01*
G37*
G36*
X78168000Y-91897000D02*
G01*
X76366000Y-91897000D01*
X76366000Y-90095000D01*
X78168000Y-90095000D01*
X78168000Y-91897000D01*
X78168000Y-91897000D01*
G37*
G36*
X54517442Y-90081518D02*
G01*
X54583627Y-90088037D01*
X54753466Y-90139557D01*
X54909991Y-90223222D01*
X54945729Y-90252552D01*
X55047186Y-90335814D01*
X55125434Y-90431161D01*
X55159778Y-90473009D01*
X55243443Y-90629534D01*
X55294963Y-90799373D01*
X55312359Y-90976000D01*
X55294963Y-91152627D01*
X55243443Y-91322466D01*
X55159778Y-91478991D01*
X55148938Y-91492199D01*
X55047186Y-91616186D01*
X54945729Y-91699448D01*
X54909991Y-91728778D01*
X54909989Y-91728779D01*
X54753822Y-91812253D01*
X54753466Y-91812443D01*
X54583627Y-91863963D01*
X54517443Y-91870481D01*
X54451260Y-91877000D01*
X54362740Y-91877000D01*
X54296557Y-91870481D01*
X54230373Y-91863963D01*
X54060534Y-91812443D01*
X54060179Y-91812253D01*
X53904011Y-91728779D01*
X53904009Y-91728778D01*
X53868271Y-91699448D01*
X53766814Y-91616186D01*
X53665062Y-91492199D01*
X53654222Y-91478991D01*
X53570557Y-91322466D01*
X53519037Y-91152627D01*
X53501641Y-90976000D01*
X53519037Y-90799373D01*
X53570557Y-90629534D01*
X53654222Y-90473009D01*
X53688566Y-90431161D01*
X53766814Y-90335814D01*
X53868271Y-90252552D01*
X53904009Y-90223222D01*
X54060534Y-90139557D01*
X54230373Y-90088037D01*
X54296558Y-90081518D01*
X54362740Y-90075000D01*
X54451260Y-90075000D01*
X54517442Y-90081518D01*
X54517442Y-90081518D01*
G37*
G36*
X77377443Y-87561519D02*
G01*
X77443627Y-87568037D01*
X77613466Y-87619557D01*
X77613468Y-87619558D01*
X77691729Y-87661390D01*
X77769991Y-87703222D01*
X77788256Y-87718212D01*
X77907186Y-87815814D01*
X77990448Y-87917271D01*
X78019778Y-87953009D01*
X78103443Y-88109534D01*
X78154963Y-88279373D01*
X78172359Y-88456000D01*
X78154963Y-88632627D01*
X78103443Y-88802466D01*
X78019778Y-88958991D01*
X77990448Y-88994729D01*
X77907186Y-89096186D01*
X77805729Y-89179448D01*
X77769991Y-89208778D01*
X77613466Y-89292443D01*
X77443627Y-89343963D01*
X77377443Y-89350481D01*
X77311260Y-89357000D01*
X77222740Y-89357000D01*
X77156557Y-89350481D01*
X77090373Y-89343963D01*
X76920534Y-89292443D01*
X76764009Y-89208778D01*
X76728271Y-89179448D01*
X76626814Y-89096186D01*
X76543552Y-88994729D01*
X76514222Y-88958991D01*
X76430557Y-88802466D01*
X76379037Y-88632627D01*
X76361641Y-88456000D01*
X76379037Y-88279373D01*
X76430557Y-88109534D01*
X76514222Y-87953009D01*
X76543552Y-87917271D01*
X76626814Y-87815814D01*
X76745744Y-87718212D01*
X76764009Y-87703222D01*
X76842271Y-87661390D01*
X76920532Y-87619558D01*
X76920534Y-87619557D01*
X77090373Y-87568037D01*
X77156557Y-87561519D01*
X77222740Y-87555000D01*
X77311260Y-87555000D01*
X77377443Y-87561519D01*
X77377443Y-87561519D01*
G37*
G36*
X54517443Y-87541519D02*
G01*
X54583627Y-87548037D01*
X54753466Y-87599557D01*
X54909991Y-87683222D01*
X54934361Y-87703222D01*
X55047186Y-87795814D01*
X55130448Y-87897271D01*
X55159778Y-87933009D01*
X55243443Y-88089534D01*
X55294963Y-88259373D01*
X55312359Y-88436000D01*
X55294963Y-88612627D01*
X55243443Y-88782466D01*
X55159778Y-88938991D01*
X55143366Y-88958989D01*
X55047186Y-89076186D01*
X54945729Y-89159448D01*
X54909991Y-89188778D01*
X54753466Y-89272443D01*
X54583627Y-89323963D01*
X54517442Y-89330482D01*
X54451260Y-89337000D01*
X54362740Y-89337000D01*
X54296558Y-89330482D01*
X54230373Y-89323963D01*
X54060534Y-89272443D01*
X53904009Y-89188778D01*
X53868271Y-89159448D01*
X53766814Y-89076186D01*
X53670634Y-88958989D01*
X53654222Y-88938991D01*
X53570557Y-88782466D01*
X53519037Y-88612627D01*
X53501641Y-88436000D01*
X53519037Y-88259373D01*
X53570557Y-88089534D01*
X53654222Y-87933009D01*
X53683552Y-87897271D01*
X53766814Y-87795814D01*
X53879639Y-87703222D01*
X53904009Y-87683222D01*
X54060534Y-87599557D01*
X54230373Y-87548037D01*
X54296557Y-87541519D01*
X54362740Y-87535000D01*
X54451260Y-87535000D01*
X54517443Y-87541519D01*
X54517443Y-87541519D01*
G37*
G36*
X63821571Y-85477001D02*
G01*
X63823973Y-85501387D01*
X63831086Y-85524836D01*
X63842637Y-85546447D01*
X63858182Y-85565389D01*
X63877124Y-85580934D01*
X63898735Y-85592485D01*
X63922184Y-85599598D01*
X63946570Y-85602000D01*
X65644572Y-85602000D01*
X65668958Y-85599598D01*
X65692407Y-85592485D01*
X65714018Y-85580934D01*
X65732960Y-85565389D01*
X65748505Y-85546447D01*
X65760056Y-85524836D01*
X65767169Y-85501387D01*
X65769571Y-85477001D01*
X65769571Y-85427000D01*
X66721571Y-85427000D01*
X66721571Y-88829000D01*
X65769571Y-88829000D01*
X65769571Y-88778999D01*
X65767169Y-88754613D01*
X65760056Y-88731164D01*
X65748505Y-88709553D01*
X65732960Y-88690611D01*
X65714018Y-88675066D01*
X65692407Y-88663515D01*
X65668958Y-88656402D01*
X65644572Y-88654000D01*
X63946570Y-88654000D01*
X63922184Y-88656402D01*
X63898735Y-88663515D01*
X63877124Y-88675066D01*
X63858182Y-88690611D01*
X63842637Y-88709553D01*
X63831086Y-88731164D01*
X63823973Y-88754613D01*
X63821571Y-88778999D01*
X63821571Y-88829000D01*
X62869571Y-88829000D01*
X62869571Y-85427000D01*
X63821571Y-85427000D01*
X63821571Y-85477001D01*
X63821571Y-85477001D01*
G37*
G36*
X71251468Y-87556565D02*
G01*
X71290138Y-87568296D01*
X71325777Y-87587346D01*
X71357017Y-87612983D01*
X71382654Y-87644223D01*
X71401704Y-87679862D01*
X71413435Y-87718532D01*
X71418000Y-87764888D01*
X71418000Y-88416112D01*
X71413435Y-88462468D01*
X71401704Y-88501138D01*
X71382654Y-88536777D01*
X71357017Y-88568017D01*
X71325777Y-88593654D01*
X71290138Y-88612704D01*
X71251468Y-88624435D01*
X71205112Y-88629000D01*
X70128888Y-88629000D01*
X70082532Y-88624435D01*
X70043862Y-88612704D01*
X70008223Y-88593654D01*
X69976983Y-88568017D01*
X69951346Y-88536777D01*
X69932296Y-88501138D01*
X69920565Y-88462468D01*
X69916000Y-88416112D01*
X69916000Y-87764888D01*
X69920565Y-87718532D01*
X69932296Y-87679862D01*
X69951346Y-87644223D01*
X69976983Y-87612983D01*
X70008223Y-87587346D01*
X70043862Y-87568296D01*
X70082532Y-87556565D01*
X70128888Y-87552000D01*
X71205112Y-87552000D01*
X71251468Y-87556565D01*
X71251468Y-87556565D01*
G37*
G36*
X75351468Y-87556565D02*
G01*
X75390138Y-87568296D01*
X75425777Y-87587346D01*
X75457017Y-87612983D01*
X75482654Y-87644223D01*
X75501704Y-87679862D01*
X75513435Y-87718532D01*
X75518000Y-87764888D01*
X75518000Y-88416112D01*
X75513435Y-88462468D01*
X75501704Y-88501138D01*
X75482654Y-88536777D01*
X75457017Y-88568017D01*
X75425777Y-88593654D01*
X75390138Y-88612704D01*
X75351468Y-88624435D01*
X75305112Y-88629000D01*
X74228888Y-88629000D01*
X74182532Y-88624435D01*
X74143862Y-88612704D01*
X74108223Y-88593654D01*
X74076983Y-88568017D01*
X74051346Y-88536777D01*
X74032296Y-88501138D01*
X74020565Y-88462468D01*
X74016000Y-88416112D01*
X74016000Y-87764888D01*
X74020565Y-87718532D01*
X74032296Y-87679862D01*
X74051346Y-87644223D01*
X74076983Y-87612983D01*
X74108223Y-87587346D01*
X74143862Y-87568296D01*
X74182532Y-87556565D01*
X74228888Y-87552000D01*
X75305112Y-87552000D01*
X75351468Y-87556565D01*
X75351468Y-87556565D01*
G37*
G36*
X73158610Y-87556565D02*
G01*
X73197280Y-87568296D01*
X73232919Y-87587346D01*
X73264159Y-87612983D01*
X73289796Y-87644223D01*
X73308846Y-87679862D01*
X73320577Y-87718532D01*
X73325142Y-87764888D01*
X73325142Y-88416112D01*
X73320577Y-88462468D01*
X73308846Y-88501138D01*
X73289796Y-88536777D01*
X73264159Y-88568017D01*
X73232919Y-88593654D01*
X73197280Y-88612704D01*
X73158610Y-88624435D01*
X73112254Y-88629000D01*
X72036030Y-88629000D01*
X71989674Y-88624435D01*
X71951004Y-88612704D01*
X71915365Y-88593654D01*
X71884125Y-88568017D01*
X71858488Y-88536777D01*
X71839438Y-88501138D01*
X71827707Y-88462468D01*
X71823142Y-88416112D01*
X71823142Y-87764888D01*
X71827707Y-87718532D01*
X71839438Y-87679862D01*
X71858488Y-87644223D01*
X71884125Y-87612983D01*
X71915365Y-87587346D01*
X71951004Y-87568296D01*
X71989674Y-87556565D01*
X72036030Y-87552000D01*
X73112254Y-87552000D01*
X73158610Y-87556565D01*
X73158610Y-87556565D01*
G37*
G36*
X69101468Y-87556565D02*
G01*
X69140138Y-87568296D01*
X69175777Y-87587346D01*
X69207017Y-87612983D01*
X69232654Y-87644223D01*
X69251704Y-87679862D01*
X69263435Y-87718532D01*
X69268000Y-87764888D01*
X69268000Y-88416112D01*
X69263435Y-88462468D01*
X69251704Y-88501138D01*
X69232654Y-88536777D01*
X69207017Y-88568017D01*
X69175777Y-88593654D01*
X69140138Y-88612704D01*
X69101468Y-88624435D01*
X69055112Y-88629000D01*
X67978888Y-88629000D01*
X67932532Y-88624435D01*
X67893862Y-88612704D01*
X67858223Y-88593654D01*
X67826983Y-88568017D01*
X67801346Y-88536777D01*
X67782296Y-88501138D01*
X67770565Y-88462468D01*
X67766000Y-88416112D01*
X67766000Y-87764888D01*
X67770565Y-87718532D01*
X67782296Y-87679862D01*
X67801346Y-87644223D01*
X67826983Y-87612983D01*
X67858223Y-87587346D01*
X67893862Y-87568296D01*
X67932532Y-87556565D01*
X67978888Y-87552000D01*
X69055112Y-87552000D01*
X69101468Y-87556565D01*
X69101468Y-87556565D01*
G37*
G36*
X57601468Y-87556565D02*
G01*
X57640138Y-87568296D01*
X57675777Y-87587346D01*
X57707017Y-87612983D01*
X57732654Y-87644223D01*
X57751704Y-87679862D01*
X57763435Y-87718532D01*
X57768000Y-87764888D01*
X57768000Y-88416112D01*
X57763435Y-88462468D01*
X57751704Y-88501138D01*
X57732654Y-88536777D01*
X57707017Y-88568017D01*
X57675777Y-88593654D01*
X57640138Y-88612704D01*
X57601468Y-88624435D01*
X57555112Y-88629000D01*
X56478888Y-88629000D01*
X56432532Y-88624435D01*
X56393862Y-88612704D01*
X56358223Y-88593654D01*
X56326983Y-88568017D01*
X56301346Y-88536777D01*
X56282296Y-88501138D01*
X56270565Y-88462468D01*
X56266000Y-88416112D01*
X56266000Y-87764888D01*
X56270565Y-87718532D01*
X56282296Y-87679862D01*
X56301346Y-87644223D01*
X56326983Y-87612983D01*
X56358223Y-87587346D01*
X56393862Y-87568296D01*
X56432532Y-87556565D01*
X56478888Y-87552000D01*
X57555112Y-87552000D01*
X57601468Y-87556565D01*
X57601468Y-87556565D01*
G37*
G36*
X61987182Y-87556565D02*
G01*
X62025852Y-87568296D01*
X62061491Y-87587346D01*
X62092731Y-87612983D01*
X62118368Y-87644223D01*
X62137418Y-87679862D01*
X62149149Y-87718532D01*
X62153714Y-87764888D01*
X62153714Y-88416112D01*
X62149149Y-88462468D01*
X62137418Y-88501138D01*
X62118368Y-88536777D01*
X62092731Y-88568017D01*
X62061491Y-88593654D01*
X62025852Y-88612704D01*
X61987182Y-88624435D01*
X61940826Y-88629000D01*
X60864602Y-88629000D01*
X60818246Y-88624435D01*
X60779576Y-88612704D01*
X60743937Y-88593654D01*
X60712697Y-88568017D01*
X60687060Y-88536777D01*
X60668010Y-88501138D01*
X60656279Y-88462468D01*
X60651714Y-88416112D01*
X60651714Y-87764888D01*
X60656279Y-87718532D01*
X60668010Y-87679862D01*
X60687060Y-87644223D01*
X60712697Y-87612983D01*
X60743937Y-87587346D01*
X60779576Y-87568296D01*
X60818246Y-87556565D01*
X60864602Y-87552000D01*
X61940826Y-87552000D01*
X61987182Y-87556565D01*
X61987182Y-87556565D01*
G37*
G36*
X59794325Y-87556565D02*
G01*
X59832995Y-87568296D01*
X59868634Y-87587346D01*
X59899874Y-87612983D01*
X59925511Y-87644223D01*
X59944561Y-87679862D01*
X59956292Y-87718532D01*
X59960857Y-87764888D01*
X59960857Y-88416112D01*
X59956292Y-88462468D01*
X59944561Y-88501138D01*
X59925511Y-88536777D01*
X59899874Y-88568017D01*
X59868634Y-88593654D01*
X59832995Y-88612704D01*
X59794325Y-88624435D01*
X59747969Y-88629000D01*
X58671745Y-88629000D01*
X58625389Y-88624435D01*
X58586719Y-88612704D01*
X58551080Y-88593654D01*
X58519840Y-88568017D01*
X58494203Y-88536777D01*
X58475153Y-88501138D01*
X58463422Y-88462468D01*
X58458857Y-88416112D01*
X58458857Y-87764888D01*
X58463422Y-87718532D01*
X58475153Y-87679862D01*
X58494203Y-87644223D01*
X58519840Y-87612983D01*
X58551080Y-87587346D01*
X58586719Y-87568296D01*
X58625389Y-87556565D01*
X58671745Y-87552000D01*
X59747969Y-87552000D01*
X59794325Y-87556565D01*
X59794325Y-87556565D01*
G37*
G36*
X77377442Y-85021518D02*
G01*
X77443627Y-85028037D01*
X77613466Y-85079557D01*
X77769991Y-85163222D01*
X77805729Y-85192552D01*
X77907186Y-85275814D01*
X77990448Y-85377271D01*
X78019778Y-85413009D01*
X78103443Y-85569534D01*
X78154963Y-85739373D01*
X78172359Y-85916000D01*
X78154963Y-86092627D01*
X78103443Y-86262466D01*
X78019778Y-86418991D01*
X78013205Y-86427000D01*
X77907186Y-86556186D01*
X77821948Y-86626138D01*
X77769991Y-86668778D01*
X77613466Y-86752443D01*
X77443627Y-86803963D01*
X77377442Y-86810482D01*
X77311260Y-86817000D01*
X77222740Y-86817000D01*
X77156558Y-86810482D01*
X77090373Y-86803963D01*
X76920534Y-86752443D01*
X76764009Y-86668778D01*
X76712052Y-86626138D01*
X76626814Y-86556186D01*
X76520795Y-86427000D01*
X76514222Y-86418991D01*
X76430557Y-86262466D01*
X76379037Y-86092627D01*
X76361641Y-85916000D01*
X76379037Y-85739373D01*
X76430557Y-85569534D01*
X76514222Y-85413009D01*
X76543552Y-85377271D01*
X76626814Y-85275814D01*
X76728271Y-85192552D01*
X76764009Y-85163222D01*
X76920534Y-85079557D01*
X77090373Y-85028037D01*
X77156558Y-85021518D01*
X77222740Y-85015000D01*
X77311260Y-85015000D01*
X77377442Y-85021518D01*
X77377442Y-85021518D01*
G37*
G36*
X54517442Y-85001518D02*
G01*
X54583627Y-85008037D01*
X54753466Y-85059557D01*
X54909991Y-85143222D01*
X54934361Y-85163222D01*
X55047186Y-85255814D01*
X55130448Y-85357271D01*
X55159778Y-85393009D01*
X55243443Y-85549534D01*
X55294963Y-85719373D01*
X55312359Y-85896000D01*
X55294963Y-86072627D01*
X55243443Y-86242466D01*
X55159778Y-86398991D01*
X55143366Y-86418989D01*
X55047186Y-86536186D01*
X54945729Y-86619448D01*
X54909991Y-86648778D01*
X54753466Y-86732443D01*
X54583627Y-86783963D01*
X54517443Y-86790481D01*
X54451260Y-86797000D01*
X54362740Y-86797000D01*
X54296557Y-86790481D01*
X54230373Y-86783963D01*
X54060534Y-86732443D01*
X53904009Y-86648778D01*
X53868271Y-86619448D01*
X53766814Y-86536186D01*
X53670634Y-86418989D01*
X53654222Y-86398991D01*
X53570557Y-86242466D01*
X53519037Y-86072627D01*
X53501641Y-85896000D01*
X53519037Y-85719373D01*
X53570557Y-85549534D01*
X53654222Y-85393009D01*
X53683552Y-85357271D01*
X53766814Y-85255814D01*
X53879639Y-85163222D01*
X53904009Y-85143222D01*
X54060534Y-85059557D01*
X54230373Y-85008037D01*
X54296558Y-85001518D01*
X54362740Y-84995000D01*
X54451260Y-84995000D01*
X54517442Y-85001518D01*
X54517442Y-85001518D01*
G37*
G36*
X61987182Y-85681565D02*
G01*
X62025852Y-85693296D01*
X62061491Y-85712346D01*
X62092731Y-85737983D01*
X62118368Y-85769223D01*
X62137418Y-85804862D01*
X62149149Y-85843532D01*
X62153714Y-85889888D01*
X62153714Y-86541112D01*
X62149149Y-86587468D01*
X62137418Y-86626138D01*
X62118368Y-86661777D01*
X62092731Y-86693017D01*
X62061491Y-86718654D01*
X62025852Y-86737704D01*
X61987182Y-86749435D01*
X61940826Y-86754000D01*
X60864602Y-86754000D01*
X60818246Y-86749435D01*
X60779576Y-86737704D01*
X60743937Y-86718654D01*
X60712697Y-86693017D01*
X60687060Y-86661777D01*
X60668010Y-86626138D01*
X60656279Y-86587468D01*
X60651714Y-86541112D01*
X60651714Y-85889888D01*
X60656279Y-85843532D01*
X60668010Y-85804862D01*
X60687060Y-85769223D01*
X60712697Y-85737983D01*
X60743937Y-85712346D01*
X60779576Y-85693296D01*
X60818246Y-85681565D01*
X60864602Y-85677000D01*
X61940826Y-85677000D01*
X61987182Y-85681565D01*
X61987182Y-85681565D01*
G37*
G36*
X71251468Y-85681565D02*
G01*
X71290138Y-85693296D01*
X71325777Y-85712346D01*
X71357017Y-85737983D01*
X71382654Y-85769223D01*
X71401704Y-85804862D01*
X71413435Y-85843532D01*
X71418000Y-85889888D01*
X71418000Y-86541112D01*
X71413435Y-86587468D01*
X71401704Y-86626138D01*
X71382654Y-86661777D01*
X71357017Y-86693017D01*
X71325777Y-86718654D01*
X71290138Y-86737704D01*
X71251468Y-86749435D01*
X71205112Y-86754000D01*
X70128888Y-86754000D01*
X70082532Y-86749435D01*
X70043862Y-86737704D01*
X70008223Y-86718654D01*
X69976983Y-86693017D01*
X69951346Y-86661777D01*
X69932296Y-86626138D01*
X69920565Y-86587468D01*
X69916000Y-86541112D01*
X69916000Y-85889888D01*
X69920565Y-85843532D01*
X69932296Y-85804862D01*
X69951346Y-85769223D01*
X69976983Y-85737983D01*
X70008223Y-85712346D01*
X70043862Y-85693296D01*
X70082532Y-85681565D01*
X70128888Y-85677000D01*
X71205112Y-85677000D01*
X71251468Y-85681565D01*
X71251468Y-85681565D01*
G37*
G36*
X75351468Y-85681565D02*
G01*
X75390138Y-85693296D01*
X75425777Y-85712346D01*
X75457017Y-85737983D01*
X75482654Y-85769223D01*
X75501704Y-85804862D01*
X75513435Y-85843532D01*
X75518000Y-85889888D01*
X75518000Y-86541112D01*
X75513435Y-86587468D01*
X75501704Y-86626138D01*
X75482654Y-86661777D01*
X75457017Y-86693017D01*
X75425777Y-86718654D01*
X75390138Y-86737704D01*
X75351468Y-86749435D01*
X75305112Y-86754000D01*
X74228888Y-86754000D01*
X74182532Y-86749435D01*
X74143862Y-86737704D01*
X74108223Y-86718654D01*
X74076983Y-86693017D01*
X74051346Y-86661777D01*
X74032296Y-86626138D01*
X74020565Y-86587468D01*
X74016000Y-86541112D01*
X74016000Y-85889888D01*
X74020565Y-85843532D01*
X74032296Y-85804862D01*
X74051346Y-85769223D01*
X74076983Y-85737983D01*
X74108223Y-85712346D01*
X74143862Y-85693296D01*
X74182532Y-85681565D01*
X74228888Y-85677000D01*
X75305112Y-85677000D01*
X75351468Y-85681565D01*
X75351468Y-85681565D01*
G37*
G36*
X73158610Y-85681565D02*
G01*
X73197280Y-85693296D01*
X73232919Y-85712346D01*
X73264159Y-85737983D01*
X73289796Y-85769223D01*
X73308846Y-85804862D01*
X73320577Y-85843532D01*
X73325142Y-85889888D01*
X73325142Y-86541112D01*
X73320577Y-86587468D01*
X73308846Y-86626138D01*
X73289796Y-86661777D01*
X73264159Y-86693017D01*
X73232919Y-86718654D01*
X73197280Y-86737704D01*
X73158610Y-86749435D01*
X73112254Y-86754000D01*
X72036030Y-86754000D01*
X71989674Y-86749435D01*
X71951004Y-86737704D01*
X71915365Y-86718654D01*
X71884125Y-86693017D01*
X71858488Y-86661777D01*
X71839438Y-86626138D01*
X71827707Y-86587468D01*
X71823142Y-86541112D01*
X71823142Y-85889888D01*
X71827707Y-85843532D01*
X71839438Y-85804862D01*
X71858488Y-85769223D01*
X71884125Y-85737983D01*
X71915365Y-85712346D01*
X71951004Y-85693296D01*
X71989674Y-85681565D01*
X72036030Y-85677000D01*
X73112254Y-85677000D01*
X73158610Y-85681565D01*
X73158610Y-85681565D01*
G37*
G36*
X59794325Y-85681565D02*
G01*
X59832995Y-85693296D01*
X59868634Y-85712346D01*
X59899874Y-85737983D01*
X59925511Y-85769223D01*
X59944561Y-85804862D01*
X59956292Y-85843532D01*
X59960857Y-85889888D01*
X59960857Y-86541112D01*
X59956292Y-86587468D01*
X59944561Y-86626138D01*
X59925511Y-86661777D01*
X59899874Y-86693017D01*
X59868634Y-86718654D01*
X59832995Y-86737704D01*
X59794325Y-86749435D01*
X59747969Y-86754000D01*
X58671745Y-86754000D01*
X58625389Y-86749435D01*
X58586719Y-86737704D01*
X58551080Y-86718654D01*
X58519840Y-86693017D01*
X58494203Y-86661777D01*
X58475153Y-86626138D01*
X58463422Y-86587468D01*
X58458857Y-86541112D01*
X58458857Y-85889888D01*
X58463422Y-85843532D01*
X58475153Y-85804862D01*
X58494203Y-85769223D01*
X58519840Y-85737983D01*
X58551080Y-85712346D01*
X58586719Y-85693296D01*
X58625389Y-85681565D01*
X58671745Y-85677000D01*
X59747969Y-85677000D01*
X59794325Y-85681565D01*
X59794325Y-85681565D01*
G37*
G36*
X69101468Y-85681565D02*
G01*
X69140138Y-85693296D01*
X69175777Y-85712346D01*
X69207017Y-85737983D01*
X69232654Y-85769223D01*
X69251704Y-85804862D01*
X69263435Y-85843532D01*
X69268000Y-85889888D01*
X69268000Y-86541112D01*
X69263435Y-86587468D01*
X69251704Y-86626138D01*
X69232654Y-86661777D01*
X69207017Y-86693017D01*
X69175777Y-86718654D01*
X69140138Y-86737704D01*
X69101468Y-86749435D01*
X69055112Y-86754000D01*
X67978888Y-86754000D01*
X67932532Y-86749435D01*
X67893862Y-86737704D01*
X67858223Y-86718654D01*
X67826983Y-86693017D01*
X67801346Y-86661777D01*
X67782296Y-86626138D01*
X67770565Y-86587468D01*
X67766000Y-86541112D01*
X67766000Y-85889888D01*
X67770565Y-85843532D01*
X67782296Y-85804862D01*
X67801346Y-85769223D01*
X67826983Y-85737983D01*
X67858223Y-85712346D01*
X67893862Y-85693296D01*
X67932532Y-85681565D01*
X67978888Y-85677000D01*
X69055112Y-85677000D01*
X69101468Y-85681565D01*
X69101468Y-85681565D01*
G37*
G36*
X57601468Y-85681565D02*
G01*
X57640138Y-85693296D01*
X57675777Y-85712346D01*
X57707017Y-85737983D01*
X57732654Y-85769223D01*
X57751704Y-85804862D01*
X57763435Y-85843532D01*
X57768000Y-85889888D01*
X57768000Y-86541112D01*
X57763435Y-86587468D01*
X57751704Y-86626138D01*
X57732654Y-86661777D01*
X57707017Y-86693017D01*
X57675777Y-86718654D01*
X57640138Y-86737704D01*
X57601468Y-86749435D01*
X57555112Y-86754000D01*
X56478888Y-86754000D01*
X56432532Y-86749435D01*
X56393862Y-86737704D01*
X56358223Y-86718654D01*
X56326983Y-86693017D01*
X56301346Y-86661777D01*
X56282296Y-86626138D01*
X56270565Y-86587468D01*
X56266000Y-86541112D01*
X56266000Y-85889888D01*
X56270565Y-85843532D01*
X56282296Y-85804862D01*
X56301346Y-85769223D01*
X56326983Y-85737983D01*
X56358223Y-85712346D01*
X56393862Y-85693296D01*
X56432532Y-85681565D01*
X56478888Y-85677000D01*
X57555112Y-85677000D01*
X57601468Y-85681565D01*
X57601468Y-85681565D01*
G37*
G36*
X66818000Y-84397000D02*
G01*
X65916000Y-84397000D01*
X65916000Y-81395000D01*
X66818000Y-81395000D01*
X66818000Y-84397000D01*
X66818000Y-84397000D01*
G37*
G36*
X64618000Y-84397000D02*
G01*
X63716000Y-84397000D01*
X63716000Y-81395000D01*
X64618000Y-81395000D01*
X64618000Y-84397000D01*
X64618000Y-84397000D01*
G37*
G36*
X77377442Y-82481518D02*
G01*
X77443627Y-82488037D01*
X77613466Y-82539557D01*
X77769991Y-82623222D01*
X77802483Y-82649888D01*
X77907186Y-82735814D01*
X77990448Y-82837271D01*
X78019778Y-82873009D01*
X78103443Y-83029534D01*
X78154963Y-83199373D01*
X78172359Y-83376000D01*
X78154963Y-83552627D01*
X78103443Y-83722466D01*
X78019778Y-83878991D01*
X77990448Y-83914729D01*
X77907186Y-84016186D01*
X77805729Y-84099448D01*
X77769991Y-84128778D01*
X77613466Y-84212443D01*
X77443627Y-84263963D01*
X77377443Y-84270481D01*
X77311260Y-84277000D01*
X77222740Y-84277000D01*
X77156557Y-84270481D01*
X77090373Y-84263963D01*
X76920534Y-84212443D01*
X76764009Y-84128778D01*
X76728271Y-84099448D01*
X76626814Y-84016186D01*
X76543552Y-83914729D01*
X76514222Y-83878991D01*
X76430557Y-83722466D01*
X76379037Y-83552627D01*
X76361641Y-83376000D01*
X76379037Y-83199373D01*
X76430557Y-83029534D01*
X76514222Y-82873009D01*
X76543552Y-82837271D01*
X76626814Y-82735814D01*
X76731517Y-82649888D01*
X76764009Y-82623222D01*
X76920534Y-82539557D01*
X77090373Y-82488037D01*
X77156558Y-82481518D01*
X77222740Y-82475000D01*
X77311260Y-82475000D01*
X77377442Y-82481518D01*
X77377442Y-82481518D01*
G37*
G36*
X54517442Y-82461518D02*
G01*
X54583627Y-82468037D01*
X54753466Y-82519557D01*
X54753468Y-82519558D01*
X54790883Y-82539557D01*
X54909991Y-82603222D01*
X54934361Y-82623222D01*
X55047186Y-82715814D01*
X55130448Y-82817271D01*
X55159778Y-82853009D01*
X55243443Y-83009534D01*
X55294963Y-83179373D01*
X55312359Y-83356000D01*
X55294963Y-83532627D01*
X55243443Y-83702466D01*
X55159778Y-83858991D01*
X55143366Y-83878989D01*
X55047186Y-83996186D01*
X54945729Y-84079448D01*
X54909991Y-84108778D01*
X54753466Y-84192443D01*
X54583627Y-84243963D01*
X54517442Y-84250482D01*
X54451260Y-84257000D01*
X54362740Y-84257000D01*
X54296558Y-84250482D01*
X54230373Y-84243963D01*
X54060534Y-84192443D01*
X53904009Y-84108778D01*
X53868271Y-84079448D01*
X53766814Y-83996186D01*
X53670634Y-83878989D01*
X53654222Y-83858991D01*
X53570557Y-83702466D01*
X53519037Y-83532627D01*
X53501641Y-83356000D01*
X53519037Y-83179373D01*
X53570557Y-83009534D01*
X53654222Y-82853009D01*
X53683552Y-82817271D01*
X53766814Y-82715814D01*
X53879639Y-82623222D01*
X53904009Y-82603222D01*
X54023117Y-82539557D01*
X54060532Y-82519558D01*
X54060534Y-82519557D01*
X54230373Y-82468037D01*
X54296558Y-82461518D01*
X54362740Y-82455000D01*
X54451260Y-82455000D01*
X54517442Y-82461518D01*
X54517442Y-82461518D01*
G37*
G36*
X71985468Y-82441565D02*
G01*
X72024138Y-82453296D01*
X72059777Y-82472346D01*
X72091017Y-82497983D01*
X72116654Y-82529223D01*
X72135704Y-82564862D01*
X72147435Y-82603532D01*
X72152000Y-82649888D01*
X72152000Y-83301112D01*
X72147435Y-83347468D01*
X72135704Y-83386138D01*
X72116654Y-83421777D01*
X72091017Y-83453017D01*
X72059777Y-83478654D01*
X72024138Y-83497704D01*
X71985468Y-83509435D01*
X71939112Y-83514000D01*
X70862888Y-83514000D01*
X70816532Y-83509435D01*
X70777862Y-83497704D01*
X70742223Y-83478654D01*
X70710983Y-83453017D01*
X70685346Y-83421777D01*
X70666296Y-83386138D01*
X70654565Y-83347468D01*
X70650000Y-83301112D01*
X70650000Y-82649888D01*
X70654565Y-82603532D01*
X70666296Y-82564862D01*
X70685346Y-82529223D01*
X70710983Y-82497983D01*
X70742223Y-82472346D01*
X70777862Y-82453296D01*
X70816532Y-82441565D01*
X70862888Y-82437000D01*
X71939112Y-82437000D01*
X71985468Y-82441565D01*
X71985468Y-82441565D01*
G37*
G36*
X74017468Y-82441565D02*
G01*
X74056138Y-82453296D01*
X74091777Y-82472346D01*
X74123017Y-82497983D01*
X74148654Y-82529223D01*
X74167704Y-82564862D01*
X74179435Y-82603532D01*
X74184000Y-82649888D01*
X74184000Y-83301112D01*
X74179435Y-83347468D01*
X74167704Y-83386138D01*
X74148654Y-83421777D01*
X74123017Y-83453017D01*
X74091777Y-83478654D01*
X74056138Y-83497704D01*
X74017468Y-83509435D01*
X73971112Y-83514000D01*
X72894888Y-83514000D01*
X72848532Y-83509435D01*
X72809862Y-83497704D01*
X72774223Y-83478654D01*
X72742983Y-83453017D01*
X72717346Y-83421777D01*
X72698296Y-83386138D01*
X72686565Y-83347468D01*
X72682000Y-83301112D01*
X72682000Y-82649888D01*
X72686565Y-82603532D01*
X72698296Y-82564862D01*
X72717346Y-82529223D01*
X72742983Y-82497983D01*
X72774223Y-82472346D01*
X72809862Y-82453296D01*
X72848532Y-82441565D01*
X72894888Y-82437000D01*
X73971112Y-82437000D01*
X74017468Y-82441565D01*
X74017468Y-82441565D01*
G37*
G36*
X69850468Y-82411565D02*
G01*
X69889138Y-82423296D01*
X69924777Y-82442346D01*
X69956017Y-82467983D01*
X69981654Y-82499223D01*
X70000704Y-82534862D01*
X70012435Y-82573532D01*
X70017000Y-82619888D01*
X70017000Y-83271112D01*
X70012435Y-83317468D01*
X70000704Y-83356138D01*
X69981654Y-83391777D01*
X69956017Y-83423017D01*
X69924777Y-83448654D01*
X69889138Y-83467704D01*
X69850468Y-83479435D01*
X69804112Y-83484000D01*
X68727888Y-83484000D01*
X68681532Y-83479435D01*
X68642862Y-83467704D01*
X68607223Y-83448654D01*
X68575983Y-83423017D01*
X68550346Y-83391777D01*
X68531296Y-83356138D01*
X68519565Y-83317468D01*
X68515000Y-83271112D01*
X68515000Y-82619888D01*
X68519565Y-82573532D01*
X68531296Y-82534862D01*
X68550346Y-82499223D01*
X68575983Y-82467983D01*
X68607223Y-82442346D01*
X68642862Y-82423296D01*
X68681532Y-82411565D01*
X68727888Y-82407000D01*
X69804112Y-82407000D01*
X69850468Y-82411565D01*
X69850468Y-82411565D01*
G37*
G36*
X57451468Y-82399565D02*
G01*
X57490138Y-82411296D01*
X57525777Y-82430346D01*
X57557017Y-82455983D01*
X57582654Y-82487223D01*
X57601704Y-82522862D01*
X57613435Y-82561532D01*
X57618000Y-82607888D01*
X57618000Y-83259112D01*
X57613435Y-83305468D01*
X57601704Y-83344138D01*
X57582654Y-83379777D01*
X57557017Y-83411017D01*
X57525777Y-83436654D01*
X57490138Y-83455704D01*
X57451468Y-83467435D01*
X57405112Y-83472000D01*
X56328888Y-83472000D01*
X56282532Y-83467435D01*
X56243862Y-83455704D01*
X56208223Y-83436654D01*
X56176983Y-83411017D01*
X56151346Y-83379777D01*
X56132296Y-83344138D01*
X56120565Y-83305468D01*
X56116000Y-83259112D01*
X56116000Y-82607888D01*
X56120565Y-82561532D01*
X56132296Y-82522862D01*
X56151346Y-82487223D01*
X56176983Y-82455983D01*
X56208223Y-82430346D01*
X56243862Y-82411296D01*
X56282532Y-82399565D01*
X56328888Y-82395000D01*
X57405112Y-82395000D01*
X57451468Y-82399565D01*
X57451468Y-82399565D01*
G37*
G36*
X60813000Y-83221000D02*
G01*
X58161000Y-83221000D01*
X58161000Y-82059000D01*
X60813000Y-82059000D01*
X60813000Y-83221000D01*
X60813000Y-83221000D01*
G37*
G36*
X77377443Y-79941519D02*
G01*
X77443627Y-79948037D01*
X77613466Y-79999557D01*
X77769991Y-80083222D01*
X77805729Y-80112552D01*
X77907186Y-80195814D01*
X77990448Y-80297271D01*
X78019778Y-80333009D01*
X78103443Y-80489534D01*
X78154963Y-80659373D01*
X78172359Y-80836000D01*
X78154963Y-81012627D01*
X78103443Y-81182466D01*
X78019778Y-81338991D01*
X77990448Y-81374729D01*
X77907186Y-81476186D01*
X77821169Y-81546777D01*
X77769991Y-81588778D01*
X77613466Y-81672443D01*
X77443627Y-81723963D01*
X77377442Y-81730482D01*
X77311260Y-81737000D01*
X77222740Y-81737000D01*
X77156558Y-81730482D01*
X77090373Y-81723963D01*
X76920534Y-81672443D01*
X76764009Y-81588778D01*
X76712831Y-81546777D01*
X76626814Y-81476186D01*
X76543552Y-81374729D01*
X76514222Y-81338991D01*
X76430557Y-81182466D01*
X76379037Y-81012627D01*
X76361641Y-80836000D01*
X76379037Y-80659373D01*
X76430557Y-80489534D01*
X76514222Y-80333009D01*
X76543552Y-80297271D01*
X76626814Y-80195814D01*
X76728271Y-80112552D01*
X76764009Y-80083222D01*
X76920534Y-79999557D01*
X77090373Y-79948037D01*
X77156557Y-79941519D01*
X77222740Y-79935000D01*
X77311260Y-79935000D01*
X77377443Y-79941519D01*
X77377443Y-79941519D01*
G37*
G36*
X54517442Y-79921518D02*
G01*
X54583627Y-79928037D01*
X54753466Y-79979557D01*
X54909991Y-80063222D01*
X54934361Y-80083222D01*
X55047186Y-80175814D01*
X55130448Y-80277271D01*
X55159778Y-80313009D01*
X55243443Y-80469534D01*
X55294963Y-80639373D01*
X55312359Y-80816000D01*
X55294963Y-80992627D01*
X55243443Y-81162466D01*
X55159778Y-81318991D01*
X55143366Y-81338989D01*
X55047186Y-81456186D01*
X54949910Y-81536017D01*
X54909991Y-81568778D01*
X54753466Y-81652443D01*
X54583627Y-81703963D01*
X54517443Y-81710481D01*
X54451260Y-81717000D01*
X54362740Y-81717000D01*
X54296557Y-81710481D01*
X54230373Y-81703963D01*
X54060534Y-81652443D01*
X53904009Y-81568778D01*
X53864090Y-81536017D01*
X53766814Y-81456186D01*
X53670634Y-81338989D01*
X53654222Y-81318991D01*
X53570557Y-81162466D01*
X53519037Y-80992627D01*
X53501641Y-80816000D01*
X53519037Y-80639373D01*
X53570557Y-80469534D01*
X53654222Y-80313009D01*
X53683552Y-80277271D01*
X53766814Y-80175814D01*
X53879639Y-80083222D01*
X53904009Y-80063222D01*
X54060534Y-79979557D01*
X54230373Y-79928037D01*
X54296558Y-79921518D01*
X54362740Y-79915000D01*
X54451260Y-79915000D01*
X54517442Y-79921518D01*
X54517442Y-79921518D01*
G37*
G36*
X71985468Y-80566565D02*
G01*
X72024138Y-80578296D01*
X72059777Y-80597346D01*
X72091017Y-80622983D01*
X72116654Y-80654223D01*
X72135704Y-80689862D01*
X72147435Y-80728532D01*
X72152000Y-80774888D01*
X72152000Y-81426112D01*
X72147435Y-81472468D01*
X72135704Y-81511138D01*
X72116654Y-81546777D01*
X72091017Y-81578017D01*
X72059777Y-81603654D01*
X72024138Y-81622704D01*
X71985468Y-81634435D01*
X71939112Y-81639000D01*
X70862888Y-81639000D01*
X70816532Y-81634435D01*
X70777862Y-81622704D01*
X70742223Y-81603654D01*
X70710983Y-81578017D01*
X70685346Y-81546777D01*
X70666296Y-81511138D01*
X70654565Y-81472468D01*
X70650000Y-81426112D01*
X70650000Y-80774888D01*
X70654565Y-80728532D01*
X70666296Y-80689862D01*
X70685346Y-80654223D01*
X70710983Y-80622983D01*
X70742223Y-80597346D01*
X70777862Y-80578296D01*
X70816532Y-80566565D01*
X70862888Y-80562000D01*
X71939112Y-80562000D01*
X71985468Y-80566565D01*
X71985468Y-80566565D01*
G37*
G36*
X74017468Y-80566565D02*
G01*
X74056138Y-80578296D01*
X74091777Y-80597346D01*
X74123017Y-80622983D01*
X74148654Y-80654223D01*
X74167704Y-80689862D01*
X74179435Y-80728532D01*
X74184000Y-80774888D01*
X74184000Y-81426112D01*
X74179435Y-81472468D01*
X74167704Y-81511138D01*
X74148654Y-81546777D01*
X74123017Y-81578017D01*
X74091777Y-81603654D01*
X74056138Y-81622704D01*
X74017468Y-81634435D01*
X73971112Y-81639000D01*
X72894888Y-81639000D01*
X72848532Y-81634435D01*
X72809862Y-81622704D01*
X72774223Y-81603654D01*
X72742983Y-81578017D01*
X72717346Y-81546777D01*
X72698296Y-81511138D01*
X72686565Y-81472468D01*
X72682000Y-81426112D01*
X72682000Y-80774888D01*
X72686565Y-80728532D01*
X72698296Y-80689862D01*
X72717346Y-80654223D01*
X72742983Y-80622983D01*
X72774223Y-80597346D01*
X72809862Y-80578296D01*
X72848532Y-80566565D01*
X72894888Y-80562000D01*
X73971112Y-80562000D01*
X74017468Y-80566565D01*
X74017468Y-80566565D01*
G37*
G36*
X69850468Y-80536565D02*
G01*
X69889138Y-80548296D01*
X69924777Y-80567346D01*
X69956017Y-80592983D01*
X69981654Y-80624223D01*
X70000704Y-80659862D01*
X70012435Y-80698532D01*
X70017000Y-80744888D01*
X70017000Y-81396112D01*
X70012435Y-81442468D01*
X70000704Y-81481138D01*
X69981654Y-81516777D01*
X69956017Y-81548017D01*
X69924777Y-81573654D01*
X69889138Y-81592704D01*
X69850468Y-81604435D01*
X69804112Y-81609000D01*
X68727888Y-81609000D01*
X68681532Y-81604435D01*
X68642862Y-81592704D01*
X68607223Y-81573654D01*
X68575983Y-81548017D01*
X68550346Y-81516777D01*
X68531296Y-81481138D01*
X68519565Y-81442468D01*
X68515000Y-81396112D01*
X68515000Y-80744888D01*
X68519565Y-80698532D01*
X68531296Y-80659862D01*
X68550346Y-80624223D01*
X68575983Y-80592983D01*
X68607223Y-80567346D01*
X68642862Y-80548296D01*
X68681532Y-80536565D01*
X68727888Y-80532000D01*
X69804112Y-80532000D01*
X69850468Y-80536565D01*
X69850468Y-80536565D01*
G37*
G36*
X57451468Y-80524565D02*
G01*
X57490138Y-80536296D01*
X57525777Y-80555346D01*
X57557017Y-80580983D01*
X57582654Y-80612223D01*
X57601704Y-80647862D01*
X57613435Y-80686532D01*
X57618000Y-80732888D01*
X57618000Y-81384112D01*
X57613435Y-81430468D01*
X57601704Y-81469138D01*
X57582654Y-81504777D01*
X57557017Y-81536017D01*
X57525777Y-81561654D01*
X57490138Y-81580704D01*
X57451468Y-81592435D01*
X57405112Y-81597000D01*
X56328888Y-81597000D01*
X56282532Y-81592435D01*
X56243862Y-81580704D01*
X56208223Y-81561654D01*
X56176983Y-81536017D01*
X56151346Y-81504777D01*
X56132296Y-81469138D01*
X56120565Y-81430468D01*
X56116000Y-81384112D01*
X56116000Y-80732888D01*
X56120565Y-80686532D01*
X56132296Y-80647862D01*
X56151346Y-80612223D01*
X56176983Y-80580983D01*
X56208223Y-80555346D01*
X56243862Y-80536296D01*
X56282532Y-80524565D01*
X56328888Y-80520000D01*
X57405112Y-80520000D01*
X57451468Y-80524565D01*
X57451468Y-80524565D01*
G37*
G36*
X60813000Y-81021000D02*
G01*
X58161000Y-81021000D01*
X58161000Y-79859000D01*
X60813000Y-79859000D01*
X60813000Y-81021000D01*
X60813000Y-81021000D01*
G37*
G36*
X67718000Y-80547000D02*
G01*
X66416000Y-80547000D01*
X66416000Y-79245000D01*
X67718000Y-79245000D01*
X67718000Y-80547000D01*
X67718000Y-80547000D01*
G37*
G36*
X64618000Y-79747000D02*
G01*
X63016000Y-79747000D01*
X63016000Y-78045000D01*
X64618000Y-78045000D01*
X64618000Y-79747000D01*
X64618000Y-79747000D01*
G37*
G36*
X62177721Y-78366174D02*
G01*
X62277995Y-78407709D01*
X62277996Y-78407710D01*
X62368242Y-78468010D01*
X62444990Y-78544758D01*
X62444991Y-78544760D01*
X62505291Y-78635005D01*
X62546826Y-78735279D01*
X62568000Y-78841730D01*
X62568000Y-78950270D01*
X62546826Y-79056721D01*
X62505291Y-79156995D01*
X62505290Y-79156996D01*
X62444990Y-79247242D01*
X62368242Y-79323990D01*
X62322812Y-79354345D01*
X62277995Y-79384291D01*
X62177721Y-79425826D01*
X62071270Y-79447000D01*
X61962730Y-79447000D01*
X61856279Y-79425826D01*
X61756005Y-79384291D01*
X61711188Y-79354345D01*
X61665758Y-79323990D01*
X61589010Y-79247242D01*
X61528710Y-79156996D01*
X61528709Y-79156995D01*
X61487174Y-79056721D01*
X61466000Y-78950270D01*
X61466000Y-78841730D01*
X61487174Y-78735279D01*
X61528709Y-78635005D01*
X61589009Y-78544760D01*
X61589010Y-78544758D01*
X61665758Y-78468010D01*
X61756004Y-78407710D01*
X61756005Y-78407709D01*
X61856279Y-78366174D01*
X61962730Y-78345000D01*
X62071270Y-78345000D01*
X62177721Y-78366174D01*
X62177721Y-78366174D01*
G37*
G36*
X77377443Y-77401519D02*
G01*
X77443627Y-77408037D01*
X77613466Y-77459557D01*
X77769991Y-77543222D01*
X77805729Y-77572552D01*
X77907186Y-77655814D01*
X77946502Y-77703722D01*
X78019778Y-77793009D01*
X78103443Y-77949534D01*
X78154963Y-78119373D01*
X78172359Y-78296000D01*
X78154963Y-78472627D01*
X78103443Y-78642466D01*
X78019778Y-78798991D01*
X78000511Y-78822468D01*
X77907186Y-78936186D01*
X77805729Y-79019448D01*
X77769991Y-79048778D01*
X77613466Y-79132443D01*
X77443627Y-79183963D01*
X77377443Y-79190481D01*
X77311260Y-79197000D01*
X77222740Y-79197000D01*
X77156557Y-79190481D01*
X77090373Y-79183963D01*
X76920534Y-79132443D01*
X76764009Y-79048778D01*
X76728271Y-79019448D01*
X76626814Y-78936186D01*
X76533489Y-78822468D01*
X76514222Y-78798991D01*
X76430557Y-78642466D01*
X76379037Y-78472627D01*
X76361641Y-78296000D01*
X76379037Y-78119373D01*
X76430557Y-77949534D01*
X76514222Y-77793009D01*
X76587498Y-77703722D01*
X76626814Y-77655814D01*
X76728271Y-77572552D01*
X76764009Y-77543222D01*
X76920534Y-77459557D01*
X77090373Y-77408037D01*
X77156557Y-77401519D01*
X77222740Y-77395000D01*
X77311260Y-77395000D01*
X77377443Y-77401519D01*
X77377443Y-77401519D01*
G37*
G36*
X54517443Y-77381519D02*
G01*
X54583627Y-77388037D01*
X54753466Y-77439557D01*
X54909991Y-77523222D01*
X54934361Y-77543222D01*
X55047186Y-77635814D01*
X55130448Y-77737271D01*
X55159778Y-77773009D01*
X55243443Y-77929534D01*
X55294963Y-78099373D01*
X55312359Y-78276000D01*
X55294963Y-78452627D01*
X55243443Y-78622466D01*
X55159778Y-78778991D01*
X55143366Y-78798989D01*
X55047186Y-78916186D01*
X54945729Y-78999448D01*
X54909991Y-79028778D01*
X54753466Y-79112443D01*
X54583627Y-79163963D01*
X54517442Y-79170482D01*
X54451260Y-79177000D01*
X54362740Y-79177000D01*
X54296558Y-79170482D01*
X54230373Y-79163963D01*
X54060534Y-79112443D01*
X53904009Y-79028778D01*
X53868271Y-78999448D01*
X53766814Y-78916186D01*
X53670634Y-78798989D01*
X53654222Y-78778991D01*
X53570557Y-78622466D01*
X53519037Y-78452627D01*
X53501641Y-78276000D01*
X53519037Y-78099373D01*
X53570557Y-77929534D01*
X53654222Y-77773009D01*
X53683552Y-77737271D01*
X53766814Y-77635814D01*
X53879639Y-77543222D01*
X53904009Y-77523222D01*
X54060534Y-77439557D01*
X54230373Y-77388037D01*
X54296557Y-77381519D01*
X54362740Y-77375000D01*
X54451260Y-77375000D01*
X54517443Y-77381519D01*
X54517443Y-77381519D01*
G37*
G36*
X60796468Y-77491565D02*
G01*
X60835138Y-77503296D01*
X60870777Y-77522346D01*
X60902017Y-77547983D01*
X60927654Y-77579223D01*
X60946704Y-77614862D01*
X60958435Y-77653532D01*
X60963000Y-77699888D01*
X60963000Y-78776112D01*
X60958435Y-78822468D01*
X60946704Y-78861138D01*
X60927654Y-78896777D01*
X60902017Y-78928017D01*
X60870777Y-78953654D01*
X60835138Y-78972704D01*
X60796468Y-78984435D01*
X60750112Y-78989000D01*
X60098888Y-78989000D01*
X60052532Y-78984435D01*
X60013862Y-78972704D01*
X59978223Y-78953654D01*
X59946983Y-78928017D01*
X59921346Y-78896777D01*
X59902296Y-78861138D01*
X59890565Y-78822468D01*
X59886000Y-78776112D01*
X59886000Y-77699888D01*
X59890565Y-77653532D01*
X59902296Y-77614862D01*
X59921346Y-77579223D01*
X59946983Y-77547983D01*
X59978223Y-77522346D01*
X60013862Y-77503296D01*
X60052532Y-77491565D01*
X60098888Y-77487000D01*
X60750112Y-77487000D01*
X60796468Y-77491565D01*
X60796468Y-77491565D01*
G37*
G36*
X58921468Y-77491565D02*
G01*
X58960138Y-77503296D01*
X58995777Y-77522346D01*
X59027017Y-77547983D01*
X59052654Y-77579223D01*
X59071704Y-77614862D01*
X59083435Y-77653532D01*
X59088000Y-77699888D01*
X59088000Y-78776112D01*
X59083435Y-78822468D01*
X59071704Y-78861138D01*
X59052654Y-78896777D01*
X59027017Y-78928017D01*
X58995777Y-78953654D01*
X58960138Y-78972704D01*
X58921468Y-78984435D01*
X58875112Y-78989000D01*
X58223888Y-78989000D01*
X58177532Y-78984435D01*
X58138862Y-78972704D01*
X58103223Y-78953654D01*
X58071983Y-78928017D01*
X58046346Y-78896777D01*
X58027296Y-78861138D01*
X58015565Y-78822468D01*
X58011000Y-78776112D01*
X58011000Y-77699888D01*
X58015565Y-77653532D01*
X58027296Y-77614862D01*
X58046346Y-77579223D01*
X58071983Y-77547983D01*
X58103223Y-77522346D01*
X58138862Y-77503296D01*
X58177532Y-77491565D01*
X58223888Y-77487000D01*
X58875112Y-77487000D01*
X58921468Y-77491565D01*
X58921468Y-77491565D01*
G37*
G36*
X67718000Y-78547000D02*
G01*
X66416000Y-78547000D01*
X66416000Y-77245000D01*
X67718000Y-77245000D01*
X67718000Y-78547000D01*
X67718000Y-78547000D01*
G37*
G36*
X77377442Y-74861518D02*
G01*
X77443627Y-74868037D01*
X77613466Y-74919557D01*
X77769991Y-75003222D01*
X77805729Y-75032552D01*
X77907186Y-75115814D01*
X77990448Y-75217271D01*
X78019778Y-75253009D01*
X78103443Y-75409534D01*
X78154963Y-75579373D01*
X78172359Y-75756000D01*
X78154963Y-75932627D01*
X78103443Y-76102466D01*
X78019778Y-76258991D01*
X77990448Y-76294729D01*
X77907186Y-76396186D01*
X77805729Y-76479448D01*
X77769991Y-76508778D01*
X77613466Y-76592443D01*
X77443627Y-76643963D01*
X77377442Y-76650482D01*
X77311260Y-76657000D01*
X77222740Y-76657000D01*
X77156558Y-76650482D01*
X77090373Y-76643963D01*
X76920534Y-76592443D01*
X76764009Y-76508778D01*
X76728271Y-76479448D01*
X76626814Y-76396186D01*
X76543552Y-76294729D01*
X76514222Y-76258991D01*
X76430557Y-76102466D01*
X76379037Y-75932627D01*
X76361641Y-75756000D01*
X76379037Y-75579373D01*
X76430557Y-75409534D01*
X76514222Y-75253009D01*
X76543552Y-75217271D01*
X76626814Y-75115814D01*
X76728271Y-75032552D01*
X76764009Y-75003222D01*
X76920534Y-74919557D01*
X77090373Y-74868037D01*
X77156558Y-74861518D01*
X77222740Y-74855000D01*
X77311260Y-74855000D01*
X77377442Y-74861518D01*
X77377442Y-74861518D01*
G37*
G36*
X54517443Y-74841519D02*
G01*
X54583627Y-74848037D01*
X54753466Y-74899557D01*
X54909991Y-74983222D01*
X54934361Y-75003222D01*
X55047186Y-75095814D01*
X55130448Y-75197271D01*
X55159778Y-75233009D01*
X55243443Y-75389534D01*
X55294963Y-75559373D01*
X55312359Y-75736000D01*
X55294963Y-75912627D01*
X55243443Y-76082466D01*
X55159778Y-76238991D01*
X55143366Y-76258989D01*
X55047186Y-76376186D01*
X54945729Y-76459448D01*
X54909991Y-76488778D01*
X54753466Y-76572443D01*
X54583627Y-76623963D01*
X54517443Y-76630481D01*
X54451260Y-76637000D01*
X54362740Y-76637000D01*
X54296557Y-76630481D01*
X54230373Y-76623963D01*
X54060534Y-76572443D01*
X53904009Y-76488778D01*
X53868271Y-76459448D01*
X53766814Y-76376186D01*
X53670634Y-76258989D01*
X53654222Y-76238991D01*
X53570557Y-76082466D01*
X53519037Y-75912627D01*
X53501641Y-75736000D01*
X53519037Y-75559373D01*
X53570557Y-75389534D01*
X53654222Y-75233009D01*
X53683552Y-75197271D01*
X53766814Y-75095814D01*
X53879639Y-75003222D01*
X53904009Y-74983222D01*
X54060534Y-74899557D01*
X54230373Y-74848037D01*
X54296557Y-74841519D01*
X54362740Y-74835000D01*
X54451260Y-74835000D01*
X54517443Y-74841519D01*
X54517443Y-74841519D01*
G37*
G36*
X72566487Y-73214996D02*
G01*
X72803253Y-73313068D01*
X72803255Y-73313069D01*
X72922319Y-73392625D01*
X73016339Y-73455447D01*
X73197553Y-73636661D01*
X73339932Y-73849747D01*
X73438004Y-74086513D01*
X73488000Y-74337861D01*
X73488000Y-74594139D01*
X73438004Y-74845487D01*
X73380952Y-74983222D01*
X73339931Y-75082255D01*
X73197553Y-75295339D01*
X73016339Y-75476553D01*
X72803255Y-75618931D01*
X72803254Y-75618932D01*
X72803253Y-75618932D01*
X72566487Y-75717004D01*
X72315139Y-75767000D01*
X72058861Y-75767000D01*
X71807513Y-75717004D01*
X71570747Y-75618932D01*
X71570746Y-75618932D01*
X71570745Y-75618931D01*
X71357661Y-75476553D01*
X71176447Y-75295339D01*
X71034069Y-75082255D01*
X70993048Y-74983222D01*
X70935996Y-74845487D01*
X70886000Y-74594139D01*
X70886000Y-74337861D01*
X70935996Y-74086513D01*
X71034068Y-73849747D01*
X71176447Y-73636661D01*
X71357661Y-73455447D01*
X71451681Y-73392625D01*
X71570745Y-73313069D01*
X71570747Y-73313068D01*
X71807513Y-73214996D01*
X72058861Y-73165000D01*
X72315139Y-73165000D01*
X72566487Y-73214996D01*
X72566487Y-73214996D01*
G37*
G36*
X66597487Y-73214996D02*
G01*
X66834253Y-73313068D01*
X66834255Y-73313069D01*
X66953319Y-73392625D01*
X67047339Y-73455447D01*
X67228553Y-73636661D01*
X67370932Y-73849747D01*
X67469004Y-74086513D01*
X67519000Y-74337861D01*
X67519000Y-74594139D01*
X67469004Y-74845487D01*
X67411952Y-74983222D01*
X67370931Y-75082255D01*
X67228553Y-75295339D01*
X67047339Y-75476553D01*
X66834255Y-75618931D01*
X66834254Y-75618932D01*
X66834253Y-75618932D01*
X66597487Y-75717004D01*
X66346139Y-75767000D01*
X66089861Y-75767000D01*
X65838513Y-75717004D01*
X65601747Y-75618932D01*
X65601746Y-75618932D01*
X65601745Y-75618931D01*
X65388661Y-75476553D01*
X65207447Y-75295339D01*
X65065069Y-75082255D01*
X65024048Y-74983222D01*
X64966996Y-74845487D01*
X64917000Y-74594139D01*
X64917000Y-74337861D01*
X64966996Y-74086513D01*
X65065068Y-73849747D01*
X65207447Y-73636661D01*
X65388661Y-73455447D01*
X65482681Y-73392625D01*
X65601745Y-73313069D01*
X65601747Y-73313068D01*
X65838513Y-73214996D01*
X66089861Y-73165000D01*
X66346139Y-73165000D01*
X66597487Y-73214996D01*
X66597487Y-73214996D01*
G37*
G36*
X59866487Y-73214996D02*
G01*
X60103253Y-73313068D01*
X60103255Y-73313069D01*
X60222319Y-73392625D01*
X60316339Y-73455447D01*
X60497553Y-73636661D01*
X60639932Y-73849747D01*
X60738004Y-74086513D01*
X60788000Y-74337861D01*
X60788000Y-74594139D01*
X60738004Y-74845487D01*
X60680952Y-74983222D01*
X60639931Y-75082255D01*
X60497553Y-75295339D01*
X60316339Y-75476553D01*
X60103255Y-75618931D01*
X60103254Y-75618932D01*
X60103253Y-75618932D01*
X59866487Y-75717004D01*
X59615139Y-75767000D01*
X59358861Y-75767000D01*
X59107513Y-75717004D01*
X58870747Y-75618932D01*
X58870746Y-75618932D01*
X58870745Y-75618931D01*
X58657661Y-75476553D01*
X58476447Y-75295339D01*
X58334069Y-75082255D01*
X58293048Y-74983222D01*
X58235996Y-74845487D01*
X58186000Y-74594139D01*
X58186000Y-74337861D01*
X58235996Y-74086513D01*
X58334068Y-73849747D01*
X58476447Y-73636661D01*
X58657661Y-73455447D01*
X58751681Y-73392625D01*
X58870745Y-73313069D01*
X58870747Y-73313068D01*
X59107513Y-73214996D01*
X59358861Y-73165000D01*
X59615139Y-73165000D01*
X59866487Y-73214996D01*
X59866487Y-73214996D01*
G37*
G36*
X77377443Y-72321519D02*
G01*
X77443627Y-72328037D01*
X77613466Y-72379557D01*
X77769991Y-72463222D01*
X77805729Y-72492552D01*
X77907186Y-72575814D01*
X77990448Y-72677271D01*
X78019778Y-72713009D01*
X78103443Y-72869534D01*
X78154963Y-73039373D01*
X78172359Y-73216000D01*
X78154963Y-73392627D01*
X78103443Y-73562466D01*
X78019778Y-73718991D01*
X77990448Y-73754729D01*
X77907186Y-73856186D01*
X77805729Y-73939448D01*
X77769991Y-73968778D01*
X77613466Y-74052443D01*
X77443627Y-74103963D01*
X77377443Y-74110481D01*
X77311260Y-74117000D01*
X77222740Y-74117000D01*
X77156557Y-74110481D01*
X77090373Y-74103963D01*
X76920534Y-74052443D01*
X76764009Y-73968778D01*
X76728271Y-73939448D01*
X76626814Y-73856186D01*
X76543552Y-73754729D01*
X76514222Y-73718991D01*
X76430557Y-73562466D01*
X76379037Y-73392627D01*
X76361641Y-73216000D01*
X76379037Y-73039373D01*
X76430557Y-72869534D01*
X76514222Y-72713009D01*
X76543552Y-72677271D01*
X76626814Y-72575814D01*
X76728271Y-72492552D01*
X76764009Y-72463222D01*
X76920534Y-72379557D01*
X77090373Y-72328037D01*
X77156557Y-72321519D01*
X77222740Y-72315000D01*
X77311260Y-72315000D01*
X77377443Y-72321519D01*
X77377443Y-72321519D01*
G37*
G36*
X55308000Y-74097000D02*
G01*
X53506000Y-74097000D01*
X53506000Y-72295000D01*
X55308000Y-72295000D01*
X55308000Y-74097000D01*
X55308000Y-74097000D01*
G37*
M02*
