G04 #@! TF.GenerationSoftware,KiCad,Pcbnew,(5.1.2)-2*
G04 #@! TF.CreationDate,2019-08-28T15:44:57+02:00*
G04 #@! TF.ProjectId,esp_pmc,6573705f-706d-4632-9e6b-696361645f70,0.0.1*
G04 #@! TF.SameCoordinates,Original*
G04 #@! TF.FileFunction,Copper,L1,Top*
G04 #@! TF.FilePolarity,Positive*
%FSLAX46Y46*%
G04 Gerber Fmt 4.6, Leading zero omitted, Abs format (unit mm)*
G04 Created by KiCad (PCBNEW (5.1.2)-2) date 2019-08-28 15:44:57*
%MOMM*%
%LPD*%
G04 APERTURE LIST*
%ADD10C,0.100000*%
%ADD11C,2.500000*%
%ADD12C,1.000000*%
%ADD13R,1.700000X1.700000*%
%ADD14O,1.700000X1.700000*%
%ADD15R,0.650000X1.060000*%
%ADD16R,1.680000X2.950000*%
%ADD17R,0.850000X0.300000*%
%ADD18R,1.500000X1.600000*%
%ADD19R,1.200000X1.200000*%
%ADD20C,0.975000*%
%ADD21R,0.800000X2.900000*%
%ADD22C,0.500000*%
%ADD23C,0.450000*%
%ADD24C,0.203200*%
%ADD25C,0.200000*%
%ADD26C,0.125000*%
%ADD27C,0.075000*%
G04 APERTURE END LIST*
D10*
G36*
X71517000Y-90930000D02*
G01*
X71017000Y-90930000D01*
X71017000Y-91530000D01*
X71517000Y-91530000D01*
X71517000Y-90930000D01*
G37*
D11*
X66267000Y-91196000D03*
D12*
X62017000Y-78896000D03*
D11*
X72187000Y-74466000D03*
X66218000Y-74466000D03*
X59487000Y-74466000D03*
D13*
X54407000Y-73196000D03*
D14*
X54407000Y-75736000D03*
X54407000Y-78276000D03*
X54407000Y-80816000D03*
X54407000Y-83356000D03*
X54407000Y-85896000D03*
X54407000Y-88436000D03*
X54407000Y-90976000D03*
X77267000Y-73216000D03*
X77267000Y-75756000D03*
X77267000Y-78296000D03*
X77267000Y-80836000D03*
X77267000Y-83376000D03*
X77267000Y-85916000D03*
X77267000Y-88456000D03*
D13*
X77267000Y-90996000D03*
D15*
X59487000Y-82640000D03*
X60437000Y-82640000D03*
X58537000Y-82640000D03*
X58537000Y-80440000D03*
X59487000Y-80440000D03*
X60437000Y-80440000D03*
D16*
X64795571Y-87128000D03*
D17*
X63345571Y-88628000D03*
X63345571Y-88128000D03*
X63345571Y-87628000D03*
X63345571Y-87128000D03*
X63345571Y-86628000D03*
X63345571Y-86128000D03*
X63345571Y-85628000D03*
X66245571Y-85628000D03*
X66245571Y-86128000D03*
X66245571Y-86628000D03*
X66245571Y-87128000D03*
X66245571Y-87628000D03*
X66245571Y-88128000D03*
X66245571Y-88628000D03*
D18*
X63817000Y-78896000D03*
D19*
X67067000Y-77896000D03*
X67067000Y-79896000D03*
D10*
G36*
X57347142Y-80572174D02*
G01*
X57370803Y-80575684D01*
X57394007Y-80581496D01*
X57416529Y-80589554D01*
X57438153Y-80599782D01*
X57458670Y-80612079D01*
X57477883Y-80626329D01*
X57495607Y-80642393D01*
X57511671Y-80660117D01*
X57525921Y-80679330D01*
X57538218Y-80699847D01*
X57548446Y-80721471D01*
X57556504Y-80743993D01*
X57562316Y-80767197D01*
X57565826Y-80790858D01*
X57567000Y-80814750D01*
X57567000Y-81302250D01*
X57565826Y-81326142D01*
X57562316Y-81349803D01*
X57556504Y-81373007D01*
X57548446Y-81395529D01*
X57538218Y-81417153D01*
X57525921Y-81437670D01*
X57511671Y-81456883D01*
X57495607Y-81474607D01*
X57477883Y-81490671D01*
X57458670Y-81504921D01*
X57438153Y-81517218D01*
X57416529Y-81527446D01*
X57394007Y-81535504D01*
X57370803Y-81541316D01*
X57347142Y-81544826D01*
X57323250Y-81546000D01*
X56410750Y-81546000D01*
X56386858Y-81544826D01*
X56363197Y-81541316D01*
X56339993Y-81535504D01*
X56317471Y-81527446D01*
X56295847Y-81517218D01*
X56275330Y-81504921D01*
X56256117Y-81490671D01*
X56238393Y-81474607D01*
X56222329Y-81456883D01*
X56208079Y-81437670D01*
X56195782Y-81417153D01*
X56185554Y-81395529D01*
X56177496Y-81373007D01*
X56171684Y-81349803D01*
X56168174Y-81326142D01*
X56167000Y-81302250D01*
X56167000Y-80814750D01*
X56168174Y-80790858D01*
X56171684Y-80767197D01*
X56177496Y-80743993D01*
X56185554Y-80721471D01*
X56195782Y-80699847D01*
X56208079Y-80679330D01*
X56222329Y-80660117D01*
X56238393Y-80642393D01*
X56256117Y-80626329D01*
X56275330Y-80612079D01*
X56295847Y-80599782D01*
X56317471Y-80589554D01*
X56339993Y-80581496D01*
X56363197Y-80575684D01*
X56386858Y-80572174D01*
X56410750Y-80571000D01*
X57323250Y-80571000D01*
X57347142Y-80572174D01*
X57347142Y-80572174D01*
G37*
D20*
X56867000Y-81058500D03*
D10*
G36*
X57347142Y-82447174D02*
G01*
X57370803Y-82450684D01*
X57394007Y-82456496D01*
X57416529Y-82464554D01*
X57438153Y-82474782D01*
X57458670Y-82487079D01*
X57477883Y-82501329D01*
X57495607Y-82517393D01*
X57511671Y-82535117D01*
X57525921Y-82554330D01*
X57538218Y-82574847D01*
X57548446Y-82596471D01*
X57556504Y-82618993D01*
X57562316Y-82642197D01*
X57565826Y-82665858D01*
X57567000Y-82689750D01*
X57567000Y-83177250D01*
X57565826Y-83201142D01*
X57562316Y-83224803D01*
X57556504Y-83248007D01*
X57548446Y-83270529D01*
X57538218Y-83292153D01*
X57525921Y-83312670D01*
X57511671Y-83331883D01*
X57495607Y-83349607D01*
X57477883Y-83365671D01*
X57458670Y-83379921D01*
X57438153Y-83392218D01*
X57416529Y-83402446D01*
X57394007Y-83410504D01*
X57370803Y-83416316D01*
X57347142Y-83419826D01*
X57323250Y-83421000D01*
X56410750Y-83421000D01*
X56386858Y-83419826D01*
X56363197Y-83416316D01*
X56339993Y-83410504D01*
X56317471Y-83402446D01*
X56295847Y-83392218D01*
X56275330Y-83379921D01*
X56256117Y-83365671D01*
X56238393Y-83349607D01*
X56222329Y-83331883D01*
X56208079Y-83312670D01*
X56195782Y-83292153D01*
X56185554Y-83270529D01*
X56177496Y-83248007D01*
X56171684Y-83224803D01*
X56168174Y-83201142D01*
X56167000Y-83177250D01*
X56167000Y-82689750D01*
X56168174Y-82665858D01*
X56171684Y-82642197D01*
X56177496Y-82618993D01*
X56185554Y-82596471D01*
X56195782Y-82574847D01*
X56208079Y-82554330D01*
X56222329Y-82535117D01*
X56238393Y-82517393D01*
X56256117Y-82501329D01*
X56275330Y-82487079D01*
X56295847Y-82474782D01*
X56317471Y-82464554D01*
X56339993Y-82456496D01*
X56363197Y-82450684D01*
X56386858Y-82447174D01*
X56410750Y-82446000D01*
X57323250Y-82446000D01*
X57347142Y-82447174D01*
X57347142Y-82447174D01*
G37*
D20*
X56867000Y-82933500D03*
D10*
G36*
X71147142Y-87604174D02*
G01*
X71170803Y-87607684D01*
X71194007Y-87613496D01*
X71216529Y-87621554D01*
X71238153Y-87631782D01*
X71258670Y-87644079D01*
X71277883Y-87658329D01*
X71295607Y-87674393D01*
X71311671Y-87692117D01*
X71325921Y-87711330D01*
X71338218Y-87731847D01*
X71348446Y-87753471D01*
X71356504Y-87775993D01*
X71362316Y-87799197D01*
X71365826Y-87822858D01*
X71367000Y-87846750D01*
X71367000Y-88334250D01*
X71365826Y-88358142D01*
X71362316Y-88381803D01*
X71356504Y-88405007D01*
X71348446Y-88427529D01*
X71338218Y-88449153D01*
X71325921Y-88469670D01*
X71311671Y-88488883D01*
X71295607Y-88506607D01*
X71277883Y-88522671D01*
X71258670Y-88536921D01*
X71238153Y-88549218D01*
X71216529Y-88559446D01*
X71194007Y-88567504D01*
X71170803Y-88573316D01*
X71147142Y-88576826D01*
X71123250Y-88578000D01*
X70210750Y-88578000D01*
X70186858Y-88576826D01*
X70163197Y-88573316D01*
X70139993Y-88567504D01*
X70117471Y-88559446D01*
X70095847Y-88549218D01*
X70075330Y-88536921D01*
X70056117Y-88522671D01*
X70038393Y-88506607D01*
X70022329Y-88488883D01*
X70008079Y-88469670D01*
X69995782Y-88449153D01*
X69985554Y-88427529D01*
X69977496Y-88405007D01*
X69971684Y-88381803D01*
X69968174Y-88358142D01*
X69967000Y-88334250D01*
X69967000Y-87846750D01*
X69968174Y-87822858D01*
X69971684Y-87799197D01*
X69977496Y-87775993D01*
X69985554Y-87753471D01*
X69995782Y-87731847D01*
X70008079Y-87711330D01*
X70022329Y-87692117D01*
X70038393Y-87674393D01*
X70056117Y-87658329D01*
X70075330Y-87644079D01*
X70095847Y-87631782D01*
X70117471Y-87621554D01*
X70139993Y-87613496D01*
X70163197Y-87607684D01*
X70186858Y-87604174D01*
X70210750Y-87603000D01*
X71123250Y-87603000D01*
X71147142Y-87604174D01*
X71147142Y-87604174D01*
G37*
D20*
X70667000Y-88090500D03*
D10*
G36*
X71147142Y-85729174D02*
G01*
X71170803Y-85732684D01*
X71194007Y-85738496D01*
X71216529Y-85746554D01*
X71238153Y-85756782D01*
X71258670Y-85769079D01*
X71277883Y-85783329D01*
X71295607Y-85799393D01*
X71311671Y-85817117D01*
X71325921Y-85836330D01*
X71338218Y-85856847D01*
X71348446Y-85878471D01*
X71356504Y-85900993D01*
X71362316Y-85924197D01*
X71365826Y-85947858D01*
X71367000Y-85971750D01*
X71367000Y-86459250D01*
X71365826Y-86483142D01*
X71362316Y-86506803D01*
X71356504Y-86530007D01*
X71348446Y-86552529D01*
X71338218Y-86574153D01*
X71325921Y-86594670D01*
X71311671Y-86613883D01*
X71295607Y-86631607D01*
X71277883Y-86647671D01*
X71258670Y-86661921D01*
X71238153Y-86674218D01*
X71216529Y-86684446D01*
X71194007Y-86692504D01*
X71170803Y-86698316D01*
X71147142Y-86701826D01*
X71123250Y-86703000D01*
X70210750Y-86703000D01*
X70186858Y-86701826D01*
X70163197Y-86698316D01*
X70139993Y-86692504D01*
X70117471Y-86684446D01*
X70095847Y-86674218D01*
X70075330Y-86661921D01*
X70056117Y-86647671D01*
X70038393Y-86631607D01*
X70022329Y-86613883D01*
X70008079Y-86594670D01*
X69995782Y-86574153D01*
X69985554Y-86552529D01*
X69977496Y-86530007D01*
X69971684Y-86506803D01*
X69968174Y-86483142D01*
X69967000Y-86459250D01*
X69967000Y-85971750D01*
X69968174Y-85947858D01*
X69971684Y-85924197D01*
X69977496Y-85900993D01*
X69985554Y-85878471D01*
X69995782Y-85856847D01*
X70008079Y-85836330D01*
X70022329Y-85817117D01*
X70038393Y-85799393D01*
X70056117Y-85783329D01*
X70075330Y-85769079D01*
X70095847Y-85756782D01*
X70117471Y-85746554D01*
X70139993Y-85738496D01*
X70163197Y-85732684D01*
X70186858Y-85729174D01*
X70210750Y-85728000D01*
X71123250Y-85728000D01*
X71147142Y-85729174D01*
X71147142Y-85729174D01*
G37*
D20*
X70667000Y-86215500D03*
D10*
G36*
X75247142Y-87604174D02*
G01*
X75270803Y-87607684D01*
X75294007Y-87613496D01*
X75316529Y-87621554D01*
X75338153Y-87631782D01*
X75358670Y-87644079D01*
X75377883Y-87658329D01*
X75395607Y-87674393D01*
X75411671Y-87692117D01*
X75425921Y-87711330D01*
X75438218Y-87731847D01*
X75448446Y-87753471D01*
X75456504Y-87775993D01*
X75462316Y-87799197D01*
X75465826Y-87822858D01*
X75467000Y-87846750D01*
X75467000Y-88334250D01*
X75465826Y-88358142D01*
X75462316Y-88381803D01*
X75456504Y-88405007D01*
X75448446Y-88427529D01*
X75438218Y-88449153D01*
X75425921Y-88469670D01*
X75411671Y-88488883D01*
X75395607Y-88506607D01*
X75377883Y-88522671D01*
X75358670Y-88536921D01*
X75338153Y-88549218D01*
X75316529Y-88559446D01*
X75294007Y-88567504D01*
X75270803Y-88573316D01*
X75247142Y-88576826D01*
X75223250Y-88578000D01*
X74310750Y-88578000D01*
X74286858Y-88576826D01*
X74263197Y-88573316D01*
X74239993Y-88567504D01*
X74217471Y-88559446D01*
X74195847Y-88549218D01*
X74175330Y-88536921D01*
X74156117Y-88522671D01*
X74138393Y-88506607D01*
X74122329Y-88488883D01*
X74108079Y-88469670D01*
X74095782Y-88449153D01*
X74085554Y-88427529D01*
X74077496Y-88405007D01*
X74071684Y-88381803D01*
X74068174Y-88358142D01*
X74067000Y-88334250D01*
X74067000Y-87846750D01*
X74068174Y-87822858D01*
X74071684Y-87799197D01*
X74077496Y-87775993D01*
X74085554Y-87753471D01*
X74095782Y-87731847D01*
X74108079Y-87711330D01*
X74122329Y-87692117D01*
X74138393Y-87674393D01*
X74156117Y-87658329D01*
X74175330Y-87644079D01*
X74195847Y-87631782D01*
X74217471Y-87621554D01*
X74239993Y-87613496D01*
X74263197Y-87607684D01*
X74286858Y-87604174D01*
X74310750Y-87603000D01*
X75223250Y-87603000D01*
X75247142Y-87604174D01*
X75247142Y-87604174D01*
G37*
D20*
X74767000Y-88090500D03*
D10*
G36*
X75247142Y-85729174D02*
G01*
X75270803Y-85732684D01*
X75294007Y-85738496D01*
X75316529Y-85746554D01*
X75338153Y-85756782D01*
X75358670Y-85769079D01*
X75377883Y-85783329D01*
X75395607Y-85799393D01*
X75411671Y-85817117D01*
X75425921Y-85836330D01*
X75438218Y-85856847D01*
X75448446Y-85878471D01*
X75456504Y-85900993D01*
X75462316Y-85924197D01*
X75465826Y-85947858D01*
X75467000Y-85971750D01*
X75467000Y-86459250D01*
X75465826Y-86483142D01*
X75462316Y-86506803D01*
X75456504Y-86530007D01*
X75448446Y-86552529D01*
X75438218Y-86574153D01*
X75425921Y-86594670D01*
X75411671Y-86613883D01*
X75395607Y-86631607D01*
X75377883Y-86647671D01*
X75358670Y-86661921D01*
X75338153Y-86674218D01*
X75316529Y-86684446D01*
X75294007Y-86692504D01*
X75270803Y-86698316D01*
X75247142Y-86701826D01*
X75223250Y-86703000D01*
X74310750Y-86703000D01*
X74286858Y-86701826D01*
X74263197Y-86698316D01*
X74239993Y-86692504D01*
X74217471Y-86684446D01*
X74195847Y-86674218D01*
X74175330Y-86661921D01*
X74156117Y-86647671D01*
X74138393Y-86631607D01*
X74122329Y-86613883D01*
X74108079Y-86594670D01*
X74095782Y-86574153D01*
X74085554Y-86552529D01*
X74077496Y-86530007D01*
X74071684Y-86506803D01*
X74068174Y-86483142D01*
X74067000Y-86459250D01*
X74067000Y-85971750D01*
X74068174Y-85947858D01*
X74071684Y-85924197D01*
X74077496Y-85900993D01*
X74085554Y-85878471D01*
X74095782Y-85856847D01*
X74108079Y-85836330D01*
X74122329Y-85817117D01*
X74138393Y-85799393D01*
X74156117Y-85783329D01*
X74175330Y-85769079D01*
X74195847Y-85756782D01*
X74217471Y-85746554D01*
X74239993Y-85738496D01*
X74263197Y-85732684D01*
X74286858Y-85729174D01*
X74310750Y-85728000D01*
X75223250Y-85728000D01*
X75247142Y-85729174D01*
X75247142Y-85729174D01*
G37*
D20*
X74767000Y-86215500D03*
D10*
G36*
X73054284Y-87604174D02*
G01*
X73077945Y-87607684D01*
X73101149Y-87613496D01*
X73123671Y-87621554D01*
X73145295Y-87631782D01*
X73165812Y-87644079D01*
X73185025Y-87658329D01*
X73202749Y-87674393D01*
X73218813Y-87692117D01*
X73233063Y-87711330D01*
X73245360Y-87731847D01*
X73255588Y-87753471D01*
X73263646Y-87775993D01*
X73269458Y-87799197D01*
X73272968Y-87822858D01*
X73274142Y-87846750D01*
X73274142Y-88334250D01*
X73272968Y-88358142D01*
X73269458Y-88381803D01*
X73263646Y-88405007D01*
X73255588Y-88427529D01*
X73245360Y-88449153D01*
X73233063Y-88469670D01*
X73218813Y-88488883D01*
X73202749Y-88506607D01*
X73185025Y-88522671D01*
X73165812Y-88536921D01*
X73145295Y-88549218D01*
X73123671Y-88559446D01*
X73101149Y-88567504D01*
X73077945Y-88573316D01*
X73054284Y-88576826D01*
X73030392Y-88578000D01*
X72117892Y-88578000D01*
X72094000Y-88576826D01*
X72070339Y-88573316D01*
X72047135Y-88567504D01*
X72024613Y-88559446D01*
X72002989Y-88549218D01*
X71982472Y-88536921D01*
X71963259Y-88522671D01*
X71945535Y-88506607D01*
X71929471Y-88488883D01*
X71915221Y-88469670D01*
X71902924Y-88449153D01*
X71892696Y-88427529D01*
X71884638Y-88405007D01*
X71878826Y-88381803D01*
X71875316Y-88358142D01*
X71874142Y-88334250D01*
X71874142Y-87846750D01*
X71875316Y-87822858D01*
X71878826Y-87799197D01*
X71884638Y-87775993D01*
X71892696Y-87753471D01*
X71902924Y-87731847D01*
X71915221Y-87711330D01*
X71929471Y-87692117D01*
X71945535Y-87674393D01*
X71963259Y-87658329D01*
X71982472Y-87644079D01*
X72002989Y-87631782D01*
X72024613Y-87621554D01*
X72047135Y-87613496D01*
X72070339Y-87607684D01*
X72094000Y-87604174D01*
X72117892Y-87603000D01*
X73030392Y-87603000D01*
X73054284Y-87604174D01*
X73054284Y-87604174D01*
G37*
D20*
X72574142Y-88090500D03*
D10*
G36*
X73054284Y-85729174D02*
G01*
X73077945Y-85732684D01*
X73101149Y-85738496D01*
X73123671Y-85746554D01*
X73145295Y-85756782D01*
X73165812Y-85769079D01*
X73185025Y-85783329D01*
X73202749Y-85799393D01*
X73218813Y-85817117D01*
X73233063Y-85836330D01*
X73245360Y-85856847D01*
X73255588Y-85878471D01*
X73263646Y-85900993D01*
X73269458Y-85924197D01*
X73272968Y-85947858D01*
X73274142Y-85971750D01*
X73274142Y-86459250D01*
X73272968Y-86483142D01*
X73269458Y-86506803D01*
X73263646Y-86530007D01*
X73255588Y-86552529D01*
X73245360Y-86574153D01*
X73233063Y-86594670D01*
X73218813Y-86613883D01*
X73202749Y-86631607D01*
X73185025Y-86647671D01*
X73165812Y-86661921D01*
X73145295Y-86674218D01*
X73123671Y-86684446D01*
X73101149Y-86692504D01*
X73077945Y-86698316D01*
X73054284Y-86701826D01*
X73030392Y-86703000D01*
X72117892Y-86703000D01*
X72094000Y-86701826D01*
X72070339Y-86698316D01*
X72047135Y-86692504D01*
X72024613Y-86684446D01*
X72002989Y-86674218D01*
X71982472Y-86661921D01*
X71963259Y-86647671D01*
X71945535Y-86631607D01*
X71929471Y-86613883D01*
X71915221Y-86594670D01*
X71902924Y-86574153D01*
X71892696Y-86552529D01*
X71884638Y-86530007D01*
X71878826Y-86506803D01*
X71875316Y-86483142D01*
X71874142Y-86459250D01*
X71874142Y-85971750D01*
X71875316Y-85947858D01*
X71878826Y-85924197D01*
X71884638Y-85900993D01*
X71892696Y-85878471D01*
X71902924Y-85856847D01*
X71915221Y-85836330D01*
X71929471Y-85817117D01*
X71945535Y-85799393D01*
X71963259Y-85783329D01*
X71982472Y-85769079D01*
X72002989Y-85756782D01*
X72024613Y-85746554D01*
X72047135Y-85738496D01*
X72070339Y-85732684D01*
X72094000Y-85729174D01*
X72117892Y-85728000D01*
X73030392Y-85728000D01*
X73054284Y-85729174D01*
X73054284Y-85729174D01*
G37*
D20*
X72574142Y-86215500D03*
D10*
G36*
X68997142Y-87604174D02*
G01*
X69020803Y-87607684D01*
X69044007Y-87613496D01*
X69066529Y-87621554D01*
X69088153Y-87631782D01*
X69108670Y-87644079D01*
X69127883Y-87658329D01*
X69145607Y-87674393D01*
X69161671Y-87692117D01*
X69175921Y-87711330D01*
X69188218Y-87731847D01*
X69198446Y-87753471D01*
X69206504Y-87775993D01*
X69212316Y-87799197D01*
X69215826Y-87822858D01*
X69217000Y-87846750D01*
X69217000Y-88334250D01*
X69215826Y-88358142D01*
X69212316Y-88381803D01*
X69206504Y-88405007D01*
X69198446Y-88427529D01*
X69188218Y-88449153D01*
X69175921Y-88469670D01*
X69161671Y-88488883D01*
X69145607Y-88506607D01*
X69127883Y-88522671D01*
X69108670Y-88536921D01*
X69088153Y-88549218D01*
X69066529Y-88559446D01*
X69044007Y-88567504D01*
X69020803Y-88573316D01*
X68997142Y-88576826D01*
X68973250Y-88578000D01*
X68060750Y-88578000D01*
X68036858Y-88576826D01*
X68013197Y-88573316D01*
X67989993Y-88567504D01*
X67967471Y-88559446D01*
X67945847Y-88549218D01*
X67925330Y-88536921D01*
X67906117Y-88522671D01*
X67888393Y-88506607D01*
X67872329Y-88488883D01*
X67858079Y-88469670D01*
X67845782Y-88449153D01*
X67835554Y-88427529D01*
X67827496Y-88405007D01*
X67821684Y-88381803D01*
X67818174Y-88358142D01*
X67817000Y-88334250D01*
X67817000Y-87846750D01*
X67818174Y-87822858D01*
X67821684Y-87799197D01*
X67827496Y-87775993D01*
X67835554Y-87753471D01*
X67845782Y-87731847D01*
X67858079Y-87711330D01*
X67872329Y-87692117D01*
X67888393Y-87674393D01*
X67906117Y-87658329D01*
X67925330Y-87644079D01*
X67945847Y-87631782D01*
X67967471Y-87621554D01*
X67989993Y-87613496D01*
X68013197Y-87607684D01*
X68036858Y-87604174D01*
X68060750Y-87603000D01*
X68973250Y-87603000D01*
X68997142Y-87604174D01*
X68997142Y-87604174D01*
G37*
D20*
X68517000Y-88090500D03*
D10*
G36*
X68997142Y-85729174D02*
G01*
X69020803Y-85732684D01*
X69044007Y-85738496D01*
X69066529Y-85746554D01*
X69088153Y-85756782D01*
X69108670Y-85769079D01*
X69127883Y-85783329D01*
X69145607Y-85799393D01*
X69161671Y-85817117D01*
X69175921Y-85836330D01*
X69188218Y-85856847D01*
X69198446Y-85878471D01*
X69206504Y-85900993D01*
X69212316Y-85924197D01*
X69215826Y-85947858D01*
X69217000Y-85971750D01*
X69217000Y-86459250D01*
X69215826Y-86483142D01*
X69212316Y-86506803D01*
X69206504Y-86530007D01*
X69198446Y-86552529D01*
X69188218Y-86574153D01*
X69175921Y-86594670D01*
X69161671Y-86613883D01*
X69145607Y-86631607D01*
X69127883Y-86647671D01*
X69108670Y-86661921D01*
X69088153Y-86674218D01*
X69066529Y-86684446D01*
X69044007Y-86692504D01*
X69020803Y-86698316D01*
X68997142Y-86701826D01*
X68973250Y-86703000D01*
X68060750Y-86703000D01*
X68036858Y-86701826D01*
X68013197Y-86698316D01*
X67989993Y-86692504D01*
X67967471Y-86684446D01*
X67945847Y-86674218D01*
X67925330Y-86661921D01*
X67906117Y-86647671D01*
X67888393Y-86631607D01*
X67872329Y-86613883D01*
X67858079Y-86594670D01*
X67845782Y-86574153D01*
X67835554Y-86552529D01*
X67827496Y-86530007D01*
X67821684Y-86506803D01*
X67818174Y-86483142D01*
X67817000Y-86459250D01*
X67817000Y-85971750D01*
X67818174Y-85947858D01*
X67821684Y-85924197D01*
X67827496Y-85900993D01*
X67835554Y-85878471D01*
X67845782Y-85856847D01*
X67858079Y-85836330D01*
X67872329Y-85817117D01*
X67888393Y-85799393D01*
X67906117Y-85783329D01*
X67925330Y-85769079D01*
X67945847Y-85756782D01*
X67967471Y-85746554D01*
X67989993Y-85738496D01*
X68013197Y-85732684D01*
X68036858Y-85729174D01*
X68060750Y-85728000D01*
X68973250Y-85728000D01*
X68997142Y-85729174D01*
X68997142Y-85729174D01*
G37*
D20*
X68517000Y-86215500D03*
D21*
X64167000Y-82896000D03*
X66367000Y-82896000D03*
D22*
X70617000Y-91230000D03*
D10*
G36*
X71117000Y-91980000D02*
G01*
X70617000Y-91980000D01*
X70617000Y-91979398D01*
X70592466Y-91979398D01*
X70543635Y-91974588D01*
X70495510Y-91965016D01*
X70448555Y-91950772D01*
X70403222Y-91931995D01*
X70359949Y-91908864D01*
X70319150Y-91881604D01*
X70281221Y-91850476D01*
X70246524Y-91815779D01*
X70215396Y-91777850D01*
X70188136Y-91737051D01*
X70165005Y-91693778D01*
X70146228Y-91648445D01*
X70131984Y-91601490D01*
X70122412Y-91553365D01*
X70117602Y-91504534D01*
X70117602Y-91480000D01*
X70117000Y-91480000D01*
X70117000Y-90980000D01*
X70117602Y-90980000D01*
X70117602Y-90955466D01*
X70122412Y-90906635D01*
X70131984Y-90858510D01*
X70146228Y-90811555D01*
X70165005Y-90766222D01*
X70188136Y-90722949D01*
X70215396Y-90682150D01*
X70246524Y-90644221D01*
X70281221Y-90609524D01*
X70319150Y-90578396D01*
X70359949Y-90551136D01*
X70403222Y-90528005D01*
X70448555Y-90509228D01*
X70495510Y-90494984D01*
X70543635Y-90485412D01*
X70592466Y-90480602D01*
X70617000Y-90480602D01*
X70617000Y-90480000D01*
X71117000Y-90480000D01*
X71117000Y-91980000D01*
X71117000Y-91980000D01*
G37*
D22*
X71917000Y-91230000D03*
D10*
G36*
X71917000Y-90480602D02*
G01*
X71941534Y-90480602D01*
X71990365Y-90485412D01*
X72038490Y-90494984D01*
X72085445Y-90509228D01*
X72130778Y-90528005D01*
X72174051Y-90551136D01*
X72214850Y-90578396D01*
X72252779Y-90609524D01*
X72287476Y-90644221D01*
X72318604Y-90682150D01*
X72345864Y-90722949D01*
X72368995Y-90766222D01*
X72387772Y-90811555D01*
X72402016Y-90858510D01*
X72411588Y-90906635D01*
X72416398Y-90955466D01*
X72416398Y-90980000D01*
X72417000Y-90980000D01*
X72417000Y-91480000D01*
X72416398Y-91480000D01*
X72416398Y-91504534D01*
X72411588Y-91553365D01*
X72402016Y-91601490D01*
X72387772Y-91648445D01*
X72368995Y-91693778D01*
X72345864Y-91737051D01*
X72318604Y-91777850D01*
X72287476Y-91815779D01*
X72252779Y-91850476D01*
X72214850Y-91881604D01*
X72174051Y-91908864D01*
X72130778Y-91931995D01*
X72085445Y-91950772D01*
X72038490Y-91965016D01*
X71990365Y-91974588D01*
X71941534Y-91979398D01*
X71917000Y-91979398D01*
X71917000Y-91980000D01*
X71417000Y-91980000D01*
X71417000Y-90480000D01*
X71917000Y-90480000D01*
X71917000Y-90480602D01*
X71917000Y-90480602D01*
G37*
G36*
X58817142Y-77539174D02*
G01*
X58840803Y-77542684D01*
X58864007Y-77548496D01*
X58886529Y-77556554D01*
X58908153Y-77566782D01*
X58928670Y-77579079D01*
X58947883Y-77593329D01*
X58965607Y-77609393D01*
X58981671Y-77627117D01*
X58995921Y-77646330D01*
X59008218Y-77666847D01*
X59018446Y-77688471D01*
X59026504Y-77710993D01*
X59032316Y-77734197D01*
X59035826Y-77757858D01*
X59037000Y-77781750D01*
X59037000Y-78694250D01*
X59035826Y-78718142D01*
X59032316Y-78741803D01*
X59026504Y-78765007D01*
X59018446Y-78787529D01*
X59008218Y-78809153D01*
X58995921Y-78829670D01*
X58981671Y-78848883D01*
X58965607Y-78866607D01*
X58947883Y-78882671D01*
X58928670Y-78896921D01*
X58908153Y-78909218D01*
X58886529Y-78919446D01*
X58864007Y-78927504D01*
X58840803Y-78933316D01*
X58817142Y-78936826D01*
X58793250Y-78938000D01*
X58305750Y-78938000D01*
X58281858Y-78936826D01*
X58258197Y-78933316D01*
X58234993Y-78927504D01*
X58212471Y-78919446D01*
X58190847Y-78909218D01*
X58170330Y-78896921D01*
X58151117Y-78882671D01*
X58133393Y-78866607D01*
X58117329Y-78848883D01*
X58103079Y-78829670D01*
X58090782Y-78809153D01*
X58080554Y-78787529D01*
X58072496Y-78765007D01*
X58066684Y-78741803D01*
X58063174Y-78718142D01*
X58062000Y-78694250D01*
X58062000Y-77781750D01*
X58063174Y-77757858D01*
X58066684Y-77734197D01*
X58072496Y-77710993D01*
X58080554Y-77688471D01*
X58090782Y-77666847D01*
X58103079Y-77646330D01*
X58117329Y-77627117D01*
X58133393Y-77609393D01*
X58151117Y-77593329D01*
X58170330Y-77579079D01*
X58190847Y-77566782D01*
X58212471Y-77556554D01*
X58234993Y-77548496D01*
X58258197Y-77542684D01*
X58281858Y-77539174D01*
X58305750Y-77538000D01*
X58793250Y-77538000D01*
X58817142Y-77539174D01*
X58817142Y-77539174D01*
G37*
D20*
X58549500Y-78238000D03*
D10*
G36*
X60692142Y-77539174D02*
G01*
X60715803Y-77542684D01*
X60739007Y-77548496D01*
X60761529Y-77556554D01*
X60783153Y-77566782D01*
X60803670Y-77579079D01*
X60822883Y-77593329D01*
X60840607Y-77609393D01*
X60856671Y-77627117D01*
X60870921Y-77646330D01*
X60883218Y-77666847D01*
X60893446Y-77688471D01*
X60901504Y-77710993D01*
X60907316Y-77734197D01*
X60910826Y-77757858D01*
X60912000Y-77781750D01*
X60912000Y-78694250D01*
X60910826Y-78718142D01*
X60907316Y-78741803D01*
X60901504Y-78765007D01*
X60893446Y-78787529D01*
X60883218Y-78809153D01*
X60870921Y-78829670D01*
X60856671Y-78848883D01*
X60840607Y-78866607D01*
X60822883Y-78882671D01*
X60803670Y-78896921D01*
X60783153Y-78909218D01*
X60761529Y-78919446D01*
X60739007Y-78927504D01*
X60715803Y-78933316D01*
X60692142Y-78936826D01*
X60668250Y-78938000D01*
X60180750Y-78938000D01*
X60156858Y-78936826D01*
X60133197Y-78933316D01*
X60109993Y-78927504D01*
X60087471Y-78919446D01*
X60065847Y-78909218D01*
X60045330Y-78896921D01*
X60026117Y-78882671D01*
X60008393Y-78866607D01*
X59992329Y-78848883D01*
X59978079Y-78829670D01*
X59965782Y-78809153D01*
X59955554Y-78787529D01*
X59947496Y-78765007D01*
X59941684Y-78741803D01*
X59938174Y-78718142D01*
X59937000Y-78694250D01*
X59937000Y-77781750D01*
X59938174Y-77757858D01*
X59941684Y-77734197D01*
X59947496Y-77710993D01*
X59955554Y-77688471D01*
X59965782Y-77666847D01*
X59978079Y-77646330D01*
X59992329Y-77627117D01*
X60008393Y-77609393D01*
X60026117Y-77593329D01*
X60045330Y-77579079D01*
X60065847Y-77566782D01*
X60087471Y-77556554D01*
X60109993Y-77548496D01*
X60133197Y-77542684D01*
X60156858Y-77539174D01*
X60180750Y-77538000D01*
X60668250Y-77538000D01*
X60692142Y-77539174D01*
X60692142Y-77539174D01*
G37*
D20*
X60424500Y-78238000D03*
D10*
G36*
X73913142Y-80614174D02*
G01*
X73936803Y-80617684D01*
X73960007Y-80623496D01*
X73982529Y-80631554D01*
X74004153Y-80641782D01*
X74024670Y-80654079D01*
X74043883Y-80668329D01*
X74061607Y-80684393D01*
X74077671Y-80702117D01*
X74091921Y-80721330D01*
X74104218Y-80741847D01*
X74114446Y-80763471D01*
X74122504Y-80785993D01*
X74128316Y-80809197D01*
X74131826Y-80832858D01*
X74133000Y-80856750D01*
X74133000Y-81344250D01*
X74131826Y-81368142D01*
X74128316Y-81391803D01*
X74122504Y-81415007D01*
X74114446Y-81437529D01*
X74104218Y-81459153D01*
X74091921Y-81479670D01*
X74077671Y-81498883D01*
X74061607Y-81516607D01*
X74043883Y-81532671D01*
X74024670Y-81546921D01*
X74004153Y-81559218D01*
X73982529Y-81569446D01*
X73960007Y-81577504D01*
X73936803Y-81583316D01*
X73913142Y-81586826D01*
X73889250Y-81588000D01*
X72976750Y-81588000D01*
X72952858Y-81586826D01*
X72929197Y-81583316D01*
X72905993Y-81577504D01*
X72883471Y-81569446D01*
X72861847Y-81559218D01*
X72841330Y-81546921D01*
X72822117Y-81532671D01*
X72804393Y-81516607D01*
X72788329Y-81498883D01*
X72774079Y-81479670D01*
X72761782Y-81459153D01*
X72751554Y-81437529D01*
X72743496Y-81415007D01*
X72737684Y-81391803D01*
X72734174Y-81368142D01*
X72733000Y-81344250D01*
X72733000Y-80856750D01*
X72734174Y-80832858D01*
X72737684Y-80809197D01*
X72743496Y-80785993D01*
X72751554Y-80763471D01*
X72761782Y-80741847D01*
X72774079Y-80721330D01*
X72788329Y-80702117D01*
X72804393Y-80684393D01*
X72822117Y-80668329D01*
X72841330Y-80654079D01*
X72861847Y-80641782D01*
X72883471Y-80631554D01*
X72905993Y-80623496D01*
X72929197Y-80617684D01*
X72952858Y-80614174D01*
X72976750Y-80613000D01*
X73889250Y-80613000D01*
X73913142Y-80614174D01*
X73913142Y-80614174D01*
G37*
D20*
X73433000Y-81100500D03*
D10*
G36*
X73913142Y-82489174D02*
G01*
X73936803Y-82492684D01*
X73960007Y-82498496D01*
X73982529Y-82506554D01*
X74004153Y-82516782D01*
X74024670Y-82529079D01*
X74043883Y-82543329D01*
X74061607Y-82559393D01*
X74077671Y-82577117D01*
X74091921Y-82596330D01*
X74104218Y-82616847D01*
X74114446Y-82638471D01*
X74122504Y-82660993D01*
X74128316Y-82684197D01*
X74131826Y-82707858D01*
X74133000Y-82731750D01*
X74133000Y-83219250D01*
X74131826Y-83243142D01*
X74128316Y-83266803D01*
X74122504Y-83290007D01*
X74114446Y-83312529D01*
X74104218Y-83334153D01*
X74091921Y-83354670D01*
X74077671Y-83373883D01*
X74061607Y-83391607D01*
X74043883Y-83407671D01*
X74024670Y-83421921D01*
X74004153Y-83434218D01*
X73982529Y-83444446D01*
X73960007Y-83452504D01*
X73936803Y-83458316D01*
X73913142Y-83461826D01*
X73889250Y-83463000D01*
X72976750Y-83463000D01*
X72952858Y-83461826D01*
X72929197Y-83458316D01*
X72905993Y-83452504D01*
X72883471Y-83444446D01*
X72861847Y-83434218D01*
X72841330Y-83421921D01*
X72822117Y-83407671D01*
X72804393Y-83391607D01*
X72788329Y-83373883D01*
X72774079Y-83354670D01*
X72761782Y-83334153D01*
X72751554Y-83312529D01*
X72743496Y-83290007D01*
X72737684Y-83266803D01*
X72734174Y-83243142D01*
X72733000Y-83219250D01*
X72733000Y-82731750D01*
X72734174Y-82707858D01*
X72737684Y-82684197D01*
X72743496Y-82660993D01*
X72751554Y-82638471D01*
X72761782Y-82616847D01*
X72774079Y-82596330D01*
X72788329Y-82577117D01*
X72804393Y-82559393D01*
X72822117Y-82543329D01*
X72841330Y-82529079D01*
X72861847Y-82516782D01*
X72883471Y-82506554D01*
X72905993Y-82498496D01*
X72929197Y-82492684D01*
X72952858Y-82489174D01*
X72976750Y-82488000D01*
X73889250Y-82488000D01*
X73913142Y-82489174D01*
X73913142Y-82489174D01*
G37*
D20*
X73433000Y-82975500D03*
D10*
G36*
X71881142Y-80614174D02*
G01*
X71904803Y-80617684D01*
X71928007Y-80623496D01*
X71950529Y-80631554D01*
X71972153Y-80641782D01*
X71992670Y-80654079D01*
X72011883Y-80668329D01*
X72029607Y-80684393D01*
X72045671Y-80702117D01*
X72059921Y-80721330D01*
X72072218Y-80741847D01*
X72082446Y-80763471D01*
X72090504Y-80785993D01*
X72096316Y-80809197D01*
X72099826Y-80832858D01*
X72101000Y-80856750D01*
X72101000Y-81344250D01*
X72099826Y-81368142D01*
X72096316Y-81391803D01*
X72090504Y-81415007D01*
X72082446Y-81437529D01*
X72072218Y-81459153D01*
X72059921Y-81479670D01*
X72045671Y-81498883D01*
X72029607Y-81516607D01*
X72011883Y-81532671D01*
X71992670Y-81546921D01*
X71972153Y-81559218D01*
X71950529Y-81569446D01*
X71928007Y-81577504D01*
X71904803Y-81583316D01*
X71881142Y-81586826D01*
X71857250Y-81588000D01*
X70944750Y-81588000D01*
X70920858Y-81586826D01*
X70897197Y-81583316D01*
X70873993Y-81577504D01*
X70851471Y-81569446D01*
X70829847Y-81559218D01*
X70809330Y-81546921D01*
X70790117Y-81532671D01*
X70772393Y-81516607D01*
X70756329Y-81498883D01*
X70742079Y-81479670D01*
X70729782Y-81459153D01*
X70719554Y-81437529D01*
X70711496Y-81415007D01*
X70705684Y-81391803D01*
X70702174Y-81368142D01*
X70701000Y-81344250D01*
X70701000Y-80856750D01*
X70702174Y-80832858D01*
X70705684Y-80809197D01*
X70711496Y-80785993D01*
X70719554Y-80763471D01*
X70729782Y-80741847D01*
X70742079Y-80721330D01*
X70756329Y-80702117D01*
X70772393Y-80684393D01*
X70790117Y-80668329D01*
X70809330Y-80654079D01*
X70829847Y-80641782D01*
X70851471Y-80631554D01*
X70873993Y-80623496D01*
X70897197Y-80617684D01*
X70920858Y-80614174D01*
X70944750Y-80613000D01*
X71857250Y-80613000D01*
X71881142Y-80614174D01*
X71881142Y-80614174D01*
G37*
D20*
X71401000Y-81100500D03*
D10*
G36*
X71881142Y-82489174D02*
G01*
X71904803Y-82492684D01*
X71928007Y-82498496D01*
X71950529Y-82506554D01*
X71972153Y-82516782D01*
X71992670Y-82529079D01*
X72011883Y-82543329D01*
X72029607Y-82559393D01*
X72045671Y-82577117D01*
X72059921Y-82596330D01*
X72072218Y-82616847D01*
X72082446Y-82638471D01*
X72090504Y-82660993D01*
X72096316Y-82684197D01*
X72099826Y-82707858D01*
X72101000Y-82731750D01*
X72101000Y-83219250D01*
X72099826Y-83243142D01*
X72096316Y-83266803D01*
X72090504Y-83290007D01*
X72082446Y-83312529D01*
X72072218Y-83334153D01*
X72059921Y-83354670D01*
X72045671Y-83373883D01*
X72029607Y-83391607D01*
X72011883Y-83407671D01*
X71992670Y-83421921D01*
X71972153Y-83434218D01*
X71950529Y-83444446D01*
X71928007Y-83452504D01*
X71904803Y-83458316D01*
X71881142Y-83461826D01*
X71857250Y-83463000D01*
X70944750Y-83463000D01*
X70920858Y-83461826D01*
X70897197Y-83458316D01*
X70873993Y-83452504D01*
X70851471Y-83444446D01*
X70829847Y-83434218D01*
X70809330Y-83421921D01*
X70790117Y-83407671D01*
X70772393Y-83391607D01*
X70756329Y-83373883D01*
X70742079Y-83354670D01*
X70729782Y-83334153D01*
X70719554Y-83312529D01*
X70711496Y-83290007D01*
X70705684Y-83266803D01*
X70702174Y-83243142D01*
X70701000Y-83219250D01*
X70701000Y-82731750D01*
X70702174Y-82707858D01*
X70705684Y-82684197D01*
X70711496Y-82660993D01*
X70719554Y-82638471D01*
X70729782Y-82616847D01*
X70742079Y-82596330D01*
X70756329Y-82577117D01*
X70772393Y-82559393D01*
X70790117Y-82543329D01*
X70809330Y-82529079D01*
X70829847Y-82516782D01*
X70851471Y-82506554D01*
X70873993Y-82498496D01*
X70897197Y-82492684D01*
X70920858Y-82489174D01*
X70944750Y-82488000D01*
X71857250Y-82488000D01*
X71881142Y-82489174D01*
X71881142Y-82489174D01*
G37*
D20*
X71401000Y-82975500D03*
D10*
G36*
X69746142Y-80584174D02*
G01*
X69769803Y-80587684D01*
X69793007Y-80593496D01*
X69815529Y-80601554D01*
X69837153Y-80611782D01*
X69857670Y-80624079D01*
X69876883Y-80638329D01*
X69894607Y-80654393D01*
X69910671Y-80672117D01*
X69924921Y-80691330D01*
X69937218Y-80711847D01*
X69947446Y-80733471D01*
X69955504Y-80755993D01*
X69961316Y-80779197D01*
X69964826Y-80802858D01*
X69966000Y-80826750D01*
X69966000Y-81314250D01*
X69964826Y-81338142D01*
X69961316Y-81361803D01*
X69955504Y-81385007D01*
X69947446Y-81407529D01*
X69937218Y-81429153D01*
X69924921Y-81449670D01*
X69910671Y-81468883D01*
X69894607Y-81486607D01*
X69876883Y-81502671D01*
X69857670Y-81516921D01*
X69837153Y-81529218D01*
X69815529Y-81539446D01*
X69793007Y-81547504D01*
X69769803Y-81553316D01*
X69746142Y-81556826D01*
X69722250Y-81558000D01*
X68809750Y-81558000D01*
X68785858Y-81556826D01*
X68762197Y-81553316D01*
X68738993Y-81547504D01*
X68716471Y-81539446D01*
X68694847Y-81529218D01*
X68674330Y-81516921D01*
X68655117Y-81502671D01*
X68637393Y-81486607D01*
X68621329Y-81468883D01*
X68607079Y-81449670D01*
X68594782Y-81429153D01*
X68584554Y-81407529D01*
X68576496Y-81385007D01*
X68570684Y-81361803D01*
X68567174Y-81338142D01*
X68566000Y-81314250D01*
X68566000Y-80826750D01*
X68567174Y-80802858D01*
X68570684Y-80779197D01*
X68576496Y-80755993D01*
X68584554Y-80733471D01*
X68594782Y-80711847D01*
X68607079Y-80691330D01*
X68621329Y-80672117D01*
X68637393Y-80654393D01*
X68655117Y-80638329D01*
X68674330Y-80624079D01*
X68694847Y-80611782D01*
X68716471Y-80601554D01*
X68738993Y-80593496D01*
X68762197Y-80587684D01*
X68785858Y-80584174D01*
X68809750Y-80583000D01*
X69722250Y-80583000D01*
X69746142Y-80584174D01*
X69746142Y-80584174D01*
G37*
D20*
X69266000Y-81070500D03*
D10*
G36*
X69746142Y-82459174D02*
G01*
X69769803Y-82462684D01*
X69793007Y-82468496D01*
X69815529Y-82476554D01*
X69837153Y-82486782D01*
X69857670Y-82499079D01*
X69876883Y-82513329D01*
X69894607Y-82529393D01*
X69910671Y-82547117D01*
X69924921Y-82566330D01*
X69937218Y-82586847D01*
X69947446Y-82608471D01*
X69955504Y-82630993D01*
X69961316Y-82654197D01*
X69964826Y-82677858D01*
X69966000Y-82701750D01*
X69966000Y-83189250D01*
X69964826Y-83213142D01*
X69961316Y-83236803D01*
X69955504Y-83260007D01*
X69947446Y-83282529D01*
X69937218Y-83304153D01*
X69924921Y-83324670D01*
X69910671Y-83343883D01*
X69894607Y-83361607D01*
X69876883Y-83377671D01*
X69857670Y-83391921D01*
X69837153Y-83404218D01*
X69815529Y-83414446D01*
X69793007Y-83422504D01*
X69769803Y-83428316D01*
X69746142Y-83431826D01*
X69722250Y-83433000D01*
X68809750Y-83433000D01*
X68785858Y-83431826D01*
X68762197Y-83428316D01*
X68738993Y-83422504D01*
X68716471Y-83414446D01*
X68694847Y-83404218D01*
X68674330Y-83391921D01*
X68655117Y-83377671D01*
X68637393Y-83361607D01*
X68621329Y-83343883D01*
X68607079Y-83324670D01*
X68594782Y-83304153D01*
X68584554Y-83282529D01*
X68576496Y-83260007D01*
X68570684Y-83236803D01*
X68567174Y-83213142D01*
X68566000Y-83189250D01*
X68566000Y-82701750D01*
X68567174Y-82677858D01*
X68570684Y-82654197D01*
X68576496Y-82630993D01*
X68584554Y-82608471D01*
X68594782Y-82586847D01*
X68607079Y-82566330D01*
X68621329Y-82547117D01*
X68637393Y-82529393D01*
X68655117Y-82513329D01*
X68674330Y-82499079D01*
X68694847Y-82486782D01*
X68716471Y-82476554D01*
X68738993Y-82468496D01*
X68762197Y-82462684D01*
X68785858Y-82459174D01*
X68809750Y-82458000D01*
X69722250Y-82458000D01*
X69746142Y-82459174D01*
X69746142Y-82459174D01*
G37*
D20*
X69266000Y-82945500D03*
D10*
G36*
X57497142Y-87604174D02*
G01*
X57520803Y-87607684D01*
X57544007Y-87613496D01*
X57566529Y-87621554D01*
X57588153Y-87631782D01*
X57608670Y-87644079D01*
X57627883Y-87658329D01*
X57645607Y-87674393D01*
X57661671Y-87692117D01*
X57675921Y-87711330D01*
X57688218Y-87731847D01*
X57698446Y-87753471D01*
X57706504Y-87775993D01*
X57712316Y-87799197D01*
X57715826Y-87822858D01*
X57717000Y-87846750D01*
X57717000Y-88334250D01*
X57715826Y-88358142D01*
X57712316Y-88381803D01*
X57706504Y-88405007D01*
X57698446Y-88427529D01*
X57688218Y-88449153D01*
X57675921Y-88469670D01*
X57661671Y-88488883D01*
X57645607Y-88506607D01*
X57627883Y-88522671D01*
X57608670Y-88536921D01*
X57588153Y-88549218D01*
X57566529Y-88559446D01*
X57544007Y-88567504D01*
X57520803Y-88573316D01*
X57497142Y-88576826D01*
X57473250Y-88578000D01*
X56560750Y-88578000D01*
X56536858Y-88576826D01*
X56513197Y-88573316D01*
X56489993Y-88567504D01*
X56467471Y-88559446D01*
X56445847Y-88549218D01*
X56425330Y-88536921D01*
X56406117Y-88522671D01*
X56388393Y-88506607D01*
X56372329Y-88488883D01*
X56358079Y-88469670D01*
X56345782Y-88449153D01*
X56335554Y-88427529D01*
X56327496Y-88405007D01*
X56321684Y-88381803D01*
X56318174Y-88358142D01*
X56317000Y-88334250D01*
X56317000Y-87846750D01*
X56318174Y-87822858D01*
X56321684Y-87799197D01*
X56327496Y-87775993D01*
X56335554Y-87753471D01*
X56345782Y-87731847D01*
X56358079Y-87711330D01*
X56372329Y-87692117D01*
X56388393Y-87674393D01*
X56406117Y-87658329D01*
X56425330Y-87644079D01*
X56445847Y-87631782D01*
X56467471Y-87621554D01*
X56489993Y-87613496D01*
X56513197Y-87607684D01*
X56536858Y-87604174D01*
X56560750Y-87603000D01*
X57473250Y-87603000D01*
X57497142Y-87604174D01*
X57497142Y-87604174D01*
G37*
D20*
X57017000Y-88090500D03*
D10*
G36*
X57497142Y-85729174D02*
G01*
X57520803Y-85732684D01*
X57544007Y-85738496D01*
X57566529Y-85746554D01*
X57588153Y-85756782D01*
X57608670Y-85769079D01*
X57627883Y-85783329D01*
X57645607Y-85799393D01*
X57661671Y-85817117D01*
X57675921Y-85836330D01*
X57688218Y-85856847D01*
X57698446Y-85878471D01*
X57706504Y-85900993D01*
X57712316Y-85924197D01*
X57715826Y-85947858D01*
X57717000Y-85971750D01*
X57717000Y-86459250D01*
X57715826Y-86483142D01*
X57712316Y-86506803D01*
X57706504Y-86530007D01*
X57698446Y-86552529D01*
X57688218Y-86574153D01*
X57675921Y-86594670D01*
X57661671Y-86613883D01*
X57645607Y-86631607D01*
X57627883Y-86647671D01*
X57608670Y-86661921D01*
X57588153Y-86674218D01*
X57566529Y-86684446D01*
X57544007Y-86692504D01*
X57520803Y-86698316D01*
X57497142Y-86701826D01*
X57473250Y-86703000D01*
X56560750Y-86703000D01*
X56536858Y-86701826D01*
X56513197Y-86698316D01*
X56489993Y-86692504D01*
X56467471Y-86684446D01*
X56445847Y-86674218D01*
X56425330Y-86661921D01*
X56406117Y-86647671D01*
X56388393Y-86631607D01*
X56372329Y-86613883D01*
X56358079Y-86594670D01*
X56345782Y-86574153D01*
X56335554Y-86552529D01*
X56327496Y-86530007D01*
X56321684Y-86506803D01*
X56318174Y-86483142D01*
X56317000Y-86459250D01*
X56317000Y-85971750D01*
X56318174Y-85947858D01*
X56321684Y-85924197D01*
X56327496Y-85900993D01*
X56335554Y-85878471D01*
X56345782Y-85856847D01*
X56358079Y-85836330D01*
X56372329Y-85817117D01*
X56388393Y-85799393D01*
X56406117Y-85783329D01*
X56425330Y-85769079D01*
X56445847Y-85756782D01*
X56467471Y-85746554D01*
X56489993Y-85738496D01*
X56513197Y-85732684D01*
X56536858Y-85729174D01*
X56560750Y-85728000D01*
X57473250Y-85728000D01*
X57497142Y-85729174D01*
X57497142Y-85729174D01*
G37*
D20*
X57017000Y-86215500D03*
D10*
G36*
X59689999Y-87604174D02*
G01*
X59713660Y-87607684D01*
X59736864Y-87613496D01*
X59759386Y-87621554D01*
X59781010Y-87631782D01*
X59801527Y-87644079D01*
X59820740Y-87658329D01*
X59838464Y-87674393D01*
X59854528Y-87692117D01*
X59868778Y-87711330D01*
X59881075Y-87731847D01*
X59891303Y-87753471D01*
X59899361Y-87775993D01*
X59905173Y-87799197D01*
X59908683Y-87822858D01*
X59909857Y-87846750D01*
X59909857Y-88334250D01*
X59908683Y-88358142D01*
X59905173Y-88381803D01*
X59899361Y-88405007D01*
X59891303Y-88427529D01*
X59881075Y-88449153D01*
X59868778Y-88469670D01*
X59854528Y-88488883D01*
X59838464Y-88506607D01*
X59820740Y-88522671D01*
X59801527Y-88536921D01*
X59781010Y-88549218D01*
X59759386Y-88559446D01*
X59736864Y-88567504D01*
X59713660Y-88573316D01*
X59689999Y-88576826D01*
X59666107Y-88578000D01*
X58753607Y-88578000D01*
X58729715Y-88576826D01*
X58706054Y-88573316D01*
X58682850Y-88567504D01*
X58660328Y-88559446D01*
X58638704Y-88549218D01*
X58618187Y-88536921D01*
X58598974Y-88522671D01*
X58581250Y-88506607D01*
X58565186Y-88488883D01*
X58550936Y-88469670D01*
X58538639Y-88449153D01*
X58528411Y-88427529D01*
X58520353Y-88405007D01*
X58514541Y-88381803D01*
X58511031Y-88358142D01*
X58509857Y-88334250D01*
X58509857Y-87846750D01*
X58511031Y-87822858D01*
X58514541Y-87799197D01*
X58520353Y-87775993D01*
X58528411Y-87753471D01*
X58538639Y-87731847D01*
X58550936Y-87711330D01*
X58565186Y-87692117D01*
X58581250Y-87674393D01*
X58598974Y-87658329D01*
X58618187Y-87644079D01*
X58638704Y-87631782D01*
X58660328Y-87621554D01*
X58682850Y-87613496D01*
X58706054Y-87607684D01*
X58729715Y-87604174D01*
X58753607Y-87603000D01*
X59666107Y-87603000D01*
X59689999Y-87604174D01*
X59689999Y-87604174D01*
G37*
D20*
X59209857Y-88090500D03*
D10*
G36*
X59689999Y-85729174D02*
G01*
X59713660Y-85732684D01*
X59736864Y-85738496D01*
X59759386Y-85746554D01*
X59781010Y-85756782D01*
X59801527Y-85769079D01*
X59820740Y-85783329D01*
X59838464Y-85799393D01*
X59854528Y-85817117D01*
X59868778Y-85836330D01*
X59881075Y-85856847D01*
X59891303Y-85878471D01*
X59899361Y-85900993D01*
X59905173Y-85924197D01*
X59908683Y-85947858D01*
X59909857Y-85971750D01*
X59909857Y-86459250D01*
X59908683Y-86483142D01*
X59905173Y-86506803D01*
X59899361Y-86530007D01*
X59891303Y-86552529D01*
X59881075Y-86574153D01*
X59868778Y-86594670D01*
X59854528Y-86613883D01*
X59838464Y-86631607D01*
X59820740Y-86647671D01*
X59801527Y-86661921D01*
X59781010Y-86674218D01*
X59759386Y-86684446D01*
X59736864Y-86692504D01*
X59713660Y-86698316D01*
X59689999Y-86701826D01*
X59666107Y-86703000D01*
X58753607Y-86703000D01*
X58729715Y-86701826D01*
X58706054Y-86698316D01*
X58682850Y-86692504D01*
X58660328Y-86684446D01*
X58638704Y-86674218D01*
X58618187Y-86661921D01*
X58598974Y-86647671D01*
X58581250Y-86631607D01*
X58565186Y-86613883D01*
X58550936Y-86594670D01*
X58538639Y-86574153D01*
X58528411Y-86552529D01*
X58520353Y-86530007D01*
X58514541Y-86506803D01*
X58511031Y-86483142D01*
X58509857Y-86459250D01*
X58509857Y-85971750D01*
X58511031Y-85947858D01*
X58514541Y-85924197D01*
X58520353Y-85900993D01*
X58528411Y-85878471D01*
X58538639Y-85856847D01*
X58550936Y-85836330D01*
X58565186Y-85817117D01*
X58581250Y-85799393D01*
X58598974Y-85783329D01*
X58618187Y-85769079D01*
X58638704Y-85756782D01*
X58660328Y-85746554D01*
X58682850Y-85738496D01*
X58706054Y-85732684D01*
X58729715Y-85729174D01*
X58753607Y-85728000D01*
X59666107Y-85728000D01*
X59689999Y-85729174D01*
X59689999Y-85729174D01*
G37*
D20*
X59209857Y-86215500D03*
D10*
G36*
X61882856Y-87604174D02*
G01*
X61906517Y-87607684D01*
X61929721Y-87613496D01*
X61952243Y-87621554D01*
X61973867Y-87631782D01*
X61994384Y-87644079D01*
X62013597Y-87658329D01*
X62031321Y-87674393D01*
X62047385Y-87692117D01*
X62061635Y-87711330D01*
X62073932Y-87731847D01*
X62084160Y-87753471D01*
X62092218Y-87775993D01*
X62098030Y-87799197D01*
X62101540Y-87822858D01*
X62102714Y-87846750D01*
X62102714Y-88334250D01*
X62101540Y-88358142D01*
X62098030Y-88381803D01*
X62092218Y-88405007D01*
X62084160Y-88427529D01*
X62073932Y-88449153D01*
X62061635Y-88469670D01*
X62047385Y-88488883D01*
X62031321Y-88506607D01*
X62013597Y-88522671D01*
X61994384Y-88536921D01*
X61973867Y-88549218D01*
X61952243Y-88559446D01*
X61929721Y-88567504D01*
X61906517Y-88573316D01*
X61882856Y-88576826D01*
X61858964Y-88578000D01*
X60946464Y-88578000D01*
X60922572Y-88576826D01*
X60898911Y-88573316D01*
X60875707Y-88567504D01*
X60853185Y-88559446D01*
X60831561Y-88549218D01*
X60811044Y-88536921D01*
X60791831Y-88522671D01*
X60774107Y-88506607D01*
X60758043Y-88488883D01*
X60743793Y-88469670D01*
X60731496Y-88449153D01*
X60721268Y-88427529D01*
X60713210Y-88405007D01*
X60707398Y-88381803D01*
X60703888Y-88358142D01*
X60702714Y-88334250D01*
X60702714Y-87846750D01*
X60703888Y-87822858D01*
X60707398Y-87799197D01*
X60713210Y-87775993D01*
X60721268Y-87753471D01*
X60731496Y-87731847D01*
X60743793Y-87711330D01*
X60758043Y-87692117D01*
X60774107Y-87674393D01*
X60791831Y-87658329D01*
X60811044Y-87644079D01*
X60831561Y-87631782D01*
X60853185Y-87621554D01*
X60875707Y-87613496D01*
X60898911Y-87607684D01*
X60922572Y-87604174D01*
X60946464Y-87603000D01*
X61858964Y-87603000D01*
X61882856Y-87604174D01*
X61882856Y-87604174D01*
G37*
D20*
X61402714Y-88090500D03*
D10*
G36*
X61882856Y-85729174D02*
G01*
X61906517Y-85732684D01*
X61929721Y-85738496D01*
X61952243Y-85746554D01*
X61973867Y-85756782D01*
X61994384Y-85769079D01*
X62013597Y-85783329D01*
X62031321Y-85799393D01*
X62047385Y-85817117D01*
X62061635Y-85836330D01*
X62073932Y-85856847D01*
X62084160Y-85878471D01*
X62092218Y-85900993D01*
X62098030Y-85924197D01*
X62101540Y-85947858D01*
X62102714Y-85971750D01*
X62102714Y-86459250D01*
X62101540Y-86483142D01*
X62098030Y-86506803D01*
X62092218Y-86530007D01*
X62084160Y-86552529D01*
X62073932Y-86574153D01*
X62061635Y-86594670D01*
X62047385Y-86613883D01*
X62031321Y-86631607D01*
X62013597Y-86647671D01*
X61994384Y-86661921D01*
X61973867Y-86674218D01*
X61952243Y-86684446D01*
X61929721Y-86692504D01*
X61906517Y-86698316D01*
X61882856Y-86701826D01*
X61858964Y-86703000D01*
X60946464Y-86703000D01*
X60922572Y-86701826D01*
X60898911Y-86698316D01*
X60875707Y-86692504D01*
X60853185Y-86684446D01*
X60831561Y-86674218D01*
X60811044Y-86661921D01*
X60791831Y-86647671D01*
X60774107Y-86631607D01*
X60758043Y-86613883D01*
X60743793Y-86594670D01*
X60731496Y-86574153D01*
X60721268Y-86552529D01*
X60713210Y-86530007D01*
X60707398Y-86506803D01*
X60703888Y-86483142D01*
X60702714Y-86459250D01*
X60702714Y-85971750D01*
X60703888Y-85947858D01*
X60707398Y-85924197D01*
X60713210Y-85900993D01*
X60721268Y-85878471D01*
X60731496Y-85856847D01*
X60743793Y-85836330D01*
X60758043Y-85817117D01*
X60774107Y-85799393D01*
X60791831Y-85783329D01*
X60811044Y-85769079D01*
X60831561Y-85756782D01*
X60853185Y-85746554D01*
X60875707Y-85738496D01*
X60898911Y-85732684D01*
X60922572Y-85729174D01*
X60946464Y-85728000D01*
X61858964Y-85728000D01*
X61882856Y-85729174D01*
X61882856Y-85729174D01*
G37*
D20*
X61402714Y-86215500D03*
D23*
X64186000Y-89198000D03*
X64821000Y-89198000D03*
X65456000Y-89198000D03*
X65329000Y-85261000D03*
X57074000Y-89579000D03*
X59233000Y-89579000D03*
X61519000Y-89579000D03*
X61519000Y-90722000D03*
X61519000Y-91865000D03*
X59233000Y-90722000D03*
X57074000Y-90722000D03*
X57074000Y-91865000D03*
X59233000Y-91865000D03*
X63424000Y-90722000D03*
X63424000Y-91865000D03*
X68631000Y-91865000D03*
X58115400Y-87293000D03*
X60350600Y-87293000D03*
X69901000Y-89452000D03*
X71196400Y-89452000D03*
X70917000Y-84626000D03*
X72949000Y-84626000D03*
X75235000Y-84626000D03*
X69393000Y-79292000D03*
X71425000Y-79292000D03*
X73457000Y-79292000D03*
X73457000Y-77260000D03*
X71425000Y-77260000D03*
X69393000Y-77260000D03*
X69393000Y-75482000D03*
X69393000Y-73450000D03*
X61519000Y-81324000D03*
X62789000Y-81324000D03*
X62789000Y-83356000D03*
X61519000Y-83356000D03*
X56693000Y-78784000D03*
X56693000Y-76752000D03*
X56693000Y-74466000D03*
X56693000Y-72688000D03*
X60223600Y-84956200D03*
X66853000Y-87623200D03*
X74767000Y-86215500D03*
X61900000Y-79901600D03*
X58537000Y-80440000D03*
X73315000Y-90976000D03*
D24*
X65795571Y-88128000D02*
X64795571Y-87128000D01*
X66245571Y-88128000D02*
X65795571Y-88128000D01*
D25*
X59487000Y-83745500D02*
X57017000Y-86215500D01*
X59487000Y-82640000D02*
X59487000Y-83745500D01*
X63345571Y-87628000D02*
X63345571Y-88128000D01*
D24*
X63345571Y-88128000D02*
X62843000Y-88128000D01*
X62843000Y-88128000D02*
X62535000Y-88436000D01*
X62535000Y-88436000D02*
X62535000Y-89071000D01*
X62535000Y-89071000D02*
X63170000Y-89706000D01*
X63170000Y-89706000D02*
X65710000Y-89706000D01*
X66245571Y-89170429D02*
X66245571Y-88628000D01*
X65710000Y-89706000D02*
X66245571Y-89170429D01*
X70667000Y-86215500D02*
X70667000Y-86781000D01*
X70667000Y-86781000D02*
X70409000Y-87039000D01*
X70409000Y-87039000D02*
X67996000Y-87039000D01*
X67996000Y-87039000D02*
X67361000Y-87674000D01*
X67361000Y-87674000D02*
X67361000Y-88182000D01*
X66915000Y-88628000D02*
X66245571Y-88628000D01*
X67361000Y-88182000D02*
X66915000Y-88628000D01*
X62535000Y-89071000D02*
X56235800Y-89071000D01*
X56235800Y-89071000D02*
X55778600Y-88613800D01*
X55778600Y-88613800D02*
X55778600Y-87013600D01*
X56576700Y-86215500D02*
X57017000Y-86215500D01*
X55778600Y-87013600D02*
X56576700Y-86215500D01*
D25*
X56444500Y-83356000D02*
X56867000Y-82933500D01*
X54407000Y-83356000D02*
X56444500Y-83356000D01*
X58243500Y-82933500D02*
X58537000Y-82640000D01*
X56867000Y-82933500D02*
X58243500Y-82933500D01*
D24*
X61402714Y-86135314D02*
X61402714Y-86215500D01*
X60223600Y-84956200D02*
X61402714Y-86135314D01*
D25*
X68517000Y-89130000D02*
X70617000Y-91230000D01*
X68517000Y-88090500D02*
X68517000Y-89130000D01*
X69073237Y-87534263D02*
X68517000Y-88090500D01*
X69204510Y-87402990D02*
X69073237Y-87534263D01*
X71974152Y-87402990D02*
X69204510Y-87402990D01*
X72574142Y-86803000D02*
X71974152Y-87402990D01*
X72574142Y-86215500D02*
X72574142Y-86803000D01*
X72892000Y-88090500D02*
X72574142Y-88090500D01*
X74767000Y-86215500D02*
X72892000Y-88090500D01*
X72574142Y-90572858D02*
X71917000Y-91230000D01*
X72574142Y-88090500D02*
X72574142Y-90572858D01*
D24*
X66245571Y-87628000D02*
X66848200Y-87628000D01*
X66848200Y-87628000D02*
X66853000Y-87623200D01*
X62017000Y-78896000D02*
X63817000Y-78896000D01*
X62017000Y-78896000D02*
X62017000Y-79784600D01*
X62017000Y-79784600D02*
X61900000Y-79901600D01*
X77267000Y-85916000D02*
X77267000Y-86251600D01*
X77267000Y-86251600D02*
X75971600Y-87547000D01*
X75971600Y-87547000D02*
X75971600Y-89858400D01*
X75971600Y-89858400D02*
X74854000Y-90976000D01*
X74854000Y-90976000D02*
X73315000Y-90976000D01*
D26*
G36*
X59131305Y-72859483D02*
G01*
X58824724Y-72959744D01*
X58602535Y-73078507D01*
X58465007Y-73302586D01*
X59487000Y-74324579D01*
X60508993Y-73302586D01*
X60371465Y-73078507D01*
X60083785Y-72932617D01*
X59819056Y-72858500D01*
X65870477Y-72858500D01*
X65862305Y-72859483D01*
X65555724Y-72959744D01*
X65333535Y-73078507D01*
X65196007Y-73302586D01*
X66218000Y-74324579D01*
X67239993Y-73302586D01*
X67102465Y-73078507D01*
X66814785Y-72932617D01*
X66550056Y-72858500D01*
X67816112Y-72858500D01*
X67904500Y-72946888D01*
X67904500Y-76345112D01*
X67816112Y-76433500D01*
X62592000Y-76433500D01*
X62579807Y-76434701D01*
X62568082Y-76438258D01*
X62354694Y-76526646D01*
X62343889Y-76532421D01*
X62334418Y-76540194D01*
X60911194Y-77963418D01*
X60903421Y-77972889D01*
X60897646Y-77983694D01*
X60809258Y-78197082D01*
X60805701Y-78208807D01*
X60804500Y-78221000D01*
X60804500Y-84371000D01*
X60805701Y-84383193D01*
X60809002Y-84394291D01*
X60895454Y-84609574D01*
X60901112Y-84620441D01*
X60908310Y-84629509D01*
X62635406Y-86433143D01*
X62644707Y-86441119D01*
X62656368Y-86447550D01*
X62867810Y-86536262D01*
X62879518Y-86539872D01*
X62892776Y-86541124D01*
X63626949Y-86531895D01*
X63714551Y-86618546D01*
X63713698Y-87135898D01*
X63624596Y-87225877D01*
X62801148Y-87235296D01*
X62601607Y-87163846D01*
X62202897Y-86828607D01*
X62192792Y-86821679D01*
X62184081Y-86817724D01*
X61963406Y-86737280D01*
X61951539Y-86734232D01*
X61942000Y-86733500D01*
X58517888Y-86733500D01*
X58429500Y-86645112D01*
X58429500Y-85733431D01*
X58508373Y-85543015D01*
X59922806Y-84128582D01*
X59930579Y-84119111D01*
X59936354Y-84108306D01*
X60024742Y-83894918D01*
X60028299Y-83883193D01*
X60029500Y-83871000D01*
X60029500Y-78121000D01*
X60028299Y-78108807D01*
X60024742Y-78097082D01*
X59936354Y-77883694D01*
X59930579Y-77872889D01*
X59922806Y-77863418D01*
X57908373Y-75848985D01*
X57829500Y-75658569D01*
X57829500Y-75629414D01*
X58465007Y-75629414D01*
X58602535Y-75853493D01*
X58890215Y-75999383D01*
X59200831Y-76086347D01*
X59522444Y-76111041D01*
X59842695Y-76072517D01*
X60149276Y-75972256D01*
X60371465Y-75853493D01*
X60508993Y-75629414D01*
X65196007Y-75629414D01*
X65333535Y-75853493D01*
X65621215Y-75999383D01*
X65931831Y-76086347D01*
X66253444Y-76111041D01*
X66573695Y-76072517D01*
X66880276Y-75972256D01*
X67102465Y-75853493D01*
X67239993Y-75629414D01*
X66218000Y-74607421D01*
X65196007Y-75629414D01*
X60508993Y-75629414D01*
X59487000Y-74607421D01*
X58465007Y-75629414D01*
X57829500Y-75629414D01*
X57829500Y-74501444D01*
X57841959Y-74501444D01*
X57880483Y-74821695D01*
X57980744Y-75128276D01*
X58099507Y-75350465D01*
X58323586Y-75487993D01*
X59345579Y-74466000D01*
X59628421Y-74466000D01*
X60650414Y-75487993D01*
X60874493Y-75350465D01*
X61020383Y-75062785D01*
X61107347Y-74752169D01*
X61126598Y-74501444D01*
X64572959Y-74501444D01*
X64611483Y-74821695D01*
X64711744Y-75128276D01*
X64830507Y-75350465D01*
X65054586Y-75487993D01*
X66076579Y-74466000D01*
X66359421Y-74466000D01*
X67381414Y-75487993D01*
X67605493Y-75350465D01*
X67751383Y-75062785D01*
X67838347Y-74752169D01*
X67863041Y-74430556D01*
X67824517Y-74110305D01*
X67724256Y-73803724D01*
X67605493Y-73581535D01*
X67381414Y-73444007D01*
X66359421Y-74466000D01*
X66076579Y-74466000D01*
X65054586Y-73444007D01*
X64830507Y-73581535D01*
X64684617Y-73869215D01*
X64597653Y-74179831D01*
X64572959Y-74501444D01*
X61126598Y-74501444D01*
X61132041Y-74430556D01*
X61093517Y-74110305D01*
X60993256Y-73803724D01*
X60874493Y-73581535D01*
X60650414Y-73444007D01*
X59628421Y-74466000D01*
X59345579Y-74466000D01*
X58323586Y-73444007D01*
X58099507Y-73581535D01*
X57953617Y-73869215D01*
X57866653Y-74179831D01*
X57841959Y-74501444D01*
X57829500Y-74501444D01*
X57829500Y-72946888D01*
X57917888Y-72858500D01*
X59139477Y-72858500D01*
X59131305Y-72859483D01*
X59131305Y-72859483D01*
G37*
X59131305Y-72859483D02*
X58824724Y-72959744D01*
X58602535Y-73078507D01*
X58465007Y-73302586D01*
X59487000Y-74324579D01*
X60508993Y-73302586D01*
X60371465Y-73078507D01*
X60083785Y-72932617D01*
X59819056Y-72858500D01*
X65870477Y-72858500D01*
X65862305Y-72859483D01*
X65555724Y-72959744D01*
X65333535Y-73078507D01*
X65196007Y-73302586D01*
X66218000Y-74324579D01*
X67239993Y-73302586D01*
X67102465Y-73078507D01*
X66814785Y-72932617D01*
X66550056Y-72858500D01*
X67816112Y-72858500D01*
X67904500Y-72946888D01*
X67904500Y-76345112D01*
X67816112Y-76433500D01*
X62592000Y-76433500D01*
X62579807Y-76434701D01*
X62568082Y-76438258D01*
X62354694Y-76526646D01*
X62343889Y-76532421D01*
X62334418Y-76540194D01*
X60911194Y-77963418D01*
X60903421Y-77972889D01*
X60897646Y-77983694D01*
X60809258Y-78197082D01*
X60805701Y-78208807D01*
X60804500Y-78221000D01*
X60804500Y-84371000D01*
X60805701Y-84383193D01*
X60809002Y-84394291D01*
X60895454Y-84609574D01*
X60901112Y-84620441D01*
X60908310Y-84629509D01*
X62635406Y-86433143D01*
X62644707Y-86441119D01*
X62656368Y-86447550D01*
X62867810Y-86536262D01*
X62879518Y-86539872D01*
X62892776Y-86541124D01*
X63626949Y-86531895D01*
X63714551Y-86618546D01*
X63713698Y-87135898D01*
X63624596Y-87225877D01*
X62801148Y-87235296D01*
X62601607Y-87163846D01*
X62202897Y-86828607D01*
X62192792Y-86821679D01*
X62184081Y-86817724D01*
X61963406Y-86737280D01*
X61951539Y-86734232D01*
X61942000Y-86733500D01*
X58517888Y-86733500D01*
X58429500Y-86645112D01*
X58429500Y-85733431D01*
X58508373Y-85543015D01*
X59922806Y-84128582D01*
X59930579Y-84119111D01*
X59936354Y-84108306D01*
X60024742Y-83894918D01*
X60028299Y-83883193D01*
X60029500Y-83871000D01*
X60029500Y-78121000D01*
X60028299Y-78108807D01*
X60024742Y-78097082D01*
X59936354Y-77883694D01*
X59930579Y-77872889D01*
X59922806Y-77863418D01*
X57908373Y-75848985D01*
X57829500Y-75658569D01*
X57829500Y-75629414D01*
X58465007Y-75629414D01*
X58602535Y-75853493D01*
X58890215Y-75999383D01*
X59200831Y-76086347D01*
X59522444Y-76111041D01*
X59842695Y-76072517D01*
X60149276Y-75972256D01*
X60371465Y-75853493D01*
X60508993Y-75629414D01*
X65196007Y-75629414D01*
X65333535Y-75853493D01*
X65621215Y-75999383D01*
X65931831Y-76086347D01*
X66253444Y-76111041D01*
X66573695Y-76072517D01*
X66880276Y-75972256D01*
X67102465Y-75853493D01*
X67239993Y-75629414D01*
X66218000Y-74607421D01*
X65196007Y-75629414D01*
X60508993Y-75629414D01*
X59487000Y-74607421D01*
X58465007Y-75629414D01*
X57829500Y-75629414D01*
X57829500Y-74501444D01*
X57841959Y-74501444D01*
X57880483Y-74821695D01*
X57980744Y-75128276D01*
X58099507Y-75350465D01*
X58323586Y-75487993D01*
X59345579Y-74466000D01*
X59628421Y-74466000D01*
X60650414Y-75487993D01*
X60874493Y-75350465D01*
X61020383Y-75062785D01*
X61107347Y-74752169D01*
X61126598Y-74501444D01*
X64572959Y-74501444D01*
X64611483Y-74821695D01*
X64711744Y-75128276D01*
X64830507Y-75350465D01*
X65054586Y-75487993D01*
X66076579Y-74466000D01*
X66359421Y-74466000D01*
X67381414Y-75487993D01*
X67605493Y-75350465D01*
X67751383Y-75062785D01*
X67838347Y-74752169D01*
X67863041Y-74430556D01*
X67824517Y-74110305D01*
X67724256Y-73803724D01*
X67605493Y-73581535D01*
X67381414Y-73444007D01*
X66359421Y-74466000D01*
X66076579Y-74466000D01*
X65054586Y-73444007D01*
X64830507Y-73581535D01*
X64684617Y-73869215D01*
X64597653Y-74179831D01*
X64572959Y-74501444D01*
X61126598Y-74501444D01*
X61132041Y-74430556D01*
X61093517Y-74110305D01*
X60993256Y-73803724D01*
X60874493Y-73581535D01*
X60650414Y-73444007D01*
X59628421Y-74466000D01*
X59345579Y-74466000D01*
X58323586Y-73444007D01*
X58099507Y-73581535D01*
X57953617Y-73869215D01*
X57866653Y-74179831D01*
X57841959Y-74501444D01*
X57829500Y-74501444D01*
X57829500Y-72946888D01*
X57917888Y-72858500D01*
X59139477Y-72858500D01*
X59131305Y-72859483D01*
G36*
X64804500Y-81248888D02*
G01*
X64804500Y-84943002D01*
X64714382Y-85032577D01*
X63935176Y-85027868D01*
X63922976Y-85028995D01*
X63911230Y-85032481D01*
X63900390Y-85038191D01*
X63890764Y-85046014D01*
X63763616Y-85172247D01*
X63755809Y-85181689D01*
X63749994Y-85192474D01*
X63746395Y-85204186D01*
X63745150Y-85216526D01*
X63744080Y-86120981D01*
X63653245Y-86212311D01*
X62991018Y-86216689D01*
X62901118Y-86127254D01*
X62902102Y-85434727D01*
X62979301Y-85235451D01*
X63527823Y-84632017D01*
X63535136Y-84622186D01*
X63539871Y-84612513D01*
X63625296Y-84391536D01*
X63628572Y-84379730D01*
X63629500Y-84369000D01*
X63629500Y-81248888D01*
X63719888Y-81158500D01*
X64714112Y-81158500D01*
X64804500Y-81248888D01*
X64804500Y-81248888D01*
G37*
X64804500Y-81248888D02*
X64804500Y-84943002D01*
X64714382Y-85032577D01*
X63935176Y-85027868D01*
X63922976Y-85028995D01*
X63911230Y-85032481D01*
X63900390Y-85038191D01*
X63890764Y-85046014D01*
X63763616Y-85172247D01*
X63755809Y-85181689D01*
X63749994Y-85192474D01*
X63746395Y-85204186D01*
X63745150Y-85216526D01*
X63744080Y-86120981D01*
X63653245Y-86212311D01*
X62991018Y-86216689D01*
X62901118Y-86127254D01*
X62902102Y-85434727D01*
X62979301Y-85235451D01*
X63527823Y-84632017D01*
X63535136Y-84622186D01*
X63539871Y-84612513D01*
X63625296Y-84391536D01*
X63628572Y-84379730D01*
X63629500Y-84369000D01*
X63629500Y-81248888D01*
X63719888Y-81158500D01*
X64714112Y-81158500D01*
X64804500Y-81248888D01*
G36*
X66800952Y-81247820D02*
G01*
X66707470Y-85267581D01*
X66707457Y-85268371D01*
X66704763Y-85522337D01*
X66704759Y-85523128D01*
X66705988Y-86124202D01*
X66615875Y-86214500D01*
X65921683Y-86214500D01*
X65831247Y-86124096D01*
X65829553Y-81248874D01*
X65919895Y-81158500D01*
X66713685Y-81158500D01*
X66800952Y-81247820D01*
X66800952Y-81247820D01*
G37*
X66800952Y-81247820D02*
X66707470Y-85267581D01*
X66707457Y-85268371D01*
X66704763Y-85522337D01*
X66704759Y-85523128D01*
X66705988Y-86124202D01*
X66615875Y-86214500D01*
X65921683Y-86214500D01*
X65831247Y-86124096D01*
X65829553Y-81248874D01*
X65919895Y-81158500D01*
X66713685Y-81158500D01*
X66800952Y-81247820D01*
G36*
X78304500Y-72248888D02*
G01*
X78304500Y-74143112D01*
X78214112Y-74233500D01*
X76694000Y-74233500D01*
X76681807Y-74234701D01*
X76670082Y-74238258D01*
X76453279Y-74328061D01*
X76442474Y-74333836D01*
X76433003Y-74341609D01*
X75812609Y-74962003D01*
X75804836Y-74971474D01*
X75799061Y-74982279D01*
X75709258Y-75199082D01*
X75705701Y-75210807D01*
X75704500Y-75223000D01*
X75704500Y-81756569D01*
X75624212Y-81950400D01*
X74002308Y-83572304D01*
X73854569Y-83633500D01*
X70394000Y-83633500D01*
X70381807Y-83634701D01*
X70370082Y-83638258D01*
X70153279Y-83728061D01*
X70142474Y-83733836D01*
X70133003Y-83741609D01*
X69512609Y-84362003D01*
X69504836Y-84371474D01*
X69499061Y-84382279D01*
X69409258Y-84599082D01*
X69405701Y-84610807D01*
X69404500Y-84623000D01*
X69404500Y-86551776D01*
X69310400Y-86709534D01*
X69235648Y-86749900D01*
X68010194Y-86749900D01*
X67996000Y-86748502D01*
X67981806Y-86749900D01*
X67939327Y-86754084D01*
X67884831Y-86770615D01*
X67834608Y-86797460D01*
X67790587Y-86833587D01*
X67781539Y-86844612D01*
X67421052Y-87205100D01*
X65919948Y-87205100D01*
X65830005Y-87114859D01*
X65831596Y-86633233D01*
X65922428Y-86542700D01*
X66742600Y-86542700D01*
X66754793Y-86541499D01*
X66767716Y-86537432D01*
X66980699Y-86443966D01*
X66991381Y-86437966D01*
X67001580Y-86429049D01*
X67827014Y-85531781D01*
X67834385Y-85521994D01*
X67839245Y-85512175D01*
X67925228Y-85291709D01*
X67928540Y-85279913D01*
X67929500Y-85269000D01*
X67929500Y-83235431D01*
X68009788Y-83041600D01*
X68712600Y-82338788D01*
X68906431Y-82258500D01*
X74040000Y-82258500D01*
X74052193Y-82257299D01*
X74063918Y-82253742D01*
X74280721Y-82163939D01*
X74291526Y-82158164D01*
X74300997Y-82150391D01*
X74721391Y-81729997D01*
X74729164Y-81720526D01*
X74734939Y-81709721D01*
X74824742Y-81492918D01*
X74828299Y-81481193D01*
X74829500Y-81469000D01*
X74829500Y-74035431D01*
X74909788Y-73841600D01*
X76512600Y-72238788D01*
X76706431Y-72158500D01*
X78214112Y-72158500D01*
X78304500Y-72248888D01*
X78304500Y-72248888D01*
G37*
X78304500Y-72248888D02*
X78304500Y-74143112D01*
X78214112Y-74233500D01*
X76694000Y-74233500D01*
X76681807Y-74234701D01*
X76670082Y-74238258D01*
X76453279Y-74328061D01*
X76442474Y-74333836D01*
X76433003Y-74341609D01*
X75812609Y-74962003D01*
X75804836Y-74971474D01*
X75799061Y-74982279D01*
X75709258Y-75199082D01*
X75705701Y-75210807D01*
X75704500Y-75223000D01*
X75704500Y-81756569D01*
X75624212Y-81950400D01*
X74002308Y-83572304D01*
X73854569Y-83633500D01*
X70394000Y-83633500D01*
X70381807Y-83634701D01*
X70370082Y-83638258D01*
X70153279Y-83728061D01*
X70142474Y-83733836D01*
X70133003Y-83741609D01*
X69512609Y-84362003D01*
X69504836Y-84371474D01*
X69499061Y-84382279D01*
X69409258Y-84599082D01*
X69405701Y-84610807D01*
X69404500Y-84623000D01*
X69404500Y-86551776D01*
X69310400Y-86709534D01*
X69235648Y-86749900D01*
X68010194Y-86749900D01*
X67996000Y-86748502D01*
X67981806Y-86749900D01*
X67939327Y-86754084D01*
X67884831Y-86770615D01*
X67834608Y-86797460D01*
X67790587Y-86833587D01*
X67781539Y-86844612D01*
X67421052Y-87205100D01*
X65919948Y-87205100D01*
X65830005Y-87114859D01*
X65831596Y-86633233D01*
X65922428Y-86542700D01*
X66742600Y-86542700D01*
X66754793Y-86541499D01*
X66767716Y-86537432D01*
X66980699Y-86443966D01*
X66991381Y-86437966D01*
X67001580Y-86429049D01*
X67827014Y-85531781D01*
X67834385Y-85521994D01*
X67839245Y-85512175D01*
X67925228Y-85291709D01*
X67928540Y-85279913D01*
X67929500Y-85269000D01*
X67929500Y-83235431D01*
X68009788Y-83041600D01*
X68712600Y-82338788D01*
X68906431Y-82258500D01*
X74040000Y-82258500D01*
X74052193Y-82257299D01*
X74063918Y-82253742D01*
X74280721Y-82163939D01*
X74291526Y-82158164D01*
X74300997Y-82150391D01*
X74721391Y-81729997D01*
X74729164Y-81720526D01*
X74734939Y-81709721D01*
X74824742Y-81492918D01*
X74828299Y-81481193D01*
X74829500Y-81469000D01*
X74829500Y-74035431D01*
X74909788Y-73841600D01*
X76512600Y-72238788D01*
X76706431Y-72158500D01*
X78214112Y-72158500D01*
X78304500Y-72248888D01*
D27*
G36*
X76405444Y-72012576D02*
G01*
X76373028Y-72029902D01*
X76344614Y-72053220D01*
X74724220Y-73673614D01*
X74700903Y-73702027D01*
X74683576Y-73734444D01*
X74593773Y-73951247D01*
X74583103Y-73986421D01*
X74579500Y-74023000D01*
X74579500Y-81431705D01*
X74518244Y-81579590D01*
X74150590Y-81947244D01*
X74002705Y-82008500D01*
X68894000Y-82008500D01*
X68857420Y-82012103D01*
X68822247Y-82022773D01*
X68605444Y-82112576D01*
X68573028Y-82129902D01*
X68544614Y-82153220D01*
X67824220Y-82873614D01*
X67800903Y-82902027D01*
X67783576Y-82934444D01*
X67693773Y-83151247D01*
X67683103Y-83186421D01*
X67679500Y-83223000D01*
X67679500Y-85233730D01*
X67619147Y-85388479D01*
X66955959Y-86109382D01*
X66954761Y-85523736D01*
X66957429Y-85272218D01*
X67043805Y-81558000D01*
X68402714Y-81558000D01*
X68405851Y-81589856D01*
X68415143Y-81620487D01*
X68430233Y-81648717D01*
X68450539Y-81673461D01*
X68475283Y-81693767D01*
X68503513Y-81708857D01*
X68534144Y-81718149D01*
X68566000Y-81721286D01*
X69087875Y-81720500D01*
X69128500Y-81679875D01*
X69128500Y-81208000D01*
X69403500Y-81208000D01*
X69403500Y-81679875D01*
X69444125Y-81720500D01*
X69966000Y-81721286D01*
X69997856Y-81718149D01*
X70028487Y-81708857D01*
X70056717Y-81693767D01*
X70081461Y-81673461D01*
X70101767Y-81648717D01*
X70116857Y-81620487D01*
X70126149Y-81589856D01*
X70126331Y-81588000D01*
X70537714Y-81588000D01*
X70540851Y-81619856D01*
X70550143Y-81650487D01*
X70565233Y-81678717D01*
X70585539Y-81703461D01*
X70610283Y-81723767D01*
X70638513Y-81738857D01*
X70669144Y-81748149D01*
X70701000Y-81751286D01*
X71222875Y-81750500D01*
X71263500Y-81709875D01*
X71263500Y-81238000D01*
X71538500Y-81238000D01*
X71538500Y-81709875D01*
X71579125Y-81750500D01*
X72101000Y-81751286D01*
X72132856Y-81748149D01*
X72163487Y-81738857D01*
X72191717Y-81723767D01*
X72216461Y-81703461D01*
X72236767Y-81678717D01*
X72251857Y-81650487D01*
X72261149Y-81619856D01*
X72264286Y-81588000D01*
X72569714Y-81588000D01*
X72572851Y-81619856D01*
X72582143Y-81650487D01*
X72597233Y-81678717D01*
X72617539Y-81703461D01*
X72642283Y-81723767D01*
X72670513Y-81738857D01*
X72701144Y-81748149D01*
X72733000Y-81751286D01*
X73254875Y-81750500D01*
X73295500Y-81709875D01*
X73295500Y-81238000D01*
X73570500Y-81238000D01*
X73570500Y-81709875D01*
X73611125Y-81750500D01*
X74133000Y-81751286D01*
X74164856Y-81748149D01*
X74195487Y-81738857D01*
X74223717Y-81723767D01*
X74248461Y-81703461D01*
X74268767Y-81678717D01*
X74283857Y-81650487D01*
X74293149Y-81619856D01*
X74296286Y-81588000D01*
X74295500Y-81278625D01*
X74254875Y-81238000D01*
X73570500Y-81238000D01*
X73295500Y-81238000D01*
X72611125Y-81238000D01*
X72570500Y-81278625D01*
X72569714Y-81588000D01*
X72264286Y-81588000D01*
X72263500Y-81278625D01*
X72222875Y-81238000D01*
X71538500Y-81238000D01*
X71263500Y-81238000D01*
X70579125Y-81238000D01*
X70538500Y-81278625D01*
X70537714Y-81588000D01*
X70126331Y-81588000D01*
X70129286Y-81558000D01*
X70128500Y-81248625D01*
X70087875Y-81208000D01*
X69403500Y-81208000D01*
X69128500Y-81208000D01*
X68444125Y-81208000D01*
X68403500Y-81248625D01*
X68402714Y-81558000D01*
X67043805Y-81558000D01*
X67051496Y-81227325D01*
X67048357Y-81188527D01*
X67038097Y-81153232D01*
X67021148Y-81120616D01*
X66998162Y-81091934D01*
X66874115Y-80964968D01*
X66844169Y-80940099D01*
X66811753Y-80922773D01*
X66776579Y-80912103D01*
X66740000Y-80908500D01*
X65894000Y-80908500D01*
X65857389Y-80912109D01*
X65822217Y-80922785D01*
X65789804Y-80940117D01*
X65761395Y-80963440D01*
X65634439Y-81090440D01*
X65611107Y-81118885D01*
X65593792Y-81151307D01*
X65583134Y-81186484D01*
X65579544Y-81223065D01*
X65581027Y-85489779D01*
X64973696Y-85490500D01*
X64933071Y-85531125D01*
X64933071Y-86990500D01*
X64953071Y-86990500D01*
X64953071Y-87265500D01*
X64933071Y-87265500D01*
X64933071Y-88724875D01*
X64973696Y-88765500D01*
X65632164Y-88766282D01*
X65632164Y-88778000D01*
X65635784Y-88814756D01*
X65646506Y-88850100D01*
X65663916Y-88882673D01*
X65687347Y-88911224D01*
X65715898Y-88934655D01*
X65748471Y-88952065D01*
X65783815Y-88962787D01*
X65820571Y-88966407D01*
X65956471Y-88966407D01*
X65956471Y-89050680D01*
X65590252Y-89416900D01*
X63289749Y-89416900D01*
X62824100Y-88951252D01*
X62824100Y-88939039D01*
X62848471Y-88952065D01*
X62883815Y-88962787D01*
X62920571Y-88966407D01*
X63770571Y-88966407D01*
X63807327Y-88962787D01*
X63842671Y-88952065D01*
X63875244Y-88934655D01*
X63903795Y-88911224D01*
X63927226Y-88882673D01*
X63944636Y-88850100D01*
X63955358Y-88814756D01*
X63958978Y-88778000D01*
X63958978Y-88766282D01*
X64617446Y-88765500D01*
X64658071Y-88724875D01*
X64658071Y-87265500D01*
X64638071Y-87265500D01*
X64638071Y-86990500D01*
X64658071Y-86990500D01*
X64658071Y-85531125D01*
X64617446Y-85490500D01*
X63994827Y-85489761D01*
X63995058Y-85294753D01*
X64011595Y-85278335D01*
X64738869Y-85282730D01*
X64776026Y-85279240D01*
X64811232Y-85268676D01*
X64843700Y-85251448D01*
X64872183Y-85228215D01*
X64999181Y-85101982D01*
X65022901Y-85073169D01*
X65040227Y-85040753D01*
X65050897Y-85005579D01*
X65054500Y-84969000D01*
X65054500Y-81223000D01*
X65050897Y-81186421D01*
X65040227Y-81151247D01*
X65022901Y-81118831D01*
X64999583Y-81090417D01*
X64872583Y-80963417D01*
X64844169Y-80940099D01*
X64811753Y-80922773D01*
X64776579Y-80912103D01*
X64740000Y-80908500D01*
X63694000Y-80908500D01*
X63657421Y-80912103D01*
X63622247Y-80922773D01*
X63589831Y-80940099D01*
X63561417Y-80963417D01*
X63434417Y-81090417D01*
X63411099Y-81118831D01*
X63393773Y-81151247D01*
X63383103Y-81186421D01*
X63379500Y-81223000D01*
X63379500Y-84334019D01*
X63319301Y-84489743D01*
X62786480Y-85075904D01*
X62766960Y-85101483D01*
X62750386Y-85134291D01*
X62664780Y-85355268D01*
X62655774Y-85386159D01*
X62652119Y-85422733D01*
X62651173Y-86088136D01*
X61113942Y-84482781D01*
X61054500Y-84334758D01*
X61054500Y-78883971D01*
X61067511Y-78859629D01*
X61077018Y-78828287D01*
X61329500Y-78828287D01*
X61329500Y-78963713D01*
X61355920Y-79096536D01*
X61407745Y-79221654D01*
X61482984Y-79334256D01*
X61578744Y-79430016D01*
X61691346Y-79505255D01*
X61727901Y-79520396D01*
X61727901Y-79526399D01*
X61704608Y-79536047D01*
X61637047Y-79581190D01*
X61579590Y-79638647D01*
X61534447Y-79706208D01*
X61503352Y-79781278D01*
X61487500Y-79860972D01*
X61487500Y-79942228D01*
X61503352Y-80021922D01*
X61534447Y-80096992D01*
X61579590Y-80164553D01*
X61637047Y-80222010D01*
X61704608Y-80267153D01*
X61779678Y-80298248D01*
X61859372Y-80314100D01*
X61940628Y-80314100D01*
X62020322Y-80298248D01*
X62095392Y-80267153D01*
X62162953Y-80222010D01*
X62220410Y-80164553D01*
X62265553Y-80096992D01*
X62296648Y-80021922D01*
X62312500Y-79942228D01*
X62312500Y-79860972D01*
X62304124Y-79818860D01*
X62306100Y-79798794D01*
X62306100Y-79798784D01*
X62307497Y-79784600D01*
X62306100Y-79770417D01*
X62306100Y-79520396D01*
X62342654Y-79505255D01*
X62455256Y-79430016D01*
X62551016Y-79334256D01*
X62626255Y-79221654D01*
X62641396Y-79185100D01*
X62878593Y-79185100D01*
X62878593Y-79696000D01*
X62882213Y-79732756D01*
X62892935Y-79768100D01*
X62910345Y-79800673D01*
X62933776Y-79829224D01*
X62962327Y-79852655D01*
X62994900Y-79870065D01*
X63030244Y-79880787D01*
X63067000Y-79884407D01*
X64567000Y-79884407D01*
X64603756Y-79880787D01*
X64639100Y-79870065D01*
X64671673Y-79852655D01*
X64700224Y-79829224D01*
X64723655Y-79800673D01*
X64741065Y-79768100D01*
X64751787Y-79732756D01*
X64755407Y-79696000D01*
X64755407Y-79296000D01*
X66278593Y-79296000D01*
X66278593Y-80496000D01*
X66282213Y-80532756D01*
X66292935Y-80568100D01*
X66310345Y-80600673D01*
X66333776Y-80629224D01*
X66362327Y-80652655D01*
X66394900Y-80670065D01*
X66430244Y-80680787D01*
X66467000Y-80684407D01*
X67667000Y-80684407D01*
X67703756Y-80680787D01*
X67739100Y-80670065D01*
X67771673Y-80652655D01*
X67800224Y-80629224D01*
X67823655Y-80600673D01*
X67833101Y-80583000D01*
X68402714Y-80583000D01*
X68403500Y-80892375D01*
X68444125Y-80933000D01*
X69128500Y-80933000D01*
X69128500Y-80461125D01*
X69403500Y-80461125D01*
X69403500Y-80933000D01*
X70087875Y-80933000D01*
X70128500Y-80892375D01*
X70129209Y-80613000D01*
X70537714Y-80613000D01*
X70538500Y-80922375D01*
X70579125Y-80963000D01*
X71263500Y-80963000D01*
X71263500Y-80491125D01*
X71538500Y-80491125D01*
X71538500Y-80963000D01*
X72222875Y-80963000D01*
X72263500Y-80922375D01*
X72264286Y-80613000D01*
X72569714Y-80613000D01*
X72570500Y-80922375D01*
X72611125Y-80963000D01*
X73295500Y-80963000D01*
X73295500Y-80491125D01*
X73570500Y-80491125D01*
X73570500Y-80963000D01*
X74254875Y-80963000D01*
X74295500Y-80922375D01*
X74296286Y-80613000D01*
X74293149Y-80581144D01*
X74283857Y-80550513D01*
X74268767Y-80522283D01*
X74248461Y-80497539D01*
X74223717Y-80477233D01*
X74195487Y-80462143D01*
X74164856Y-80452851D01*
X74133000Y-80449714D01*
X73611125Y-80450500D01*
X73570500Y-80491125D01*
X73295500Y-80491125D01*
X73254875Y-80450500D01*
X72733000Y-80449714D01*
X72701144Y-80452851D01*
X72670513Y-80462143D01*
X72642283Y-80477233D01*
X72617539Y-80497539D01*
X72597233Y-80522283D01*
X72582143Y-80550513D01*
X72572851Y-80581144D01*
X72569714Y-80613000D01*
X72264286Y-80613000D01*
X72261149Y-80581144D01*
X72251857Y-80550513D01*
X72236767Y-80522283D01*
X72216461Y-80497539D01*
X72191717Y-80477233D01*
X72163487Y-80462143D01*
X72132856Y-80452851D01*
X72101000Y-80449714D01*
X71579125Y-80450500D01*
X71538500Y-80491125D01*
X71263500Y-80491125D01*
X71222875Y-80450500D01*
X70701000Y-80449714D01*
X70669144Y-80452851D01*
X70638513Y-80462143D01*
X70610283Y-80477233D01*
X70585539Y-80497539D01*
X70565233Y-80522283D01*
X70550143Y-80550513D01*
X70540851Y-80581144D01*
X70537714Y-80613000D01*
X70129209Y-80613000D01*
X70129286Y-80583000D01*
X70126149Y-80551144D01*
X70116857Y-80520513D01*
X70101767Y-80492283D01*
X70081461Y-80467539D01*
X70056717Y-80447233D01*
X70028487Y-80432143D01*
X69997856Y-80422851D01*
X69966000Y-80419714D01*
X69444125Y-80420500D01*
X69403500Y-80461125D01*
X69128500Y-80461125D01*
X69087875Y-80420500D01*
X68566000Y-80419714D01*
X68534144Y-80422851D01*
X68503513Y-80432143D01*
X68475283Y-80447233D01*
X68450539Y-80467539D01*
X68430233Y-80492283D01*
X68415143Y-80520513D01*
X68405851Y-80551144D01*
X68402714Y-80583000D01*
X67833101Y-80583000D01*
X67841065Y-80568100D01*
X67851787Y-80532756D01*
X67855407Y-80496000D01*
X67855407Y-79296000D01*
X67851787Y-79259244D01*
X67841065Y-79223900D01*
X67823655Y-79191327D01*
X67800224Y-79162776D01*
X67771673Y-79139345D01*
X67739100Y-79121935D01*
X67703756Y-79111213D01*
X67667000Y-79107593D01*
X66467000Y-79107593D01*
X66430244Y-79111213D01*
X66394900Y-79121935D01*
X66362327Y-79139345D01*
X66333776Y-79162776D01*
X66310345Y-79191327D01*
X66292935Y-79223900D01*
X66282213Y-79259244D01*
X66278593Y-79296000D01*
X64755407Y-79296000D01*
X64755407Y-78496000D01*
X66303714Y-78496000D01*
X66306851Y-78527856D01*
X66316143Y-78558487D01*
X66331233Y-78586717D01*
X66351539Y-78611461D01*
X66376283Y-78631767D01*
X66404513Y-78646857D01*
X66435144Y-78656149D01*
X66467000Y-78659286D01*
X66888875Y-78658500D01*
X66929500Y-78617875D01*
X66929500Y-78033500D01*
X67204500Y-78033500D01*
X67204500Y-78617875D01*
X67245125Y-78658500D01*
X67667000Y-78659286D01*
X67698856Y-78656149D01*
X67729487Y-78646857D01*
X67757717Y-78631767D01*
X67782461Y-78611461D01*
X67802767Y-78586717D01*
X67817857Y-78558487D01*
X67827149Y-78527856D01*
X67830286Y-78496000D01*
X67829500Y-78074125D01*
X67788875Y-78033500D01*
X67204500Y-78033500D01*
X66929500Y-78033500D01*
X66345125Y-78033500D01*
X66304500Y-78074125D01*
X66303714Y-78496000D01*
X64755407Y-78496000D01*
X64755407Y-78096000D01*
X64751787Y-78059244D01*
X64741065Y-78023900D01*
X64723655Y-77991327D01*
X64700224Y-77962776D01*
X64671673Y-77939345D01*
X64639100Y-77921935D01*
X64603756Y-77911213D01*
X64567000Y-77907593D01*
X63067000Y-77907593D01*
X63030244Y-77911213D01*
X62994900Y-77921935D01*
X62962327Y-77939345D01*
X62933776Y-77962776D01*
X62910345Y-77991327D01*
X62892935Y-78023900D01*
X62882213Y-78059244D01*
X62878593Y-78096000D01*
X62878593Y-78606900D01*
X62641396Y-78606900D01*
X62626255Y-78570346D01*
X62551016Y-78457744D01*
X62455256Y-78361984D01*
X62342654Y-78286745D01*
X62217536Y-78234920D01*
X62084713Y-78208500D01*
X61949287Y-78208500D01*
X61816464Y-78234920D01*
X61691346Y-78286745D01*
X61578744Y-78361984D01*
X61482984Y-78457744D01*
X61407745Y-78570346D01*
X61355920Y-78695464D01*
X61329500Y-78828287D01*
X61077018Y-78828287D01*
X61092103Y-78778560D01*
X61100407Y-78694250D01*
X61100407Y-78147465D01*
X61114341Y-78113825D01*
X61932166Y-77296000D01*
X66303714Y-77296000D01*
X66304500Y-77717875D01*
X66345125Y-77758500D01*
X66929500Y-77758500D01*
X66929500Y-77174125D01*
X67204500Y-77174125D01*
X67204500Y-77758500D01*
X67788875Y-77758500D01*
X67829500Y-77717875D01*
X67830286Y-77296000D01*
X67827149Y-77264144D01*
X67817857Y-77233513D01*
X67802767Y-77205283D01*
X67782461Y-77180539D01*
X67757717Y-77160233D01*
X67729487Y-77145143D01*
X67698856Y-77135851D01*
X67667000Y-77132714D01*
X67245125Y-77133500D01*
X67204500Y-77174125D01*
X66929500Y-77174125D01*
X66888875Y-77133500D01*
X66467000Y-77132714D01*
X66435144Y-77135851D01*
X66404513Y-77145143D01*
X66376283Y-77160233D01*
X66351539Y-77180539D01*
X66331233Y-77205283D01*
X66316143Y-77233513D01*
X66306851Y-77264144D01*
X66303714Y-77296000D01*
X61932166Y-77296000D01*
X62484825Y-76743341D01*
X62629295Y-76683500D01*
X67842000Y-76683500D01*
X67878579Y-76679897D01*
X67913753Y-76669227D01*
X67946169Y-76651901D01*
X67974583Y-76628583D01*
X68099583Y-76503583D01*
X68122901Y-76475169D01*
X68140227Y-76442753D01*
X68150897Y-76407579D01*
X68154500Y-76371000D01*
X68154500Y-75533261D01*
X71314193Y-75533261D01*
X71467901Y-75689685D01*
X71720447Y-75806462D01*
X71990923Y-75871725D01*
X72268934Y-75882967D01*
X72543796Y-75839756D01*
X72804946Y-75743752D01*
X72906099Y-75689685D01*
X73059807Y-75533261D01*
X72187000Y-74660454D01*
X71314193Y-75533261D01*
X68154500Y-75533261D01*
X68154500Y-74547934D01*
X70770033Y-74547934D01*
X70813244Y-74822796D01*
X70909248Y-75083946D01*
X70963315Y-75185099D01*
X71119739Y-75338807D01*
X71992546Y-74466000D01*
X72381454Y-74466000D01*
X73254261Y-75338807D01*
X73410685Y-75185099D01*
X73527462Y-74932553D01*
X73592725Y-74662077D01*
X73603967Y-74384066D01*
X73560756Y-74109204D01*
X73464752Y-73848054D01*
X73410685Y-73746901D01*
X73254261Y-73593193D01*
X72381454Y-74466000D01*
X71992546Y-74466000D01*
X71119739Y-73593193D01*
X70963315Y-73746901D01*
X70846538Y-73999447D01*
X70781275Y-74269923D01*
X70770033Y-74547934D01*
X68154500Y-74547934D01*
X68154500Y-73398739D01*
X71314193Y-73398739D01*
X72187000Y-74271546D01*
X73059807Y-73398739D01*
X72906099Y-73242315D01*
X72653553Y-73125538D01*
X72383077Y-73060275D01*
X72105066Y-73049033D01*
X71830204Y-73092244D01*
X71569054Y-73188248D01*
X71467901Y-73242315D01*
X71314193Y-73398739D01*
X68154500Y-73398739D01*
X68154500Y-72921000D01*
X68150897Y-72884421D01*
X68140227Y-72849247D01*
X68122901Y-72816831D01*
X68099583Y-72788417D01*
X67974583Y-72663417D01*
X67946169Y-72640099D01*
X67913753Y-72622773D01*
X67878579Y-72612103D01*
X67842000Y-72608500D01*
X57892000Y-72608500D01*
X57855421Y-72612103D01*
X57820247Y-72622773D01*
X57787831Y-72640099D01*
X57759417Y-72663417D01*
X57634417Y-72788417D01*
X57611099Y-72816831D01*
X57593773Y-72849247D01*
X57583103Y-72884421D01*
X57579500Y-72921000D01*
X57579500Y-75671000D01*
X57583103Y-75707579D01*
X57593773Y-75742753D01*
X57682161Y-75956141D01*
X57699487Y-75988557D01*
X57722805Y-76016971D01*
X59090142Y-77384308D01*
X59068856Y-77377851D01*
X59037000Y-77374714D01*
X58727625Y-77375500D01*
X58687000Y-77416125D01*
X58687000Y-78100500D01*
X59158875Y-78100500D01*
X59199500Y-78059875D01*
X59200286Y-77538000D01*
X59197149Y-77506144D01*
X59190692Y-77484858D01*
X59719659Y-78013825D01*
X59748593Y-78083678D01*
X59748593Y-78694250D01*
X59756897Y-78778560D01*
X59779500Y-78853072D01*
X59779500Y-79746888D01*
X59665125Y-79747500D01*
X59624500Y-79788125D01*
X59624500Y-80302500D01*
X59644500Y-80302500D01*
X59644500Y-80577500D01*
X59624500Y-80577500D01*
X59624500Y-81091875D01*
X59665125Y-81132500D01*
X59779500Y-81133112D01*
X59779500Y-81921593D01*
X59162000Y-81921593D01*
X59125244Y-81925213D01*
X59089900Y-81935935D01*
X59057327Y-81953345D01*
X59028776Y-81976776D01*
X59012000Y-81997218D01*
X58995224Y-81976776D01*
X58966673Y-81953345D01*
X58934100Y-81935935D01*
X58898756Y-81925213D01*
X58862000Y-81921593D01*
X58212000Y-81921593D01*
X58175244Y-81925213D01*
X58139900Y-81935935D01*
X58107327Y-81953345D01*
X58078776Y-81976776D01*
X58055345Y-82005327D01*
X58037935Y-82037900D01*
X58027213Y-82073244D01*
X58023593Y-82110000D01*
X58023593Y-82646000D01*
X57751098Y-82646000D01*
X57747103Y-82605440D01*
X57722511Y-82524371D01*
X57682575Y-82449656D01*
X57628831Y-82384169D01*
X57563344Y-82330425D01*
X57488629Y-82290489D01*
X57407560Y-82265897D01*
X57323250Y-82257593D01*
X56410750Y-82257593D01*
X56326440Y-82265897D01*
X56245371Y-82290489D01*
X56170656Y-82330425D01*
X56105169Y-82384169D01*
X56051425Y-82449656D01*
X56011489Y-82524371D01*
X55986897Y-82605440D01*
X55978593Y-82689750D01*
X55978593Y-83068500D01*
X55403972Y-83068500D01*
X55370163Y-82957045D01*
X55273824Y-82776807D01*
X55144173Y-82618827D01*
X54986193Y-82489176D01*
X54805955Y-82392837D01*
X54610386Y-82333512D01*
X54457968Y-82318500D01*
X54356032Y-82318500D01*
X54203614Y-82333512D01*
X54008045Y-82392837D01*
X53827807Y-82489176D01*
X53669827Y-82618827D01*
X53540176Y-82776807D01*
X53443837Y-82957045D01*
X53384512Y-83152614D01*
X53364480Y-83356000D01*
X53384512Y-83559386D01*
X53443837Y-83754955D01*
X53540176Y-83935193D01*
X53669827Y-84093173D01*
X53827807Y-84222824D01*
X54008045Y-84319163D01*
X54203614Y-84378488D01*
X54356032Y-84393500D01*
X54457968Y-84393500D01*
X54610386Y-84378488D01*
X54805955Y-84319163D01*
X54986193Y-84222824D01*
X55144173Y-84093173D01*
X55273824Y-83935193D01*
X55370163Y-83754955D01*
X55403972Y-83643500D01*
X56430380Y-83643500D01*
X56444500Y-83644891D01*
X56458620Y-83643500D01*
X56458623Y-83643500D01*
X56500860Y-83639340D01*
X56555054Y-83622900D01*
X56580298Y-83609407D01*
X57323250Y-83609407D01*
X57407560Y-83601103D01*
X57488629Y-83576511D01*
X57563344Y-83536575D01*
X57628831Y-83482831D01*
X57682575Y-83417344D01*
X57722511Y-83342629D01*
X57747103Y-83261560D01*
X57751098Y-83221000D01*
X58031534Y-83221000D01*
X58037935Y-83242100D01*
X58055345Y-83274673D01*
X58078776Y-83303224D01*
X58107327Y-83326655D01*
X58139900Y-83344065D01*
X58175244Y-83354787D01*
X58212000Y-83358407D01*
X58862000Y-83358407D01*
X58898756Y-83354787D01*
X58934100Y-83344065D01*
X58966673Y-83326655D01*
X58995224Y-83303224D01*
X59012000Y-83282782D01*
X59028776Y-83303224D01*
X59057327Y-83326655D01*
X59089900Y-83344065D01*
X59125244Y-83354787D01*
X59162000Y-83358407D01*
X59199501Y-83358407D01*
X59199501Y-83626412D01*
X57286322Y-85539593D01*
X56560750Y-85539593D01*
X56476440Y-85547897D01*
X56395371Y-85572489D01*
X56320656Y-85612425D01*
X56255169Y-85666169D01*
X56201425Y-85731656D01*
X56161489Y-85806371D01*
X56136897Y-85887440D01*
X56128593Y-85971750D01*
X56128593Y-86254758D01*
X55584213Y-86799139D01*
X55573188Y-86808187D01*
X55564140Y-86819212D01*
X55564139Y-86819213D01*
X55537061Y-86852208D01*
X55510215Y-86902432D01*
X55493685Y-86956927D01*
X55488103Y-87013600D01*
X55489501Y-87027793D01*
X55489500Y-88599616D01*
X55488103Y-88613800D01*
X55489500Y-88627983D01*
X55489500Y-88627993D01*
X55493684Y-88670472D01*
X55510215Y-88724968D01*
X55537060Y-88775191D01*
X55573187Y-88819213D01*
X55584217Y-88828265D01*
X56021338Y-89265387D01*
X56030387Y-89276413D01*
X56074408Y-89312540D01*
X56124631Y-89339385D01*
X56179127Y-89355916D01*
X56221606Y-89360100D01*
X56221616Y-89360100D01*
X56235799Y-89361497D01*
X56249982Y-89360100D01*
X62415252Y-89360100D01*
X62955539Y-89900388D01*
X62964587Y-89911413D01*
X62975612Y-89920461D01*
X63008608Y-89947540D01*
X63058831Y-89974385D01*
X63113327Y-89990916D01*
X63170000Y-89996498D01*
X63184194Y-89995100D01*
X65525512Y-89995100D01*
X65394193Y-90128739D01*
X66267000Y-91001546D01*
X67139807Y-90128739D01*
X66986099Y-89972315D01*
X66733553Y-89855538D01*
X66463077Y-89790275D01*
X66185066Y-89779033D01*
X66019840Y-89805008D01*
X66439960Y-89384889D01*
X66450984Y-89375842D01*
X66467338Y-89355915D01*
X66487111Y-89331822D01*
X66513956Y-89281598D01*
X66530487Y-89227103D01*
X66536069Y-89170429D01*
X66534671Y-89156235D01*
X66534671Y-88966407D01*
X66670571Y-88966407D01*
X66707327Y-88962787D01*
X66742671Y-88952065D01*
X66775244Y-88934655D01*
X66796635Y-88917100D01*
X66900817Y-88917100D01*
X66915000Y-88918497D01*
X66929183Y-88917100D01*
X66929194Y-88917100D01*
X66971673Y-88912916D01*
X67026169Y-88896385D01*
X67076392Y-88869540D01*
X67120413Y-88833413D01*
X67129465Y-88822383D01*
X67555393Y-88396457D01*
X67566413Y-88387413D01*
X67575456Y-88376394D01*
X67575461Y-88376389D01*
X67602539Y-88343393D01*
X67602705Y-88343084D01*
X67628593Y-88294651D01*
X67628593Y-88334250D01*
X67636897Y-88418560D01*
X67661489Y-88499629D01*
X67701425Y-88574344D01*
X67755169Y-88639831D01*
X67820656Y-88693575D01*
X67895371Y-88733511D01*
X67976440Y-88758103D01*
X68060750Y-88766407D01*
X68229501Y-88766407D01*
X68229501Y-89115870D01*
X68228109Y-89130000D01*
X68233661Y-89186359D01*
X68250100Y-89240553D01*
X68276796Y-89290499D01*
X68294775Y-89312406D01*
X68312724Y-89334277D01*
X68323698Y-89343283D01*
X69931001Y-90950588D01*
X69931001Y-90955550D01*
X69928593Y-90980000D01*
X69928593Y-91480000D01*
X69931001Y-91504450D01*
X69931001Y-91529009D01*
X69934621Y-91565765D01*
X69953743Y-91661898D01*
X69964464Y-91697241D01*
X70001973Y-91787797D01*
X70019384Y-91820371D01*
X70073840Y-91901870D01*
X70097271Y-91930421D01*
X70166579Y-91999729D01*
X70195130Y-92023160D01*
X70276629Y-92077616D01*
X70309203Y-92095027D01*
X70399759Y-92132536D01*
X70435102Y-92143257D01*
X70531235Y-92162379D01*
X70567991Y-92165999D01*
X70592550Y-92165999D01*
X70617000Y-92168407D01*
X71117000Y-92168407D01*
X71153756Y-92164787D01*
X71189100Y-92154065D01*
X71221673Y-92136655D01*
X71250224Y-92113224D01*
X71267000Y-92092782D01*
X71283776Y-92113224D01*
X71312327Y-92136655D01*
X71344900Y-92154065D01*
X71380244Y-92164787D01*
X71417000Y-92168407D01*
X71917000Y-92168407D01*
X71941450Y-92165999D01*
X71966009Y-92165999D01*
X72002765Y-92162379D01*
X72098898Y-92143257D01*
X72134241Y-92132536D01*
X72224797Y-92095027D01*
X72257371Y-92077616D01*
X72338870Y-92023160D01*
X72367421Y-91999729D01*
X72436729Y-91930421D01*
X72460160Y-91901870D01*
X72514616Y-91820371D01*
X72532027Y-91787797D01*
X72569536Y-91697241D01*
X72580257Y-91661898D01*
X72599379Y-91565765D01*
X72602999Y-91529009D01*
X72602999Y-91504450D01*
X72605407Y-91480000D01*
X72605407Y-90980000D01*
X72602999Y-90955550D01*
X72602999Y-90950587D01*
X72618214Y-90935372D01*
X72902500Y-90935372D01*
X72902500Y-91016628D01*
X72918352Y-91096322D01*
X72949447Y-91171392D01*
X72994590Y-91238953D01*
X73052047Y-91296410D01*
X73119608Y-91341553D01*
X73194678Y-91372648D01*
X73274372Y-91388500D01*
X73355628Y-91388500D01*
X73435322Y-91372648D01*
X73510392Y-91341553D01*
X73577953Y-91296410D01*
X73609263Y-91265100D01*
X74839817Y-91265100D01*
X74854000Y-91266497D01*
X74868183Y-91265100D01*
X74868194Y-91265100D01*
X74910673Y-91260916D01*
X74965169Y-91244385D01*
X75015392Y-91217540D01*
X75059413Y-91181413D01*
X75068465Y-91170383D01*
X76092848Y-90146000D01*
X76228593Y-90146000D01*
X76228593Y-91846000D01*
X76232213Y-91882756D01*
X76242935Y-91918100D01*
X76260345Y-91950673D01*
X76283776Y-91979224D01*
X76312327Y-92002655D01*
X76344900Y-92020065D01*
X76380244Y-92030787D01*
X76417000Y-92034407D01*
X78117000Y-92034407D01*
X78153756Y-92030787D01*
X78189100Y-92020065D01*
X78221673Y-92002655D01*
X78250224Y-91979224D01*
X78273655Y-91950673D01*
X78291065Y-91918100D01*
X78301787Y-91882756D01*
X78305407Y-91846000D01*
X78305407Y-90146000D01*
X78301787Y-90109244D01*
X78291065Y-90073900D01*
X78273655Y-90041327D01*
X78250224Y-90012776D01*
X78221673Y-89989345D01*
X78189100Y-89971935D01*
X78153756Y-89961213D01*
X78117000Y-89957593D01*
X76417000Y-89957593D01*
X76380244Y-89961213D01*
X76344900Y-89971935D01*
X76312327Y-89989345D01*
X76283776Y-90012776D01*
X76260345Y-90041327D01*
X76242935Y-90073900D01*
X76232213Y-90109244D01*
X76228593Y-90146000D01*
X76092848Y-90146000D01*
X76165988Y-90072861D01*
X76177013Y-90063813D01*
X76213140Y-90019792D01*
X76239985Y-89969569D01*
X76256516Y-89915073D01*
X76260700Y-89872594D01*
X76260700Y-89872584D01*
X76262097Y-89858401D01*
X76260700Y-89844217D01*
X76260700Y-88712751D01*
X76303837Y-88854955D01*
X76400176Y-89035193D01*
X76529827Y-89193173D01*
X76687807Y-89322824D01*
X76868045Y-89419163D01*
X77063614Y-89478488D01*
X77216032Y-89493500D01*
X77317968Y-89493500D01*
X77470386Y-89478488D01*
X77665955Y-89419163D01*
X77846193Y-89322824D01*
X78004173Y-89193173D01*
X78133824Y-89035193D01*
X78230163Y-88854955D01*
X78289488Y-88659386D01*
X78309520Y-88456000D01*
X78289488Y-88252614D01*
X78230163Y-88057045D01*
X78133824Y-87876807D01*
X78004173Y-87718827D01*
X77846193Y-87589176D01*
X77665955Y-87492837D01*
X77470386Y-87433512D01*
X77317968Y-87418500D01*
X77216032Y-87418500D01*
X77063614Y-87433512D01*
X76868045Y-87492837D01*
X76687807Y-87589176D01*
X76529827Y-87718827D01*
X76400176Y-87876807D01*
X76303837Y-88057045D01*
X76260700Y-88199249D01*
X76260700Y-87666748D01*
X77006336Y-86921113D01*
X77063614Y-86938488D01*
X77216032Y-86953500D01*
X77317968Y-86953500D01*
X77470386Y-86938488D01*
X77665955Y-86879163D01*
X77846193Y-86782824D01*
X78004173Y-86653173D01*
X78133824Y-86495193D01*
X78230163Y-86314955D01*
X78289488Y-86119386D01*
X78309520Y-85916000D01*
X78289488Y-85712614D01*
X78230163Y-85517045D01*
X78133824Y-85336807D01*
X78004173Y-85178827D01*
X77846193Y-85049176D01*
X77665955Y-84952837D01*
X77470386Y-84893512D01*
X77317968Y-84878500D01*
X77216032Y-84878500D01*
X77063614Y-84893512D01*
X76868045Y-84952837D01*
X76687807Y-85049176D01*
X76529827Y-85178827D01*
X76400176Y-85336807D01*
X76303837Y-85517045D01*
X76244512Y-85712614D01*
X76224480Y-85916000D01*
X76244512Y-86119386D01*
X76303837Y-86314955D01*
X76400176Y-86495193D01*
X76496810Y-86612941D01*
X75777217Y-87332535D01*
X75766187Y-87341587D01*
X75730060Y-87385609D01*
X75703215Y-87435832D01*
X75686684Y-87490328D01*
X75682500Y-87532807D01*
X75682500Y-87532817D01*
X75681103Y-87547000D01*
X75682500Y-87561184D01*
X75682501Y-89738650D01*
X74734252Y-90686900D01*
X73609263Y-90686900D01*
X73577953Y-90655590D01*
X73510392Y-90610447D01*
X73435322Y-90579352D01*
X73355628Y-90563500D01*
X73274372Y-90563500D01*
X73194678Y-90579352D01*
X73119608Y-90610447D01*
X73052047Y-90655590D01*
X72994590Y-90713047D01*
X72949447Y-90780608D01*
X72918352Y-90855678D01*
X72902500Y-90935372D01*
X72618214Y-90935372D01*
X72767445Y-90786141D01*
X72778419Y-90777135D01*
X72799591Y-90751336D01*
X72814346Y-90733358D01*
X72841042Y-90683412D01*
X72849482Y-90655590D01*
X72857482Y-90629218D01*
X72861642Y-90586981D01*
X72861642Y-90586979D01*
X72863033Y-90572859D01*
X72861642Y-90558739D01*
X72861642Y-88766407D01*
X73030392Y-88766407D01*
X73114702Y-88758103D01*
X73195771Y-88733511D01*
X73270486Y-88693575D01*
X73335973Y-88639831D01*
X73386716Y-88578000D01*
X73903714Y-88578000D01*
X73906851Y-88609856D01*
X73916143Y-88640487D01*
X73931233Y-88668717D01*
X73951539Y-88693461D01*
X73976283Y-88713767D01*
X74004513Y-88728857D01*
X74035144Y-88738149D01*
X74067000Y-88741286D01*
X74588875Y-88740500D01*
X74629500Y-88699875D01*
X74629500Y-88228000D01*
X74904500Y-88228000D01*
X74904500Y-88699875D01*
X74945125Y-88740500D01*
X75467000Y-88741286D01*
X75498856Y-88738149D01*
X75529487Y-88728857D01*
X75557717Y-88713767D01*
X75582461Y-88693461D01*
X75602767Y-88668717D01*
X75617857Y-88640487D01*
X75627149Y-88609856D01*
X75630286Y-88578000D01*
X75629500Y-88268625D01*
X75588875Y-88228000D01*
X74904500Y-88228000D01*
X74629500Y-88228000D01*
X73945125Y-88228000D01*
X73904500Y-88268625D01*
X73903714Y-88578000D01*
X73386716Y-88578000D01*
X73389717Y-88574344D01*
X73429653Y-88499629D01*
X73454245Y-88418560D01*
X73462549Y-88334250D01*
X73462549Y-87926536D01*
X73786085Y-87603000D01*
X73903714Y-87603000D01*
X73904500Y-87912375D01*
X73945125Y-87953000D01*
X74629500Y-87953000D01*
X74629500Y-87481125D01*
X74904500Y-87481125D01*
X74904500Y-87953000D01*
X75588875Y-87953000D01*
X75629500Y-87912375D01*
X75630286Y-87603000D01*
X75627149Y-87571144D01*
X75617857Y-87540513D01*
X75602767Y-87512283D01*
X75582461Y-87487539D01*
X75557717Y-87467233D01*
X75529487Y-87452143D01*
X75498856Y-87442851D01*
X75467000Y-87439714D01*
X74945125Y-87440500D01*
X74904500Y-87481125D01*
X74629500Y-87481125D01*
X74588875Y-87440500D01*
X74067000Y-87439714D01*
X74035144Y-87442851D01*
X74004513Y-87452143D01*
X73976283Y-87467233D01*
X73951539Y-87487539D01*
X73931233Y-87512283D01*
X73916143Y-87540513D01*
X73906851Y-87571144D01*
X73903714Y-87603000D01*
X73786085Y-87603000D01*
X74497679Y-86891407D01*
X75223250Y-86891407D01*
X75307560Y-86883103D01*
X75388629Y-86858511D01*
X75463344Y-86818575D01*
X75528831Y-86764831D01*
X75582575Y-86699344D01*
X75622511Y-86624629D01*
X75647103Y-86543560D01*
X75655407Y-86459250D01*
X75655407Y-85971750D01*
X75647103Y-85887440D01*
X75622511Y-85806371D01*
X75582575Y-85731656D01*
X75528831Y-85666169D01*
X75463344Y-85612425D01*
X75388629Y-85572489D01*
X75307560Y-85547897D01*
X75223250Y-85539593D01*
X74310750Y-85539593D01*
X74226440Y-85547897D01*
X74145371Y-85572489D01*
X74070656Y-85612425D01*
X74005169Y-85666169D01*
X73951425Y-85731656D01*
X73911489Y-85806371D01*
X73886897Y-85887440D01*
X73878593Y-85971750D01*
X73878593Y-86459250D01*
X73886897Y-86543560D01*
X73911489Y-86624629D01*
X73925351Y-86650563D01*
X73144100Y-87431815D01*
X73114702Y-87422897D01*
X73030392Y-87414593D01*
X72369134Y-87414593D01*
X72767445Y-87016283D01*
X72778419Y-87007277D01*
X72804589Y-86975388D01*
X72814346Y-86963500D01*
X72841042Y-86913554D01*
X72847760Y-86891407D01*
X73030392Y-86891407D01*
X73114702Y-86883103D01*
X73195771Y-86858511D01*
X73270486Y-86818575D01*
X73335973Y-86764831D01*
X73389717Y-86699344D01*
X73429653Y-86624629D01*
X73454245Y-86543560D01*
X73462549Y-86459250D01*
X73462549Y-85971750D01*
X73454245Y-85887440D01*
X73429653Y-85806371D01*
X73389717Y-85731656D01*
X73335973Y-85666169D01*
X73270486Y-85612425D01*
X73195771Y-85572489D01*
X73114702Y-85547897D01*
X73030392Y-85539593D01*
X72117892Y-85539593D01*
X72033582Y-85547897D01*
X71952513Y-85572489D01*
X71877798Y-85612425D01*
X71812311Y-85666169D01*
X71758567Y-85731656D01*
X71718631Y-85806371D01*
X71694039Y-85887440D01*
X71685735Y-85971750D01*
X71685735Y-86459250D01*
X71694039Y-86543560D01*
X71718631Y-86624629D01*
X71758567Y-86699344D01*
X71812311Y-86764831D01*
X71877798Y-86818575D01*
X71952513Y-86858511D01*
X72033582Y-86883103D01*
X72082623Y-86887933D01*
X71855067Y-87115490D01*
X70741358Y-87115490D01*
X70861388Y-86995461D01*
X70872413Y-86986413D01*
X70908540Y-86942392D01*
X70935385Y-86892169D01*
X70935616Y-86891407D01*
X71123250Y-86891407D01*
X71207560Y-86883103D01*
X71288629Y-86858511D01*
X71363344Y-86818575D01*
X71428831Y-86764831D01*
X71482575Y-86699344D01*
X71522511Y-86624629D01*
X71547103Y-86543560D01*
X71555407Y-86459250D01*
X71555407Y-85971750D01*
X71547103Y-85887440D01*
X71522511Y-85806371D01*
X71482575Y-85731656D01*
X71428831Y-85666169D01*
X71363344Y-85612425D01*
X71288629Y-85572489D01*
X71207560Y-85547897D01*
X71123250Y-85539593D01*
X70210750Y-85539593D01*
X70126440Y-85547897D01*
X70045371Y-85572489D01*
X69970656Y-85612425D01*
X69905169Y-85666169D01*
X69851425Y-85731656D01*
X69811489Y-85806371D01*
X69786897Y-85887440D01*
X69778593Y-85971750D01*
X69778593Y-86459250D01*
X69786897Y-86543560D01*
X69811489Y-86624629D01*
X69851425Y-86699344D01*
X69892915Y-86749900D01*
X69577418Y-86749900D01*
X69628029Y-86665052D01*
X69640227Y-86640753D01*
X69650897Y-86605579D01*
X69654500Y-86569000D01*
X69654500Y-84660295D01*
X69715756Y-84512410D01*
X70283410Y-83944756D01*
X70431295Y-83883500D01*
X73867000Y-83883500D01*
X73903580Y-83879897D01*
X73938753Y-83869227D01*
X74109464Y-83798516D01*
X74141880Y-83781190D01*
X74170294Y-83757872D01*
X74552166Y-83376000D01*
X76224480Y-83376000D01*
X76244512Y-83579386D01*
X76303837Y-83774955D01*
X76400176Y-83955193D01*
X76529827Y-84113173D01*
X76687807Y-84242824D01*
X76868045Y-84339163D01*
X77063614Y-84398488D01*
X77216032Y-84413500D01*
X77317968Y-84413500D01*
X77470386Y-84398488D01*
X77665955Y-84339163D01*
X77846193Y-84242824D01*
X78004173Y-84113173D01*
X78133824Y-83955193D01*
X78230163Y-83774955D01*
X78289488Y-83579386D01*
X78309520Y-83376000D01*
X78289488Y-83172614D01*
X78230163Y-82977045D01*
X78133824Y-82796807D01*
X78004173Y-82638827D01*
X77846193Y-82509176D01*
X77665955Y-82412837D01*
X77470386Y-82353512D01*
X77317968Y-82338500D01*
X77216032Y-82338500D01*
X77063614Y-82353512D01*
X76868045Y-82412837D01*
X76687807Y-82509176D01*
X76529827Y-82638827D01*
X76400176Y-82796807D01*
X76303837Y-82977045D01*
X76244512Y-83172614D01*
X76224480Y-83376000D01*
X74552166Y-83376000D01*
X75809780Y-82118386D01*
X75833097Y-82089973D01*
X75850424Y-82057556D01*
X75940227Y-81840753D01*
X75950897Y-81805579D01*
X75954500Y-81769000D01*
X75954500Y-80836000D01*
X76224480Y-80836000D01*
X76244512Y-81039386D01*
X76303837Y-81234955D01*
X76400176Y-81415193D01*
X76529827Y-81573173D01*
X76687807Y-81702824D01*
X76868045Y-81799163D01*
X77063614Y-81858488D01*
X77216032Y-81873500D01*
X77317968Y-81873500D01*
X77470386Y-81858488D01*
X77665955Y-81799163D01*
X77846193Y-81702824D01*
X78004173Y-81573173D01*
X78133824Y-81415193D01*
X78230163Y-81234955D01*
X78289488Y-81039386D01*
X78309520Y-80836000D01*
X78289488Y-80632614D01*
X78230163Y-80437045D01*
X78133824Y-80256807D01*
X78004173Y-80098827D01*
X77846193Y-79969176D01*
X77665955Y-79872837D01*
X77470386Y-79813512D01*
X77317968Y-79798500D01*
X77216032Y-79798500D01*
X77063614Y-79813512D01*
X76868045Y-79872837D01*
X76687807Y-79969176D01*
X76529827Y-80098827D01*
X76400176Y-80256807D01*
X76303837Y-80437045D01*
X76244512Y-80632614D01*
X76224480Y-80836000D01*
X75954500Y-80836000D01*
X75954500Y-78296000D01*
X76224480Y-78296000D01*
X76244512Y-78499386D01*
X76303837Y-78694955D01*
X76400176Y-78875193D01*
X76529827Y-79033173D01*
X76687807Y-79162824D01*
X76868045Y-79259163D01*
X77063614Y-79318488D01*
X77216032Y-79333500D01*
X77317968Y-79333500D01*
X77470386Y-79318488D01*
X77665955Y-79259163D01*
X77846193Y-79162824D01*
X78004173Y-79033173D01*
X78133824Y-78875193D01*
X78230163Y-78694955D01*
X78289488Y-78499386D01*
X78309520Y-78296000D01*
X78289488Y-78092614D01*
X78230163Y-77897045D01*
X78133824Y-77716807D01*
X78004173Y-77558827D01*
X77846193Y-77429176D01*
X77665955Y-77332837D01*
X77470386Y-77273512D01*
X77317968Y-77258500D01*
X77216032Y-77258500D01*
X77063614Y-77273512D01*
X76868045Y-77332837D01*
X76687807Y-77429176D01*
X76529827Y-77558827D01*
X76400176Y-77716807D01*
X76303837Y-77897045D01*
X76244512Y-78092614D01*
X76224480Y-78296000D01*
X75954500Y-78296000D01*
X75954500Y-75756000D01*
X76224480Y-75756000D01*
X76244512Y-75959386D01*
X76303837Y-76154955D01*
X76400176Y-76335193D01*
X76529827Y-76493173D01*
X76687807Y-76622824D01*
X76868045Y-76719163D01*
X77063614Y-76778488D01*
X77216032Y-76793500D01*
X77317968Y-76793500D01*
X77470386Y-76778488D01*
X77665955Y-76719163D01*
X77846193Y-76622824D01*
X78004173Y-76493173D01*
X78133824Y-76335193D01*
X78230163Y-76154955D01*
X78289488Y-75959386D01*
X78309520Y-75756000D01*
X78289488Y-75552614D01*
X78230163Y-75357045D01*
X78133824Y-75176807D01*
X78004173Y-75018827D01*
X77846193Y-74889176D01*
X77665955Y-74792837D01*
X77470386Y-74733512D01*
X77317968Y-74718500D01*
X77216032Y-74718500D01*
X77063614Y-74733512D01*
X76868045Y-74792837D01*
X76687807Y-74889176D01*
X76529827Y-75018827D01*
X76400176Y-75176807D01*
X76303837Y-75357045D01*
X76244512Y-75552614D01*
X76224480Y-75756000D01*
X75954500Y-75756000D01*
X75954500Y-75260295D01*
X76015756Y-75112410D01*
X76583410Y-74544756D01*
X76731295Y-74483500D01*
X78240000Y-74483500D01*
X78276579Y-74479897D01*
X78311753Y-74469227D01*
X78344169Y-74451901D01*
X78372583Y-74428583D01*
X78451500Y-74349666D01*
X78451501Y-92586500D01*
X66517289Y-92586500D01*
X66623796Y-92569756D01*
X66884946Y-92473752D01*
X66986099Y-92419685D01*
X67139807Y-92263261D01*
X66267000Y-91390454D01*
X65394193Y-92263261D01*
X65547901Y-92419685D01*
X65800447Y-92536462D01*
X66007825Y-92586500D01*
X53221500Y-92586500D01*
X53221500Y-90976000D01*
X53364480Y-90976000D01*
X53384512Y-91179386D01*
X53443837Y-91374955D01*
X53540176Y-91555193D01*
X53669827Y-91713173D01*
X53827807Y-91842824D01*
X54008045Y-91939163D01*
X54203614Y-91998488D01*
X54356032Y-92013500D01*
X54457968Y-92013500D01*
X54610386Y-91998488D01*
X54805955Y-91939163D01*
X54986193Y-91842824D01*
X55144173Y-91713173D01*
X55273824Y-91555193D01*
X55370163Y-91374955D01*
X55399593Y-91277934D01*
X64850033Y-91277934D01*
X64893244Y-91552796D01*
X64989248Y-91813946D01*
X65043315Y-91915099D01*
X65199739Y-92068807D01*
X66072546Y-91196000D01*
X66461454Y-91196000D01*
X67334261Y-92068807D01*
X67490685Y-91915099D01*
X67607462Y-91662553D01*
X67672725Y-91392077D01*
X67683967Y-91114066D01*
X67640756Y-90839204D01*
X67544752Y-90578054D01*
X67490685Y-90476901D01*
X67334261Y-90323193D01*
X66461454Y-91196000D01*
X66072546Y-91196000D01*
X65199739Y-90323193D01*
X65043315Y-90476901D01*
X64926538Y-90729447D01*
X64861275Y-90999923D01*
X64850033Y-91277934D01*
X55399593Y-91277934D01*
X55429488Y-91179386D01*
X55449520Y-90976000D01*
X55429488Y-90772614D01*
X55370163Y-90577045D01*
X55273824Y-90396807D01*
X55144173Y-90238827D01*
X54986193Y-90109176D01*
X54805955Y-90012837D01*
X54610386Y-89953512D01*
X54457968Y-89938500D01*
X54356032Y-89938500D01*
X54203614Y-89953512D01*
X54008045Y-90012837D01*
X53827807Y-90109176D01*
X53669827Y-90238827D01*
X53540176Y-90396807D01*
X53443837Y-90577045D01*
X53384512Y-90772614D01*
X53364480Y-90976000D01*
X53221500Y-90976000D01*
X53221500Y-88436000D01*
X53364480Y-88436000D01*
X53384512Y-88639386D01*
X53443837Y-88834955D01*
X53540176Y-89015193D01*
X53669827Y-89173173D01*
X53827807Y-89302824D01*
X54008045Y-89399163D01*
X54203614Y-89458488D01*
X54356032Y-89473500D01*
X54457968Y-89473500D01*
X54610386Y-89458488D01*
X54805955Y-89399163D01*
X54986193Y-89302824D01*
X55144173Y-89173173D01*
X55273824Y-89015193D01*
X55370163Y-88834955D01*
X55429488Y-88639386D01*
X55449520Y-88436000D01*
X55429488Y-88232614D01*
X55370163Y-88037045D01*
X55273824Y-87856807D01*
X55144173Y-87698827D01*
X54986193Y-87569176D01*
X54805955Y-87472837D01*
X54610386Y-87413512D01*
X54457968Y-87398500D01*
X54356032Y-87398500D01*
X54203614Y-87413512D01*
X54008045Y-87472837D01*
X53827807Y-87569176D01*
X53669827Y-87698827D01*
X53540176Y-87856807D01*
X53443837Y-88037045D01*
X53384512Y-88232614D01*
X53364480Y-88436000D01*
X53221500Y-88436000D01*
X53221500Y-85896000D01*
X53364480Y-85896000D01*
X53384512Y-86099386D01*
X53443837Y-86294955D01*
X53540176Y-86475193D01*
X53669827Y-86633173D01*
X53827807Y-86762824D01*
X54008045Y-86859163D01*
X54203614Y-86918488D01*
X54356032Y-86933500D01*
X54457968Y-86933500D01*
X54610386Y-86918488D01*
X54805955Y-86859163D01*
X54986193Y-86762824D01*
X55144173Y-86633173D01*
X55273824Y-86475193D01*
X55370163Y-86294955D01*
X55429488Y-86099386D01*
X55449520Y-85896000D01*
X55429488Y-85692614D01*
X55370163Y-85497045D01*
X55273824Y-85316807D01*
X55144173Y-85158827D01*
X54986193Y-85029176D01*
X54805955Y-84932837D01*
X54610386Y-84873512D01*
X54457968Y-84858500D01*
X54356032Y-84858500D01*
X54203614Y-84873512D01*
X54008045Y-84932837D01*
X53827807Y-85029176D01*
X53669827Y-85158827D01*
X53540176Y-85316807D01*
X53443837Y-85497045D01*
X53384512Y-85692614D01*
X53364480Y-85896000D01*
X53221500Y-85896000D01*
X53221500Y-80816000D01*
X53364480Y-80816000D01*
X53384512Y-81019386D01*
X53443837Y-81214955D01*
X53540176Y-81395193D01*
X53669827Y-81553173D01*
X53827807Y-81682824D01*
X54008045Y-81779163D01*
X54203614Y-81838488D01*
X54356032Y-81853500D01*
X54457968Y-81853500D01*
X54610386Y-81838488D01*
X54805955Y-81779163D01*
X54986193Y-81682824D01*
X55144173Y-81553173D01*
X55150059Y-81546000D01*
X56003714Y-81546000D01*
X56006851Y-81577856D01*
X56016143Y-81608487D01*
X56031233Y-81636717D01*
X56051539Y-81661461D01*
X56076283Y-81681767D01*
X56104513Y-81696857D01*
X56135144Y-81706149D01*
X56167000Y-81709286D01*
X56688875Y-81708500D01*
X56729500Y-81667875D01*
X56729500Y-81196000D01*
X57004500Y-81196000D01*
X57004500Y-81667875D01*
X57045125Y-81708500D01*
X57567000Y-81709286D01*
X57598856Y-81706149D01*
X57629487Y-81696857D01*
X57657717Y-81681767D01*
X57682461Y-81661461D01*
X57702767Y-81636717D01*
X57717857Y-81608487D01*
X57727149Y-81577856D01*
X57730286Y-81546000D01*
X57729500Y-81236625D01*
X57688875Y-81196000D01*
X57004500Y-81196000D01*
X56729500Y-81196000D01*
X56045125Y-81196000D01*
X56004500Y-81236625D01*
X56003714Y-81546000D01*
X55150059Y-81546000D01*
X55273824Y-81395193D01*
X55370163Y-81214955D01*
X55429488Y-81019386D01*
X55449520Y-80816000D01*
X55429488Y-80612614D01*
X55416865Y-80571000D01*
X56003714Y-80571000D01*
X56004500Y-80880375D01*
X56045125Y-80921000D01*
X56729500Y-80921000D01*
X56729500Y-80449125D01*
X57004500Y-80449125D01*
X57004500Y-80921000D01*
X57688875Y-80921000D01*
X57729500Y-80880375D01*
X57730286Y-80571000D01*
X57727149Y-80539144D01*
X57717857Y-80508513D01*
X57702767Y-80480283D01*
X57682461Y-80455539D01*
X57657717Y-80435233D01*
X57629487Y-80420143D01*
X57598856Y-80410851D01*
X57567000Y-80407714D01*
X57045125Y-80408500D01*
X57004500Y-80449125D01*
X56729500Y-80449125D01*
X56688875Y-80408500D01*
X56167000Y-80407714D01*
X56135144Y-80410851D01*
X56104513Y-80420143D01*
X56076283Y-80435233D01*
X56051539Y-80455539D01*
X56031233Y-80480283D01*
X56016143Y-80508513D01*
X56006851Y-80539144D01*
X56003714Y-80571000D01*
X55416865Y-80571000D01*
X55370163Y-80417045D01*
X55273824Y-80236807D01*
X55144173Y-80078827D01*
X54986193Y-79949176D01*
X54912900Y-79910000D01*
X58023593Y-79910000D01*
X58023593Y-80970000D01*
X58027213Y-81006756D01*
X58037935Y-81042100D01*
X58055345Y-81074673D01*
X58078776Y-81103224D01*
X58107327Y-81126655D01*
X58139900Y-81144065D01*
X58175244Y-81154787D01*
X58212000Y-81158407D01*
X58862000Y-81158407D01*
X58898756Y-81154787D01*
X58934100Y-81144065D01*
X58966673Y-81126655D01*
X58995224Y-81103224D01*
X59018655Y-81074673D01*
X59026174Y-81060606D01*
X59026233Y-81060717D01*
X59046539Y-81085461D01*
X59071283Y-81105767D01*
X59099513Y-81120857D01*
X59130144Y-81130149D01*
X59162000Y-81133286D01*
X59308875Y-81132500D01*
X59349500Y-81091875D01*
X59349500Y-80577500D01*
X59329500Y-80577500D01*
X59329500Y-80302500D01*
X59349500Y-80302500D01*
X59349500Y-79788125D01*
X59308875Y-79747500D01*
X59162000Y-79746714D01*
X59130144Y-79749851D01*
X59099513Y-79759143D01*
X59071283Y-79774233D01*
X59046539Y-79794539D01*
X59026233Y-79819283D01*
X59026174Y-79819394D01*
X59018655Y-79805327D01*
X58995224Y-79776776D01*
X58966673Y-79753345D01*
X58934100Y-79735935D01*
X58898756Y-79725213D01*
X58862000Y-79721593D01*
X58212000Y-79721593D01*
X58175244Y-79725213D01*
X58139900Y-79735935D01*
X58107327Y-79753345D01*
X58078776Y-79776776D01*
X58055345Y-79805327D01*
X58037935Y-79837900D01*
X58027213Y-79873244D01*
X58023593Y-79910000D01*
X54912900Y-79910000D01*
X54805955Y-79852837D01*
X54610386Y-79793512D01*
X54457968Y-79778500D01*
X54356032Y-79778500D01*
X54203614Y-79793512D01*
X54008045Y-79852837D01*
X53827807Y-79949176D01*
X53669827Y-80078827D01*
X53540176Y-80236807D01*
X53443837Y-80417045D01*
X53384512Y-80612614D01*
X53364480Y-80816000D01*
X53221500Y-80816000D01*
X53221500Y-78276000D01*
X53364480Y-78276000D01*
X53384512Y-78479386D01*
X53443837Y-78674955D01*
X53540176Y-78855193D01*
X53669827Y-79013173D01*
X53827807Y-79142824D01*
X54008045Y-79239163D01*
X54203614Y-79298488D01*
X54356032Y-79313500D01*
X54457968Y-79313500D01*
X54610386Y-79298488D01*
X54805955Y-79239163D01*
X54986193Y-79142824D01*
X55144173Y-79013173D01*
X55205865Y-78938000D01*
X57898714Y-78938000D01*
X57901851Y-78969856D01*
X57911143Y-79000487D01*
X57926233Y-79028717D01*
X57946539Y-79053461D01*
X57971283Y-79073767D01*
X57999513Y-79088857D01*
X58030144Y-79098149D01*
X58062000Y-79101286D01*
X58371375Y-79100500D01*
X58412000Y-79059875D01*
X58412000Y-78375500D01*
X58687000Y-78375500D01*
X58687000Y-79059875D01*
X58727625Y-79100500D01*
X59037000Y-79101286D01*
X59068856Y-79098149D01*
X59099487Y-79088857D01*
X59127717Y-79073767D01*
X59152461Y-79053461D01*
X59172767Y-79028717D01*
X59187857Y-79000487D01*
X59197149Y-78969856D01*
X59200286Y-78938000D01*
X59199500Y-78416125D01*
X59158875Y-78375500D01*
X58687000Y-78375500D01*
X58412000Y-78375500D01*
X57940125Y-78375500D01*
X57899500Y-78416125D01*
X57898714Y-78938000D01*
X55205865Y-78938000D01*
X55273824Y-78855193D01*
X55370163Y-78674955D01*
X55429488Y-78479386D01*
X55449520Y-78276000D01*
X55429488Y-78072614D01*
X55370163Y-77877045D01*
X55273824Y-77696807D01*
X55144173Y-77538827D01*
X55143166Y-77538000D01*
X57898714Y-77538000D01*
X57899500Y-78059875D01*
X57940125Y-78100500D01*
X58412000Y-78100500D01*
X58412000Y-77416125D01*
X58371375Y-77375500D01*
X58062000Y-77374714D01*
X58030144Y-77377851D01*
X57999513Y-77387143D01*
X57971283Y-77402233D01*
X57946539Y-77422539D01*
X57926233Y-77447283D01*
X57911143Y-77475513D01*
X57901851Y-77506144D01*
X57898714Y-77538000D01*
X55143166Y-77538000D01*
X54986193Y-77409176D01*
X54805955Y-77312837D01*
X54610386Y-77253512D01*
X54457968Y-77238500D01*
X54356032Y-77238500D01*
X54203614Y-77253512D01*
X54008045Y-77312837D01*
X53827807Y-77409176D01*
X53669827Y-77538827D01*
X53540176Y-77696807D01*
X53443837Y-77877045D01*
X53384512Y-78072614D01*
X53364480Y-78276000D01*
X53221500Y-78276000D01*
X53221500Y-76028730D01*
X53437740Y-76028730D01*
X53438450Y-76031101D01*
X53514632Y-76214385D01*
X53625107Y-76379285D01*
X53765629Y-76519464D01*
X53930799Y-76629535D01*
X54114269Y-76705268D01*
X54269500Y-76698503D01*
X54269500Y-75873500D01*
X54544500Y-75873500D01*
X54544500Y-76698503D01*
X54699731Y-76705268D01*
X54883201Y-76629535D01*
X55048371Y-76519464D01*
X55188893Y-76379285D01*
X55299368Y-76214385D01*
X55375550Y-76031101D01*
X55376260Y-76028730D01*
X55369099Y-75873500D01*
X54544500Y-75873500D01*
X54269500Y-75873500D01*
X53444901Y-75873500D01*
X53437740Y-76028730D01*
X53221500Y-76028730D01*
X53221500Y-75443270D01*
X53437740Y-75443270D01*
X53444901Y-75598500D01*
X54269500Y-75598500D01*
X54269500Y-74773497D01*
X54544500Y-74773497D01*
X54544500Y-75598500D01*
X55369099Y-75598500D01*
X55376260Y-75443270D01*
X55375550Y-75440899D01*
X55299368Y-75257615D01*
X55188893Y-75092715D01*
X55048371Y-74952536D01*
X54883201Y-74842465D01*
X54699731Y-74766732D01*
X54544500Y-74773497D01*
X54269500Y-74773497D01*
X54114269Y-74766732D01*
X53930799Y-74842465D01*
X53765629Y-74952536D01*
X53625107Y-75092715D01*
X53514632Y-75257615D01*
X53438450Y-75440899D01*
X53437740Y-75443270D01*
X53221500Y-75443270D01*
X53221500Y-72346000D01*
X53368593Y-72346000D01*
X53368593Y-74046000D01*
X53372213Y-74082756D01*
X53382935Y-74118100D01*
X53400345Y-74150673D01*
X53423776Y-74179224D01*
X53452327Y-74202655D01*
X53484900Y-74220065D01*
X53520244Y-74230787D01*
X53557000Y-74234407D01*
X55257000Y-74234407D01*
X55293756Y-74230787D01*
X55329100Y-74220065D01*
X55361673Y-74202655D01*
X55390224Y-74179224D01*
X55413655Y-74150673D01*
X55431065Y-74118100D01*
X55441787Y-74082756D01*
X55445407Y-74046000D01*
X55445407Y-72346000D01*
X55441787Y-72309244D01*
X55431065Y-72273900D01*
X55413655Y-72241327D01*
X55390224Y-72212776D01*
X55361673Y-72189345D01*
X55329100Y-72171935D01*
X55293756Y-72161213D01*
X55257000Y-72157593D01*
X53557000Y-72157593D01*
X53520244Y-72161213D01*
X53484900Y-72171935D01*
X53452327Y-72189345D01*
X53423776Y-72212776D01*
X53400345Y-72241327D01*
X53382935Y-72273900D01*
X53372213Y-72309244D01*
X53368593Y-72346000D01*
X53221500Y-72346000D01*
X53221500Y-72011500D01*
X76408042Y-72011500D01*
X76405444Y-72012576D01*
X76405444Y-72012576D01*
G37*
X76405444Y-72012576D02*
X76373028Y-72029902D01*
X76344614Y-72053220D01*
X74724220Y-73673614D01*
X74700903Y-73702027D01*
X74683576Y-73734444D01*
X74593773Y-73951247D01*
X74583103Y-73986421D01*
X74579500Y-74023000D01*
X74579500Y-81431705D01*
X74518244Y-81579590D01*
X74150590Y-81947244D01*
X74002705Y-82008500D01*
X68894000Y-82008500D01*
X68857420Y-82012103D01*
X68822247Y-82022773D01*
X68605444Y-82112576D01*
X68573028Y-82129902D01*
X68544614Y-82153220D01*
X67824220Y-82873614D01*
X67800903Y-82902027D01*
X67783576Y-82934444D01*
X67693773Y-83151247D01*
X67683103Y-83186421D01*
X67679500Y-83223000D01*
X67679500Y-85233730D01*
X67619147Y-85388479D01*
X66955959Y-86109382D01*
X66954761Y-85523736D01*
X66957429Y-85272218D01*
X67043805Y-81558000D01*
X68402714Y-81558000D01*
X68405851Y-81589856D01*
X68415143Y-81620487D01*
X68430233Y-81648717D01*
X68450539Y-81673461D01*
X68475283Y-81693767D01*
X68503513Y-81708857D01*
X68534144Y-81718149D01*
X68566000Y-81721286D01*
X69087875Y-81720500D01*
X69128500Y-81679875D01*
X69128500Y-81208000D01*
X69403500Y-81208000D01*
X69403500Y-81679875D01*
X69444125Y-81720500D01*
X69966000Y-81721286D01*
X69997856Y-81718149D01*
X70028487Y-81708857D01*
X70056717Y-81693767D01*
X70081461Y-81673461D01*
X70101767Y-81648717D01*
X70116857Y-81620487D01*
X70126149Y-81589856D01*
X70126331Y-81588000D01*
X70537714Y-81588000D01*
X70540851Y-81619856D01*
X70550143Y-81650487D01*
X70565233Y-81678717D01*
X70585539Y-81703461D01*
X70610283Y-81723767D01*
X70638513Y-81738857D01*
X70669144Y-81748149D01*
X70701000Y-81751286D01*
X71222875Y-81750500D01*
X71263500Y-81709875D01*
X71263500Y-81238000D01*
X71538500Y-81238000D01*
X71538500Y-81709875D01*
X71579125Y-81750500D01*
X72101000Y-81751286D01*
X72132856Y-81748149D01*
X72163487Y-81738857D01*
X72191717Y-81723767D01*
X72216461Y-81703461D01*
X72236767Y-81678717D01*
X72251857Y-81650487D01*
X72261149Y-81619856D01*
X72264286Y-81588000D01*
X72569714Y-81588000D01*
X72572851Y-81619856D01*
X72582143Y-81650487D01*
X72597233Y-81678717D01*
X72617539Y-81703461D01*
X72642283Y-81723767D01*
X72670513Y-81738857D01*
X72701144Y-81748149D01*
X72733000Y-81751286D01*
X73254875Y-81750500D01*
X73295500Y-81709875D01*
X73295500Y-81238000D01*
X73570500Y-81238000D01*
X73570500Y-81709875D01*
X73611125Y-81750500D01*
X74133000Y-81751286D01*
X74164856Y-81748149D01*
X74195487Y-81738857D01*
X74223717Y-81723767D01*
X74248461Y-81703461D01*
X74268767Y-81678717D01*
X74283857Y-81650487D01*
X74293149Y-81619856D01*
X74296286Y-81588000D01*
X74295500Y-81278625D01*
X74254875Y-81238000D01*
X73570500Y-81238000D01*
X73295500Y-81238000D01*
X72611125Y-81238000D01*
X72570500Y-81278625D01*
X72569714Y-81588000D01*
X72264286Y-81588000D01*
X72263500Y-81278625D01*
X72222875Y-81238000D01*
X71538500Y-81238000D01*
X71263500Y-81238000D01*
X70579125Y-81238000D01*
X70538500Y-81278625D01*
X70537714Y-81588000D01*
X70126331Y-81588000D01*
X70129286Y-81558000D01*
X70128500Y-81248625D01*
X70087875Y-81208000D01*
X69403500Y-81208000D01*
X69128500Y-81208000D01*
X68444125Y-81208000D01*
X68403500Y-81248625D01*
X68402714Y-81558000D01*
X67043805Y-81558000D01*
X67051496Y-81227325D01*
X67048357Y-81188527D01*
X67038097Y-81153232D01*
X67021148Y-81120616D01*
X66998162Y-81091934D01*
X66874115Y-80964968D01*
X66844169Y-80940099D01*
X66811753Y-80922773D01*
X66776579Y-80912103D01*
X66740000Y-80908500D01*
X65894000Y-80908500D01*
X65857389Y-80912109D01*
X65822217Y-80922785D01*
X65789804Y-80940117D01*
X65761395Y-80963440D01*
X65634439Y-81090440D01*
X65611107Y-81118885D01*
X65593792Y-81151307D01*
X65583134Y-81186484D01*
X65579544Y-81223065D01*
X65581027Y-85489779D01*
X64973696Y-85490500D01*
X64933071Y-85531125D01*
X64933071Y-86990500D01*
X64953071Y-86990500D01*
X64953071Y-87265500D01*
X64933071Y-87265500D01*
X64933071Y-88724875D01*
X64973696Y-88765500D01*
X65632164Y-88766282D01*
X65632164Y-88778000D01*
X65635784Y-88814756D01*
X65646506Y-88850100D01*
X65663916Y-88882673D01*
X65687347Y-88911224D01*
X65715898Y-88934655D01*
X65748471Y-88952065D01*
X65783815Y-88962787D01*
X65820571Y-88966407D01*
X65956471Y-88966407D01*
X65956471Y-89050680D01*
X65590252Y-89416900D01*
X63289749Y-89416900D01*
X62824100Y-88951252D01*
X62824100Y-88939039D01*
X62848471Y-88952065D01*
X62883815Y-88962787D01*
X62920571Y-88966407D01*
X63770571Y-88966407D01*
X63807327Y-88962787D01*
X63842671Y-88952065D01*
X63875244Y-88934655D01*
X63903795Y-88911224D01*
X63927226Y-88882673D01*
X63944636Y-88850100D01*
X63955358Y-88814756D01*
X63958978Y-88778000D01*
X63958978Y-88766282D01*
X64617446Y-88765500D01*
X64658071Y-88724875D01*
X64658071Y-87265500D01*
X64638071Y-87265500D01*
X64638071Y-86990500D01*
X64658071Y-86990500D01*
X64658071Y-85531125D01*
X64617446Y-85490500D01*
X63994827Y-85489761D01*
X63995058Y-85294753D01*
X64011595Y-85278335D01*
X64738869Y-85282730D01*
X64776026Y-85279240D01*
X64811232Y-85268676D01*
X64843700Y-85251448D01*
X64872183Y-85228215D01*
X64999181Y-85101982D01*
X65022901Y-85073169D01*
X65040227Y-85040753D01*
X65050897Y-85005579D01*
X65054500Y-84969000D01*
X65054500Y-81223000D01*
X65050897Y-81186421D01*
X65040227Y-81151247D01*
X65022901Y-81118831D01*
X64999583Y-81090417D01*
X64872583Y-80963417D01*
X64844169Y-80940099D01*
X64811753Y-80922773D01*
X64776579Y-80912103D01*
X64740000Y-80908500D01*
X63694000Y-80908500D01*
X63657421Y-80912103D01*
X63622247Y-80922773D01*
X63589831Y-80940099D01*
X63561417Y-80963417D01*
X63434417Y-81090417D01*
X63411099Y-81118831D01*
X63393773Y-81151247D01*
X63383103Y-81186421D01*
X63379500Y-81223000D01*
X63379500Y-84334019D01*
X63319301Y-84489743D01*
X62786480Y-85075904D01*
X62766960Y-85101483D01*
X62750386Y-85134291D01*
X62664780Y-85355268D01*
X62655774Y-85386159D01*
X62652119Y-85422733D01*
X62651173Y-86088136D01*
X61113942Y-84482781D01*
X61054500Y-84334758D01*
X61054500Y-78883971D01*
X61067511Y-78859629D01*
X61077018Y-78828287D01*
X61329500Y-78828287D01*
X61329500Y-78963713D01*
X61355920Y-79096536D01*
X61407745Y-79221654D01*
X61482984Y-79334256D01*
X61578744Y-79430016D01*
X61691346Y-79505255D01*
X61727901Y-79520396D01*
X61727901Y-79526399D01*
X61704608Y-79536047D01*
X61637047Y-79581190D01*
X61579590Y-79638647D01*
X61534447Y-79706208D01*
X61503352Y-79781278D01*
X61487500Y-79860972D01*
X61487500Y-79942228D01*
X61503352Y-80021922D01*
X61534447Y-80096992D01*
X61579590Y-80164553D01*
X61637047Y-80222010D01*
X61704608Y-80267153D01*
X61779678Y-80298248D01*
X61859372Y-80314100D01*
X61940628Y-80314100D01*
X62020322Y-80298248D01*
X62095392Y-80267153D01*
X62162953Y-80222010D01*
X62220410Y-80164553D01*
X62265553Y-80096992D01*
X62296648Y-80021922D01*
X62312500Y-79942228D01*
X62312500Y-79860972D01*
X62304124Y-79818860D01*
X62306100Y-79798794D01*
X62306100Y-79798784D01*
X62307497Y-79784600D01*
X62306100Y-79770417D01*
X62306100Y-79520396D01*
X62342654Y-79505255D01*
X62455256Y-79430016D01*
X62551016Y-79334256D01*
X62626255Y-79221654D01*
X62641396Y-79185100D01*
X62878593Y-79185100D01*
X62878593Y-79696000D01*
X62882213Y-79732756D01*
X62892935Y-79768100D01*
X62910345Y-79800673D01*
X62933776Y-79829224D01*
X62962327Y-79852655D01*
X62994900Y-79870065D01*
X63030244Y-79880787D01*
X63067000Y-79884407D01*
X64567000Y-79884407D01*
X64603756Y-79880787D01*
X64639100Y-79870065D01*
X64671673Y-79852655D01*
X64700224Y-79829224D01*
X64723655Y-79800673D01*
X64741065Y-79768100D01*
X64751787Y-79732756D01*
X64755407Y-79696000D01*
X64755407Y-79296000D01*
X66278593Y-79296000D01*
X66278593Y-80496000D01*
X66282213Y-80532756D01*
X66292935Y-80568100D01*
X66310345Y-80600673D01*
X66333776Y-80629224D01*
X66362327Y-80652655D01*
X66394900Y-80670065D01*
X66430244Y-80680787D01*
X66467000Y-80684407D01*
X67667000Y-80684407D01*
X67703756Y-80680787D01*
X67739100Y-80670065D01*
X67771673Y-80652655D01*
X67800224Y-80629224D01*
X67823655Y-80600673D01*
X67833101Y-80583000D01*
X68402714Y-80583000D01*
X68403500Y-80892375D01*
X68444125Y-80933000D01*
X69128500Y-80933000D01*
X69128500Y-80461125D01*
X69403500Y-80461125D01*
X69403500Y-80933000D01*
X70087875Y-80933000D01*
X70128500Y-80892375D01*
X70129209Y-80613000D01*
X70537714Y-80613000D01*
X70538500Y-80922375D01*
X70579125Y-80963000D01*
X71263500Y-80963000D01*
X71263500Y-80491125D01*
X71538500Y-80491125D01*
X71538500Y-80963000D01*
X72222875Y-80963000D01*
X72263500Y-80922375D01*
X72264286Y-80613000D01*
X72569714Y-80613000D01*
X72570500Y-80922375D01*
X72611125Y-80963000D01*
X73295500Y-80963000D01*
X73295500Y-80491125D01*
X73570500Y-80491125D01*
X73570500Y-80963000D01*
X74254875Y-80963000D01*
X74295500Y-80922375D01*
X74296286Y-80613000D01*
X74293149Y-80581144D01*
X74283857Y-80550513D01*
X74268767Y-80522283D01*
X74248461Y-80497539D01*
X74223717Y-80477233D01*
X74195487Y-80462143D01*
X74164856Y-80452851D01*
X74133000Y-80449714D01*
X73611125Y-80450500D01*
X73570500Y-80491125D01*
X73295500Y-80491125D01*
X73254875Y-80450500D01*
X72733000Y-80449714D01*
X72701144Y-80452851D01*
X72670513Y-80462143D01*
X72642283Y-80477233D01*
X72617539Y-80497539D01*
X72597233Y-80522283D01*
X72582143Y-80550513D01*
X72572851Y-80581144D01*
X72569714Y-80613000D01*
X72264286Y-80613000D01*
X72261149Y-80581144D01*
X72251857Y-80550513D01*
X72236767Y-80522283D01*
X72216461Y-80497539D01*
X72191717Y-80477233D01*
X72163487Y-80462143D01*
X72132856Y-80452851D01*
X72101000Y-80449714D01*
X71579125Y-80450500D01*
X71538500Y-80491125D01*
X71263500Y-80491125D01*
X71222875Y-80450500D01*
X70701000Y-80449714D01*
X70669144Y-80452851D01*
X70638513Y-80462143D01*
X70610283Y-80477233D01*
X70585539Y-80497539D01*
X70565233Y-80522283D01*
X70550143Y-80550513D01*
X70540851Y-80581144D01*
X70537714Y-80613000D01*
X70129209Y-80613000D01*
X70129286Y-80583000D01*
X70126149Y-80551144D01*
X70116857Y-80520513D01*
X70101767Y-80492283D01*
X70081461Y-80467539D01*
X70056717Y-80447233D01*
X70028487Y-80432143D01*
X69997856Y-80422851D01*
X69966000Y-80419714D01*
X69444125Y-80420500D01*
X69403500Y-80461125D01*
X69128500Y-80461125D01*
X69087875Y-80420500D01*
X68566000Y-80419714D01*
X68534144Y-80422851D01*
X68503513Y-80432143D01*
X68475283Y-80447233D01*
X68450539Y-80467539D01*
X68430233Y-80492283D01*
X68415143Y-80520513D01*
X68405851Y-80551144D01*
X68402714Y-80583000D01*
X67833101Y-80583000D01*
X67841065Y-80568100D01*
X67851787Y-80532756D01*
X67855407Y-80496000D01*
X67855407Y-79296000D01*
X67851787Y-79259244D01*
X67841065Y-79223900D01*
X67823655Y-79191327D01*
X67800224Y-79162776D01*
X67771673Y-79139345D01*
X67739100Y-79121935D01*
X67703756Y-79111213D01*
X67667000Y-79107593D01*
X66467000Y-79107593D01*
X66430244Y-79111213D01*
X66394900Y-79121935D01*
X66362327Y-79139345D01*
X66333776Y-79162776D01*
X66310345Y-79191327D01*
X66292935Y-79223900D01*
X66282213Y-79259244D01*
X66278593Y-79296000D01*
X64755407Y-79296000D01*
X64755407Y-78496000D01*
X66303714Y-78496000D01*
X66306851Y-78527856D01*
X66316143Y-78558487D01*
X66331233Y-78586717D01*
X66351539Y-78611461D01*
X66376283Y-78631767D01*
X66404513Y-78646857D01*
X66435144Y-78656149D01*
X66467000Y-78659286D01*
X66888875Y-78658500D01*
X66929500Y-78617875D01*
X66929500Y-78033500D01*
X67204500Y-78033500D01*
X67204500Y-78617875D01*
X67245125Y-78658500D01*
X67667000Y-78659286D01*
X67698856Y-78656149D01*
X67729487Y-78646857D01*
X67757717Y-78631767D01*
X67782461Y-78611461D01*
X67802767Y-78586717D01*
X67817857Y-78558487D01*
X67827149Y-78527856D01*
X67830286Y-78496000D01*
X67829500Y-78074125D01*
X67788875Y-78033500D01*
X67204500Y-78033500D01*
X66929500Y-78033500D01*
X66345125Y-78033500D01*
X66304500Y-78074125D01*
X66303714Y-78496000D01*
X64755407Y-78496000D01*
X64755407Y-78096000D01*
X64751787Y-78059244D01*
X64741065Y-78023900D01*
X64723655Y-77991327D01*
X64700224Y-77962776D01*
X64671673Y-77939345D01*
X64639100Y-77921935D01*
X64603756Y-77911213D01*
X64567000Y-77907593D01*
X63067000Y-77907593D01*
X63030244Y-77911213D01*
X62994900Y-77921935D01*
X62962327Y-77939345D01*
X62933776Y-77962776D01*
X62910345Y-77991327D01*
X62892935Y-78023900D01*
X62882213Y-78059244D01*
X62878593Y-78096000D01*
X62878593Y-78606900D01*
X62641396Y-78606900D01*
X62626255Y-78570346D01*
X62551016Y-78457744D01*
X62455256Y-78361984D01*
X62342654Y-78286745D01*
X62217536Y-78234920D01*
X62084713Y-78208500D01*
X61949287Y-78208500D01*
X61816464Y-78234920D01*
X61691346Y-78286745D01*
X61578744Y-78361984D01*
X61482984Y-78457744D01*
X61407745Y-78570346D01*
X61355920Y-78695464D01*
X61329500Y-78828287D01*
X61077018Y-78828287D01*
X61092103Y-78778560D01*
X61100407Y-78694250D01*
X61100407Y-78147465D01*
X61114341Y-78113825D01*
X61932166Y-77296000D01*
X66303714Y-77296000D01*
X66304500Y-77717875D01*
X66345125Y-77758500D01*
X66929500Y-77758500D01*
X66929500Y-77174125D01*
X67204500Y-77174125D01*
X67204500Y-77758500D01*
X67788875Y-77758500D01*
X67829500Y-77717875D01*
X67830286Y-77296000D01*
X67827149Y-77264144D01*
X67817857Y-77233513D01*
X67802767Y-77205283D01*
X67782461Y-77180539D01*
X67757717Y-77160233D01*
X67729487Y-77145143D01*
X67698856Y-77135851D01*
X67667000Y-77132714D01*
X67245125Y-77133500D01*
X67204500Y-77174125D01*
X66929500Y-77174125D01*
X66888875Y-77133500D01*
X66467000Y-77132714D01*
X66435144Y-77135851D01*
X66404513Y-77145143D01*
X66376283Y-77160233D01*
X66351539Y-77180539D01*
X66331233Y-77205283D01*
X66316143Y-77233513D01*
X66306851Y-77264144D01*
X66303714Y-77296000D01*
X61932166Y-77296000D01*
X62484825Y-76743341D01*
X62629295Y-76683500D01*
X67842000Y-76683500D01*
X67878579Y-76679897D01*
X67913753Y-76669227D01*
X67946169Y-76651901D01*
X67974583Y-76628583D01*
X68099583Y-76503583D01*
X68122901Y-76475169D01*
X68140227Y-76442753D01*
X68150897Y-76407579D01*
X68154500Y-76371000D01*
X68154500Y-75533261D01*
X71314193Y-75533261D01*
X71467901Y-75689685D01*
X71720447Y-75806462D01*
X71990923Y-75871725D01*
X72268934Y-75882967D01*
X72543796Y-75839756D01*
X72804946Y-75743752D01*
X72906099Y-75689685D01*
X73059807Y-75533261D01*
X72187000Y-74660454D01*
X71314193Y-75533261D01*
X68154500Y-75533261D01*
X68154500Y-74547934D01*
X70770033Y-74547934D01*
X70813244Y-74822796D01*
X70909248Y-75083946D01*
X70963315Y-75185099D01*
X71119739Y-75338807D01*
X71992546Y-74466000D01*
X72381454Y-74466000D01*
X73254261Y-75338807D01*
X73410685Y-75185099D01*
X73527462Y-74932553D01*
X73592725Y-74662077D01*
X73603967Y-74384066D01*
X73560756Y-74109204D01*
X73464752Y-73848054D01*
X73410685Y-73746901D01*
X73254261Y-73593193D01*
X72381454Y-74466000D01*
X71992546Y-74466000D01*
X71119739Y-73593193D01*
X70963315Y-73746901D01*
X70846538Y-73999447D01*
X70781275Y-74269923D01*
X70770033Y-74547934D01*
X68154500Y-74547934D01*
X68154500Y-73398739D01*
X71314193Y-73398739D01*
X72187000Y-74271546D01*
X73059807Y-73398739D01*
X72906099Y-73242315D01*
X72653553Y-73125538D01*
X72383077Y-73060275D01*
X72105066Y-73049033D01*
X71830204Y-73092244D01*
X71569054Y-73188248D01*
X71467901Y-73242315D01*
X71314193Y-73398739D01*
X68154500Y-73398739D01*
X68154500Y-72921000D01*
X68150897Y-72884421D01*
X68140227Y-72849247D01*
X68122901Y-72816831D01*
X68099583Y-72788417D01*
X67974583Y-72663417D01*
X67946169Y-72640099D01*
X67913753Y-72622773D01*
X67878579Y-72612103D01*
X67842000Y-72608500D01*
X57892000Y-72608500D01*
X57855421Y-72612103D01*
X57820247Y-72622773D01*
X57787831Y-72640099D01*
X57759417Y-72663417D01*
X57634417Y-72788417D01*
X57611099Y-72816831D01*
X57593773Y-72849247D01*
X57583103Y-72884421D01*
X57579500Y-72921000D01*
X57579500Y-75671000D01*
X57583103Y-75707579D01*
X57593773Y-75742753D01*
X57682161Y-75956141D01*
X57699487Y-75988557D01*
X57722805Y-76016971D01*
X59090142Y-77384308D01*
X59068856Y-77377851D01*
X59037000Y-77374714D01*
X58727625Y-77375500D01*
X58687000Y-77416125D01*
X58687000Y-78100500D01*
X59158875Y-78100500D01*
X59199500Y-78059875D01*
X59200286Y-77538000D01*
X59197149Y-77506144D01*
X59190692Y-77484858D01*
X59719659Y-78013825D01*
X59748593Y-78083678D01*
X59748593Y-78694250D01*
X59756897Y-78778560D01*
X59779500Y-78853072D01*
X59779500Y-79746888D01*
X59665125Y-79747500D01*
X59624500Y-79788125D01*
X59624500Y-80302500D01*
X59644500Y-80302500D01*
X59644500Y-80577500D01*
X59624500Y-80577500D01*
X59624500Y-81091875D01*
X59665125Y-81132500D01*
X59779500Y-81133112D01*
X59779500Y-81921593D01*
X59162000Y-81921593D01*
X59125244Y-81925213D01*
X59089900Y-81935935D01*
X59057327Y-81953345D01*
X59028776Y-81976776D01*
X59012000Y-81997218D01*
X58995224Y-81976776D01*
X58966673Y-81953345D01*
X58934100Y-81935935D01*
X58898756Y-81925213D01*
X58862000Y-81921593D01*
X58212000Y-81921593D01*
X58175244Y-81925213D01*
X58139900Y-81935935D01*
X58107327Y-81953345D01*
X58078776Y-81976776D01*
X58055345Y-82005327D01*
X58037935Y-82037900D01*
X58027213Y-82073244D01*
X58023593Y-82110000D01*
X58023593Y-82646000D01*
X57751098Y-82646000D01*
X57747103Y-82605440D01*
X57722511Y-82524371D01*
X57682575Y-82449656D01*
X57628831Y-82384169D01*
X57563344Y-82330425D01*
X57488629Y-82290489D01*
X57407560Y-82265897D01*
X57323250Y-82257593D01*
X56410750Y-82257593D01*
X56326440Y-82265897D01*
X56245371Y-82290489D01*
X56170656Y-82330425D01*
X56105169Y-82384169D01*
X56051425Y-82449656D01*
X56011489Y-82524371D01*
X55986897Y-82605440D01*
X55978593Y-82689750D01*
X55978593Y-83068500D01*
X55403972Y-83068500D01*
X55370163Y-82957045D01*
X55273824Y-82776807D01*
X55144173Y-82618827D01*
X54986193Y-82489176D01*
X54805955Y-82392837D01*
X54610386Y-82333512D01*
X54457968Y-82318500D01*
X54356032Y-82318500D01*
X54203614Y-82333512D01*
X54008045Y-82392837D01*
X53827807Y-82489176D01*
X53669827Y-82618827D01*
X53540176Y-82776807D01*
X53443837Y-82957045D01*
X53384512Y-83152614D01*
X53364480Y-83356000D01*
X53384512Y-83559386D01*
X53443837Y-83754955D01*
X53540176Y-83935193D01*
X53669827Y-84093173D01*
X53827807Y-84222824D01*
X54008045Y-84319163D01*
X54203614Y-84378488D01*
X54356032Y-84393500D01*
X54457968Y-84393500D01*
X54610386Y-84378488D01*
X54805955Y-84319163D01*
X54986193Y-84222824D01*
X55144173Y-84093173D01*
X55273824Y-83935193D01*
X55370163Y-83754955D01*
X55403972Y-83643500D01*
X56430380Y-83643500D01*
X56444500Y-83644891D01*
X56458620Y-83643500D01*
X56458623Y-83643500D01*
X56500860Y-83639340D01*
X56555054Y-83622900D01*
X56580298Y-83609407D01*
X57323250Y-83609407D01*
X57407560Y-83601103D01*
X57488629Y-83576511D01*
X57563344Y-83536575D01*
X57628831Y-83482831D01*
X57682575Y-83417344D01*
X57722511Y-83342629D01*
X57747103Y-83261560D01*
X57751098Y-83221000D01*
X58031534Y-83221000D01*
X58037935Y-83242100D01*
X58055345Y-83274673D01*
X58078776Y-83303224D01*
X58107327Y-83326655D01*
X58139900Y-83344065D01*
X58175244Y-83354787D01*
X58212000Y-83358407D01*
X58862000Y-83358407D01*
X58898756Y-83354787D01*
X58934100Y-83344065D01*
X58966673Y-83326655D01*
X58995224Y-83303224D01*
X59012000Y-83282782D01*
X59028776Y-83303224D01*
X59057327Y-83326655D01*
X59089900Y-83344065D01*
X59125244Y-83354787D01*
X59162000Y-83358407D01*
X59199501Y-83358407D01*
X59199501Y-83626412D01*
X57286322Y-85539593D01*
X56560750Y-85539593D01*
X56476440Y-85547897D01*
X56395371Y-85572489D01*
X56320656Y-85612425D01*
X56255169Y-85666169D01*
X56201425Y-85731656D01*
X56161489Y-85806371D01*
X56136897Y-85887440D01*
X56128593Y-85971750D01*
X56128593Y-86254758D01*
X55584213Y-86799139D01*
X55573188Y-86808187D01*
X55564140Y-86819212D01*
X55564139Y-86819213D01*
X55537061Y-86852208D01*
X55510215Y-86902432D01*
X55493685Y-86956927D01*
X55488103Y-87013600D01*
X55489501Y-87027793D01*
X55489500Y-88599616D01*
X55488103Y-88613800D01*
X55489500Y-88627983D01*
X55489500Y-88627993D01*
X55493684Y-88670472D01*
X55510215Y-88724968D01*
X55537060Y-88775191D01*
X55573187Y-88819213D01*
X55584217Y-88828265D01*
X56021338Y-89265387D01*
X56030387Y-89276413D01*
X56074408Y-89312540D01*
X56124631Y-89339385D01*
X56179127Y-89355916D01*
X56221606Y-89360100D01*
X56221616Y-89360100D01*
X56235799Y-89361497D01*
X56249982Y-89360100D01*
X62415252Y-89360100D01*
X62955539Y-89900388D01*
X62964587Y-89911413D01*
X62975612Y-89920461D01*
X63008608Y-89947540D01*
X63058831Y-89974385D01*
X63113327Y-89990916D01*
X63170000Y-89996498D01*
X63184194Y-89995100D01*
X65525512Y-89995100D01*
X65394193Y-90128739D01*
X66267000Y-91001546D01*
X67139807Y-90128739D01*
X66986099Y-89972315D01*
X66733553Y-89855538D01*
X66463077Y-89790275D01*
X66185066Y-89779033D01*
X66019840Y-89805008D01*
X66439960Y-89384889D01*
X66450984Y-89375842D01*
X66467338Y-89355915D01*
X66487111Y-89331822D01*
X66513956Y-89281598D01*
X66530487Y-89227103D01*
X66536069Y-89170429D01*
X66534671Y-89156235D01*
X66534671Y-88966407D01*
X66670571Y-88966407D01*
X66707327Y-88962787D01*
X66742671Y-88952065D01*
X66775244Y-88934655D01*
X66796635Y-88917100D01*
X66900817Y-88917100D01*
X66915000Y-88918497D01*
X66929183Y-88917100D01*
X66929194Y-88917100D01*
X66971673Y-88912916D01*
X67026169Y-88896385D01*
X67076392Y-88869540D01*
X67120413Y-88833413D01*
X67129465Y-88822383D01*
X67555393Y-88396457D01*
X67566413Y-88387413D01*
X67575456Y-88376394D01*
X67575461Y-88376389D01*
X67602539Y-88343393D01*
X67602705Y-88343084D01*
X67628593Y-88294651D01*
X67628593Y-88334250D01*
X67636897Y-88418560D01*
X67661489Y-88499629D01*
X67701425Y-88574344D01*
X67755169Y-88639831D01*
X67820656Y-88693575D01*
X67895371Y-88733511D01*
X67976440Y-88758103D01*
X68060750Y-88766407D01*
X68229501Y-88766407D01*
X68229501Y-89115870D01*
X68228109Y-89130000D01*
X68233661Y-89186359D01*
X68250100Y-89240553D01*
X68276796Y-89290499D01*
X68294775Y-89312406D01*
X68312724Y-89334277D01*
X68323698Y-89343283D01*
X69931001Y-90950588D01*
X69931001Y-90955550D01*
X69928593Y-90980000D01*
X69928593Y-91480000D01*
X69931001Y-91504450D01*
X69931001Y-91529009D01*
X69934621Y-91565765D01*
X69953743Y-91661898D01*
X69964464Y-91697241D01*
X70001973Y-91787797D01*
X70019384Y-91820371D01*
X70073840Y-91901870D01*
X70097271Y-91930421D01*
X70166579Y-91999729D01*
X70195130Y-92023160D01*
X70276629Y-92077616D01*
X70309203Y-92095027D01*
X70399759Y-92132536D01*
X70435102Y-92143257D01*
X70531235Y-92162379D01*
X70567991Y-92165999D01*
X70592550Y-92165999D01*
X70617000Y-92168407D01*
X71117000Y-92168407D01*
X71153756Y-92164787D01*
X71189100Y-92154065D01*
X71221673Y-92136655D01*
X71250224Y-92113224D01*
X71267000Y-92092782D01*
X71283776Y-92113224D01*
X71312327Y-92136655D01*
X71344900Y-92154065D01*
X71380244Y-92164787D01*
X71417000Y-92168407D01*
X71917000Y-92168407D01*
X71941450Y-92165999D01*
X71966009Y-92165999D01*
X72002765Y-92162379D01*
X72098898Y-92143257D01*
X72134241Y-92132536D01*
X72224797Y-92095027D01*
X72257371Y-92077616D01*
X72338870Y-92023160D01*
X72367421Y-91999729D01*
X72436729Y-91930421D01*
X72460160Y-91901870D01*
X72514616Y-91820371D01*
X72532027Y-91787797D01*
X72569536Y-91697241D01*
X72580257Y-91661898D01*
X72599379Y-91565765D01*
X72602999Y-91529009D01*
X72602999Y-91504450D01*
X72605407Y-91480000D01*
X72605407Y-90980000D01*
X72602999Y-90955550D01*
X72602999Y-90950587D01*
X72618214Y-90935372D01*
X72902500Y-90935372D01*
X72902500Y-91016628D01*
X72918352Y-91096322D01*
X72949447Y-91171392D01*
X72994590Y-91238953D01*
X73052047Y-91296410D01*
X73119608Y-91341553D01*
X73194678Y-91372648D01*
X73274372Y-91388500D01*
X73355628Y-91388500D01*
X73435322Y-91372648D01*
X73510392Y-91341553D01*
X73577953Y-91296410D01*
X73609263Y-91265100D01*
X74839817Y-91265100D01*
X74854000Y-91266497D01*
X74868183Y-91265100D01*
X74868194Y-91265100D01*
X74910673Y-91260916D01*
X74965169Y-91244385D01*
X75015392Y-91217540D01*
X75059413Y-91181413D01*
X75068465Y-91170383D01*
X76092848Y-90146000D01*
X76228593Y-90146000D01*
X76228593Y-91846000D01*
X76232213Y-91882756D01*
X76242935Y-91918100D01*
X76260345Y-91950673D01*
X76283776Y-91979224D01*
X76312327Y-92002655D01*
X76344900Y-92020065D01*
X76380244Y-92030787D01*
X76417000Y-92034407D01*
X78117000Y-92034407D01*
X78153756Y-92030787D01*
X78189100Y-92020065D01*
X78221673Y-92002655D01*
X78250224Y-91979224D01*
X78273655Y-91950673D01*
X78291065Y-91918100D01*
X78301787Y-91882756D01*
X78305407Y-91846000D01*
X78305407Y-90146000D01*
X78301787Y-90109244D01*
X78291065Y-90073900D01*
X78273655Y-90041327D01*
X78250224Y-90012776D01*
X78221673Y-89989345D01*
X78189100Y-89971935D01*
X78153756Y-89961213D01*
X78117000Y-89957593D01*
X76417000Y-89957593D01*
X76380244Y-89961213D01*
X76344900Y-89971935D01*
X76312327Y-89989345D01*
X76283776Y-90012776D01*
X76260345Y-90041327D01*
X76242935Y-90073900D01*
X76232213Y-90109244D01*
X76228593Y-90146000D01*
X76092848Y-90146000D01*
X76165988Y-90072861D01*
X76177013Y-90063813D01*
X76213140Y-90019792D01*
X76239985Y-89969569D01*
X76256516Y-89915073D01*
X76260700Y-89872594D01*
X76260700Y-89872584D01*
X76262097Y-89858401D01*
X76260700Y-89844217D01*
X76260700Y-88712751D01*
X76303837Y-88854955D01*
X76400176Y-89035193D01*
X76529827Y-89193173D01*
X76687807Y-89322824D01*
X76868045Y-89419163D01*
X77063614Y-89478488D01*
X77216032Y-89493500D01*
X77317968Y-89493500D01*
X77470386Y-89478488D01*
X77665955Y-89419163D01*
X77846193Y-89322824D01*
X78004173Y-89193173D01*
X78133824Y-89035193D01*
X78230163Y-88854955D01*
X78289488Y-88659386D01*
X78309520Y-88456000D01*
X78289488Y-88252614D01*
X78230163Y-88057045D01*
X78133824Y-87876807D01*
X78004173Y-87718827D01*
X77846193Y-87589176D01*
X77665955Y-87492837D01*
X77470386Y-87433512D01*
X77317968Y-87418500D01*
X77216032Y-87418500D01*
X77063614Y-87433512D01*
X76868045Y-87492837D01*
X76687807Y-87589176D01*
X76529827Y-87718827D01*
X76400176Y-87876807D01*
X76303837Y-88057045D01*
X76260700Y-88199249D01*
X76260700Y-87666748D01*
X77006336Y-86921113D01*
X77063614Y-86938488D01*
X77216032Y-86953500D01*
X77317968Y-86953500D01*
X77470386Y-86938488D01*
X77665955Y-86879163D01*
X77846193Y-86782824D01*
X78004173Y-86653173D01*
X78133824Y-86495193D01*
X78230163Y-86314955D01*
X78289488Y-86119386D01*
X78309520Y-85916000D01*
X78289488Y-85712614D01*
X78230163Y-85517045D01*
X78133824Y-85336807D01*
X78004173Y-85178827D01*
X77846193Y-85049176D01*
X77665955Y-84952837D01*
X77470386Y-84893512D01*
X77317968Y-84878500D01*
X77216032Y-84878500D01*
X77063614Y-84893512D01*
X76868045Y-84952837D01*
X76687807Y-85049176D01*
X76529827Y-85178827D01*
X76400176Y-85336807D01*
X76303837Y-85517045D01*
X76244512Y-85712614D01*
X76224480Y-85916000D01*
X76244512Y-86119386D01*
X76303837Y-86314955D01*
X76400176Y-86495193D01*
X76496810Y-86612941D01*
X75777217Y-87332535D01*
X75766187Y-87341587D01*
X75730060Y-87385609D01*
X75703215Y-87435832D01*
X75686684Y-87490328D01*
X75682500Y-87532807D01*
X75682500Y-87532817D01*
X75681103Y-87547000D01*
X75682500Y-87561184D01*
X75682501Y-89738650D01*
X74734252Y-90686900D01*
X73609263Y-90686900D01*
X73577953Y-90655590D01*
X73510392Y-90610447D01*
X73435322Y-90579352D01*
X73355628Y-90563500D01*
X73274372Y-90563500D01*
X73194678Y-90579352D01*
X73119608Y-90610447D01*
X73052047Y-90655590D01*
X72994590Y-90713047D01*
X72949447Y-90780608D01*
X72918352Y-90855678D01*
X72902500Y-90935372D01*
X72618214Y-90935372D01*
X72767445Y-90786141D01*
X72778419Y-90777135D01*
X72799591Y-90751336D01*
X72814346Y-90733358D01*
X72841042Y-90683412D01*
X72849482Y-90655590D01*
X72857482Y-90629218D01*
X72861642Y-90586981D01*
X72861642Y-90586979D01*
X72863033Y-90572859D01*
X72861642Y-90558739D01*
X72861642Y-88766407D01*
X73030392Y-88766407D01*
X73114702Y-88758103D01*
X73195771Y-88733511D01*
X73270486Y-88693575D01*
X73335973Y-88639831D01*
X73386716Y-88578000D01*
X73903714Y-88578000D01*
X73906851Y-88609856D01*
X73916143Y-88640487D01*
X73931233Y-88668717D01*
X73951539Y-88693461D01*
X73976283Y-88713767D01*
X74004513Y-88728857D01*
X74035144Y-88738149D01*
X74067000Y-88741286D01*
X74588875Y-88740500D01*
X74629500Y-88699875D01*
X74629500Y-88228000D01*
X74904500Y-88228000D01*
X74904500Y-88699875D01*
X74945125Y-88740500D01*
X75467000Y-88741286D01*
X75498856Y-88738149D01*
X75529487Y-88728857D01*
X75557717Y-88713767D01*
X75582461Y-88693461D01*
X75602767Y-88668717D01*
X75617857Y-88640487D01*
X75627149Y-88609856D01*
X75630286Y-88578000D01*
X75629500Y-88268625D01*
X75588875Y-88228000D01*
X74904500Y-88228000D01*
X74629500Y-88228000D01*
X73945125Y-88228000D01*
X73904500Y-88268625D01*
X73903714Y-88578000D01*
X73386716Y-88578000D01*
X73389717Y-88574344D01*
X73429653Y-88499629D01*
X73454245Y-88418560D01*
X73462549Y-88334250D01*
X73462549Y-87926536D01*
X73786085Y-87603000D01*
X73903714Y-87603000D01*
X73904500Y-87912375D01*
X73945125Y-87953000D01*
X74629500Y-87953000D01*
X74629500Y-87481125D01*
X74904500Y-87481125D01*
X74904500Y-87953000D01*
X75588875Y-87953000D01*
X75629500Y-87912375D01*
X75630286Y-87603000D01*
X75627149Y-87571144D01*
X75617857Y-87540513D01*
X75602767Y-87512283D01*
X75582461Y-87487539D01*
X75557717Y-87467233D01*
X75529487Y-87452143D01*
X75498856Y-87442851D01*
X75467000Y-87439714D01*
X74945125Y-87440500D01*
X74904500Y-87481125D01*
X74629500Y-87481125D01*
X74588875Y-87440500D01*
X74067000Y-87439714D01*
X74035144Y-87442851D01*
X74004513Y-87452143D01*
X73976283Y-87467233D01*
X73951539Y-87487539D01*
X73931233Y-87512283D01*
X73916143Y-87540513D01*
X73906851Y-87571144D01*
X73903714Y-87603000D01*
X73786085Y-87603000D01*
X74497679Y-86891407D01*
X75223250Y-86891407D01*
X75307560Y-86883103D01*
X75388629Y-86858511D01*
X75463344Y-86818575D01*
X75528831Y-86764831D01*
X75582575Y-86699344D01*
X75622511Y-86624629D01*
X75647103Y-86543560D01*
X75655407Y-86459250D01*
X75655407Y-85971750D01*
X75647103Y-85887440D01*
X75622511Y-85806371D01*
X75582575Y-85731656D01*
X75528831Y-85666169D01*
X75463344Y-85612425D01*
X75388629Y-85572489D01*
X75307560Y-85547897D01*
X75223250Y-85539593D01*
X74310750Y-85539593D01*
X74226440Y-85547897D01*
X74145371Y-85572489D01*
X74070656Y-85612425D01*
X74005169Y-85666169D01*
X73951425Y-85731656D01*
X73911489Y-85806371D01*
X73886897Y-85887440D01*
X73878593Y-85971750D01*
X73878593Y-86459250D01*
X73886897Y-86543560D01*
X73911489Y-86624629D01*
X73925351Y-86650563D01*
X73144100Y-87431815D01*
X73114702Y-87422897D01*
X73030392Y-87414593D01*
X72369134Y-87414593D01*
X72767445Y-87016283D01*
X72778419Y-87007277D01*
X72804589Y-86975388D01*
X72814346Y-86963500D01*
X72841042Y-86913554D01*
X72847760Y-86891407D01*
X73030392Y-86891407D01*
X73114702Y-86883103D01*
X73195771Y-86858511D01*
X73270486Y-86818575D01*
X73335973Y-86764831D01*
X73389717Y-86699344D01*
X73429653Y-86624629D01*
X73454245Y-86543560D01*
X73462549Y-86459250D01*
X73462549Y-85971750D01*
X73454245Y-85887440D01*
X73429653Y-85806371D01*
X73389717Y-85731656D01*
X73335973Y-85666169D01*
X73270486Y-85612425D01*
X73195771Y-85572489D01*
X73114702Y-85547897D01*
X73030392Y-85539593D01*
X72117892Y-85539593D01*
X72033582Y-85547897D01*
X71952513Y-85572489D01*
X71877798Y-85612425D01*
X71812311Y-85666169D01*
X71758567Y-85731656D01*
X71718631Y-85806371D01*
X71694039Y-85887440D01*
X71685735Y-85971750D01*
X71685735Y-86459250D01*
X71694039Y-86543560D01*
X71718631Y-86624629D01*
X71758567Y-86699344D01*
X71812311Y-86764831D01*
X71877798Y-86818575D01*
X71952513Y-86858511D01*
X72033582Y-86883103D01*
X72082623Y-86887933D01*
X71855067Y-87115490D01*
X70741358Y-87115490D01*
X70861388Y-86995461D01*
X70872413Y-86986413D01*
X70908540Y-86942392D01*
X70935385Y-86892169D01*
X70935616Y-86891407D01*
X71123250Y-86891407D01*
X71207560Y-86883103D01*
X71288629Y-86858511D01*
X71363344Y-86818575D01*
X71428831Y-86764831D01*
X71482575Y-86699344D01*
X71522511Y-86624629D01*
X71547103Y-86543560D01*
X71555407Y-86459250D01*
X71555407Y-85971750D01*
X71547103Y-85887440D01*
X71522511Y-85806371D01*
X71482575Y-85731656D01*
X71428831Y-85666169D01*
X71363344Y-85612425D01*
X71288629Y-85572489D01*
X71207560Y-85547897D01*
X71123250Y-85539593D01*
X70210750Y-85539593D01*
X70126440Y-85547897D01*
X70045371Y-85572489D01*
X69970656Y-85612425D01*
X69905169Y-85666169D01*
X69851425Y-85731656D01*
X69811489Y-85806371D01*
X69786897Y-85887440D01*
X69778593Y-85971750D01*
X69778593Y-86459250D01*
X69786897Y-86543560D01*
X69811489Y-86624629D01*
X69851425Y-86699344D01*
X69892915Y-86749900D01*
X69577418Y-86749900D01*
X69628029Y-86665052D01*
X69640227Y-86640753D01*
X69650897Y-86605579D01*
X69654500Y-86569000D01*
X69654500Y-84660295D01*
X69715756Y-84512410D01*
X70283410Y-83944756D01*
X70431295Y-83883500D01*
X73867000Y-83883500D01*
X73903580Y-83879897D01*
X73938753Y-83869227D01*
X74109464Y-83798516D01*
X74141880Y-83781190D01*
X74170294Y-83757872D01*
X74552166Y-83376000D01*
X76224480Y-83376000D01*
X76244512Y-83579386D01*
X76303837Y-83774955D01*
X76400176Y-83955193D01*
X76529827Y-84113173D01*
X76687807Y-84242824D01*
X76868045Y-84339163D01*
X77063614Y-84398488D01*
X77216032Y-84413500D01*
X77317968Y-84413500D01*
X77470386Y-84398488D01*
X77665955Y-84339163D01*
X77846193Y-84242824D01*
X78004173Y-84113173D01*
X78133824Y-83955193D01*
X78230163Y-83774955D01*
X78289488Y-83579386D01*
X78309520Y-83376000D01*
X78289488Y-83172614D01*
X78230163Y-82977045D01*
X78133824Y-82796807D01*
X78004173Y-82638827D01*
X77846193Y-82509176D01*
X77665955Y-82412837D01*
X77470386Y-82353512D01*
X77317968Y-82338500D01*
X77216032Y-82338500D01*
X77063614Y-82353512D01*
X76868045Y-82412837D01*
X76687807Y-82509176D01*
X76529827Y-82638827D01*
X76400176Y-82796807D01*
X76303837Y-82977045D01*
X76244512Y-83172614D01*
X76224480Y-83376000D01*
X74552166Y-83376000D01*
X75809780Y-82118386D01*
X75833097Y-82089973D01*
X75850424Y-82057556D01*
X75940227Y-81840753D01*
X75950897Y-81805579D01*
X75954500Y-81769000D01*
X75954500Y-80836000D01*
X76224480Y-80836000D01*
X76244512Y-81039386D01*
X76303837Y-81234955D01*
X76400176Y-81415193D01*
X76529827Y-81573173D01*
X76687807Y-81702824D01*
X76868045Y-81799163D01*
X77063614Y-81858488D01*
X77216032Y-81873500D01*
X77317968Y-81873500D01*
X77470386Y-81858488D01*
X77665955Y-81799163D01*
X77846193Y-81702824D01*
X78004173Y-81573173D01*
X78133824Y-81415193D01*
X78230163Y-81234955D01*
X78289488Y-81039386D01*
X78309520Y-80836000D01*
X78289488Y-80632614D01*
X78230163Y-80437045D01*
X78133824Y-80256807D01*
X78004173Y-80098827D01*
X77846193Y-79969176D01*
X77665955Y-79872837D01*
X77470386Y-79813512D01*
X77317968Y-79798500D01*
X77216032Y-79798500D01*
X77063614Y-79813512D01*
X76868045Y-79872837D01*
X76687807Y-79969176D01*
X76529827Y-80098827D01*
X76400176Y-80256807D01*
X76303837Y-80437045D01*
X76244512Y-80632614D01*
X76224480Y-80836000D01*
X75954500Y-80836000D01*
X75954500Y-78296000D01*
X76224480Y-78296000D01*
X76244512Y-78499386D01*
X76303837Y-78694955D01*
X76400176Y-78875193D01*
X76529827Y-79033173D01*
X76687807Y-79162824D01*
X76868045Y-79259163D01*
X77063614Y-79318488D01*
X77216032Y-79333500D01*
X77317968Y-79333500D01*
X77470386Y-79318488D01*
X77665955Y-79259163D01*
X77846193Y-79162824D01*
X78004173Y-79033173D01*
X78133824Y-78875193D01*
X78230163Y-78694955D01*
X78289488Y-78499386D01*
X78309520Y-78296000D01*
X78289488Y-78092614D01*
X78230163Y-77897045D01*
X78133824Y-77716807D01*
X78004173Y-77558827D01*
X77846193Y-77429176D01*
X77665955Y-77332837D01*
X77470386Y-77273512D01*
X77317968Y-77258500D01*
X77216032Y-77258500D01*
X77063614Y-77273512D01*
X76868045Y-77332837D01*
X76687807Y-77429176D01*
X76529827Y-77558827D01*
X76400176Y-77716807D01*
X76303837Y-77897045D01*
X76244512Y-78092614D01*
X76224480Y-78296000D01*
X75954500Y-78296000D01*
X75954500Y-75756000D01*
X76224480Y-75756000D01*
X76244512Y-75959386D01*
X76303837Y-76154955D01*
X76400176Y-76335193D01*
X76529827Y-76493173D01*
X76687807Y-76622824D01*
X76868045Y-76719163D01*
X77063614Y-76778488D01*
X77216032Y-76793500D01*
X77317968Y-76793500D01*
X77470386Y-76778488D01*
X77665955Y-76719163D01*
X77846193Y-76622824D01*
X78004173Y-76493173D01*
X78133824Y-76335193D01*
X78230163Y-76154955D01*
X78289488Y-75959386D01*
X78309520Y-75756000D01*
X78289488Y-75552614D01*
X78230163Y-75357045D01*
X78133824Y-75176807D01*
X78004173Y-75018827D01*
X77846193Y-74889176D01*
X77665955Y-74792837D01*
X77470386Y-74733512D01*
X77317968Y-74718500D01*
X77216032Y-74718500D01*
X77063614Y-74733512D01*
X76868045Y-74792837D01*
X76687807Y-74889176D01*
X76529827Y-75018827D01*
X76400176Y-75176807D01*
X76303837Y-75357045D01*
X76244512Y-75552614D01*
X76224480Y-75756000D01*
X75954500Y-75756000D01*
X75954500Y-75260295D01*
X76015756Y-75112410D01*
X76583410Y-74544756D01*
X76731295Y-74483500D01*
X78240000Y-74483500D01*
X78276579Y-74479897D01*
X78311753Y-74469227D01*
X78344169Y-74451901D01*
X78372583Y-74428583D01*
X78451500Y-74349666D01*
X78451501Y-92586500D01*
X66517289Y-92586500D01*
X66623796Y-92569756D01*
X66884946Y-92473752D01*
X66986099Y-92419685D01*
X67139807Y-92263261D01*
X66267000Y-91390454D01*
X65394193Y-92263261D01*
X65547901Y-92419685D01*
X65800447Y-92536462D01*
X66007825Y-92586500D01*
X53221500Y-92586500D01*
X53221500Y-90976000D01*
X53364480Y-90976000D01*
X53384512Y-91179386D01*
X53443837Y-91374955D01*
X53540176Y-91555193D01*
X53669827Y-91713173D01*
X53827807Y-91842824D01*
X54008045Y-91939163D01*
X54203614Y-91998488D01*
X54356032Y-92013500D01*
X54457968Y-92013500D01*
X54610386Y-91998488D01*
X54805955Y-91939163D01*
X54986193Y-91842824D01*
X55144173Y-91713173D01*
X55273824Y-91555193D01*
X55370163Y-91374955D01*
X55399593Y-91277934D01*
X64850033Y-91277934D01*
X64893244Y-91552796D01*
X64989248Y-91813946D01*
X65043315Y-91915099D01*
X65199739Y-92068807D01*
X66072546Y-91196000D01*
X66461454Y-91196000D01*
X67334261Y-92068807D01*
X67490685Y-91915099D01*
X67607462Y-91662553D01*
X67672725Y-91392077D01*
X67683967Y-91114066D01*
X67640756Y-90839204D01*
X67544752Y-90578054D01*
X67490685Y-90476901D01*
X67334261Y-90323193D01*
X66461454Y-91196000D01*
X66072546Y-91196000D01*
X65199739Y-90323193D01*
X65043315Y-90476901D01*
X64926538Y-90729447D01*
X64861275Y-90999923D01*
X64850033Y-91277934D01*
X55399593Y-91277934D01*
X55429488Y-91179386D01*
X55449520Y-90976000D01*
X55429488Y-90772614D01*
X55370163Y-90577045D01*
X55273824Y-90396807D01*
X55144173Y-90238827D01*
X54986193Y-90109176D01*
X54805955Y-90012837D01*
X54610386Y-89953512D01*
X54457968Y-89938500D01*
X54356032Y-89938500D01*
X54203614Y-89953512D01*
X54008045Y-90012837D01*
X53827807Y-90109176D01*
X53669827Y-90238827D01*
X53540176Y-90396807D01*
X53443837Y-90577045D01*
X53384512Y-90772614D01*
X53364480Y-90976000D01*
X53221500Y-90976000D01*
X53221500Y-88436000D01*
X53364480Y-88436000D01*
X53384512Y-88639386D01*
X53443837Y-88834955D01*
X53540176Y-89015193D01*
X53669827Y-89173173D01*
X53827807Y-89302824D01*
X54008045Y-89399163D01*
X54203614Y-89458488D01*
X54356032Y-89473500D01*
X54457968Y-89473500D01*
X54610386Y-89458488D01*
X54805955Y-89399163D01*
X54986193Y-89302824D01*
X55144173Y-89173173D01*
X55273824Y-89015193D01*
X55370163Y-88834955D01*
X55429488Y-88639386D01*
X55449520Y-88436000D01*
X55429488Y-88232614D01*
X55370163Y-88037045D01*
X55273824Y-87856807D01*
X55144173Y-87698827D01*
X54986193Y-87569176D01*
X54805955Y-87472837D01*
X54610386Y-87413512D01*
X54457968Y-87398500D01*
X54356032Y-87398500D01*
X54203614Y-87413512D01*
X54008045Y-87472837D01*
X53827807Y-87569176D01*
X53669827Y-87698827D01*
X53540176Y-87856807D01*
X53443837Y-88037045D01*
X53384512Y-88232614D01*
X53364480Y-88436000D01*
X53221500Y-88436000D01*
X53221500Y-85896000D01*
X53364480Y-85896000D01*
X53384512Y-86099386D01*
X53443837Y-86294955D01*
X53540176Y-86475193D01*
X53669827Y-86633173D01*
X53827807Y-86762824D01*
X54008045Y-86859163D01*
X54203614Y-86918488D01*
X54356032Y-86933500D01*
X54457968Y-86933500D01*
X54610386Y-86918488D01*
X54805955Y-86859163D01*
X54986193Y-86762824D01*
X55144173Y-86633173D01*
X55273824Y-86475193D01*
X55370163Y-86294955D01*
X55429488Y-86099386D01*
X55449520Y-85896000D01*
X55429488Y-85692614D01*
X55370163Y-85497045D01*
X55273824Y-85316807D01*
X55144173Y-85158827D01*
X54986193Y-85029176D01*
X54805955Y-84932837D01*
X54610386Y-84873512D01*
X54457968Y-84858500D01*
X54356032Y-84858500D01*
X54203614Y-84873512D01*
X54008045Y-84932837D01*
X53827807Y-85029176D01*
X53669827Y-85158827D01*
X53540176Y-85316807D01*
X53443837Y-85497045D01*
X53384512Y-85692614D01*
X53364480Y-85896000D01*
X53221500Y-85896000D01*
X53221500Y-80816000D01*
X53364480Y-80816000D01*
X53384512Y-81019386D01*
X53443837Y-81214955D01*
X53540176Y-81395193D01*
X53669827Y-81553173D01*
X53827807Y-81682824D01*
X54008045Y-81779163D01*
X54203614Y-81838488D01*
X54356032Y-81853500D01*
X54457968Y-81853500D01*
X54610386Y-81838488D01*
X54805955Y-81779163D01*
X54986193Y-81682824D01*
X55144173Y-81553173D01*
X55150059Y-81546000D01*
X56003714Y-81546000D01*
X56006851Y-81577856D01*
X56016143Y-81608487D01*
X56031233Y-81636717D01*
X56051539Y-81661461D01*
X56076283Y-81681767D01*
X56104513Y-81696857D01*
X56135144Y-81706149D01*
X56167000Y-81709286D01*
X56688875Y-81708500D01*
X56729500Y-81667875D01*
X56729500Y-81196000D01*
X57004500Y-81196000D01*
X57004500Y-81667875D01*
X57045125Y-81708500D01*
X57567000Y-81709286D01*
X57598856Y-81706149D01*
X57629487Y-81696857D01*
X57657717Y-81681767D01*
X57682461Y-81661461D01*
X57702767Y-81636717D01*
X57717857Y-81608487D01*
X57727149Y-81577856D01*
X57730286Y-81546000D01*
X57729500Y-81236625D01*
X57688875Y-81196000D01*
X57004500Y-81196000D01*
X56729500Y-81196000D01*
X56045125Y-81196000D01*
X56004500Y-81236625D01*
X56003714Y-81546000D01*
X55150059Y-81546000D01*
X55273824Y-81395193D01*
X55370163Y-81214955D01*
X55429488Y-81019386D01*
X55449520Y-80816000D01*
X55429488Y-80612614D01*
X55416865Y-80571000D01*
X56003714Y-80571000D01*
X56004500Y-80880375D01*
X56045125Y-80921000D01*
X56729500Y-80921000D01*
X56729500Y-80449125D01*
X57004500Y-80449125D01*
X57004500Y-80921000D01*
X57688875Y-80921000D01*
X57729500Y-80880375D01*
X57730286Y-80571000D01*
X57727149Y-80539144D01*
X57717857Y-80508513D01*
X57702767Y-80480283D01*
X57682461Y-80455539D01*
X57657717Y-80435233D01*
X57629487Y-80420143D01*
X57598856Y-80410851D01*
X57567000Y-80407714D01*
X57045125Y-80408500D01*
X57004500Y-80449125D01*
X56729500Y-80449125D01*
X56688875Y-80408500D01*
X56167000Y-80407714D01*
X56135144Y-80410851D01*
X56104513Y-80420143D01*
X56076283Y-80435233D01*
X56051539Y-80455539D01*
X56031233Y-80480283D01*
X56016143Y-80508513D01*
X56006851Y-80539144D01*
X56003714Y-80571000D01*
X55416865Y-80571000D01*
X55370163Y-80417045D01*
X55273824Y-80236807D01*
X55144173Y-80078827D01*
X54986193Y-79949176D01*
X54912900Y-79910000D01*
X58023593Y-79910000D01*
X58023593Y-80970000D01*
X58027213Y-81006756D01*
X58037935Y-81042100D01*
X58055345Y-81074673D01*
X58078776Y-81103224D01*
X58107327Y-81126655D01*
X58139900Y-81144065D01*
X58175244Y-81154787D01*
X58212000Y-81158407D01*
X58862000Y-81158407D01*
X58898756Y-81154787D01*
X58934100Y-81144065D01*
X58966673Y-81126655D01*
X58995224Y-81103224D01*
X59018655Y-81074673D01*
X59026174Y-81060606D01*
X59026233Y-81060717D01*
X59046539Y-81085461D01*
X59071283Y-81105767D01*
X59099513Y-81120857D01*
X59130144Y-81130149D01*
X59162000Y-81133286D01*
X59308875Y-81132500D01*
X59349500Y-81091875D01*
X59349500Y-80577500D01*
X59329500Y-80577500D01*
X59329500Y-80302500D01*
X59349500Y-80302500D01*
X59349500Y-79788125D01*
X59308875Y-79747500D01*
X59162000Y-79746714D01*
X59130144Y-79749851D01*
X59099513Y-79759143D01*
X59071283Y-79774233D01*
X59046539Y-79794539D01*
X59026233Y-79819283D01*
X59026174Y-79819394D01*
X59018655Y-79805327D01*
X58995224Y-79776776D01*
X58966673Y-79753345D01*
X58934100Y-79735935D01*
X58898756Y-79725213D01*
X58862000Y-79721593D01*
X58212000Y-79721593D01*
X58175244Y-79725213D01*
X58139900Y-79735935D01*
X58107327Y-79753345D01*
X58078776Y-79776776D01*
X58055345Y-79805327D01*
X58037935Y-79837900D01*
X58027213Y-79873244D01*
X58023593Y-79910000D01*
X54912900Y-79910000D01*
X54805955Y-79852837D01*
X54610386Y-79793512D01*
X54457968Y-79778500D01*
X54356032Y-79778500D01*
X54203614Y-79793512D01*
X54008045Y-79852837D01*
X53827807Y-79949176D01*
X53669827Y-80078827D01*
X53540176Y-80236807D01*
X53443837Y-80417045D01*
X53384512Y-80612614D01*
X53364480Y-80816000D01*
X53221500Y-80816000D01*
X53221500Y-78276000D01*
X53364480Y-78276000D01*
X53384512Y-78479386D01*
X53443837Y-78674955D01*
X53540176Y-78855193D01*
X53669827Y-79013173D01*
X53827807Y-79142824D01*
X54008045Y-79239163D01*
X54203614Y-79298488D01*
X54356032Y-79313500D01*
X54457968Y-79313500D01*
X54610386Y-79298488D01*
X54805955Y-79239163D01*
X54986193Y-79142824D01*
X55144173Y-79013173D01*
X55205865Y-78938000D01*
X57898714Y-78938000D01*
X57901851Y-78969856D01*
X57911143Y-79000487D01*
X57926233Y-79028717D01*
X57946539Y-79053461D01*
X57971283Y-79073767D01*
X57999513Y-79088857D01*
X58030144Y-79098149D01*
X58062000Y-79101286D01*
X58371375Y-79100500D01*
X58412000Y-79059875D01*
X58412000Y-78375500D01*
X58687000Y-78375500D01*
X58687000Y-79059875D01*
X58727625Y-79100500D01*
X59037000Y-79101286D01*
X59068856Y-79098149D01*
X59099487Y-79088857D01*
X59127717Y-79073767D01*
X59152461Y-79053461D01*
X59172767Y-79028717D01*
X59187857Y-79000487D01*
X59197149Y-78969856D01*
X59200286Y-78938000D01*
X59199500Y-78416125D01*
X59158875Y-78375500D01*
X58687000Y-78375500D01*
X58412000Y-78375500D01*
X57940125Y-78375500D01*
X57899500Y-78416125D01*
X57898714Y-78938000D01*
X55205865Y-78938000D01*
X55273824Y-78855193D01*
X55370163Y-78674955D01*
X55429488Y-78479386D01*
X55449520Y-78276000D01*
X55429488Y-78072614D01*
X55370163Y-77877045D01*
X55273824Y-77696807D01*
X55144173Y-77538827D01*
X55143166Y-77538000D01*
X57898714Y-77538000D01*
X57899500Y-78059875D01*
X57940125Y-78100500D01*
X58412000Y-78100500D01*
X58412000Y-77416125D01*
X58371375Y-77375500D01*
X58062000Y-77374714D01*
X58030144Y-77377851D01*
X57999513Y-77387143D01*
X57971283Y-77402233D01*
X57946539Y-77422539D01*
X57926233Y-77447283D01*
X57911143Y-77475513D01*
X57901851Y-77506144D01*
X57898714Y-77538000D01*
X55143166Y-77538000D01*
X54986193Y-77409176D01*
X54805955Y-77312837D01*
X54610386Y-77253512D01*
X54457968Y-77238500D01*
X54356032Y-77238500D01*
X54203614Y-77253512D01*
X54008045Y-77312837D01*
X53827807Y-77409176D01*
X53669827Y-77538827D01*
X53540176Y-77696807D01*
X53443837Y-77877045D01*
X53384512Y-78072614D01*
X53364480Y-78276000D01*
X53221500Y-78276000D01*
X53221500Y-76028730D01*
X53437740Y-76028730D01*
X53438450Y-76031101D01*
X53514632Y-76214385D01*
X53625107Y-76379285D01*
X53765629Y-76519464D01*
X53930799Y-76629535D01*
X54114269Y-76705268D01*
X54269500Y-76698503D01*
X54269500Y-75873500D01*
X54544500Y-75873500D01*
X54544500Y-76698503D01*
X54699731Y-76705268D01*
X54883201Y-76629535D01*
X55048371Y-76519464D01*
X55188893Y-76379285D01*
X55299368Y-76214385D01*
X55375550Y-76031101D01*
X55376260Y-76028730D01*
X55369099Y-75873500D01*
X54544500Y-75873500D01*
X54269500Y-75873500D01*
X53444901Y-75873500D01*
X53437740Y-76028730D01*
X53221500Y-76028730D01*
X53221500Y-75443270D01*
X53437740Y-75443270D01*
X53444901Y-75598500D01*
X54269500Y-75598500D01*
X54269500Y-74773497D01*
X54544500Y-74773497D01*
X54544500Y-75598500D01*
X55369099Y-75598500D01*
X55376260Y-75443270D01*
X55375550Y-75440899D01*
X55299368Y-75257615D01*
X55188893Y-75092715D01*
X55048371Y-74952536D01*
X54883201Y-74842465D01*
X54699731Y-74766732D01*
X54544500Y-74773497D01*
X54269500Y-74773497D01*
X54114269Y-74766732D01*
X53930799Y-74842465D01*
X53765629Y-74952536D01*
X53625107Y-75092715D01*
X53514632Y-75257615D01*
X53438450Y-75440899D01*
X53437740Y-75443270D01*
X53221500Y-75443270D01*
X53221500Y-72346000D01*
X53368593Y-72346000D01*
X53368593Y-74046000D01*
X53372213Y-74082756D01*
X53382935Y-74118100D01*
X53400345Y-74150673D01*
X53423776Y-74179224D01*
X53452327Y-74202655D01*
X53484900Y-74220065D01*
X53520244Y-74230787D01*
X53557000Y-74234407D01*
X55257000Y-74234407D01*
X55293756Y-74230787D01*
X55329100Y-74220065D01*
X55361673Y-74202655D01*
X55390224Y-74179224D01*
X55413655Y-74150673D01*
X55431065Y-74118100D01*
X55441787Y-74082756D01*
X55445407Y-74046000D01*
X55445407Y-72346000D01*
X55441787Y-72309244D01*
X55431065Y-72273900D01*
X55413655Y-72241327D01*
X55390224Y-72212776D01*
X55361673Y-72189345D01*
X55329100Y-72171935D01*
X55293756Y-72161213D01*
X55257000Y-72157593D01*
X53557000Y-72157593D01*
X53520244Y-72161213D01*
X53484900Y-72171935D01*
X53452327Y-72189345D01*
X53423776Y-72212776D01*
X53400345Y-72241327D01*
X53382935Y-72273900D01*
X53372213Y-72309244D01*
X53368593Y-72346000D01*
X53221500Y-72346000D01*
X53221500Y-72011500D01*
X76408042Y-72011500D01*
X76405444Y-72012576D01*
G36*
X69804500Y-87912375D02*
G01*
X69845125Y-87953000D01*
X70529500Y-87953000D01*
X70529500Y-87933000D01*
X70804500Y-87933000D01*
X70804500Y-87953000D01*
X71488875Y-87953000D01*
X71529500Y-87912375D01*
X71530064Y-87690490D01*
X71715865Y-87690490D01*
X71694039Y-87762440D01*
X71685735Y-87846750D01*
X71685735Y-88334250D01*
X71694039Y-88418560D01*
X71718631Y-88499629D01*
X71758567Y-88574344D01*
X71812311Y-88639831D01*
X71877798Y-88693575D01*
X71952513Y-88733511D01*
X72033582Y-88758103D01*
X72117892Y-88766407D01*
X72286642Y-88766407D01*
X72286643Y-90401943D01*
X72257371Y-90382384D01*
X72224797Y-90364973D01*
X72134241Y-90327464D01*
X72098898Y-90316743D01*
X72002765Y-90297621D01*
X71966009Y-90294001D01*
X71941450Y-90294001D01*
X71917000Y-90291593D01*
X71417000Y-90291593D01*
X71380244Y-90295213D01*
X71344900Y-90305935D01*
X71312327Y-90323345D01*
X71283776Y-90346776D01*
X71267000Y-90367218D01*
X71250224Y-90346776D01*
X71221673Y-90323345D01*
X71189100Y-90305935D01*
X71153756Y-90295213D01*
X71117000Y-90291593D01*
X70617000Y-90291593D01*
X70592550Y-90294001D01*
X70567991Y-90294001D01*
X70531235Y-90297621D01*
X70435102Y-90316743D01*
X70399759Y-90327464D01*
X70309203Y-90364973D01*
X70276629Y-90382384D01*
X70216289Y-90422702D01*
X68804500Y-89010915D01*
X68804500Y-88766407D01*
X68973250Y-88766407D01*
X69057560Y-88758103D01*
X69138629Y-88733511D01*
X69213344Y-88693575D01*
X69278831Y-88639831D01*
X69329574Y-88578000D01*
X69803714Y-88578000D01*
X69806851Y-88609856D01*
X69816143Y-88640487D01*
X69831233Y-88668717D01*
X69851539Y-88693461D01*
X69876283Y-88713767D01*
X69904513Y-88728857D01*
X69935144Y-88738149D01*
X69967000Y-88741286D01*
X70488875Y-88740500D01*
X70529500Y-88699875D01*
X70529500Y-88228000D01*
X70804500Y-88228000D01*
X70804500Y-88699875D01*
X70845125Y-88740500D01*
X71367000Y-88741286D01*
X71398856Y-88738149D01*
X71429487Y-88728857D01*
X71457717Y-88713767D01*
X71482461Y-88693461D01*
X71502767Y-88668717D01*
X71517857Y-88640487D01*
X71527149Y-88609856D01*
X71530286Y-88578000D01*
X71529500Y-88268625D01*
X71488875Y-88228000D01*
X70804500Y-88228000D01*
X70529500Y-88228000D01*
X69845125Y-88228000D01*
X69804500Y-88268625D01*
X69803714Y-88578000D01*
X69329574Y-88578000D01*
X69332575Y-88574344D01*
X69372511Y-88499629D01*
X69397103Y-88418560D01*
X69405407Y-88334250D01*
X69405407Y-87846750D01*
X69397103Y-87762440D01*
X69375277Y-87690490D01*
X69803936Y-87690490D01*
X69804500Y-87912375D01*
X69804500Y-87912375D01*
G37*
X69804500Y-87912375D02*
X69845125Y-87953000D01*
X70529500Y-87953000D01*
X70529500Y-87933000D01*
X70804500Y-87933000D01*
X70804500Y-87953000D01*
X71488875Y-87953000D01*
X71529500Y-87912375D01*
X71530064Y-87690490D01*
X71715865Y-87690490D01*
X71694039Y-87762440D01*
X71685735Y-87846750D01*
X71685735Y-88334250D01*
X71694039Y-88418560D01*
X71718631Y-88499629D01*
X71758567Y-88574344D01*
X71812311Y-88639831D01*
X71877798Y-88693575D01*
X71952513Y-88733511D01*
X72033582Y-88758103D01*
X72117892Y-88766407D01*
X72286642Y-88766407D01*
X72286643Y-90401943D01*
X72257371Y-90382384D01*
X72224797Y-90364973D01*
X72134241Y-90327464D01*
X72098898Y-90316743D01*
X72002765Y-90297621D01*
X71966009Y-90294001D01*
X71941450Y-90294001D01*
X71917000Y-90291593D01*
X71417000Y-90291593D01*
X71380244Y-90295213D01*
X71344900Y-90305935D01*
X71312327Y-90323345D01*
X71283776Y-90346776D01*
X71267000Y-90367218D01*
X71250224Y-90346776D01*
X71221673Y-90323345D01*
X71189100Y-90305935D01*
X71153756Y-90295213D01*
X71117000Y-90291593D01*
X70617000Y-90291593D01*
X70592550Y-90294001D01*
X70567991Y-90294001D01*
X70531235Y-90297621D01*
X70435102Y-90316743D01*
X70399759Y-90327464D01*
X70309203Y-90364973D01*
X70276629Y-90382384D01*
X70216289Y-90422702D01*
X68804500Y-89010915D01*
X68804500Y-88766407D01*
X68973250Y-88766407D01*
X69057560Y-88758103D01*
X69138629Y-88733511D01*
X69213344Y-88693575D01*
X69278831Y-88639831D01*
X69329574Y-88578000D01*
X69803714Y-88578000D01*
X69806851Y-88609856D01*
X69816143Y-88640487D01*
X69831233Y-88668717D01*
X69851539Y-88693461D01*
X69876283Y-88713767D01*
X69904513Y-88728857D01*
X69935144Y-88738149D01*
X69967000Y-88741286D01*
X70488875Y-88740500D01*
X70529500Y-88699875D01*
X70529500Y-88228000D01*
X70804500Y-88228000D01*
X70804500Y-88699875D01*
X70845125Y-88740500D01*
X71367000Y-88741286D01*
X71398856Y-88738149D01*
X71429487Y-88728857D01*
X71457717Y-88713767D01*
X71482461Y-88693461D01*
X71502767Y-88668717D01*
X71517857Y-88640487D01*
X71527149Y-88609856D01*
X71530286Y-88578000D01*
X71529500Y-88268625D01*
X71488875Y-88228000D01*
X70804500Y-88228000D01*
X70529500Y-88228000D01*
X69845125Y-88228000D01*
X69804500Y-88268625D01*
X69803714Y-88578000D01*
X69329574Y-88578000D01*
X69332575Y-88574344D01*
X69372511Y-88499629D01*
X69397103Y-88418560D01*
X69405407Y-88334250D01*
X69405407Y-87846750D01*
X69397103Y-87762440D01*
X69375277Y-87690490D01*
X69803936Y-87690490D01*
X69804500Y-87912375D01*
G36*
X59779500Y-83833705D02*
G01*
X59719659Y-83978175D01*
X58322805Y-85375029D01*
X58299487Y-85403443D01*
X58282161Y-85435859D01*
X58193773Y-85649247D01*
X58183103Y-85684421D01*
X58179500Y-85721000D01*
X58179500Y-86671000D01*
X58183103Y-86707579D01*
X58193773Y-86742753D01*
X58211099Y-86775169D01*
X58234417Y-86803583D01*
X58359417Y-86928583D01*
X58387831Y-86951901D01*
X58420247Y-86969227D01*
X58455421Y-86979897D01*
X58492000Y-86983500D01*
X61908891Y-86983500D01*
X62067350Y-87041264D01*
X62449308Y-87362418D01*
X62473543Y-87379708D01*
X62506767Y-87395431D01*
X62727434Y-87474445D01*
X62732382Y-87475785D01*
X62732164Y-87478000D01*
X62732164Y-87778000D01*
X62735784Y-87814756D01*
X62746506Y-87850100D01*
X62748835Y-87854457D01*
X62731831Y-87859615D01*
X62681607Y-87886460D01*
X62657920Y-87905900D01*
X62637587Y-87922587D01*
X62628539Y-87933612D01*
X62340617Y-88221535D01*
X62329587Y-88230587D01*
X62293460Y-88274609D01*
X62266615Y-88324832D01*
X62265367Y-88328945D01*
X62265214Y-88268625D01*
X62224589Y-88228000D01*
X61540214Y-88228000D01*
X61540214Y-88699875D01*
X61580839Y-88740500D01*
X62102714Y-88741286D01*
X62134570Y-88738149D01*
X62165201Y-88728857D01*
X62193431Y-88713767D01*
X62218175Y-88693461D01*
X62238481Y-88668717D01*
X62245900Y-88654837D01*
X62245901Y-88781900D01*
X56355549Y-88781900D01*
X56314709Y-88741060D01*
X56317000Y-88741286D01*
X56838875Y-88740500D01*
X56879500Y-88699875D01*
X56879500Y-88228000D01*
X57154500Y-88228000D01*
X57154500Y-88699875D01*
X57195125Y-88740500D01*
X57717000Y-88741286D01*
X57748856Y-88738149D01*
X57779487Y-88728857D01*
X57807717Y-88713767D01*
X57832461Y-88693461D01*
X57852767Y-88668717D01*
X57867857Y-88640487D01*
X57877149Y-88609856D01*
X57880286Y-88578000D01*
X58346571Y-88578000D01*
X58349708Y-88609856D01*
X58359000Y-88640487D01*
X58374090Y-88668717D01*
X58394396Y-88693461D01*
X58419140Y-88713767D01*
X58447370Y-88728857D01*
X58478001Y-88738149D01*
X58509857Y-88741286D01*
X59031732Y-88740500D01*
X59072357Y-88699875D01*
X59072357Y-88228000D01*
X59347357Y-88228000D01*
X59347357Y-88699875D01*
X59387982Y-88740500D01*
X59909857Y-88741286D01*
X59941713Y-88738149D01*
X59972344Y-88728857D01*
X60000574Y-88713767D01*
X60025318Y-88693461D01*
X60045624Y-88668717D01*
X60060714Y-88640487D01*
X60070006Y-88609856D01*
X60073143Y-88578000D01*
X60539428Y-88578000D01*
X60542565Y-88609856D01*
X60551857Y-88640487D01*
X60566947Y-88668717D01*
X60587253Y-88693461D01*
X60611997Y-88713767D01*
X60640227Y-88728857D01*
X60670858Y-88738149D01*
X60702714Y-88741286D01*
X61224589Y-88740500D01*
X61265214Y-88699875D01*
X61265214Y-88228000D01*
X60580839Y-88228000D01*
X60540214Y-88268625D01*
X60539428Y-88578000D01*
X60073143Y-88578000D01*
X60072357Y-88268625D01*
X60031732Y-88228000D01*
X59347357Y-88228000D01*
X59072357Y-88228000D01*
X58387982Y-88228000D01*
X58347357Y-88268625D01*
X58346571Y-88578000D01*
X57880286Y-88578000D01*
X57879500Y-88268625D01*
X57838875Y-88228000D01*
X57154500Y-88228000D01*
X56879500Y-88228000D01*
X56195125Y-88228000D01*
X56154500Y-88268625D01*
X56153714Y-88578000D01*
X56153940Y-88580291D01*
X56067700Y-88494052D01*
X56067700Y-87603000D01*
X56153714Y-87603000D01*
X56154500Y-87912375D01*
X56195125Y-87953000D01*
X56879500Y-87953000D01*
X56879500Y-87481125D01*
X57154500Y-87481125D01*
X57154500Y-87953000D01*
X57838875Y-87953000D01*
X57879500Y-87912375D01*
X57880286Y-87603000D01*
X58346571Y-87603000D01*
X58347357Y-87912375D01*
X58387982Y-87953000D01*
X59072357Y-87953000D01*
X59072357Y-87481125D01*
X59347357Y-87481125D01*
X59347357Y-87953000D01*
X60031732Y-87953000D01*
X60072357Y-87912375D01*
X60073143Y-87603000D01*
X60539428Y-87603000D01*
X60540214Y-87912375D01*
X60580839Y-87953000D01*
X61265214Y-87953000D01*
X61265214Y-87481125D01*
X61540214Y-87481125D01*
X61540214Y-87953000D01*
X62224589Y-87953000D01*
X62265214Y-87912375D01*
X62266000Y-87603000D01*
X62262863Y-87571144D01*
X62253571Y-87540513D01*
X62238481Y-87512283D01*
X62218175Y-87487539D01*
X62193431Y-87467233D01*
X62165201Y-87452143D01*
X62134570Y-87442851D01*
X62102714Y-87439714D01*
X61580839Y-87440500D01*
X61540214Y-87481125D01*
X61265214Y-87481125D01*
X61224589Y-87440500D01*
X60702714Y-87439714D01*
X60670858Y-87442851D01*
X60640227Y-87452143D01*
X60611997Y-87467233D01*
X60587253Y-87487539D01*
X60566947Y-87512283D01*
X60551857Y-87540513D01*
X60542565Y-87571144D01*
X60539428Y-87603000D01*
X60073143Y-87603000D01*
X60070006Y-87571144D01*
X60060714Y-87540513D01*
X60045624Y-87512283D01*
X60025318Y-87487539D01*
X60000574Y-87467233D01*
X59972344Y-87452143D01*
X59941713Y-87442851D01*
X59909857Y-87439714D01*
X59387982Y-87440500D01*
X59347357Y-87481125D01*
X59072357Y-87481125D01*
X59031732Y-87440500D01*
X58509857Y-87439714D01*
X58478001Y-87442851D01*
X58447370Y-87452143D01*
X58419140Y-87467233D01*
X58394396Y-87487539D01*
X58374090Y-87512283D01*
X58359000Y-87540513D01*
X58349708Y-87571144D01*
X58346571Y-87603000D01*
X57880286Y-87603000D01*
X57877149Y-87571144D01*
X57867857Y-87540513D01*
X57852767Y-87512283D01*
X57832461Y-87487539D01*
X57807717Y-87467233D01*
X57779487Y-87452143D01*
X57748856Y-87442851D01*
X57717000Y-87439714D01*
X57195125Y-87440500D01*
X57154500Y-87481125D01*
X56879500Y-87481125D01*
X56838875Y-87440500D01*
X56317000Y-87439714D01*
X56285144Y-87442851D01*
X56254513Y-87452143D01*
X56226283Y-87467233D01*
X56201539Y-87487539D01*
X56181233Y-87512283D01*
X56166143Y-87540513D01*
X56156851Y-87571144D01*
X56153714Y-87603000D01*
X56067700Y-87603000D01*
X56067700Y-87133348D01*
X56360941Y-86840108D01*
X56395371Y-86858511D01*
X56476440Y-86883103D01*
X56560750Y-86891407D01*
X57473250Y-86891407D01*
X57557560Y-86883103D01*
X57638629Y-86858511D01*
X57713344Y-86818575D01*
X57778831Y-86764831D01*
X57832575Y-86699344D01*
X57872511Y-86624629D01*
X57897103Y-86543560D01*
X57905407Y-86459250D01*
X57905407Y-85971750D01*
X57897103Y-85887440D01*
X57872511Y-85806371D01*
X57858649Y-85780437D01*
X59680309Y-83958778D01*
X59691277Y-83949777D01*
X59727204Y-83905999D01*
X59753900Y-83856054D01*
X59770340Y-83801860D01*
X59774500Y-83759623D01*
X59774500Y-83759614D01*
X59775890Y-83745501D01*
X59774500Y-83731388D01*
X59774500Y-83358407D01*
X59779500Y-83358407D01*
X59779500Y-83833705D01*
X59779500Y-83833705D01*
G37*
X59779500Y-83833705D02*
X59719659Y-83978175D01*
X58322805Y-85375029D01*
X58299487Y-85403443D01*
X58282161Y-85435859D01*
X58193773Y-85649247D01*
X58183103Y-85684421D01*
X58179500Y-85721000D01*
X58179500Y-86671000D01*
X58183103Y-86707579D01*
X58193773Y-86742753D01*
X58211099Y-86775169D01*
X58234417Y-86803583D01*
X58359417Y-86928583D01*
X58387831Y-86951901D01*
X58420247Y-86969227D01*
X58455421Y-86979897D01*
X58492000Y-86983500D01*
X61908891Y-86983500D01*
X62067350Y-87041264D01*
X62449308Y-87362418D01*
X62473543Y-87379708D01*
X62506767Y-87395431D01*
X62727434Y-87474445D01*
X62732382Y-87475785D01*
X62732164Y-87478000D01*
X62732164Y-87778000D01*
X62735784Y-87814756D01*
X62746506Y-87850100D01*
X62748835Y-87854457D01*
X62731831Y-87859615D01*
X62681607Y-87886460D01*
X62657920Y-87905900D01*
X62637587Y-87922587D01*
X62628539Y-87933612D01*
X62340617Y-88221535D01*
X62329587Y-88230587D01*
X62293460Y-88274609D01*
X62266615Y-88324832D01*
X62265367Y-88328945D01*
X62265214Y-88268625D01*
X62224589Y-88228000D01*
X61540214Y-88228000D01*
X61540214Y-88699875D01*
X61580839Y-88740500D01*
X62102714Y-88741286D01*
X62134570Y-88738149D01*
X62165201Y-88728857D01*
X62193431Y-88713767D01*
X62218175Y-88693461D01*
X62238481Y-88668717D01*
X62245900Y-88654837D01*
X62245901Y-88781900D01*
X56355549Y-88781900D01*
X56314709Y-88741060D01*
X56317000Y-88741286D01*
X56838875Y-88740500D01*
X56879500Y-88699875D01*
X56879500Y-88228000D01*
X57154500Y-88228000D01*
X57154500Y-88699875D01*
X57195125Y-88740500D01*
X57717000Y-88741286D01*
X57748856Y-88738149D01*
X57779487Y-88728857D01*
X57807717Y-88713767D01*
X57832461Y-88693461D01*
X57852767Y-88668717D01*
X57867857Y-88640487D01*
X57877149Y-88609856D01*
X57880286Y-88578000D01*
X58346571Y-88578000D01*
X58349708Y-88609856D01*
X58359000Y-88640487D01*
X58374090Y-88668717D01*
X58394396Y-88693461D01*
X58419140Y-88713767D01*
X58447370Y-88728857D01*
X58478001Y-88738149D01*
X58509857Y-88741286D01*
X59031732Y-88740500D01*
X59072357Y-88699875D01*
X59072357Y-88228000D01*
X59347357Y-88228000D01*
X59347357Y-88699875D01*
X59387982Y-88740500D01*
X59909857Y-88741286D01*
X59941713Y-88738149D01*
X59972344Y-88728857D01*
X60000574Y-88713767D01*
X60025318Y-88693461D01*
X60045624Y-88668717D01*
X60060714Y-88640487D01*
X60070006Y-88609856D01*
X60073143Y-88578000D01*
X60539428Y-88578000D01*
X60542565Y-88609856D01*
X60551857Y-88640487D01*
X60566947Y-88668717D01*
X60587253Y-88693461D01*
X60611997Y-88713767D01*
X60640227Y-88728857D01*
X60670858Y-88738149D01*
X60702714Y-88741286D01*
X61224589Y-88740500D01*
X61265214Y-88699875D01*
X61265214Y-88228000D01*
X60580839Y-88228000D01*
X60540214Y-88268625D01*
X60539428Y-88578000D01*
X60073143Y-88578000D01*
X60072357Y-88268625D01*
X60031732Y-88228000D01*
X59347357Y-88228000D01*
X59072357Y-88228000D01*
X58387982Y-88228000D01*
X58347357Y-88268625D01*
X58346571Y-88578000D01*
X57880286Y-88578000D01*
X57879500Y-88268625D01*
X57838875Y-88228000D01*
X57154500Y-88228000D01*
X56879500Y-88228000D01*
X56195125Y-88228000D01*
X56154500Y-88268625D01*
X56153714Y-88578000D01*
X56153940Y-88580291D01*
X56067700Y-88494052D01*
X56067700Y-87603000D01*
X56153714Y-87603000D01*
X56154500Y-87912375D01*
X56195125Y-87953000D01*
X56879500Y-87953000D01*
X56879500Y-87481125D01*
X57154500Y-87481125D01*
X57154500Y-87953000D01*
X57838875Y-87953000D01*
X57879500Y-87912375D01*
X57880286Y-87603000D01*
X58346571Y-87603000D01*
X58347357Y-87912375D01*
X58387982Y-87953000D01*
X59072357Y-87953000D01*
X59072357Y-87481125D01*
X59347357Y-87481125D01*
X59347357Y-87953000D01*
X60031732Y-87953000D01*
X60072357Y-87912375D01*
X60073143Y-87603000D01*
X60539428Y-87603000D01*
X60540214Y-87912375D01*
X60580839Y-87953000D01*
X61265214Y-87953000D01*
X61265214Y-87481125D01*
X61540214Y-87481125D01*
X61540214Y-87953000D01*
X62224589Y-87953000D01*
X62265214Y-87912375D01*
X62266000Y-87603000D01*
X62262863Y-87571144D01*
X62253571Y-87540513D01*
X62238481Y-87512283D01*
X62218175Y-87487539D01*
X62193431Y-87467233D01*
X62165201Y-87452143D01*
X62134570Y-87442851D01*
X62102714Y-87439714D01*
X61580839Y-87440500D01*
X61540214Y-87481125D01*
X61265214Y-87481125D01*
X61224589Y-87440500D01*
X60702714Y-87439714D01*
X60670858Y-87442851D01*
X60640227Y-87452143D01*
X60611997Y-87467233D01*
X60587253Y-87487539D01*
X60566947Y-87512283D01*
X60551857Y-87540513D01*
X60542565Y-87571144D01*
X60539428Y-87603000D01*
X60073143Y-87603000D01*
X60070006Y-87571144D01*
X60060714Y-87540513D01*
X60045624Y-87512283D01*
X60025318Y-87487539D01*
X60000574Y-87467233D01*
X59972344Y-87452143D01*
X59941713Y-87442851D01*
X59909857Y-87439714D01*
X59387982Y-87440500D01*
X59347357Y-87481125D01*
X59072357Y-87481125D01*
X59031732Y-87440500D01*
X58509857Y-87439714D01*
X58478001Y-87442851D01*
X58447370Y-87452143D01*
X58419140Y-87467233D01*
X58394396Y-87487539D01*
X58374090Y-87512283D01*
X58359000Y-87540513D01*
X58349708Y-87571144D01*
X58346571Y-87603000D01*
X57880286Y-87603000D01*
X57877149Y-87571144D01*
X57867857Y-87540513D01*
X57852767Y-87512283D01*
X57832461Y-87487539D01*
X57807717Y-87467233D01*
X57779487Y-87452143D01*
X57748856Y-87442851D01*
X57717000Y-87439714D01*
X57195125Y-87440500D01*
X57154500Y-87481125D01*
X56879500Y-87481125D01*
X56838875Y-87440500D01*
X56317000Y-87439714D01*
X56285144Y-87442851D01*
X56254513Y-87452143D01*
X56226283Y-87467233D01*
X56201539Y-87487539D01*
X56181233Y-87512283D01*
X56166143Y-87540513D01*
X56156851Y-87571144D01*
X56153714Y-87603000D01*
X56067700Y-87603000D01*
X56067700Y-87133348D01*
X56360941Y-86840108D01*
X56395371Y-86858511D01*
X56476440Y-86883103D01*
X56560750Y-86891407D01*
X57473250Y-86891407D01*
X57557560Y-86883103D01*
X57638629Y-86858511D01*
X57713344Y-86818575D01*
X57778831Y-86764831D01*
X57832575Y-86699344D01*
X57872511Y-86624629D01*
X57897103Y-86543560D01*
X57905407Y-86459250D01*
X57905407Y-85971750D01*
X57897103Y-85887440D01*
X57872511Y-85806371D01*
X57858649Y-85780437D01*
X59680309Y-83958778D01*
X59691277Y-83949777D01*
X59727204Y-83905999D01*
X59753900Y-83856054D01*
X59770340Y-83801860D01*
X59774500Y-83759623D01*
X59774500Y-83759614D01*
X59775890Y-83745501D01*
X59774500Y-83731388D01*
X59774500Y-83358407D01*
X59779500Y-83358407D01*
X59779500Y-83833705D01*
G36*
X67071901Y-88062250D02*
G01*
X66831244Y-88302907D01*
X66833071Y-88281125D01*
X66792446Y-88240500D01*
X66383071Y-88240500D01*
X66383071Y-88278000D01*
X66108071Y-88278000D01*
X66108071Y-88240500D01*
X66088071Y-88240500D01*
X66088071Y-88015500D01*
X66108071Y-88015500D01*
X66108071Y-87978000D01*
X66383071Y-87978000D01*
X66383071Y-88015500D01*
X66722181Y-88015500D01*
X66732678Y-88019848D01*
X66812372Y-88035700D01*
X66893628Y-88035700D01*
X66973322Y-88019848D01*
X67048392Y-87988753D01*
X67071901Y-87973045D01*
X67071901Y-88062250D01*
X67071901Y-88062250D01*
G37*
X67071901Y-88062250D02*
X66831244Y-88302907D01*
X66833071Y-88281125D01*
X66792446Y-88240500D01*
X66383071Y-88240500D01*
X66383071Y-88278000D01*
X66108071Y-88278000D01*
X66108071Y-88240500D01*
X66088071Y-88240500D01*
X66088071Y-88015500D01*
X66108071Y-88015500D01*
X66108071Y-87978000D01*
X66383071Y-87978000D01*
X66383071Y-88015500D01*
X66722181Y-88015500D01*
X66732678Y-88019848D01*
X66812372Y-88035700D01*
X66893628Y-88035700D01*
X66973322Y-88019848D01*
X67048392Y-87988753D01*
X67071901Y-87973045D01*
X67071901Y-88062250D01*
M02*
