G04 #@! TF.GenerationSoftware,KiCad,Pcbnew,(5.1.2)-2*
G04 #@! TF.CreationDate,2019-08-28T15:44:57+02:00*
G04 #@! TF.ProjectId,esp_pmc,6573705f-706d-4632-9e6b-696361645f70,0.0.1*
G04 #@! TF.SameCoordinates,Original*
G04 #@! TF.FileFunction,Copper,L2,Bot*
G04 #@! TF.FilePolarity,Positive*
%FSLAX46Y46*%
G04 Gerber Fmt 4.6, Leading zero omitted, Abs format (unit mm)*
G04 Created by KiCad (PCBNEW (5.1.2)-2) date 2019-08-28 15:44:57*
%MOMM*%
%LPD*%
G04 APERTURE LIST*
%ADD10C,2.500000*%
%ADD11R,1.700000X1.700000*%
%ADD12O,1.700000X1.700000*%
%ADD13C,0.500000*%
%ADD14C,0.100000*%
%ADD15C,0.450000*%
%ADD16C,0.203200*%
%ADD17C,0.125000*%
G04 APERTURE END LIST*
D10*
X66267000Y-91196000D03*
X72187000Y-74466000D03*
X66218000Y-74466000D03*
X59487000Y-74466000D03*
D11*
X54407000Y-73196000D03*
D12*
X54407000Y-75736000D03*
X54407000Y-78276000D03*
X54407000Y-80816000D03*
X54407000Y-83356000D03*
X54407000Y-85896000D03*
X54407000Y-88436000D03*
X54407000Y-90976000D03*
X77267000Y-73216000D03*
X77267000Y-75756000D03*
X77267000Y-78296000D03*
X77267000Y-80836000D03*
X77267000Y-83376000D03*
X77267000Y-85916000D03*
X77267000Y-88456000D03*
D11*
X77267000Y-90996000D03*
D13*
X58422500Y-85896000D03*
D14*
G36*
X58422500Y-85146602D02*
G01*
X58447034Y-85146602D01*
X58495865Y-85151412D01*
X58543990Y-85160984D01*
X58590945Y-85175228D01*
X58636278Y-85194005D01*
X58679551Y-85217136D01*
X58720350Y-85244396D01*
X58758279Y-85275524D01*
X58792976Y-85310221D01*
X58824104Y-85348150D01*
X58851364Y-85388949D01*
X58874495Y-85432222D01*
X58893272Y-85477555D01*
X58907516Y-85524510D01*
X58917088Y-85572635D01*
X58921898Y-85621466D01*
X58921898Y-85646000D01*
X58922500Y-85646000D01*
X58922500Y-86146000D01*
X58921898Y-86146000D01*
X58921898Y-86170534D01*
X58917088Y-86219365D01*
X58907516Y-86267490D01*
X58893272Y-86314445D01*
X58874495Y-86359778D01*
X58851364Y-86403051D01*
X58824104Y-86443850D01*
X58792976Y-86481779D01*
X58758279Y-86516476D01*
X58720350Y-86547604D01*
X58679551Y-86574864D01*
X58636278Y-86597995D01*
X58590945Y-86616772D01*
X58543990Y-86631016D01*
X58495865Y-86640588D01*
X58447034Y-86645398D01*
X58422500Y-86645398D01*
X58422500Y-86646000D01*
X57922500Y-86646000D01*
X57922500Y-85146000D01*
X58422500Y-85146000D01*
X58422500Y-85146602D01*
X58422500Y-85146602D01*
G37*
D13*
X57122500Y-85896000D03*
D14*
G36*
X57622500Y-86646000D02*
G01*
X57122500Y-86646000D01*
X57122500Y-86645398D01*
X57097966Y-86645398D01*
X57049135Y-86640588D01*
X57001010Y-86631016D01*
X56954055Y-86616772D01*
X56908722Y-86597995D01*
X56865449Y-86574864D01*
X56824650Y-86547604D01*
X56786721Y-86516476D01*
X56752024Y-86481779D01*
X56720896Y-86443850D01*
X56693636Y-86403051D01*
X56670505Y-86359778D01*
X56651728Y-86314445D01*
X56637484Y-86267490D01*
X56627912Y-86219365D01*
X56623102Y-86170534D01*
X56623102Y-86146000D01*
X56622500Y-86146000D01*
X56622500Y-85646000D01*
X56623102Y-85646000D01*
X56623102Y-85621466D01*
X56627912Y-85572635D01*
X56637484Y-85524510D01*
X56651728Y-85477555D01*
X56670505Y-85432222D01*
X56693636Y-85388949D01*
X56720896Y-85348150D01*
X56752024Y-85310221D01*
X56786721Y-85275524D01*
X56824650Y-85244396D01*
X56865449Y-85217136D01*
X56908722Y-85194005D01*
X56954055Y-85175228D01*
X57001010Y-85160984D01*
X57049135Y-85151412D01*
X57097966Y-85146602D01*
X57122500Y-85146602D01*
X57122500Y-85146000D01*
X57622500Y-85146000D01*
X57622500Y-86646000D01*
X57622500Y-86646000D01*
G37*
D13*
X73315000Y-90976000D03*
D14*
G36*
X73315000Y-91725398D02*
G01*
X73290466Y-91725398D01*
X73241635Y-91720588D01*
X73193510Y-91711016D01*
X73146555Y-91696772D01*
X73101222Y-91677995D01*
X73057949Y-91654864D01*
X73017150Y-91627604D01*
X72979221Y-91596476D01*
X72944524Y-91561779D01*
X72913396Y-91523850D01*
X72886136Y-91483051D01*
X72863005Y-91439778D01*
X72844228Y-91394445D01*
X72829984Y-91347490D01*
X72820412Y-91299365D01*
X72815602Y-91250534D01*
X72815602Y-91226000D01*
X72815000Y-91226000D01*
X72815000Y-90726000D01*
X72815602Y-90726000D01*
X72815602Y-90701466D01*
X72820412Y-90652635D01*
X72829984Y-90604510D01*
X72844228Y-90557555D01*
X72863005Y-90512222D01*
X72886136Y-90468949D01*
X72913396Y-90428150D01*
X72944524Y-90390221D01*
X72979221Y-90355524D01*
X73017150Y-90324396D01*
X73057949Y-90297136D01*
X73101222Y-90274005D01*
X73146555Y-90255228D01*
X73193510Y-90240984D01*
X73241635Y-90231412D01*
X73290466Y-90226602D01*
X73315000Y-90226602D01*
X73315000Y-90226000D01*
X73815000Y-90226000D01*
X73815000Y-91726000D01*
X73315000Y-91726000D01*
X73315000Y-91725398D01*
X73315000Y-91725398D01*
G37*
D13*
X74615000Y-90976000D03*
D14*
G36*
X74115000Y-90226000D02*
G01*
X74615000Y-90226000D01*
X74615000Y-90226602D01*
X74639534Y-90226602D01*
X74688365Y-90231412D01*
X74736490Y-90240984D01*
X74783445Y-90255228D01*
X74828778Y-90274005D01*
X74872051Y-90297136D01*
X74912850Y-90324396D01*
X74950779Y-90355524D01*
X74985476Y-90390221D01*
X75016604Y-90428150D01*
X75043864Y-90468949D01*
X75066995Y-90512222D01*
X75085772Y-90557555D01*
X75100016Y-90604510D01*
X75109588Y-90652635D01*
X75114398Y-90701466D01*
X75114398Y-90726000D01*
X75115000Y-90726000D01*
X75115000Y-91226000D01*
X75114398Y-91226000D01*
X75114398Y-91250534D01*
X75109588Y-91299365D01*
X75100016Y-91347490D01*
X75085772Y-91394445D01*
X75066995Y-91439778D01*
X75043864Y-91483051D01*
X75016604Y-91523850D01*
X74985476Y-91561779D01*
X74950779Y-91596476D01*
X74912850Y-91627604D01*
X74872051Y-91654864D01*
X74828778Y-91677995D01*
X74783445Y-91696772D01*
X74736490Y-91711016D01*
X74688365Y-91720588D01*
X74639534Y-91725398D01*
X74615000Y-91725398D01*
X74615000Y-91726000D01*
X74115000Y-91726000D01*
X74115000Y-90226000D01*
X74115000Y-90226000D01*
G37*
D13*
X74615000Y-88436000D03*
D14*
G36*
X74615000Y-87686602D02*
G01*
X74639534Y-87686602D01*
X74688365Y-87691412D01*
X74736490Y-87700984D01*
X74783445Y-87715228D01*
X74828778Y-87734005D01*
X74872051Y-87757136D01*
X74912850Y-87784396D01*
X74950779Y-87815524D01*
X74985476Y-87850221D01*
X75016604Y-87888150D01*
X75043864Y-87928949D01*
X75066995Y-87972222D01*
X75085772Y-88017555D01*
X75100016Y-88064510D01*
X75109588Y-88112635D01*
X75114398Y-88161466D01*
X75114398Y-88186000D01*
X75115000Y-88186000D01*
X75115000Y-88686000D01*
X75114398Y-88686000D01*
X75114398Y-88710534D01*
X75109588Y-88759365D01*
X75100016Y-88807490D01*
X75085772Y-88854445D01*
X75066995Y-88899778D01*
X75043864Y-88943051D01*
X75016604Y-88983850D01*
X74985476Y-89021779D01*
X74950779Y-89056476D01*
X74912850Y-89087604D01*
X74872051Y-89114864D01*
X74828778Y-89137995D01*
X74783445Y-89156772D01*
X74736490Y-89171016D01*
X74688365Y-89180588D01*
X74639534Y-89185398D01*
X74615000Y-89185398D01*
X74615000Y-89186000D01*
X74115000Y-89186000D01*
X74115000Y-87686000D01*
X74615000Y-87686000D01*
X74615000Y-87686602D01*
X74615000Y-87686602D01*
G37*
D13*
X73315000Y-88436000D03*
D14*
G36*
X73815000Y-89186000D02*
G01*
X73315000Y-89186000D01*
X73315000Y-89185398D01*
X73290466Y-89185398D01*
X73241635Y-89180588D01*
X73193510Y-89171016D01*
X73146555Y-89156772D01*
X73101222Y-89137995D01*
X73057949Y-89114864D01*
X73017150Y-89087604D01*
X72979221Y-89056476D01*
X72944524Y-89021779D01*
X72913396Y-88983850D01*
X72886136Y-88943051D01*
X72863005Y-88899778D01*
X72844228Y-88854445D01*
X72829984Y-88807490D01*
X72820412Y-88759365D01*
X72815602Y-88710534D01*
X72815602Y-88686000D01*
X72815000Y-88686000D01*
X72815000Y-88186000D01*
X72815602Y-88186000D01*
X72815602Y-88161466D01*
X72820412Y-88112635D01*
X72829984Y-88064510D01*
X72844228Y-88017555D01*
X72863005Y-87972222D01*
X72886136Y-87928949D01*
X72913396Y-87888150D01*
X72944524Y-87850221D01*
X72979221Y-87815524D01*
X73017150Y-87784396D01*
X73057949Y-87757136D01*
X73101222Y-87734005D01*
X73146555Y-87715228D01*
X73193510Y-87700984D01*
X73241635Y-87691412D01*
X73290466Y-87686602D01*
X73315000Y-87686602D01*
X73315000Y-87686000D01*
X73815000Y-87686000D01*
X73815000Y-89186000D01*
X73815000Y-89186000D01*
G37*
D15*
X64186000Y-89198000D03*
X64821000Y-89198000D03*
X65456000Y-89198000D03*
X65329000Y-85261000D03*
X57074000Y-89579000D03*
X59233000Y-89579000D03*
X61519000Y-89579000D03*
X61519000Y-90722000D03*
X61519000Y-91865000D03*
X59233000Y-90722000D03*
X57074000Y-90722000D03*
X57074000Y-91865000D03*
X59233000Y-91865000D03*
X63424000Y-90722000D03*
X63424000Y-91865000D03*
X68631000Y-91865000D03*
X58115400Y-87293000D03*
X60350600Y-87293000D03*
X69901000Y-89452000D03*
X71196400Y-89452000D03*
X70917000Y-84626000D03*
X72949000Y-84626000D03*
X75235000Y-84626000D03*
X69393000Y-79292000D03*
X71425000Y-79292000D03*
X73457000Y-79292000D03*
X73457000Y-77260000D03*
X71425000Y-77260000D03*
X69393000Y-77260000D03*
X69393000Y-75482000D03*
X69393000Y-73450000D03*
X61519000Y-81324000D03*
X62789000Y-81324000D03*
X62789000Y-83356000D03*
X61519000Y-83356000D03*
X56693000Y-78784000D03*
X56693000Y-76752000D03*
X56693000Y-74466000D03*
X56693000Y-72688000D03*
X60223600Y-84956200D03*
X66853000Y-87623200D03*
X74767000Y-86215500D03*
X61900000Y-79901600D03*
X58537000Y-80440000D03*
X73315000Y-90976000D03*
D16*
X54407000Y-85896000D02*
X57122500Y-85896000D01*
X77247000Y-90976000D02*
X77267000Y-90996000D01*
X74615000Y-90976000D02*
X77247000Y-90976000D01*
X58422500Y-85896000D02*
X59283800Y-85896000D01*
X59283800Y-85896000D02*
X60223600Y-84956200D01*
X63703400Y-88436000D02*
X60223600Y-84956200D01*
X73315000Y-88436000D02*
X63703400Y-88436000D01*
X66853000Y-87623200D02*
X68260700Y-86215500D01*
X68260700Y-86215500D02*
X74767000Y-86215500D01*
X61900000Y-79901600D02*
X61361600Y-80440000D01*
X61361600Y-80440000D02*
X58537000Y-80440000D01*
X74635000Y-88456000D02*
X74615000Y-88436000D01*
X77267000Y-88456000D02*
X74635000Y-88456000D01*
D17*
G36*
X63396210Y-88714436D02*
G01*
X63409171Y-88730229D01*
X63424964Y-88743190D01*
X63424967Y-88743193D01*
X63472225Y-88781977D01*
X63497283Y-88795371D01*
X63544164Y-88820429D01*
X63622222Y-88844108D01*
X63683062Y-88850100D01*
X63683072Y-88850100D01*
X63703399Y-88852102D01*
X63723726Y-88850100D01*
X72520137Y-88850100D01*
X72528552Y-88892403D01*
X72546420Y-88951308D01*
X72583929Y-89041864D01*
X72612948Y-89096154D01*
X72667404Y-89177653D01*
X72706455Y-89225237D01*
X72775763Y-89294545D01*
X72823347Y-89333596D01*
X72904846Y-89388052D01*
X72959136Y-89417071D01*
X73049692Y-89454580D01*
X73108597Y-89472448D01*
X73204730Y-89491570D01*
X73265991Y-89497604D01*
X73290552Y-89497604D01*
X73315000Y-89500012D01*
X73815000Y-89500012D01*
X73876261Y-89493978D01*
X73935167Y-89476109D01*
X73965000Y-89460163D01*
X73994833Y-89476109D01*
X74053739Y-89493978D01*
X74115000Y-89500012D01*
X74615000Y-89500012D01*
X74639448Y-89497604D01*
X74664009Y-89497604D01*
X74725270Y-89491570D01*
X74821403Y-89472448D01*
X74880308Y-89454580D01*
X74970864Y-89417071D01*
X75025154Y-89388052D01*
X75106653Y-89333596D01*
X75154237Y-89294545D01*
X75223545Y-89225237D01*
X75262596Y-89177653D01*
X75317052Y-89096154D01*
X75346071Y-89041864D01*
X75383580Y-88951308D01*
X75401448Y-88892403D01*
X75405884Y-88870100D01*
X76177807Y-88870100D01*
X76187794Y-88903022D01*
X76295740Y-89104975D01*
X76441012Y-89281988D01*
X76618025Y-89427260D01*
X76819978Y-89535206D01*
X77039110Y-89601679D01*
X77209898Y-89618500D01*
X77324102Y-89618500D01*
X77494890Y-89601679D01*
X77714022Y-89535206D01*
X77915975Y-89427260D01*
X78092988Y-89281988D01*
X78238260Y-89104975D01*
X78326501Y-88939888D01*
X78326501Y-89913669D01*
X78291456Y-89884909D01*
X78237167Y-89855891D01*
X78178261Y-89838022D01*
X78117000Y-89831988D01*
X76417000Y-89831988D01*
X76355739Y-89838022D01*
X76296833Y-89855891D01*
X76242544Y-89884909D01*
X76194960Y-89923960D01*
X76155909Y-89971544D01*
X76126891Y-90025833D01*
X76109022Y-90084739D01*
X76102988Y-90146000D01*
X76102988Y-90561900D01*
X75409863Y-90561900D01*
X75401448Y-90519597D01*
X75383580Y-90460692D01*
X75346071Y-90370136D01*
X75317052Y-90315846D01*
X75262596Y-90234347D01*
X75223545Y-90186763D01*
X75154237Y-90117455D01*
X75106653Y-90078404D01*
X75025154Y-90023948D01*
X74970864Y-89994929D01*
X74880308Y-89957420D01*
X74821403Y-89939552D01*
X74725270Y-89920430D01*
X74664009Y-89914396D01*
X74639448Y-89914396D01*
X74615000Y-89911988D01*
X74115000Y-89911988D01*
X74053739Y-89918022D01*
X73994833Y-89935891D01*
X73965000Y-89951837D01*
X73935167Y-89935891D01*
X73876261Y-89918022D01*
X73815000Y-89911988D01*
X73315000Y-89911988D01*
X73290552Y-89914396D01*
X73265991Y-89914396D01*
X73204730Y-89920430D01*
X73108597Y-89939552D01*
X73049692Y-89957420D01*
X72959136Y-89994929D01*
X72904846Y-90023948D01*
X72823347Y-90078404D01*
X72775763Y-90117455D01*
X72706455Y-90186763D01*
X72667404Y-90234347D01*
X72612948Y-90315846D01*
X72583929Y-90370136D01*
X72546420Y-90460692D01*
X72528552Y-90519597D01*
X72509430Y-90615730D01*
X72503396Y-90676991D01*
X72503396Y-90701552D01*
X72500988Y-90726000D01*
X72500988Y-91226000D01*
X72503396Y-91250448D01*
X72503396Y-91275009D01*
X72509430Y-91336270D01*
X72528552Y-91432403D01*
X72546420Y-91491308D01*
X72583929Y-91581864D01*
X72612948Y-91636154D01*
X72667404Y-91717653D01*
X72706455Y-91765237D01*
X72775763Y-91834545D01*
X72823347Y-91873596D01*
X72904846Y-91928052D01*
X72959136Y-91957071D01*
X73049692Y-91994580D01*
X73108597Y-92012448D01*
X73204730Y-92031570D01*
X73265991Y-92037604D01*
X73290552Y-92037604D01*
X73315000Y-92040012D01*
X73815000Y-92040012D01*
X73876261Y-92033978D01*
X73935167Y-92016109D01*
X73965000Y-92000163D01*
X73994833Y-92016109D01*
X74053739Y-92033978D01*
X74115000Y-92040012D01*
X74615000Y-92040012D01*
X74639448Y-92037604D01*
X74664009Y-92037604D01*
X74725270Y-92031570D01*
X74821403Y-92012448D01*
X74880308Y-91994580D01*
X74970864Y-91957071D01*
X75025154Y-91928052D01*
X75106653Y-91873596D01*
X75154237Y-91834545D01*
X75223545Y-91765237D01*
X75262596Y-91717653D01*
X75317052Y-91636154D01*
X75346071Y-91581864D01*
X75383580Y-91491308D01*
X75401448Y-91432403D01*
X75409863Y-91390100D01*
X76102988Y-91390100D01*
X76102988Y-91846000D01*
X76109022Y-91907261D01*
X76126891Y-91966167D01*
X76155909Y-92020456D01*
X76194960Y-92068040D01*
X76242544Y-92107091D01*
X76296833Y-92136109D01*
X76355739Y-92153978D01*
X76417000Y-92160012D01*
X78117000Y-92160012D01*
X78178261Y-92153978D01*
X78237167Y-92136109D01*
X78291456Y-92107091D01*
X78326501Y-92078330D01*
X78326501Y-92461500D01*
X67165482Y-92461500D01*
X67276837Y-92294225D01*
X66267000Y-91284388D01*
X65257163Y-92294225D01*
X65368518Y-92461500D01*
X53346500Y-92461500D01*
X53346500Y-91458019D01*
X53435740Y-91624975D01*
X53581012Y-91801988D01*
X53758025Y-91947260D01*
X53959978Y-92055206D01*
X54179110Y-92121679D01*
X54349898Y-92138500D01*
X54464102Y-92138500D01*
X54634890Y-92121679D01*
X54854022Y-92055206D01*
X55055975Y-91947260D01*
X55232988Y-91801988D01*
X55378260Y-91624975D01*
X55486206Y-91423022D01*
X55552679Y-91203890D01*
X55553371Y-91196860D01*
X64696940Y-91196860D01*
X64727276Y-91503147D01*
X64816782Y-91797630D01*
X64961065Y-92067564D01*
X65168775Y-92205837D01*
X66178612Y-91196000D01*
X66355388Y-91196000D01*
X67365225Y-92205837D01*
X67572935Y-92067564D01*
X67717876Y-91796041D01*
X67807059Y-91501460D01*
X67837060Y-91195140D01*
X67806724Y-90888853D01*
X67717218Y-90594370D01*
X67572935Y-90324436D01*
X67365225Y-90186163D01*
X66355388Y-91196000D01*
X66178612Y-91196000D01*
X65168775Y-90186163D01*
X64961065Y-90324436D01*
X64816124Y-90595959D01*
X64726941Y-90890540D01*
X64696940Y-91196860D01*
X55553371Y-91196860D01*
X55575124Y-90976000D01*
X55552679Y-90748110D01*
X55486206Y-90528978D01*
X55378260Y-90327025D01*
X55232988Y-90150012D01*
X55169338Y-90097775D01*
X65257163Y-90097775D01*
X66267000Y-91107612D01*
X67276837Y-90097775D01*
X67138564Y-89890065D01*
X66867041Y-89745124D01*
X66572460Y-89655941D01*
X66266140Y-89625940D01*
X65959853Y-89656276D01*
X65665370Y-89745782D01*
X65395436Y-89890065D01*
X65257163Y-90097775D01*
X55169338Y-90097775D01*
X55055975Y-90004740D01*
X54854022Y-89896794D01*
X54634890Y-89830321D01*
X54464102Y-89813500D01*
X54349898Y-89813500D01*
X54179110Y-89830321D01*
X53959978Y-89896794D01*
X53758025Y-90004740D01*
X53581012Y-90150012D01*
X53435740Y-90327025D01*
X53346500Y-90493981D01*
X53346500Y-88918019D01*
X53435740Y-89084975D01*
X53581012Y-89261988D01*
X53758025Y-89407260D01*
X53959978Y-89515206D01*
X54179110Y-89581679D01*
X54349898Y-89598500D01*
X54464102Y-89598500D01*
X54634890Y-89581679D01*
X54854022Y-89515206D01*
X55055975Y-89407260D01*
X55232988Y-89261988D01*
X55378260Y-89084975D01*
X55486206Y-88883022D01*
X55552679Y-88663890D01*
X55575124Y-88436000D01*
X55552679Y-88208110D01*
X55486206Y-87988978D01*
X55378260Y-87787025D01*
X55232988Y-87610012D01*
X55055975Y-87464740D01*
X54854022Y-87356794D01*
X54634890Y-87290321D01*
X54464102Y-87273500D01*
X54349898Y-87273500D01*
X54179110Y-87290321D01*
X53959978Y-87356794D01*
X53758025Y-87464740D01*
X53581012Y-87610012D01*
X53435740Y-87787025D01*
X53346500Y-87953981D01*
X53346500Y-86378019D01*
X53435740Y-86544975D01*
X53581012Y-86721988D01*
X53758025Y-86867260D01*
X53959978Y-86975206D01*
X54179110Y-87041679D01*
X54349898Y-87058500D01*
X54464102Y-87058500D01*
X54634890Y-87041679D01*
X54854022Y-86975206D01*
X55055975Y-86867260D01*
X55232988Y-86721988D01*
X55378260Y-86544975D01*
X55486206Y-86343022D01*
X55496193Y-86310100D01*
X56327637Y-86310100D01*
X56336052Y-86352403D01*
X56353920Y-86411308D01*
X56391429Y-86501864D01*
X56420448Y-86556154D01*
X56474904Y-86637653D01*
X56513955Y-86685237D01*
X56583263Y-86754545D01*
X56630847Y-86793596D01*
X56712346Y-86848052D01*
X56766636Y-86877071D01*
X56857192Y-86914580D01*
X56916097Y-86932448D01*
X57012230Y-86951570D01*
X57073491Y-86957604D01*
X57098052Y-86957604D01*
X57122500Y-86960012D01*
X57622500Y-86960012D01*
X57683761Y-86953978D01*
X57742667Y-86936109D01*
X57772500Y-86920163D01*
X57802333Y-86936109D01*
X57861239Y-86953978D01*
X57922500Y-86960012D01*
X58422500Y-86960012D01*
X58446948Y-86957604D01*
X58471509Y-86957604D01*
X58532770Y-86951570D01*
X58628903Y-86932448D01*
X58687808Y-86914580D01*
X58778364Y-86877071D01*
X58832654Y-86848052D01*
X58914153Y-86793596D01*
X58961737Y-86754545D01*
X59031045Y-86685237D01*
X59070096Y-86637653D01*
X59124552Y-86556154D01*
X59153571Y-86501864D01*
X59191080Y-86411308D01*
X59208948Y-86352403D01*
X59217363Y-86310100D01*
X59263473Y-86310100D01*
X59283800Y-86312102D01*
X59304127Y-86310100D01*
X59304138Y-86310100D01*
X59364978Y-86304108D01*
X59443036Y-86280429D01*
X59514974Y-86241977D01*
X59578029Y-86190229D01*
X59590994Y-86174431D01*
X60223600Y-85541825D01*
X63396210Y-88714436D01*
X63396210Y-88714436D01*
G37*
X63396210Y-88714436D02*
X63409171Y-88730229D01*
X63424964Y-88743190D01*
X63424967Y-88743193D01*
X63472225Y-88781977D01*
X63497283Y-88795371D01*
X63544164Y-88820429D01*
X63622222Y-88844108D01*
X63683062Y-88850100D01*
X63683072Y-88850100D01*
X63703399Y-88852102D01*
X63723726Y-88850100D01*
X72520137Y-88850100D01*
X72528552Y-88892403D01*
X72546420Y-88951308D01*
X72583929Y-89041864D01*
X72612948Y-89096154D01*
X72667404Y-89177653D01*
X72706455Y-89225237D01*
X72775763Y-89294545D01*
X72823347Y-89333596D01*
X72904846Y-89388052D01*
X72959136Y-89417071D01*
X73049692Y-89454580D01*
X73108597Y-89472448D01*
X73204730Y-89491570D01*
X73265991Y-89497604D01*
X73290552Y-89497604D01*
X73315000Y-89500012D01*
X73815000Y-89500012D01*
X73876261Y-89493978D01*
X73935167Y-89476109D01*
X73965000Y-89460163D01*
X73994833Y-89476109D01*
X74053739Y-89493978D01*
X74115000Y-89500012D01*
X74615000Y-89500012D01*
X74639448Y-89497604D01*
X74664009Y-89497604D01*
X74725270Y-89491570D01*
X74821403Y-89472448D01*
X74880308Y-89454580D01*
X74970864Y-89417071D01*
X75025154Y-89388052D01*
X75106653Y-89333596D01*
X75154237Y-89294545D01*
X75223545Y-89225237D01*
X75262596Y-89177653D01*
X75317052Y-89096154D01*
X75346071Y-89041864D01*
X75383580Y-88951308D01*
X75401448Y-88892403D01*
X75405884Y-88870100D01*
X76177807Y-88870100D01*
X76187794Y-88903022D01*
X76295740Y-89104975D01*
X76441012Y-89281988D01*
X76618025Y-89427260D01*
X76819978Y-89535206D01*
X77039110Y-89601679D01*
X77209898Y-89618500D01*
X77324102Y-89618500D01*
X77494890Y-89601679D01*
X77714022Y-89535206D01*
X77915975Y-89427260D01*
X78092988Y-89281988D01*
X78238260Y-89104975D01*
X78326501Y-88939888D01*
X78326501Y-89913669D01*
X78291456Y-89884909D01*
X78237167Y-89855891D01*
X78178261Y-89838022D01*
X78117000Y-89831988D01*
X76417000Y-89831988D01*
X76355739Y-89838022D01*
X76296833Y-89855891D01*
X76242544Y-89884909D01*
X76194960Y-89923960D01*
X76155909Y-89971544D01*
X76126891Y-90025833D01*
X76109022Y-90084739D01*
X76102988Y-90146000D01*
X76102988Y-90561900D01*
X75409863Y-90561900D01*
X75401448Y-90519597D01*
X75383580Y-90460692D01*
X75346071Y-90370136D01*
X75317052Y-90315846D01*
X75262596Y-90234347D01*
X75223545Y-90186763D01*
X75154237Y-90117455D01*
X75106653Y-90078404D01*
X75025154Y-90023948D01*
X74970864Y-89994929D01*
X74880308Y-89957420D01*
X74821403Y-89939552D01*
X74725270Y-89920430D01*
X74664009Y-89914396D01*
X74639448Y-89914396D01*
X74615000Y-89911988D01*
X74115000Y-89911988D01*
X74053739Y-89918022D01*
X73994833Y-89935891D01*
X73965000Y-89951837D01*
X73935167Y-89935891D01*
X73876261Y-89918022D01*
X73815000Y-89911988D01*
X73315000Y-89911988D01*
X73290552Y-89914396D01*
X73265991Y-89914396D01*
X73204730Y-89920430D01*
X73108597Y-89939552D01*
X73049692Y-89957420D01*
X72959136Y-89994929D01*
X72904846Y-90023948D01*
X72823347Y-90078404D01*
X72775763Y-90117455D01*
X72706455Y-90186763D01*
X72667404Y-90234347D01*
X72612948Y-90315846D01*
X72583929Y-90370136D01*
X72546420Y-90460692D01*
X72528552Y-90519597D01*
X72509430Y-90615730D01*
X72503396Y-90676991D01*
X72503396Y-90701552D01*
X72500988Y-90726000D01*
X72500988Y-91226000D01*
X72503396Y-91250448D01*
X72503396Y-91275009D01*
X72509430Y-91336270D01*
X72528552Y-91432403D01*
X72546420Y-91491308D01*
X72583929Y-91581864D01*
X72612948Y-91636154D01*
X72667404Y-91717653D01*
X72706455Y-91765237D01*
X72775763Y-91834545D01*
X72823347Y-91873596D01*
X72904846Y-91928052D01*
X72959136Y-91957071D01*
X73049692Y-91994580D01*
X73108597Y-92012448D01*
X73204730Y-92031570D01*
X73265991Y-92037604D01*
X73290552Y-92037604D01*
X73315000Y-92040012D01*
X73815000Y-92040012D01*
X73876261Y-92033978D01*
X73935167Y-92016109D01*
X73965000Y-92000163D01*
X73994833Y-92016109D01*
X74053739Y-92033978D01*
X74115000Y-92040012D01*
X74615000Y-92040012D01*
X74639448Y-92037604D01*
X74664009Y-92037604D01*
X74725270Y-92031570D01*
X74821403Y-92012448D01*
X74880308Y-91994580D01*
X74970864Y-91957071D01*
X75025154Y-91928052D01*
X75106653Y-91873596D01*
X75154237Y-91834545D01*
X75223545Y-91765237D01*
X75262596Y-91717653D01*
X75317052Y-91636154D01*
X75346071Y-91581864D01*
X75383580Y-91491308D01*
X75401448Y-91432403D01*
X75409863Y-91390100D01*
X76102988Y-91390100D01*
X76102988Y-91846000D01*
X76109022Y-91907261D01*
X76126891Y-91966167D01*
X76155909Y-92020456D01*
X76194960Y-92068040D01*
X76242544Y-92107091D01*
X76296833Y-92136109D01*
X76355739Y-92153978D01*
X76417000Y-92160012D01*
X78117000Y-92160012D01*
X78178261Y-92153978D01*
X78237167Y-92136109D01*
X78291456Y-92107091D01*
X78326501Y-92078330D01*
X78326501Y-92461500D01*
X67165482Y-92461500D01*
X67276837Y-92294225D01*
X66267000Y-91284388D01*
X65257163Y-92294225D01*
X65368518Y-92461500D01*
X53346500Y-92461500D01*
X53346500Y-91458019D01*
X53435740Y-91624975D01*
X53581012Y-91801988D01*
X53758025Y-91947260D01*
X53959978Y-92055206D01*
X54179110Y-92121679D01*
X54349898Y-92138500D01*
X54464102Y-92138500D01*
X54634890Y-92121679D01*
X54854022Y-92055206D01*
X55055975Y-91947260D01*
X55232988Y-91801988D01*
X55378260Y-91624975D01*
X55486206Y-91423022D01*
X55552679Y-91203890D01*
X55553371Y-91196860D01*
X64696940Y-91196860D01*
X64727276Y-91503147D01*
X64816782Y-91797630D01*
X64961065Y-92067564D01*
X65168775Y-92205837D01*
X66178612Y-91196000D01*
X66355388Y-91196000D01*
X67365225Y-92205837D01*
X67572935Y-92067564D01*
X67717876Y-91796041D01*
X67807059Y-91501460D01*
X67837060Y-91195140D01*
X67806724Y-90888853D01*
X67717218Y-90594370D01*
X67572935Y-90324436D01*
X67365225Y-90186163D01*
X66355388Y-91196000D01*
X66178612Y-91196000D01*
X65168775Y-90186163D01*
X64961065Y-90324436D01*
X64816124Y-90595959D01*
X64726941Y-90890540D01*
X64696940Y-91196860D01*
X55553371Y-91196860D01*
X55575124Y-90976000D01*
X55552679Y-90748110D01*
X55486206Y-90528978D01*
X55378260Y-90327025D01*
X55232988Y-90150012D01*
X55169338Y-90097775D01*
X65257163Y-90097775D01*
X66267000Y-91107612D01*
X67276837Y-90097775D01*
X67138564Y-89890065D01*
X66867041Y-89745124D01*
X66572460Y-89655941D01*
X66266140Y-89625940D01*
X65959853Y-89656276D01*
X65665370Y-89745782D01*
X65395436Y-89890065D01*
X65257163Y-90097775D01*
X55169338Y-90097775D01*
X55055975Y-90004740D01*
X54854022Y-89896794D01*
X54634890Y-89830321D01*
X54464102Y-89813500D01*
X54349898Y-89813500D01*
X54179110Y-89830321D01*
X53959978Y-89896794D01*
X53758025Y-90004740D01*
X53581012Y-90150012D01*
X53435740Y-90327025D01*
X53346500Y-90493981D01*
X53346500Y-88918019D01*
X53435740Y-89084975D01*
X53581012Y-89261988D01*
X53758025Y-89407260D01*
X53959978Y-89515206D01*
X54179110Y-89581679D01*
X54349898Y-89598500D01*
X54464102Y-89598500D01*
X54634890Y-89581679D01*
X54854022Y-89515206D01*
X55055975Y-89407260D01*
X55232988Y-89261988D01*
X55378260Y-89084975D01*
X55486206Y-88883022D01*
X55552679Y-88663890D01*
X55575124Y-88436000D01*
X55552679Y-88208110D01*
X55486206Y-87988978D01*
X55378260Y-87787025D01*
X55232988Y-87610012D01*
X55055975Y-87464740D01*
X54854022Y-87356794D01*
X54634890Y-87290321D01*
X54464102Y-87273500D01*
X54349898Y-87273500D01*
X54179110Y-87290321D01*
X53959978Y-87356794D01*
X53758025Y-87464740D01*
X53581012Y-87610012D01*
X53435740Y-87787025D01*
X53346500Y-87953981D01*
X53346500Y-86378019D01*
X53435740Y-86544975D01*
X53581012Y-86721988D01*
X53758025Y-86867260D01*
X53959978Y-86975206D01*
X54179110Y-87041679D01*
X54349898Y-87058500D01*
X54464102Y-87058500D01*
X54634890Y-87041679D01*
X54854022Y-86975206D01*
X55055975Y-86867260D01*
X55232988Y-86721988D01*
X55378260Y-86544975D01*
X55486206Y-86343022D01*
X55496193Y-86310100D01*
X56327637Y-86310100D01*
X56336052Y-86352403D01*
X56353920Y-86411308D01*
X56391429Y-86501864D01*
X56420448Y-86556154D01*
X56474904Y-86637653D01*
X56513955Y-86685237D01*
X56583263Y-86754545D01*
X56630847Y-86793596D01*
X56712346Y-86848052D01*
X56766636Y-86877071D01*
X56857192Y-86914580D01*
X56916097Y-86932448D01*
X57012230Y-86951570D01*
X57073491Y-86957604D01*
X57098052Y-86957604D01*
X57122500Y-86960012D01*
X57622500Y-86960012D01*
X57683761Y-86953978D01*
X57742667Y-86936109D01*
X57772500Y-86920163D01*
X57802333Y-86936109D01*
X57861239Y-86953978D01*
X57922500Y-86960012D01*
X58422500Y-86960012D01*
X58446948Y-86957604D01*
X58471509Y-86957604D01*
X58532770Y-86951570D01*
X58628903Y-86932448D01*
X58687808Y-86914580D01*
X58778364Y-86877071D01*
X58832654Y-86848052D01*
X58914153Y-86793596D01*
X58961737Y-86754545D01*
X59031045Y-86685237D01*
X59070096Y-86637653D01*
X59124552Y-86556154D01*
X59153571Y-86501864D01*
X59191080Y-86411308D01*
X59208948Y-86352403D01*
X59217363Y-86310100D01*
X59263473Y-86310100D01*
X59283800Y-86312102D01*
X59304127Y-86310100D01*
X59304138Y-86310100D01*
X59364978Y-86304108D01*
X59443036Y-86280429D01*
X59514974Y-86241977D01*
X59578029Y-86190229D01*
X59590994Y-86174431D01*
X60223600Y-85541825D01*
X63396210Y-88714436D01*
G36*
X76819978Y-72136794D02*
G01*
X76618025Y-72244740D01*
X76441012Y-72390012D01*
X76295740Y-72567025D01*
X76187794Y-72768978D01*
X76121321Y-72988110D01*
X76098876Y-73216000D01*
X76121321Y-73443890D01*
X76187794Y-73663022D01*
X76295740Y-73864975D01*
X76441012Y-74041988D01*
X76618025Y-74187260D01*
X76819978Y-74295206D01*
X77039110Y-74361679D01*
X77209898Y-74378500D01*
X77324102Y-74378500D01*
X77494890Y-74361679D01*
X77714022Y-74295206D01*
X77915975Y-74187260D01*
X78092988Y-74041988D01*
X78238260Y-73864975D01*
X78326500Y-73699889D01*
X78326500Y-75272111D01*
X78238260Y-75107025D01*
X78092988Y-74930012D01*
X77915975Y-74784740D01*
X77714022Y-74676794D01*
X77494890Y-74610321D01*
X77324102Y-74593500D01*
X77209898Y-74593500D01*
X77039110Y-74610321D01*
X76819978Y-74676794D01*
X76618025Y-74784740D01*
X76441012Y-74930012D01*
X76295740Y-75107025D01*
X76187794Y-75308978D01*
X76121321Y-75528110D01*
X76098876Y-75756000D01*
X76121321Y-75983890D01*
X76187794Y-76203022D01*
X76295740Y-76404975D01*
X76441012Y-76581988D01*
X76618025Y-76727260D01*
X76819978Y-76835206D01*
X77039110Y-76901679D01*
X77209898Y-76918500D01*
X77324102Y-76918500D01*
X77494890Y-76901679D01*
X77714022Y-76835206D01*
X77915975Y-76727260D01*
X78092988Y-76581988D01*
X78238260Y-76404975D01*
X78326500Y-76239889D01*
X78326500Y-77812111D01*
X78238260Y-77647025D01*
X78092988Y-77470012D01*
X77915975Y-77324740D01*
X77714022Y-77216794D01*
X77494890Y-77150321D01*
X77324102Y-77133500D01*
X77209898Y-77133500D01*
X77039110Y-77150321D01*
X76819978Y-77216794D01*
X76618025Y-77324740D01*
X76441012Y-77470012D01*
X76295740Y-77647025D01*
X76187794Y-77848978D01*
X76121321Y-78068110D01*
X76098876Y-78296000D01*
X76121321Y-78523890D01*
X76187794Y-78743022D01*
X76295740Y-78944975D01*
X76441012Y-79121988D01*
X76618025Y-79267260D01*
X76819978Y-79375206D01*
X77039110Y-79441679D01*
X77209898Y-79458500D01*
X77324102Y-79458500D01*
X77494890Y-79441679D01*
X77714022Y-79375206D01*
X77915975Y-79267260D01*
X78092988Y-79121988D01*
X78238260Y-78944975D01*
X78326500Y-78779889D01*
X78326500Y-80352111D01*
X78238260Y-80187025D01*
X78092988Y-80010012D01*
X77915975Y-79864740D01*
X77714022Y-79756794D01*
X77494890Y-79690321D01*
X77324102Y-79673500D01*
X77209898Y-79673500D01*
X77039110Y-79690321D01*
X76819978Y-79756794D01*
X76618025Y-79864740D01*
X76441012Y-80010012D01*
X76295740Y-80187025D01*
X76187794Y-80388978D01*
X76121321Y-80608110D01*
X76098876Y-80836000D01*
X76121321Y-81063890D01*
X76187794Y-81283022D01*
X76295740Y-81484975D01*
X76441012Y-81661988D01*
X76618025Y-81807260D01*
X76819978Y-81915206D01*
X77039110Y-81981679D01*
X77209898Y-81998500D01*
X77324102Y-81998500D01*
X77494890Y-81981679D01*
X77714022Y-81915206D01*
X77915975Y-81807260D01*
X78092988Y-81661988D01*
X78238260Y-81484975D01*
X78326500Y-81319889D01*
X78326501Y-82892112D01*
X78238260Y-82727025D01*
X78092988Y-82550012D01*
X77915975Y-82404740D01*
X77714022Y-82296794D01*
X77494890Y-82230321D01*
X77324102Y-82213500D01*
X77209898Y-82213500D01*
X77039110Y-82230321D01*
X76819978Y-82296794D01*
X76618025Y-82404740D01*
X76441012Y-82550012D01*
X76295740Y-82727025D01*
X76187794Y-82928978D01*
X76121321Y-83148110D01*
X76098876Y-83376000D01*
X76121321Y-83603890D01*
X76187794Y-83823022D01*
X76295740Y-84024975D01*
X76441012Y-84201988D01*
X76618025Y-84347260D01*
X76819978Y-84455206D01*
X77039110Y-84521679D01*
X77209898Y-84538500D01*
X77324102Y-84538500D01*
X77494890Y-84521679D01*
X77714022Y-84455206D01*
X77915975Y-84347260D01*
X78092988Y-84201988D01*
X78238260Y-84024975D01*
X78326501Y-83859888D01*
X78326501Y-85432112D01*
X78238260Y-85267025D01*
X78092988Y-85090012D01*
X77915975Y-84944740D01*
X77714022Y-84836794D01*
X77494890Y-84770321D01*
X77324102Y-84753500D01*
X77209898Y-84753500D01*
X77039110Y-84770321D01*
X76819978Y-84836794D01*
X76618025Y-84944740D01*
X76441012Y-85090012D01*
X76295740Y-85267025D01*
X76187794Y-85468978D01*
X76121321Y-85688110D01*
X76098876Y-85916000D01*
X76121321Y-86143890D01*
X76187794Y-86363022D01*
X76295740Y-86564975D01*
X76441012Y-86741988D01*
X76618025Y-86887260D01*
X76819978Y-86995206D01*
X77039110Y-87061679D01*
X77209898Y-87078500D01*
X77324102Y-87078500D01*
X77494890Y-87061679D01*
X77714022Y-86995206D01*
X77915975Y-86887260D01*
X78092988Y-86741988D01*
X78238260Y-86564975D01*
X78326501Y-86399888D01*
X78326501Y-87972112D01*
X78238260Y-87807025D01*
X78092988Y-87630012D01*
X77915975Y-87484740D01*
X77714022Y-87376794D01*
X77494890Y-87310321D01*
X77324102Y-87293500D01*
X77209898Y-87293500D01*
X77039110Y-87310321D01*
X76819978Y-87376794D01*
X76618025Y-87484740D01*
X76441012Y-87630012D01*
X76295740Y-87807025D01*
X76187794Y-88008978D01*
X76177807Y-88041900D01*
X75413841Y-88041900D01*
X75401448Y-87979597D01*
X75383580Y-87920692D01*
X75346071Y-87830136D01*
X75317052Y-87775846D01*
X75262596Y-87694347D01*
X75223545Y-87646763D01*
X75154237Y-87577455D01*
X75106653Y-87538404D01*
X75025154Y-87483948D01*
X74970864Y-87454929D01*
X74880308Y-87417420D01*
X74821403Y-87399552D01*
X74725270Y-87380430D01*
X74664009Y-87374396D01*
X74639448Y-87374396D01*
X74615000Y-87371988D01*
X74115000Y-87371988D01*
X74053739Y-87378022D01*
X73994833Y-87395891D01*
X73965000Y-87411837D01*
X73935167Y-87395891D01*
X73876261Y-87378022D01*
X73815000Y-87371988D01*
X73315000Y-87371988D01*
X73290552Y-87374396D01*
X73265991Y-87374396D01*
X73204730Y-87380430D01*
X73108597Y-87399552D01*
X73049692Y-87417420D01*
X72959136Y-87454929D01*
X72904846Y-87483948D01*
X72823347Y-87538404D01*
X72775763Y-87577455D01*
X72706455Y-87646763D01*
X72667404Y-87694347D01*
X72612948Y-87775846D01*
X72583929Y-87830136D01*
X72546420Y-87920692D01*
X72528552Y-87979597D01*
X72520137Y-88021900D01*
X67214440Y-88021900D01*
X67270504Y-87965836D01*
X67329327Y-87877802D01*
X67369844Y-87779983D01*
X67390500Y-87676139D01*
X67390500Y-87671325D01*
X68432226Y-86629600D01*
X74420960Y-86629600D01*
X74424364Y-86633004D01*
X74512398Y-86691827D01*
X74610217Y-86732344D01*
X74714061Y-86753000D01*
X74819939Y-86753000D01*
X74923783Y-86732344D01*
X75021602Y-86691827D01*
X75109636Y-86633004D01*
X75184504Y-86558136D01*
X75243327Y-86470102D01*
X75283844Y-86372283D01*
X75304500Y-86268439D01*
X75304500Y-86162561D01*
X75283844Y-86058717D01*
X75243327Y-85960898D01*
X75184504Y-85872864D01*
X75109636Y-85797996D01*
X75021602Y-85739173D01*
X74923783Y-85698656D01*
X74819939Y-85678000D01*
X74714061Y-85678000D01*
X74610217Y-85698656D01*
X74512398Y-85739173D01*
X74424364Y-85797996D01*
X74420960Y-85801400D01*
X68281026Y-85801400D01*
X68260699Y-85799398D01*
X68240372Y-85801400D01*
X68240362Y-85801400D01*
X68179522Y-85807392D01*
X68101464Y-85831071D01*
X68054583Y-85856129D01*
X68029525Y-85869523D01*
X67982267Y-85908307D01*
X67982264Y-85908310D01*
X67966471Y-85921271D01*
X67953510Y-85937064D01*
X66804875Y-87085700D01*
X66800061Y-87085700D01*
X66696217Y-87106356D01*
X66598398Y-87146873D01*
X66510364Y-87205696D01*
X66435496Y-87280564D01*
X66376673Y-87368598D01*
X66336156Y-87466417D01*
X66315500Y-87570261D01*
X66315500Y-87676139D01*
X66336156Y-87779983D01*
X66376673Y-87877802D01*
X66435496Y-87965836D01*
X66491560Y-88021900D01*
X63874926Y-88021900D01*
X60761100Y-84908075D01*
X60761100Y-84903261D01*
X60740444Y-84799417D01*
X60699927Y-84701598D01*
X60641104Y-84613564D01*
X60566236Y-84538696D01*
X60478202Y-84479873D01*
X60380383Y-84439356D01*
X60276539Y-84418700D01*
X60170661Y-84418700D01*
X60066817Y-84439356D01*
X59968998Y-84479873D01*
X59880964Y-84538696D01*
X59806096Y-84613564D01*
X59747273Y-84701598D01*
X59706756Y-84799417D01*
X59686100Y-84903261D01*
X59686100Y-84908074D01*
X59196294Y-85397881D01*
X59191080Y-85380692D01*
X59153571Y-85290136D01*
X59124552Y-85235846D01*
X59070096Y-85154347D01*
X59031045Y-85106763D01*
X58961737Y-85037455D01*
X58914153Y-84998404D01*
X58832654Y-84943948D01*
X58778364Y-84914929D01*
X58687808Y-84877420D01*
X58628903Y-84859552D01*
X58532770Y-84840430D01*
X58471509Y-84834396D01*
X58446948Y-84834396D01*
X58422500Y-84831988D01*
X57922500Y-84831988D01*
X57861239Y-84838022D01*
X57802333Y-84855891D01*
X57772500Y-84871837D01*
X57742667Y-84855891D01*
X57683761Y-84838022D01*
X57622500Y-84831988D01*
X57122500Y-84831988D01*
X57098052Y-84834396D01*
X57073491Y-84834396D01*
X57012230Y-84840430D01*
X56916097Y-84859552D01*
X56857192Y-84877420D01*
X56766636Y-84914929D01*
X56712346Y-84943948D01*
X56630847Y-84998404D01*
X56583263Y-85037455D01*
X56513955Y-85106763D01*
X56474904Y-85154347D01*
X56420448Y-85235846D01*
X56391429Y-85290136D01*
X56353920Y-85380692D01*
X56336052Y-85439597D01*
X56327637Y-85481900D01*
X55496193Y-85481900D01*
X55486206Y-85448978D01*
X55378260Y-85247025D01*
X55232988Y-85070012D01*
X55055975Y-84924740D01*
X54854022Y-84816794D01*
X54634890Y-84750321D01*
X54464102Y-84733500D01*
X54349898Y-84733500D01*
X54179110Y-84750321D01*
X53959978Y-84816794D01*
X53758025Y-84924740D01*
X53581012Y-85070012D01*
X53435740Y-85247025D01*
X53346500Y-85413981D01*
X53346500Y-83838019D01*
X53435740Y-84004975D01*
X53581012Y-84181988D01*
X53758025Y-84327260D01*
X53959978Y-84435206D01*
X54179110Y-84501679D01*
X54349898Y-84518500D01*
X54464102Y-84518500D01*
X54634890Y-84501679D01*
X54854022Y-84435206D01*
X55055975Y-84327260D01*
X55232988Y-84181988D01*
X55378260Y-84004975D01*
X55486206Y-83803022D01*
X55552679Y-83583890D01*
X55575124Y-83356000D01*
X55552679Y-83128110D01*
X55486206Y-82908978D01*
X55378260Y-82707025D01*
X55232988Y-82530012D01*
X55055975Y-82384740D01*
X54854022Y-82276794D01*
X54634890Y-82210321D01*
X54464102Y-82193500D01*
X54349898Y-82193500D01*
X54179110Y-82210321D01*
X53959978Y-82276794D01*
X53758025Y-82384740D01*
X53581012Y-82530012D01*
X53435740Y-82707025D01*
X53346500Y-82873981D01*
X53346500Y-81298019D01*
X53435740Y-81464975D01*
X53581012Y-81641988D01*
X53758025Y-81787260D01*
X53959978Y-81895206D01*
X54179110Y-81961679D01*
X54349898Y-81978500D01*
X54464102Y-81978500D01*
X54634890Y-81961679D01*
X54854022Y-81895206D01*
X55055975Y-81787260D01*
X55232988Y-81641988D01*
X55378260Y-81464975D01*
X55486206Y-81263022D01*
X55552679Y-81043890D01*
X55575124Y-80816000D01*
X55552679Y-80588110D01*
X55491692Y-80387061D01*
X57999500Y-80387061D01*
X57999500Y-80492939D01*
X58020156Y-80596783D01*
X58060673Y-80694602D01*
X58119496Y-80782636D01*
X58194364Y-80857504D01*
X58282398Y-80916327D01*
X58380217Y-80956844D01*
X58484061Y-80977500D01*
X58589939Y-80977500D01*
X58693783Y-80956844D01*
X58791602Y-80916327D01*
X58879636Y-80857504D01*
X58883040Y-80854100D01*
X61341273Y-80854100D01*
X61361600Y-80856102D01*
X61381927Y-80854100D01*
X61381938Y-80854100D01*
X61442778Y-80848108D01*
X61520836Y-80824429D01*
X61592774Y-80785977D01*
X61655829Y-80734229D01*
X61668794Y-80718431D01*
X61948126Y-80439100D01*
X61952939Y-80439100D01*
X62056783Y-80418444D01*
X62154602Y-80377927D01*
X62242636Y-80319104D01*
X62317504Y-80244236D01*
X62376327Y-80156202D01*
X62416844Y-80058383D01*
X62437500Y-79954539D01*
X62437500Y-79848661D01*
X62416844Y-79744817D01*
X62376327Y-79646998D01*
X62317504Y-79558964D01*
X62242636Y-79484096D01*
X62154602Y-79425273D01*
X62056783Y-79384756D01*
X61952939Y-79364100D01*
X61847061Y-79364100D01*
X61743217Y-79384756D01*
X61645398Y-79425273D01*
X61557364Y-79484096D01*
X61482496Y-79558964D01*
X61423673Y-79646998D01*
X61383156Y-79744817D01*
X61362500Y-79848661D01*
X61362500Y-79853474D01*
X61190075Y-80025900D01*
X58883040Y-80025900D01*
X58879636Y-80022496D01*
X58791602Y-79963673D01*
X58693783Y-79923156D01*
X58589939Y-79902500D01*
X58484061Y-79902500D01*
X58380217Y-79923156D01*
X58282398Y-79963673D01*
X58194364Y-80022496D01*
X58119496Y-80097364D01*
X58060673Y-80185398D01*
X58020156Y-80283217D01*
X57999500Y-80387061D01*
X55491692Y-80387061D01*
X55486206Y-80368978D01*
X55378260Y-80167025D01*
X55232988Y-79990012D01*
X55055975Y-79844740D01*
X54854022Y-79736794D01*
X54634890Y-79670321D01*
X54464102Y-79653500D01*
X54349898Y-79653500D01*
X54179110Y-79670321D01*
X53959978Y-79736794D01*
X53758025Y-79844740D01*
X53581012Y-79990012D01*
X53435740Y-80167025D01*
X53346500Y-80333981D01*
X53346500Y-78758019D01*
X53435740Y-78924975D01*
X53581012Y-79101988D01*
X53758025Y-79247260D01*
X53959978Y-79355206D01*
X54179110Y-79421679D01*
X54349898Y-79438500D01*
X54464102Y-79438500D01*
X54634890Y-79421679D01*
X54854022Y-79355206D01*
X55055975Y-79247260D01*
X55232988Y-79101988D01*
X55378260Y-78924975D01*
X55486206Y-78723022D01*
X55552679Y-78503890D01*
X55575124Y-78276000D01*
X55552679Y-78048110D01*
X55486206Y-77828978D01*
X55378260Y-77627025D01*
X55232988Y-77450012D01*
X55055975Y-77304740D01*
X54854022Y-77196794D01*
X54634890Y-77130321D01*
X54464102Y-77113500D01*
X54349898Y-77113500D01*
X54179110Y-77130321D01*
X53959978Y-77196794D01*
X53758025Y-77304740D01*
X53581012Y-77450012D01*
X53435740Y-77627025D01*
X53346500Y-77793981D01*
X53346500Y-76203718D01*
X53431139Y-76367751D01*
X53573138Y-76545993D01*
X53747182Y-76693108D01*
X53946583Y-76803441D01*
X54163677Y-76872753D01*
X54344500Y-76818697D01*
X54344500Y-75798500D01*
X54469500Y-75798500D01*
X54469500Y-76818697D01*
X54650323Y-76872753D01*
X54867417Y-76803441D01*
X55066818Y-76693108D01*
X55240862Y-76545993D01*
X55382861Y-76367751D01*
X55487359Y-76165231D01*
X55543750Y-75979323D01*
X55489572Y-75798500D01*
X54469500Y-75798500D01*
X54344500Y-75798500D01*
X54324500Y-75798500D01*
X54324500Y-75673500D01*
X54344500Y-75673500D01*
X54344500Y-74653303D01*
X54469500Y-74653303D01*
X54469500Y-75673500D01*
X55489572Y-75673500D01*
X55543750Y-75492677D01*
X55487359Y-75306769D01*
X55382861Y-75104249D01*
X55240862Y-74926007D01*
X55066818Y-74778892D01*
X54867417Y-74668559D01*
X54650323Y-74599247D01*
X54469500Y-74653303D01*
X54344500Y-74653303D01*
X54163677Y-74599247D01*
X53946583Y-74668559D01*
X53747182Y-74778892D01*
X53573138Y-74926007D01*
X53431139Y-75104249D01*
X53346500Y-75268282D01*
X53346500Y-74277511D01*
X53382544Y-74307091D01*
X53436833Y-74336109D01*
X53495739Y-74353978D01*
X53557000Y-74360012D01*
X55257000Y-74360012D01*
X55318261Y-74353978D01*
X55377167Y-74336109D01*
X55422071Y-74312107D01*
X57924500Y-74312107D01*
X57924500Y-74619893D01*
X57984546Y-74921764D01*
X58102331Y-75206121D01*
X58273327Y-75462036D01*
X58490964Y-75679673D01*
X58746879Y-75850669D01*
X59031236Y-75968454D01*
X59333107Y-76028500D01*
X59640893Y-76028500D01*
X59942764Y-75968454D01*
X60227121Y-75850669D01*
X60483036Y-75679673D01*
X60700673Y-75462036D01*
X60871669Y-75206121D01*
X60989454Y-74921764D01*
X61049500Y-74619893D01*
X61049500Y-74312107D01*
X64655500Y-74312107D01*
X64655500Y-74619893D01*
X64715546Y-74921764D01*
X64833331Y-75206121D01*
X65004327Y-75462036D01*
X65221964Y-75679673D01*
X65477879Y-75850669D01*
X65762236Y-75968454D01*
X66064107Y-76028500D01*
X66371893Y-76028500D01*
X66673764Y-75968454D01*
X66958121Y-75850669D01*
X67214036Y-75679673D01*
X67329484Y-75564225D01*
X71177163Y-75564225D01*
X71315436Y-75771935D01*
X71586959Y-75916876D01*
X71881540Y-76006059D01*
X72187860Y-76036060D01*
X72494147Y-76005724D01*
X72788630Y-75916218D01*
X73058564Y-75771935D01*
X73196837Y-75564225D01*
X72187000Y-74554388D01*
X71177163Y-75564225D01*
X67329484Y-75564225D01*
X67431673Y-75462036D01*
X67602669Y-75206121D01*
X67720454Y-74921764D01*
X67780500Y-74619893D01*
X67780500Y-74466860D01*
X70616940Y-74466860D01*
X70647276Y-74773147D01*
X70736782Y-75067630D01*
X70881065Y-75337564D01*
X71088775Y-75475837D01*
X72098612Y-74466000D01*
X72275388Y-74466000D01*
X73285225Y-75475837D01*
X73492935Y-75337564D01*
X73637876Y-75066041D01*
X73727059Y-74771460D01*
X73757060Y-74465140D01*
X73726724Y-74158853D01*
X73637218Y-73864370D01*
X73492935Y-73594436D01*
X73285225Y-73456163D01*
X72275388Y-74466000D01*
X72098612Y-74466000D01*
X71088775Y-73456163D01*
X70881065Y-73594436D01*
X70736124Y-73865959D01*
X70646941Y-74160540D01*
X70616940Y-74466860D01*
X67780500Y-74466860D01*
X67780500Y-74312107D01*
X67720454Y-74010236D01*
X67602669Y-73725879D01*
X67431673Y-73469964D01*
X67329484Y-73367775D01*
X71177163Y-73367775D01*
X72187000Y-74377612D01*
X73196837Y-73367775D01*
X73058564Y-73160065D01*
X72787041Y-73015124D01*
X72492460Y-72925941D01*
X72186140Y-72895940D01*
X71879853Y-72926276D01*
X71585370Y-73015782D01*
X71315436Y-73160065D01*
X71177163Y-73367775D01*
X67329484Y-73367775D01*
X67214036Y-73252327D01*
X66958121Y-73081331D01*
X66673764Y-72963546D01*
X66371893Y-72903500D01*
X66064107Y-72903500D01*
X65762236Y-72963546D01*
X65477879Y-73081331D01*
X65221964Y-73252327D01*
X65004327Y-73469964D01*
X64833331Y-73725879D01*
X64715546Y-74010236D01*
X64655500Y-74312107D01*
X61049500Y-74312107D01*
X60989454Y-74010236D01*
X60871669Y-73725879D01*
X60700673Y-73469964D01*
X60483036Y-73252327D01*
X60227121Y-73081331D01*
X59942764Y-72963546D01*
X59640893Y-72903500D01*
X59333107Y-72903500D01*
X59031236Y-72963546D01*
X58746879Y-73081331D01*
X58490964Y-73252327D01*
X58273327Y-73469964D01*
X58102331Y-73725879D01*
X57984546Y-74010236D01*
X57924500Y-74312107D01*
X55422071Y-74312107D01*
X55431456Y-74307091D01*
X55479040Y-74268040D01*
X55518091Y-74220456D01*
X55547109Y-74166167D01*
X55564978Y-74107261D01*
X55571012Y-74046000D01*
X55571012Y-72346000D01*
X55564978Y-72284739D01*
X55547109Y-72225833D01*
X55518091Y-72171544D01*
X55489331Y-72136500D01*
X76820947Y-72136500D01*
X76819978Y-72136794D01*
X76819978Y-72136794D01*
G37*
X76819978Y-72136794D02*
X76618025Y-72244740D01*
X76441012Y-72390012D01*
X76295740Y-72567025D01*
X76187794Y-72768978D01*
X76121321Y-72988110D01*
X76098876Y-73216000D01*
X76121321Y-73443890D01*
X76187794Y-73663022D01*
X76295740Y-73864975D01*
X76441012Y-74041988D01*
X76618025Y-74187260D01*
X76819978Y-74295206D01*
X77039110Y-74361679D01*
X77209898Y-74378500D01*
X77324102Y-74378500D01*
X77494890Y-74361679D01*
X77714022Y-74295206D01*
X77915975Y-74187260D01*
X78092988Y-74041988D01*
X78238260Y-73864975D01*
X78326500Y-73699889D01*
X78326500Y-75272111D01*
X78238260Y-75107025D01*
X78092988Y-74930012D01*
X77915975Y-74784740D01*
X77714022Y-74676794D01*
X77494890Y-74610321D01*
X77324102Y-74593500D01*
X77209898Y-74593500D01*
X77039110Y-74610321D01*
X76819978Y-74676794D01*
X76618025Y-74784740D01*
X76441012Y-74930012D01*
X76295740Y-75107025D01*
X76187794Y-75308978D01*
X76121321Y-75528110D01*
X76098876Y-75756000D01*
X76121321Y-75983890D01*
X76187794Y-76203022D01*
X76295740Y-76404975D01*
X76441012Y-76581988D01*
X76618025Y-76727260D01*
X76819978Y-76835206D01*
X77039110Y-76901679D01*
X77209898Y-76918500D01*
X77324102Y-76918500D01*
X77494890Y-76901679D01*
X77714022Y-76835206D01*
X77915975Y-76727260D01*
X78092988Y-76581988D01*
X78238260Y-76404975D01*
X78326500Y-76239889D01*
X78326500Y-77812111D01*
X78238260Y-77647025D01*
X78092988Y-77470012D01*
X77915975Y-77324740D01*
X77714022Y-77216794D01*
X77494890Y-77150321D01*
X77324102Y-77133500D01*
X77209898Y-77133500D01*
X77039110Y-77150321D01*
X76819978Y-77216794D01*
X76618025Y-77324740D01*
X76441012Y-77470012D01*
X76295740Y-77647025D01*
X76187794Y-77848978D01*
X76121321Y-78068110D01*
X76098876Y-78296000D01*
X76121321Y-78523890D01*
X76187794Y-78743022D01*
X76295740Y-78944975D01*
X76441012Y-79121988D01*
X76618025Y-79267260D01*
X76819978Y-79375206D01*
X77039110Y-79441679D01*
X77209898Y-79458500D01*
X77324102Y-79458500D01*
X77494890Y-79441679D01*
X77714022Y-79375206D01*
X77915975Y-79267260D01*
X78092988Y-79121988D01*
X78238260Y-78944975D01*
X78326500Y-78779889D01*
X78326500Y-80352111D01*
X78238260Y-80187025D01*
X78092988Y-80010012D01*
X77915975Y-79864740D01*
X77714022Y-79756794D01*
X77494890Y-79690321D01*
X77324102Y-79673500D01*
X77209898Y-79673500D01*
X77039110Y-79690321D01*
X76819978Y-79756794D01*
X76618025Y-79864740D01*
X76441012Y-80010012D01*
X76295740Y-80187025D01*
X76187794Y-80388978D01*
X76121321Y-80608110D01*
X76098876Y-80836000D01*
X76121321Y-81063890D01*
X76187794Y-81283022D01*
X76295740Y-81484975D01*
X76441012Y-81661988D01*
X76618025Y-81807260D01*
X76819978Y-81915206D01*
X77039110Y-81981679D01*
X77209898Y-81998500D01*
X77324102Y-81998500D01*
X77494890Y-81981679D01*
X77714022Y-81915206D01*
X77915975Y-81807260D01*
X78092988Y-81661988D01*
X78238260Y-81484975D01*
X78326500Y-81319889D01*
X78326501Y-82892112D01*
X78238260Y-82727025D01*
X78092988Y-82550012D01*
X77915975Y-82404740D01*
X77714022Y-82296794D01*
X77494890Y-82230321D01*
X77324102Y-82213500D01*
X77209898Y-82213500D01*
X77039110Y-82230321D01*
X76819978Y-82296794D01*
X76618025Y-82404740D01*
X76441012Y-82550012D01*
X76295740Y-82727025D01*
X76187794Y-82928978D01*
X76121321Y-83148110D01*
X76098876Y-83376000D01*
X76121321Y-83603890D01*
X76187794Y-83823022D01*
X76295740Y-84024975D01*
X76441012Y-84201988D01*
X76618025Y-84347260D01*
X76819978Y-84455206D01*
X77039110Y-84521679D01*
X77209898Y-84538500D01*
X77324102Y-84538500D01*
X77494890Y-84521679D01*
X77714022Y-84455206D01*
X77915975Y-84347260D01*
X78092988Y-84201988D01*
X78238260Y-84024975D01*
X78326501Y-83859888D01*
X78326501Y-85432112D01*
X78238260Y-85267025D01*
X78092988Y-85090012D01*
X77915975Y-84944740D01*
X77714022Y-84836794D01*
X77494890Y-84770321D01*
X77324102Y-84753500D01*
X77209898Y-84753500D01*
X77039110Y-84770321D01*
X76819978Y-84836794D01*
X76618025Y-84944740D01*
X76441012Y-85090012D01*
X76295740Y-85267025D01*
X76187794Y-85468978D01*
X76121321Y-85688110D01*
X76098876Y-85916000D01*
X76121321Y-86143890D01*
X76187794Y-86363022D01*
X76295740Y-86564975D01*
X76441012Y-86741988D01*
X76618025Y-86887260D01*
X76819978Y-86995206D01*
X77039110Y-87061679D01*
X77209898Y-87078500D01*
X77324102Y-87078500D01*
X77494890Y-87061679D01*
X77714022Y-86995206D01*
X77915975Y-86887260D01*
X78092988Y-86741988D01*
X78238260Y-86564975D01*
X78326501Y-86399888D01*
X78326501Y-87972112D01*
X78238260Y-87807025D01*
X78092988Y-87630012D01*
X77915975Y-87484740D01*
X77714022Y-87376794D01*
X77494890Y-87310321D01*
X77324102Y-87293500D01*
X77209898Y-87293500D01*
X77039110Y-87310321D01*
X76819978Y-87376794D01*
X76618025Y-87484740D01*
X76441012Y-87630012D01*
X76295740Y-87807025D01*
X76187794Y-88008978D01*
X76177807Y-88041900D01*
X75413841Y-88041900D01*
X75401448Y-87979597D01*
X75383580Y-87920692D01*
X75346071Y-87830136D01*
X75317052Y-87775846D01*
X75262596Y-87694347D01*
X75223545Y-87646763D01*
X75154237Y-87577455D01*
X75106653Y-87538404D01*
X75025154Y-87483948D01*
X74970864Y-87454929D01*
X74880308Y-87417420D01*
X74821403Y-87399552D01*
X74725270Y-87380430D01*
X74664009Y-87374396D01*
X74639448Y-87374396D01*
X74615000Y-87371988D01*
X74115000Y-87371988D01*
X74053739Y-87378022D01*
X73994833Y-87395891D01*
X73965000Y-87411837D01*
X73935167Y-87395891D01*
X73876261Y-87378022D01*
X73815000Y-87371988D01*
X73315000Y-87371988D01*
X73290552Y-87374396D01*
X73265991Y-87374396D01*
X73204730Y-87380430D01*
X73108597Y-87399552D01*
X73049692Y-87417420D01*
X72959136Y-87454929D01*
X72904846Y-87483948D01*
X72823347Y-87538404D01*
X72775763Y-87577455D01*
X72706455Y-87646763D01*
X72667404Y-87694347D01*
X72612948Y-87775846D01*
X72583929Y-87830136D01*
X72546420Y-87920692D01*
X72528552Y-87979597D01*
X72520137Y-88021900D01*
X67214440Y-88021900D01*
X67270504Y-87965836D01*
X67329327Y-87877802D01*
X67369844Y-87779983D01*
X67390500Y-87676139D01*
X67390500Y-87671325D01*
X68432226Y-86629600D01*
X74420960Y-86629600D01*
X74424364Y-86633004D01*
X74512398Y-86691827D01*
X74610217Y-86732344D01*
X74714061Y-86753000D01*
X74819939Y-86753000D01*
X74923783Y-86732344D01*
X75021602Y-86691827D01*
X75109636Y-86633004D01*
X75184504Y-86558136D01*
X75243327Y-86470102D01*
X75283844Y-86372283D01*
X75304500Y-86268439D01*
X75304500Y-86162561D01*
X75283844Y-86058717D01*
X75243327Y-85960898D01*
X75184504Y-85872864D01*
X75109636Y-85797996D01*
X75021602Y-85739173D01*
X74923783Y-85698656D01*
X74819939Y-85678000D01*
X74714061Y-85678000D01*
X74610217Y-85698656D01*
X74512398Y-85739173D01*
X74424364Y-85797996D01*
X74420960Y-85801400D01*
X68281026Y-85801400D01*
X68260699Y-85799398D01*
X68240372Y-85801400D01*
X68240362Y-85801400D01*
X68179522Y-85807392D01*
X68101464Y-85831071D01*
X68054583Y-85856129D01*
X68029525Y-85869523D01*
X67982267Y-85908307D01*
X67982264Y-85908310D01*
X67966471Y-85921271D01*
X67953510Y-85937064D01*
X66804875Y-87085700D01*
X66800061Y-87085700D01*
X66696217Y-87106356D01*
X66598398Y-87146873D01*
X66510364Y-87205696D01*
X66435496Y-87280564D01*
X66376673Y-87368598D01*
X66336156Y-87466417D01*
X66315500Y-87570261D01*
X66315500Y-87676139D01*
X66336156Y-87779983D01*
X66376673Y-87877802D01*
X66435496Y-87965836D01*
X66491560Y-88021900D01*
X63874926Y-88021900D01*
X60761100Y-84908075D01*
X60761100Y-84903261D01*
X60740444Y-84799417D01*
X60699927Y-84701598D01*
X60641104Y-84613564D01*
X60566236Y-84538696D01*
X60478202Y-84479873D01*
X60380383Y-84439356D01*
X60276539Y-84418700D01*
X60170661Y-84418700D01*
X60066817Y-84439356D01*
X59968998Y-84479873D01*
X59880964Y-84538696D01*
X59806096Y-84613564D01*
X59747273Y-84701598D01*
X59706756Y-84799417D01*
X59686100Y-84903261D01*
X59686100Y-84908074D01*
X59196294Y-85397881D01*
X59191080Y-85380692D01*
X59153571Y-85290136D01*
X59124552Y-85235846D01*
X59070096Y-85154347D01*
X59031045Y-85106763D01*
X58961737Y-85037455D01*
X58914153Y-84998404D01*
X58832654Y-84943948D01*
X58778364Y-84914929D01*
X58687808Y-84877420D01*
X58628903Y-84859552D01*
X58532770Y-84840430D01*
X58471509Y-84834396D01*
X58446948Y-84834396D01*
X58422500Y-84831988D01*
X57922500Y-84831988D01*
X57861239Y-84838022D01*
X57802333Y-84855891D01*
X57772500Y-84871837D01*
X57742667Y-84855891D01*
X57683761Y-84838022D01*
X57622500Y-84831988D01*
X57122500Y-84831988D01*
X57098052Y-84834396D01*
X57073491Y-84834396D01*
X57012230Y-84840430D01*
X56916097Y-84859552D01*
X56857192Y-84877420D01*
X56766636Y-84914929D01*
X56712346Y-84943948D01*
X56630847Y-84998404D01*
X56583263Y-85037455D01*
X56513955Y-85106763D01*
X56474904Y-85154347D01*
X56420448Y-85235846D01*
X56391429Y-85290136D01*
X56353920Y-85380692D01*
X56336052Y-85439597D01*
X56327637Y-85481900D01*
X55496193Y-85481900D01*
X55486206Y-85448978D01*
X55378260Y-85247025D01*
X55232988Y-85070012D01*
X55055975Y-84924740D01*
X54854022Y-84816794D01*
X54634890Y-84750321D01*
X54464102Y-84733500D01*
X54349898Y-84733500D01*
X54179110Y-84750321D01*
X53959978Y-84816794D01*
X53758025Y-84924740D01*
X53581012Y-85070012D01*
X53435740Y-85247025D01*
X53346500Y-85413981D01*
X53346500Y-83838019D01*
X53435740Y-84004975D01*
X53581012Y-84181988D01*
X53758025Y-84327260D01*
X53959978Y-84435206D01*
X54179110Y-84501679D01*
X54349898Y-84518500D01*
X54464102Y-84518500D01*
X54634890Y-84501679D01*
X54854022Y-84435206D01*
X55055975Y-84327260D01*
X55232988Y-84181988D01*
X55378260Y-84004975D01*
X55486206Y-83803022D01*
X55552679Y-83583890D01*
X55575124Y-83356000D01*
X55552679Y-83128110D01*
X55486206Y-82908978D01*
X55378260Y-82707025D01*
X55232988Y-82530012D01*
X55055975Y-82384740D01*
X54854022Y-82276794D01*
X54634890Y-82210321D01*
X54464102Y-82193500D01*
X54349898Y-82193500D01*
X54179110Y-82210321D01*
X53959978Y-82276794D01*
X53758025Y-82384740D01*
X53581012Y-82530012D01*
X53435740Y-82707025D01*
X53346500Y-82873981D01*
X53346500Y-81298019D01*
X53435740Y-81464975D01*
X53581012Y-81641988D01*
X53758025Y-81787260D01*
X53959978Y-81895206D01*
X54179110Y-81961679D01*
X54349898Y-81978500D01*
X54464102Y-81978500D01*
X54634890Y-81961679D01*
X54854022Y-81895206D01*
X55055975Y-81787260D01*
X55232988Y-81641988D01*
X55378260Y-81464975D01*
X55486206Y-81263022D01*
X55552679Y-81043890D01*
X55575124Y-80816000D01*
X55552679Y-80588110D01*
X55491692Y-80387061D01*
X57999500Y-80387061D01*
X57999500Y-80492939D01*
X58020156Y-80596783D01*
X58060673Y-80694602D01*
X58119496Y-80782636D01*
X58194364Y-80857504D01*
X58282398Y-80916327D01*
X58380217Y-80956844D01*
X58484061Y-80977500D01*
X58589939Y-80977500D01*
X58693783Y-80956844D01*
X58791602Y-80916327D01*
X58879636Y-80857504D01*
X58883040Y-80854100D01*
X61341273Y-80854100D01*
X61361600Y-80856102D01*
X61381927Y-80854100D01*
X61381938Y-80854100D01*
X61442778Y-80848108D01*
X61520836Y-80824429D01*
X61592774Y-80785977D01*
X61655829Y-80734229D01*
X61668794Y-80718431D01*
X61948126Y-80439100D01*
X61952939Y-80439100D01*
X62056783Y-80418444D01*
X62154602Y-80377927D01*
X62242636Y-80319104D01*
X62317504Y-80244236D01*
X62376327Y-80156202D01*
X62416844Y-80058383D01*
X62437500Y-79954539D01*
X62437500Y-79848661D01*
X62416844Y-79744817D01*
X62376327Y-79646998D01*
X62317504Y-79558964D01*
X62242636Y-79484096D01*
X62154602Y-79425273D01*
X62056783Y-79384756D01*
X61952939Y-79364100D01*
X61847061Y-79364100D01*
X61743217Y-79384756D01*
X61645398Y-79425273D01*
X61557364Y-79484096D01*
X61482496Y-79558964D01*
X61423673Y-79646998D01*
X61383156Y-79744817D01*
X61362500Y-79848661D01*
X61362500Y-79853474D01*
X61190075Y-80025900D01*
X58883040Y-80025900D01*
X58879636Y-80022496D01*
X58791602Y-79963673D01*
X58693783Y-79923156D01*
X58589939Y-79902500D01*
X58484061Y-79902500D01*
X58380217Y-79923156D01*
X58282398Y-79963673D01*
X58194364Y-80022496D01*
X58119496Y-80097364D01*
X58060673Y-80185398D01*
X58020156Y-80283217D01*
X57999500Y-80387061D01*
X55491692Y-80387061D01*
X55486206Y-80368978D01*
X55378260Y-80167025D01*
X55232988Y-79990012D01*
X55055975Y-79844740D01*
X54854022Y-79736794D01*
X54634890Y-79670321D01*
X54464102Y-79653500D01*
X54349898Y-79653500D01*
X54179110Y-79670321D01*
X53959978Y-79736794D01*
X53758025Y-79844740D01*
X53581012Y-79990012D01*
X53435740Y-80167025D01*
X53346500Y-80333981D01*
X53346500Y-78758019D01*
X53435740Y-78924975D01*
X53581012Y-79101988D01*
X53758025Y-79247260D01*
X53959978Y-79355206D01*
X54179110Y-79421679D01*
X54349898Y-79438500D01*
X54464102Y-79438500D01*
X54634890Y-79421679D01*
X54854022Y-79355206D01*
X55055975Y-79247260D01*
X55232988Y-79101988D01*
X55378260Y-78924975D01*
X55486206Y-78723022D01*
X55552679Y-78503890D01*
X55575124Y-78276000D01*
X55552679Y-78048110D01*
X55486206Y-77828978D01*
X55378260Y-77627025D01*
X55232988Y-77450012D01*
X55055975Y-77304740D01*
X54854022Y-77196794D01*
X54634890Y-77130321D01*
X54464102Y-77113500D01*
X54349898Y-77113500D01*
X54179110Y-77130321D01*
X53959978Y-77196794D01*
X53758025Y-77304740D01*
X53581012Y-77450012D01*
X53435740Y-77627025D01*
X53346500Y-77793981D01*
X53346500Y-76203718D01*
X53431139Y-76367751D01*
X53573138Y-76545993D01*
X53747182Y-76693108D01*
X53946583Y-76803441D01*
X54163677Y-76872753D01*
X54344500Y-76818697D01*
X54344500Y-75798500D01*
X54469500Y-75798500D01*
X54469500Y-76818697D01*
X54650323Y-76872753D01*
X54867417Y-76803441D01*
X55066818Y-76693108D01*
X55240862Y-76545993D01*
X55382861Y-76367751D01*
X55487359Y-76165231D01*
X55543750Y-75979323D01*
X55489572Y-75798500D01*
X54469500Y-75798500D01*
X54344500Y-75798500D01*
X54324500Y-75798500D01*
X54324500Y-75673500D01*
X54344500Y-75673500D01*
X54344500Y-74653303D01*
X54469500Y-74653303D01*
X54469500Y-75673500D01*
X55489572Y-75673500D01*
X55543750Y-75492677D01*
X55487359Y-75306769D01*
X55382861Y-75104249D01*
X55240862Y-74926007D01*
X55066818Y-74778892D01*
X54867417Y-74668559D01*
X54650323Y-74599247D01*
X54469500Y-74653303D01*
X54344500Y-74653303D01*
X54163677Y-74599247D01*
X53946583Y-74668559D01*
X53747182Y-74778892D01*
X53573138Y-74926007D01*
X53431139Y-75104249D01*
X53346500Y-75268282D01*
X53346500Y-74277511D01*
X53382544Y-74307091D01*
X53436833Y-74336109D01*
X53495739Y-74353978D01*
X53557000Y-74360012D01*
X55257000Y-74360012D01*
X55318261Y-74353978D01*
X55377167Y-74336109D01*
X55422071Y-74312107D01*
X57924500Y-74312107D01*
X57924500Y-74619893D01*
X57984546Y-74921764D01*
X58102331Y-75206121D01*
X58273327Y-75462036D01*
X58490964Y-75679673D01*
X58746879Y-75850669D01*
X59031236Y-75968454D01*
X59333107Y-76028500D01*
X59640893Y-76028500D01*
X59942764Y-75968454D01*
X60227121Y-75850669D01*
X60483036Y-75679673D01*
X60700673Y-75462036D01*
X60871669Y-75206121D01*
X60989454Y-74921764D01*
X61049500Y-74619893D01*
X61049500Y-74312107D01*
X64655500Y-74312107D01*
X64655500Y-74619893D01*
X64715546Y-74921764D01*
X64833331Y-75206121D01*
X65004327Y-75462036D01*
X65221964Y-75679673D01*
X65477879Y-75850669D01*
X65762236Y-75968454D01*
X66064107Y-76028500D01*
X66371893Y-76028500D01*
X66673764Y-75968454D01*
X66958121Y-75850669D01*
X67214036Y-75679673D01*
X67329484Y-75564225D01*
X71177163Y-75564225D01*
X71315436Y-75771935D01*
X71586959Y-75916876D01*
X71881540Y-76006059D01*
X72187860Y-76036060D01*
X72494147Y-76005724D01*
X72788630Y-75916218D01*
X73058564Y-75771935D01*
X73196837Y-75564225D01*
X72187000Y-74554388D01*
X71177163Y-75564225D01*
X67329484Y-75564225D01*
X67431673Y-75462036D01*
X67602669Y-75206121D01*
X67720454Y-74921764D01*
X67780500Y-74619893D01*
X67780500Y-74466860D01*
X70616940Y-74466860D01*
X70647276Y-74773147D01*
X70736782Y-75067630D01*
X70881065Y-75337564D01*
X71088775Y-75475837D01*
X72098612Y-74466000D01*
X72275388Y-74466000D01*
X73285225Y-75475837D01*
X73492935Y-75337564D01*
X73637876Y-75066041D01*
X73727059Y-74771460D01*
X73757060Y-74465140D01*
X73726724Y-74158853D01*
X73637218Y-73864370D01*
X73492935Y-73594436D01*
X73285225Y-73456163D01*
X72275388Y-74466000D01*
X72098612Y-74466000D01*
X71088775Y-73456163D01*
X70881065Y-73594436D01*
X70736124Y-73865959D01*
X70646941Y-74160540D01*
X70616940Y-74466860D01*
X67780500Y-74466860D01*
X67780500Y-74312107D01*
X67720454Y-74010236D01*
X67602669Y-73725879D01*
X67431673Y-73469964D01*
X67329484Y-73367775D01*
X71177163Y-73367775D01*
X72187000Y-74377612D01*
X73196837Y-73367775D01*
X73058564Y-73160065D01*
X72787041Y-73015124D01*
X72492460Y-72925941D01*
X72186140Y-72895940D01*
X71879853Y-72926276D01*
X71585370Y-73015782D01*
X71315436Y-73160065D01*
X71177163Y-73367775D01*
X67329484Y-73367775D01*
X67214036Y-73252327D01*
X66958121Y-73081331D01*
X66673764Y-72963546D01*
X66371893Y-72903500D01*
X66064107Y-72903500D01*
X65762236Y-72963546D01*
X65477879Y-73081331D01*
X65221964Y-73252327D01*
X65004327Y-73469964D01*
X64833331Y-73725879D01*
X64715546Y-74010236D01*
X64655500Y-74312107D01*
X61049500Y-74312107D01*
X60989454Y-74010236D01*
X60871669Y-73725879D01*
X60700673Y-73469964D01*
X60483036Y-73252327D01*
X60227121Y-73081331D01*
X59942764Y-72963546D01*
X59640893Y-72903500D01*
X59333107Y-72903500D01*
X59031236Y-72963546D01*
X58746879Y-73081331D01*
X58490964Y-73252327D01*
X58273327Y-73469964D01*
X58102331Y-73725879D01*
X57984546Y-74010236D01*
X57924500Y-74312107D01*
X55422071Y-74312107D01*
X55431456Y-74307091D01*
X55479040Y-74268040D01*
X55518091Y-74220456D01*
X55547109Y-74166167D01*
X55564978Y-74107261D01*
X55571012Y-74046000D01*
X55571012Y-72346000D01*
X55564978Y-72284739D01*
X55547109Y-72225833D01*
X55518091Y-72171544D01*
X55489331Y-72136500D01*
X76820947Y-72136500D01*
X76819978Y-72136794D01*
M02*
