M48
; DRILL file {KiCad (5.1.2)-2} date 08/28/19 15:45:01
; FORMAT={2:4/ absolute / inch / suppress leading zeros}
; #@! TF.CreationDate,2019-08-28T15:45:01+02:00
; #@! TF.GenerationSoftware,Kicad,Pcbnew,(5.1.2)-2
FMAT,2
INCH,TZ
T1C0.0079
T2C0.0394
T3C0.0472
%
G90
G05
T1
X22320Y-28617
X22320Y-29317
X22320Y-30217
X22320Y-31017
X22470Y-35267
X22470Y-35717
X22470Y-36167
X22880Y-34367
X23046Y-31669
X23320Y-35267
X23320Y-35717
X23320Y-36167
X23710Y-33447
X23760Y-34367
X24220Y-32017
X24220Y-32817
X24220Y-35267
X24220Y-35717
X24220Y-36167
X24370Y-31457
X24720Y-32017
X24720Y-32817
X24970Y-35717
X24970Y-36167
X25270Y-35117
X25520Y-35117
X25720Y-33567
X25770Y-35117
X26320Y-34497
X27020Y-36167
X27320Y-28917
X27320Y-29717
X27320Y-30417
X27320Y-31217
X27520Y-35217
X27920Y-33317
X28030Y-35217
X28120Y-30417
X28120Y-31217
X28720Y-33317
X28864Y-35817
X28920Y-30417
X28920Y-31217
X29436Y-33943
X29620Y-33317
T2
X21420Y-28817
X21420Y-29817
X21420Y-30817
X21420Y-31817
X21420Y-32817
X21420Y-33817
X21420Y-34817
X21420Y-35817
X30420Y-28825
X30420Y-29825
X30420Y-30825
X30420Y-31825
X30420Y-32825
X30420Y-33825
X30420Y-34825
X30420Y-35825
T3
X26070Y-29317
X23420Y-29317
X28420Y-29317
X26089Y-35904
T0
M30
