G04 #@! TF.GenerationSoftware,KiCad,Pcbnew,(5.1.2)-2*
G04 #@! TF.CreationDate,2019-08-28T15:44:57+02:00*
G04 #@! TF.ProjectId,esp_pmc,6573705f-706d-4632-9e6b-696361645f70,0.0.1*
G04 #@! TF.SameCoordinates,Original*
G04 #@! TF.FileFunction,Soldermask,Bot*
G04 #@! TF.FilePolarity,Negative*
%FSLAX46Y46*%
G04 Gerber Fmt 4.6, Leading zero omitted, Abs format (unit mm)*
G04 Created by KiCad (PCBNEW (5.1.2)-2) date 2019-08-28 15:44:57*
%MOMM*%
%LPD*%
G04 APERTURE LIST*
%ADD10C,0.100000*%
G04 APERTURE END LIST*
D10*
G36*
X66646487Y-89944996D02*
G01*
X66883253Y-90043068D01*
X66883255Y-90043069D01*
X67096339Y-90185447D01*
X67277553Y-90366661D01*
X67347064Y-90470691D01*
X67419932Y-90579747D01*
X67518004Y-90816513D01*
X67568000Y-91067861D01*
X67568000Y-91324139D01*
X67518004Y-91575487D01*
X67434432Y-91777247D01*
X67419931Y-91812255D01*
X67277553Y-92025339D01*
X67096339Y-92206553D01*
X66883255Y-92348931D01*
X66883254Y-92348932D01*
X66883253Y-92348932D01*
X66646487Y-92447004D01*
X66395139Y-92497000D01*
X66138861Y-92497000D01*
X65887513Y-92447004D01*
X65650747Y-92348932D01*
X65650746Y-92348932D01*
X65650745Y-92348931D01*
X65437661Y-92206553D01*
X65256447Y-92025339D01*
X65114069Y-91812255D01*
X65099568Y-91777247D01*
X65015996Y-91575487D01*
X64966000Y-91324139D01*
X64966000Y-91067861D01*
X65015996Y-90816513D01*
X65114068Y-90579747D01*
X65186937Y-90470691D01*
X65256447Y-90366661D01*
X65437661Y-90185447D01*
X65650745Y-90043069D01*
X65650747Y-90043068D01*
X65887513Y-89944996D01*
X66138861Y-89895000D01*
X66395139Y-89895000D01*
X66646487Y-89944996D01*
X66646487Y-89944996D01*
G37*
G36*
X78168000Y-91897000D02*
G01*
X76366000Y-91897000D01*
X76366000Y-90095000D01*
X78168000Y-90095000D01*
X78168000Y-91897000D01*
X78168000Y-91897000D01*
G37*
G36*
X54517442Y-90081518D02*
G01*
X54583627Y-90088037D01*
X54753466Y-90139557D01*
X54753468Y-90139558D01*
X54821155Y-90175738D01*
X54909991Y-90223222D01*
X54945729Y-90252552D01*
X55047186Y-90335814D01*
X55130448Y-90437271D01*
X55159778Y-90473009D01*
X55243443Y-90629534D01*
X55294963Y-90799373D01*
X55312359Y-90976000D01*
X55294963Y-91152627D01*
X55243443Y-91322466D01*
X55159778Y-91478991D01*
X55130448Y-91514729D01*
X55047186Y-91616186D01*
X54951967Y-91694329D01*
X54909991Y-91728778D01*
X54909989Y-91728779D01*
X54753822Y-91812253D01*
X54753466Y-91812443D01*
X54583627Y-91863963D01*
X54517443Y-91870481D01*
X54451260Y-91877000D01*
X54362740Y-91877000D01*
X54296557Y-91870481D01*
X54230373Y-91863963D01*
X54060534Y-91812443D01*
X54060179Y-91812253D01*
X53904011Y-91728779D01*
X53904009Y-91728778D01*
X53862033Y-91694329D01*
X53766814Y-91616186D01*
X53683552Y-91514729D01*
X53654222Y-91478991D01*
X53570557Y-91322466D01*
X53519037Y-91152627D01*
X53501641Y-90976000D01*
X53519037Y-90799373D01*
X53570557Y-90629534D01*
X53654222Y-90473009D01*
X53683552Y-90437271D01*
X53766814Y-90335814D01*
X53868271Y-90252552D01*
X53904009Y-90223222D01*
X53992845Y-90175738D01*
X54060532Y-90139558D01*
X54060534Y-90139557D01*
X54230373Y-90088037D01*
X54296558Y-90081518D01*
X54362740Y-90075000D01*
X54451260Y-90075000D01*
X54517442Y-90081518D01*
X54517442Y-90081518D01*
G37*
G36*
X73824999Y-90175737D02*
G01*
X73834608Y-90178652D01*
X73843472Y-90183390D01*
X73851237Y-90189763D01*
X73861448Y-90202206D01*
X73868378Y-90212575D01*
X73885705Y-90229902D01*
X73906080Y-90243515D01*
X73928720Y-90252891D01*
X73952753Y-90257671D01*
X73977257Y-90257670D01*
X74001290Y-90252888D01*
X74023929Y-90243510D01*
X74044302Y-90229895D01*
X74061629Y-90212568D01*
X74068558Y-90202198D01*
X74078763Y-90189763D01*
X74086528Y-90183390D01*
X74095392Y-90178652D01*
X74105001Y-90175737D01*
X74121140Y-90174148D01*
X74608861Y-90174148D01*
X74627199Y-90175954D01*
X74639450Y-90176556D01*
X74657869Y-90176556D01*
X74680149Y-90178750D01*
X74764233Y-90195476D01*
X74785660Y-90201976D01*
X74864858Y-90234780D01*
X74870303Y-90237691D01*
X74870309Y-90237693D01*
X74879169Y-90242429D01*
X74879173Y-90242432D01*
X74884614Y-90245340D01*
X74955899Y-90292971D01*
X74973204Y-90307172D01*
X75033828Y-90367796D01*
X75048029Y-90385101D01*
X75095660Y-90456386D01*
X75098568Y-90461827D01*
X75098571Y-90461831D01*
X75103307Y-90470691D01*
X75103309Y-90470697D01*
X75106220Y-90476142D01*
X75139024Y-90555340D01*
X75145524Y-90576767D01*
X75162250Y-90660851D01*
X75164444Y-90683131D01*
X75164444Y-90701550D01*
X75165046Y-90713801D01*
X75166852Y-90732139D01*
X75166852Y-91219862D01*
X75165046Y-91238199D01*
X75164444Y-91250450D01*
X75164444Y-91268869D01*
X75162250Y-91291149D01*
X75145524Y-91375233D01*
X75139024Y-91396660D01*
X75106220Y-91475858D01*
X75103309Y-91481303D01*
X75103307Y-91481309D01*
X75098571Y-91490169D01*
X75098568Y-91490173D01*
X75095660Y-91495614D01*
X75048029Y-91566899D01*
X75033828Y-91584204D01*
X74973204Y-91644828D01*
X74955899Y-91659029D01*
X74884614Y-91706660D01*
X74879173Y-91709568D01*
X74879169Y-91709571D01*
X74870309Y-91714307D01*
X74870303Y-91714309D01*
X74864858Y-91717220D01*
X74785660Y-91750024D01*
X74764233Y-91756524D01*
X74680149Y-91773250D01*
X74657869Y-91775444D01*
X74639450Y-91775444D01*
X74627199Y-91776046D01*
X74608862Y-91777852D01*
X74121140Y-91777852D01*
X74105001Y-91776263D01*
X74095392Y-91773348D01*
X74086528Y-91768610D01*
X74078763Y-91762237D01*
X74068552Y-91749794D01*
X74061622Y-91739425D01*
X74044295Y-91722098D01*
X74023920Y-91708485D01*
X74001280Y-91699109D01*
X73977247Y-91694329D01*
X73952743Y-91694330D01*
X73928710Y-91699112D01*
X73906071Y-91708490D01*
X73885698Y-91722105D01*
X73868371Y-91739432D01*
X73861442Y-91749802D01*
X73851237Y-91762237D01*
X73843472Y-91768610D01*
X73834608Y-91773348D01*
X73824999Y-91776263D01*
X73808860Y-91777852D01*
X73321138Y-91777852D01*
X73302801Y-91776046D01*
X73290550Y-91775444D01*
X73272131Y-91775444D01*
X73249851Y-91773250D01*
X73165767Y-91756524D01*
X73144340Y-91750024D01*
X73065142Y-91717220D01*
X73059697Y-91714309D01*
X73059691Y-91714307D01*
X73050831Y-91709571D01*
X73050827Y-91709568D01*
X73045386Y-91706660D01*
X72974101Y-91659029D01*
X72956796Y-91644828D01*
X72896172Y-91584204D01*
X72881971Y-91566899D01*
X72834340Y-91495614D01*
X72831432Y-91490173D01*
X72831429Y-91490169D01*
X72826693Y-91481309D01*
X72826691Y-91481303D01*
X72823780Y-91475858D01*
X72790976Y-91396660D01*
X72784476Y-91375233D01*
X72767750Y-91291149D01*
X72765556Y-91268869D01*
X72765556Y-91250450D01*
X72764954Y-91238199D01*
X72763148Y-91219862D01*
X72763148Y-90732139D01*
X72764954Y-90713801D01*
X72765556Y-90701550D01*
X72765556Y-90683131D01*
X72767750Y-90660851D01*
X72784476Y-90576767D01*
X72790976Y-90555340D01*
X72823780Y-90476142D01*
X72826691Y-90470697D01*
X72826693Y-90470691D01*
X72831429Y-90461831D01*
X72831432Y-90461827D01*
X72834340Y-90456386D01*
X72881971Y-90385101D01*
X72896172Y-90367796D01*
X72956796Y-90307172D01*
X72974101Y-90292971D01*
X73045386Y-90245340D01*
X73050827Y-90242432D01*
X73050831Y-90242429D01*
X73059691Y-90237693D01*
X73059697Y-90237691D01*
X73065142Y-90234780D01*
X73144340Y-90201976D01*
X73165767Y-90195476D01*
X73249851Y-90178750D01*
X73272131Y-90176556D01*
X73290550Y-90176556D01*
X73302801Y-90175954D01*
X73321139Y-90174148D01*
X73808860Y-90174148D01*
X73824999Y-90175737D01*
X73824999Y-90175737D01*
G37*
G36*
X77377443Y-87561519D02*
G01*
X77443627Y-87568037D01*
X77613466Y-87619557D01*
X77613468Y-87619558D01*
X77643736Y-87635737D01*
X77769991Y-87703222D01*
X77787597Y-87717671D01*
X77907186Y-87815814D01*
X77989722Y-87916386D01*
X78019778Y-87953009D01*
X78103443Y-88109534D01*
X78154963Y-88279373D01*
X78172359Y-88456000D01*
X78154963Y-88632627D01*
X78109510Y-88782466D01*
X78103442Y-88802468D01*
X78061610Y-88880729D01*
X78019778Y-88958991D01*
X77990448Y-88994729D01*
X77907186Y-89096186D01*
X77830509Y-89159112D01*
X77769991Y-89208778D01*
X77613466Y-89292443D01*
X77443627Y-89343963D01*
X77377443Y-89350481D01*
X77311260Y-89357000D01*
X77222740Y-89357000D01*
X77156557Y-89350481D01*
X77090373Y-89343963D01*
X76920534Y-89292443D01*
X76764009Y-89208778D01*
X76703491Y-89159112D01*
X76626814Y-89096186D01*
X76543552Y-88994729D01*
X76514222Y-88958991D01*
X76472390Y-88880729D01*
X76430558Y-88802468D01*
X76424490Y-88782466D01*
X76379037Y-88632627D01*
X76361641Y-88456000D01*
X76379037Y-88279373D01*
X76430557Y-88109534D01*
X76514222Y-87953009D01*
X76544278Y-87916386D01*
X76626814Y-87815814D01*
X76746403Y-87717671D01*
X76764009Y-87703222D01*
X76890264Y-87635737D01*
X76920532Y-87619558D01*
X76920534Y-87619557D01*
X77090373Y-87568037D01*
X77156557Y-87561519D01*
X77222740Y-87555000D01*
X77311260Y-87555000D01*
X77377443Y-87561519D01*
X77377443Y-87561519D01*
G37*
G36*
X54517443Y-87541519D02*
G01*
X54583627Y-87548037D01*
X54753466Y-87599557D01*
X54753468Y-87599558D01*
X54821155Y-87635738D01*
X54909991Y-87683222D01*
X54945729Y-87712552D01*
X55047186Y-87795814D01*
X55130448Y-87897271D01*
X55159778Y-87933009D01*
X55243443Y-88089534D01*
X55294963Y-88259373D01*
X55312359Y-88436000D01*
X55294963Y-88612627D01*
X55243443Y-88782466D01*
X55159778Y-88938991D01*
X55143366Y-88958989D01*
X55047186Y-89076186D01*
X54951967Y-89154329D01*
X54909991Y-89188778D01*
X54909989Y-89188779D01*
X54821154Y-89236263D01*
X54753466Y-89272443D01*
X54583627Y-89323963D01*
X54517442Y-89330482D01*
X54451260Y-89337000D01*
X54362740Y-89337000D01*
X54296558Y-89330482D01*
X54230373Y-89323963D01*
X54060534Y-89272443D01*
X53992847Y-89236263D01*
X53904011Y-89188779D01*
X53904009Y-89188778D01*
X53862033Y-89154329D01*
X53766814Y-89076186D01*
X53670634Y-88958989D01*
X53654222Y-88938991D01*
X53570557Y-88782466D01*
X53519037Y-88612627D01*
X53501641Y-88436000D01*
X53519037Y-88259373D01*
X53570557Y-88089534D01*
X53654222Y-87933009D01*
X53683552Y-87897271D01*
X53766814Y-87795814D01*
X53868271Y-87712552D01*
X53904009Y-87683222D01*
X53992845Y-87635738D01*
X54060532Y-87599558D01*
X54060534Y-87599557D01*
X54230373Y-87548037D01*
X54296557Y-87541519D01*
X54362740Y-87535000D01*
X54451260Y-87535000D01*
X54517443Y-87541519D01*
X54517443Y-87541519D01*
G37*
G36*
X73824999Y-87635737D02*
G01*
X73834608Y-87638652D01*
X73843472Y-87643390D01*
X73851237Y-87649763D01*
X73861448Y-87662206D01*
X73868378Y-87672575D01*
X73885705Y-87689902D01*
X73906080Y-87703515D01*
X73928720Y-87712891D01*
X73952753Y-87717671D01*
X73977257Y-87717670D01*
X74001290Y-87712888D01*
X74023929Y-87703510D01*
X74044302Y-87689895D01*
X74061629Y-87672568D01*
X74068558Y-87662198D01*
X74078763Y-87649763D01*
X74086528Y-87643390D01*
X74095392Y-87638652D01*
X74105001Y-87635737D01*
X74121140Y-87634148D01*
X74608861Y-87634148D01*
X74627199Y-87635954D01*
X74639450Y-87636556D01*
X74657869Y-87636556D01*
X74680149Y-87638750D01*
X74764233Y-87655476D01*
X74785660Y-87661976D01*
X74864858Y-87694780D01*
X74870303Y-87697691D01*
X74870309Y-87697693D01*
X74879169Y-87702429D01*
X74879173Y-87702432D01*
X74884614Y-87705340D01*
X74955899Y-87752971D01*
X74973204Y-87767172D01*
X75033828Y-87827796D01*
X75048029Y-87845101D01*
X75095660Y-87916386D01*
X75098568Y-87921827D01*
X75098571Y-87921831D01*
X75103307Y-87930691D01*
X75103309Y-87930697D01*
X75106220Y-87936142D01*
X75139024Y-88015340D01*
X75145524Y-88036767D01*
X75162250Y-88120851D01*
X75164444Y-88143131D01*
X75164444Y-88161550D01*
X75165046Y-88173801D01*
X75166852Y-88192139D01*
X75166852Y-88679862D01*
X75165046Y-88698199D01*
X75164444Y-88710450D01*
X75164444Y-88728869D01*
X75162250Y-88751149D01*
X75145524Y-88835233D01*
X75139024Y-88856660D01*
X75106220Y-88935858D01*
X75103309Y-88941303D01*
X75103307Y-88941309D01*
X75098571Y-88950169D01*
X75098568Y-88950173D01*
X75095660Y-88955614D01*
X75048029Y-89026899D01*
X75033828Y-89044204D01*
X74973204Y-89104828D01*
X74955899Y-89119029D01*
X74884614Y-89166660D01*
X74879173Y-89169568D01*
X74879169Y-89169571D01*
X74870309Y-89174307D01*
X74870303Y-89174309D01*
X74864858Y-89177220D01*
X74785660Y-89210024D01*
X74764233Y-89216524D01*
X74680149Y-89233250D01*
X74657869Y-89235444D01*
X74639450Y-89235444D01*
X74627199Y-89236046D01*
X74608862Y-89237852D01*
X74121140Y-89237852D01*
X74105001Y-89236263D01*
X74095392Y-89233348D01*
X74086528Y-89228610D01*
X74078763Y-89222237D01*
X74068552Y-89209794D01*
X74061622Y-89199425D01*
X74044295Y-89182098D01*
X74023920Y-89168485D01*
X74001280Y-89159109D01*
X73977247Y-89154329D01*
X73952743Y-89154330D01*
X73928710Y-89159112D01*
X73906071Y-89168490D01*
X73885698Y-89182105D01*
X73868371Y-89199432D01*
X73861442Y-89209802D01*
X73851237Y-89222237D01*
X73843472Y-89228610D01*
X73834608Y-89233348D01*
X73824999Y-89236263D01*
X73808860Y-89237852D01*
X73321138Y-89237852D01*
X73302801Y-89236046D01*
X73290550Y-89235444D01*
X73272131Y-89235444D01*
X73249851Y-89233250D01*
X73165767Y-89216524D01*
X73144340Y-89210024D01*
X73065142Y-89177220D01*
X73059697Y-89174309D01*
X73059691Y-89174307D01*
X73050831Y-89169571D01*
X73050827Y-89169568D01*
X73045386Y-89166660D01*
X72974101Y-89119029D01*
X72956796Y-89104828D01*
X72896172Y-89044204D01*
X72881971Y-89026899D01*
X72834340Y-88955614D01*
X72831432Y-88950173D01*
X72831429Y-88950169D01*
X72826693Y-88941309D01*
X72826691Y-88941303D01*
X72823780Y-88935858D01*
X72790976Y-88856660D01*
X72784476Y-88835233D01*
X72767750Y-88751149D01*
X72765556Y-88728869D01*
X72765556Y-88710450D01*
X72764954Y-88698199D01*
X72763148Y-88679862D01*
X72763148Y-88192139D01*
X72764954Y-88173801D01*
X72765556Y-88161550D01*
X72765556Y-88143131D01*
X72767750Y-88120851D01*
X72784476Y-88036767D01*
X72790976Y-88015340D01*
X72823780Y-87936142D01*
X72826691Y-87930697D01*
X72826693Y-87930691D01*
X72831429Y-87921831D01*
X72831432Y-87921827D01*
X72834340Y-87916386D01*
X72881971Y-87845101D01*
X72896172Y-87827796D01*
X72956796Y-87767172D01*
X72974101Y-87752971D01*
X73045386Y-87705340D01*
X73050827Y-87702432D01*
X73050831Y-87702429D01*
X73059691Y-87697693D01*
X73059697Y-87697691D01*
X73065142Y-87694780D01*
X73144340Y-87661976D01*
X73165767Y-87655476D01*
X73249851Y-87638750D01*
X73272131Y-87636556D01*
X73290550Y-87636556D01*
X73302801Y-87635954D01*
X73321139Y-87634148D01*
X73808860Y-87634148D01*
X73824999Y-87635737D01*
X73824999Y-87635737D01*
G37*
G36*
X77377442Y-85021518D02*
G01*
X77443627Y-85028037D01*
X77613466Y-85079557D01*
X77613468Y-85079558D01*
X77643736Y-85095737D01*
X77769991Y-85163222D01*
X77787597Y-85177671D01*
X77907186Y-85275814D01*
X77989722Y-85376386D01*
X78019778Y-85413009D01*
X78103443Y-85569534D01*
X78154963Y-85739373D01*
X78172359Y-85916000D01*
X78154963Y-86092627D01*
X78109510Y-86242466D01*
X78103442Y-86262468D01*
X78061610Y-86340729D01*
X78019778Y-86418991D01*
X77990448Y-86454729D01*
X77907186Y-86556186D01*
X77830509Y-86619112D01*
X77769991Y-86668778D01*
X77613466Y-86752443D01*
X77443627Y-86803963D01*
X77377442Y-86810482D01*
X77311260Y-86817000D01*
X77222740Y-86817000D01*
X77156558Y-86810482D01*
X77090373Y-86803963D01*
X76920534Y-86752443D01*
X76764009Y-86668778D01*
X76703491Y-86619112D01*
X76626814Y-86556186D01*
X76543552Y-86454729D01*
X76514222Y-86418991D01*
X76472390Y-86340729D01*
X76430558Y-86262468D01*
X76424490Y-86242466D01*
X76379037Y-86092627D01*
X76361641Y-85916000D01*
X76379037Y-85739373D01*
X76430557Y-85569534D01*
X76514222Y-85413009D01*
X76544278Y-85376386D01*
X76626814Y-85275814D01*
X76746403Y-85177671D01*
X76764009Y-85163222D01*
X76890264Y-85095737D01*
X76920532Y-85079558D01*
X76920534Y-85079557D01*
X77090373Y-85028037D01*
X77156558Y-85021518D01*
X77222740Y-85015000D01*
X77311260Y-85015000D01*
X77377442Y-85021518D01*
X77377442Y-85021518D01*
G37*
G36*
X54517442Y-85001518D02*
G01*
X54583627Y-85008037D01*
X54753466Y-85059557D01*
X54753468Y-85059558D01*
X54821155Y-85095738D01*
X54909991Y-85143222D01*
X54945729Y-85172552D01*
X55047186Y-85255814D01*
X55130448Y-85357271D01*
X55159778Y-85393009D01*
X55243443Y-85549534D01*
X55294963Y-85719373D01*
X55312359Y-85896000D01*
X55294963Y-86072627D01*
X55243443Y-86242466D01*
X55159778Y-86398991D01*
X55143366Y-86418989D01*
X55047186Y-86536186D01*
X54951967Y-86614329D01*
X54909991Y-86648778D01*
X54909989Y-86648779D01*
X54821154Y-86696263D01*
X54753466Y-86732443D01*
X54583627Y-86783963D01*
X54517443Y-86790481D01*
X54451260Y-86797000D01*
X54362740Y-86797000D01*
X54296557Y-86790481D01*
X54230373Y-86783963D01*
X54060534Y-86732443D01*
X53992847Y-86696263D01*
X53904011Y-86648779D01*
X53904009Y-86648778D01*
X53862033Y-86614329D01*
X53766814Y-86536186D01*
X53670634Y-86418989D01*
X53654222Y-86398991D01*
X53570557Y-86242466D01*
X53519037Y-86072627D01*
X53501641Y-85896000D01*
X53519037Y-85719373D01*
X53570557Y-85549534D01*
X53654222Y-85393009D01*
X53683552Y-85357271D01*
X53766814Y-85255814D01*
X53868271Y-85172552D01*
X53904009Y-85143222D01*
X53992845Y-85095738D01*
X54060532Y-85059558D01*
X54060534Y-85059557D01*
X54230373Y-85008037D01*
X54296558Y-85001518D01*
X54362740Y-84995000D01*
X54451260Y-84995000D01*
X54517442Y-85001518D01*
X54517442Y-85001518D01*
G37*
G36*
X57632499Y-85095737D02*
G01*
X57642108Y-85098652D01*
X57650972Y-85103390D01*
X57658737Y-85109763D01*
X57668948Y-85122206D01*
X57675878Y-85132575D01*
X57693205Y-85149902D01*
X57713580Y-85163515D01*
X57736220Y-85172891D01*
X57760253Y-85177671D01*
X57784757Y-85177670D01*
X57808790Y-85172888D01*
X57831429Y-85163510D01*
X57851802Y-85149895D01*
X57869129Y-85132568D01*
X57876058Y-85122198D01*
X57886263Y-85109763D01*
X57894028Y-85103390D01*
X57902892Y-85098652D01*
X57912501Y-85095737D01*
X57928640Y-85094148D01*
X58416361Y-85094148D01*
X58434699Y-85095954D01*
X58446950Y-85096556D01*
X58465369Y-85096556D01*
X58487649Y-85098750D01*
X58571733Y-85115476D01*
X58593160Y-85121976D01*
X58672358Y-85154780D01*
X58677803Y-85157691D01*
X58677809Y-85157693D01*
X58686669Y-85162429D01*
X58686673Y-85162432D01*
X58692114Y-85165340D01*
X58763399Y-85212971D01*
X58780704Y-85227172D01*
X58841328Y-85287796D01*
X58855529Y-85305101D01*
X58903160Y-85376386D01*
X58906068Y-85381827D01*
X58906071Y-85381831D01*
X58910807Y-85390691D01*
X58910809Y-85390697D01*
X58913720Y-85396142D01*
X58946524Y-85475340D01*
X58953024Y-85496767D01*
X58969750Y-85580851D01*
X58971944Y-85603131D01*
X58971944Y-85621550D01*
X58972546Y-85633801D01*
X58974352Y-85652139D01*
X58974352Y-86139862D01*
X58972546Y-86158199D01*
X58971944Y-86170450D01*
X58971944Y-86188869D01*
X58969750Y-86211149D01*
X58953024Y-86295233D01*
X58946524Y-86316660D01*
X58913720Y-86395858D01*
X58910809Y-86401303D01*
X58910807Y-86401309D01*
X58906071Y-86410169D01*
X58906068Y-86410173D01*
X58903160Y-86415614D01*
X58855529Y-86486899D01*
X58841328Y-86504204D01*
X58780704Y-86564828D01*
X58763399Y-86579029D01*
X58692114Y-86626660D01*
X58686673Y-86629568D01*
X58686669Y-86629571D01*
X58677809Y-86634307D01*
X58677803Y-86634309D01*
X58672358Y-86637220D01*
X58593160Y-86670024D01*
X58571733Y-86676524D01*
X58487649Y-86693250D01*
X58465369Y-86695444D01*
X58446950Y-86695444D01*
X58434699Y-86696046D01*
X58416362Y-86697852D01*
X57928640Y-86697852D01*
X57912501Y-86696263D01*
X57902892Y-86693348D01*
X57894028Y-86688610D01*
X57886263Y-86682237D01*
X57876052Y-86669794D01*
X57869122Y-86659425D01*
X57851795Y-86642098D01*
X57831420Y-86628485D01*
X57808780Y-86619109D01*
X57784747Y-86614329D01*
X57760243Y-86614330D01*
X57736210Y-86619112D01*
X57713571Y-86628490D01*
X57693198Y-86642105D01*
X57675871Y-86659432D01*
X57668942Y-86669802D01*
X57658737Y-86682237D01*
X57650972Y-86688610D01*
X57642108Y-86693348D01*
X57632499Y-86696263D01*
X57616360Y-86697852D01*
X57128638Y-86697852D01*
X57110301Y-86696046D01*
X57098050Y-86695444D01*
X57079631Y-86695444D01*
X57057351Y-86693250D01*
X56973267Y-86676524D01*
X56951840Y-86670024D01*
X56872642Y-86637220D01*
X56867197Y-86634309D01*
X56867191Y-86634307D01*
X56858331Y-86629571D01*
X56858327Y-86629568D01*
X56852886Y-86626660D01*
X56781601Y-86579029D01*
X56764296Y-86564828D01*
X56703672Y-86504204D01*
X56689471Y-86486899D01*
X56641840Y-86415614D01*
X56638932Y-86410173D01*
X56638929Y-86410169D01*
X56634193Y-86401309D01*
X56634191Y-86401303D01*
X56631280Y-86395858D01*
X56598476Y-86316660D01*
X56591976Y-86295233D01*
X56575250Y-86211149D01*
X56573056Y-86188869D01*
X56573056Y-86170450D01*
X56572454Y-86158199D01*
X56570648Y-86139862D01*
X56570648Y-85652139D01*
X56572454Y-85633801D01*
X56573056Y-85621550D01*
X56573056Y-85603131D01*
X56575250Y-85580851D01*
X56591976Y-85496767D01*
X56598476Y-85475340D01*
X56631280Y-85396142D01*
X56634191Y-85390697D01*
X56634193Y-85390691D01*
X56638929Y-85381831D01*
X56638932Y-85381827D01*
X56641840Y-85376386D01*
X56689471Y-85305101D01*
X56703672Y-85287796D01*
X56764296Y-85227172D01*
X56781601Y-85212971D01*
X56852886Y-85165340D01*
X56858327Y-85162432D01*
X56858331Y-85162429D01*
X56867191Y-85157693D01*
X56867197Y-85157691D01*
X56872642Y-85154780D01*
X56951840Y-85121976D01*
X56973267Y-85115476D01*
X57057351Y-85098750D01*
X57079631Y-85096556D01*
X57098050Y-85096556D01*
X57110301Y-85095954D01*
X57128639Y-85094148D01*
X57616360Y-85094148D01*
X57632499Y-85095737D01*
X57632499Y-85095737D01*
G37*
G36*
X77377442Y-82481518D02*
G01*
X77443627Y-82488037D01*
X77613466Y-82539557D01*
X77769991Y-82623222D01*
X77805729Y-82652552D01*
X77907186Y-82735814D01*
X77990448Y-82837271D01*
X78019778Y-82873009D01*
X78103443Y-83029534D01*
X78154963Y-83199373D01*
X78172359Y-83376000D01*
X78154963Y-83552627D01*
X78103443Y-83722466D01*
X78019778Y-83878991D01*
X77990448Y-83914729D01*
X77907186Y-84016186D01*
X77805729Y-84099448D01*
X77769991Y-84128778D01*
X77613466Y-84212443D01*
X77443627Y-84263963D01*
X77377443Y-84270481D01*
X77311260Y-84277000D01*
X77222740Y-84277000D01*
X77156557Y-84270481D01*
X77090373Y-84263963D01*
X76920534Y-84212443D01*
X76764009Y-84128778D01*
X76728271Y-84099448D01*
X76626814Y-84016186D01*
X76543552Y-83914729D01*
X76514222Y-83878991D01*
X76430557Y-83722466D01*
X76379037Y-83552627D01*
X76361641Y-83376000D01*
X76379037Y-83199373D01*
X76430557Y-83029534D01*
X76514222Y-82873009D01*
X76543552Y-82837271D01*
X76626814Y-82735814D01*
X76728271Y-82652552D01*
X76764009Y-82623222D01*
X76920534Y-82539557D01*
X77090373Y-82488037D01*
X77156558Y-82481518D01*
X77222740Y-82475000D01*
X77311260Y-82475000D01*
X77377442Y-82481518D01*
X77377442Y-82481518D01*
G37*
G36*
X54517442Y-82461518D02*
G01*
X54583627Y-82468037D01*
X54753466Y-82519557D01*
X54909991Y-82603222D01*
X54934361Y-82623222D01*
X55047186Y-82715814D01*
X55130448Y-82817271D01*
X55159778Y-82853009D01*
X55243443Y-83009534D01*
X55294963Y-83179373D01*
X55312359Y-83356000D01*
X55294963Y-83532627D01*
X55243443Y-83702466D01*
X55159778Y-83858991D01*
X55143366Y-83878989D01*
X55047186Y-83996186D01*
X54945729Y-84079448D01*
X54909991Y-84108778D01*
X54753466Y-84192443D01*
X54583627Y-84243963D01*
X54517442Y-84250482D01*
X54451260Y-84257000D01*
X54362740Y-84257000D01*
X54296558Y-84250482D01*
X54230373Y-84243963D01*
X54060534Y-84192443D01*
X53904009Y-84108778D01*
X53868271Y-84079448D01*
X53766814Y-83996186D01*
X53670634Y-83878989D01*
X53654222Y-83858991D01*
X53570557Y-83702466D01*
X53519037Y-83532627D01*
X53501641Y-83356000D01*
X53519037Y-83179373D01*
X53570557Y-83009534D01*
X53654222Y-82853009D01*
X53683552Y-82817271D01*
X53766814Y-82715814D01*
X53879639Y-82623222D01*
X53904009Y-82603222D01*
X54060534Y-82519557D01*
X54230373Y-82468037D01*
X54296558Y-82461518D01*
X54362740Y-82455000D01*
X54451260Y-82455000D01*
X54517442Y-82461518D01*
X54517442Y-82461518D01*
G37*
G36*
X77377443Y-79941519D02*
G01*
X77443627Y-79948037D01*
X77613466Y-79999557D01*
X77769991Y-80083222D01*
X77805729Y-80112552D01*
X77907186Y-80195814D01*
X77990448Y-80297271D01*
X78019778Y-80333009D01*
X78103443Y-80489534D01*
X78154963Y-80659373D01*
X78172359Y-80836000D01*
X78154963Y-81012627D01*
X78103443Y-81182466D01*
X78019778Y-81338991D01*
X77990448Y-81374729D01*
X77907186Y-81476186D01*
X77805729Y-81559448D01*
X77769991Y-81588778D01*
X77613466Y-81672443D01*
X77443627Y-81723963D01*
X77377442Y-81730482D01*
X77311260Y-81737000D01*
X77222740Y-81737000D01*
X77156558Y-81730482D01*
X77090373Y-81723963D01*
X76920534Y-81672443D01*
X76764009Y-81588778D01*
X76728271Y-81559448D01*
X76626814Y-81476186D01*
X76543552Y-81374729D01*
X76514222Y-81338991D01*
X76430557Y-81182466D01*
X76379037Y-81012627D01*
X76361641Y-80836000D01*
X76379037Y-80659373D01*
X76430557Y-80489534D01*
X76514222Y-80333009D01*
X76543552Y-80297271D01*
X76626814Y-80195814D01*
X76728271Y-80112552D01*
X76764009Y-80083222D01*
X76920534Y-79999557D01*
X77090373Y-79948037D01*
X77156557Y-79941519D01*
X77222740Y-79935000D01*
X77311260Y-79935000D01*
X77377443Y-79941519D01*
X77377443Y-79941519D01*
G37*
G36*
X54517442Y-79921518D02*
G01*
X54583627Y-79928037D01*
X54753466Y-79979557D01*
X54909991Y-80063222D01*
X54934361Y-80083222D01*
X55047186Y-80175814D01*
X55130448Y-80277271D01*
X55159778Y-80313009D01*
X55243443Y-80469534D01*
X55294963Y-80639373D01*
X55312359Y-80816000D01*
X55294963Y-80992627D01*
X55243443Y-81162466D01*
X55159778Y-81318991D01*
X55143366Y-81338989D01*
X55047186Y-81456186D01*
X54945729Y-81539448D01*
X54909991Y-81568778D01*
X54753466Y-81652443D01*
X54583627Y-81703963D01*
X54517443Y-81710481D01*
X54451260Y-81717000D01*
X54362740Y-81717000D01*
X54296557Y-81710481D01*
X54230373Y-81703963D01*
X54060534Y-81652443D01*
X53904009Y-81568778D01*
X53868271Y-81539448D01*
X53766814Y-81456186D01*
X53670634Y-81338989D01*
X53654222Y-81318991D01*
X53570557Y-81162466D01*
X53519037Y-80992627D01*
X53501641Y-80816000D01*
X53519037Y-80639373D01*
X53570557Y-80469534D01*
X53654222Y-80313009D01*
X53683552Y-80277271D01*
X53766814Y-80175814D01*
X53879639Y-80083222D01*
X53904009Y-80063222D01*
X54060534Y-79979557D01*
X54230373Y-79928037D01*
X54296558Y-79921518D01*
X54362740Y-79915000D01*
X54451260Y-79915000D01*
X54517442Y-79921518D01*
X54517442Y-79921518D01*
G37*
G36*
X77377443Y-77401519D02*
G01*
X77443627Y-77408037D01*
X77613466Y-77459557D01*
X77769991Y-77543222D01*
X77805729Y-77572552D01*
X77907186Y-77655814D01*
X77990448Y-77757271D01*
X78019778Y-77793009D01*
X78103443Y-77949534D01*
X78154963Y-78119373D01*
X78172359Y-78296000D01*
X78154963Y-78472627D01*
X78103443Y-78642466D01*
X78019778Y-78798991D01*
X77990448Y-78834729D01*
X77907186Y-78936186D01*
X77805729Y-79019448D01*
X77769991Y-79048778D01*
X77613466Y-79132443D01*
X77443627Y-79183963D01*
X77377443Y-79190481D01*
X77311260Y-79197000D01*
X77222740Y-79197000D01*
X77156557Y-79190481D01*
X77090373Y-79183963D01*
X76920534Y-79132443D01*
X76764009Y-79048778D01*
X76728271Y-79019448D01*
X76626814Y-78936186D01*
X76543552Y-78834729D01*
X76514222Y-78798991D01*
X76430557Y-78642466D01*
X76379037Y-78472627D01*
X76361641Y-78296000D01*
X76379037Y-78119373D01*
X76430557Y-77949534D01*
X76514222Y-77793009D01*
X76543552Y-77757271D01*
X76626814Y-77655814D01*
X76728271Y-77572552D01*
X76764009Y-77543222D01*
X76920534Y-77459557D01*
X77090373Y-77408037D01*
X77156557Y-77401519D01*
X77222740Y-77395000D01*
X77311260Y-77395000D01*
X77377443Y-77401519D01*
X77377443Y-77401519D01*
G37*
G36*
X54517443Y-77381519D02*
G01*
X54583627Y-77388037D01*
X54753466Y-77439557D01*
X54909991Y-77523222D01*
X54934361Y-77543222D01*
X55047186Y-77635814D01*
X55130448Y-77737271D01*
X55159778Y-77773009D01*
X55243443Y-77929534D01*
X55294963Y-78099373D01*
X55312359Y-78276000D01*
X55294963Y-78452627D01*
X55243443Y-78622466D01*
X55159778Y-78778991D01*
X55143366Y-78798989D01*
X55047186Y-78916186D01*
X54945729Y-78999448D01*
X54909991Y-79028778D01*
X54753466Y-79112443D01*
X54583627Y-79163963D01*
X54517442Y-79170482D01*
X54451260Y-79177000D01*
X54362740Y-79177000D01*
X54296558Y-79170482D01*
X54230373Y-79163963D01*
X54060534Y-79112443D01*
X53904009Y-79028778D01*
X53868271Y-78999448D01*
X53766814Y-78916186D01*
X53670634Y-78798989D01*
X53654222Y-78778991D01*
X53570557Y-78622466D01*
X53519037Y-78452627D01*
X53501641Y-78276000D01*
X53519037Y-78099373D01*
X53570557Y-77929534D01*
X53654222Y-77773009D01*
X53683552Y-77737271D01*
X53766814Y-77635814D01*
X53879639Y-77543222D01*
X53904009Y-77523222D01*
X54060534Y-77439557D01*
X54230373Y-77388037D01*
X54296557Y-77381519D01*
X54362740Y-77375000D01*
X54451260Y-77375000D01*
X54517443Y-77381519D01*
X54517443Y-77381519D01*
G37*
G36*
X77377442Y-74861518D02*
G01*
X77443627Y-74868037D01*
X77613466Y-74919557D01*
X77769991Y-75003222D01*
X77805729Y-75032552D01*
X77907186Y-75115814D01*
X77990448Y-75217271D01*
X78019778Y-75253009D01*
X78103443Y-75409534D01*
X78154963Y-75579373D01*
X78172359Y-75756000D01*
X78154963Y-75932627D01*
X78103443Y-76102466D01*
X78019778Y-76258991D01*
X77990448Y-76294729D01*
X77907186Y-76396186D01*
X77805729Y-76479448D01*
X77769991Y-76508778D01*
X77613466Y-76592443D01*
X77443627Y-76643963D01*
X77377442Y-76650482D01*
X77311260Y-76657000D01*
X77222740Y-76657000D01*
X77156558Y-76650482D01*
X77090373Y-76643963D01*
X76920534Y-76592443D01*
X76764009Y-76508778D01*
X76728271Y-76479448D01*
X76626814Y-76396186D01*
X76543552Y-76294729D01*
X76514222Y-76258991D01*
X76430557Y-76102466D01*
X76379037Y-75932627D01*
X76361641Y-75756000D01*
X76379037Y-75579373D01*
X76430557Y-75409534D01*
X76514222Y-75253009D01*
X76543552Y-75217271D01*
X76626814Y-75115814D01*
X76728271Y-75032552D01*
X76764009Y-75003222D01*
X76920534Y-74919557D01*
X77090373Y-74868037D01*
X77156558Y-74861518D01*
X77222740Y-74855000D01*
X77311260Y-74855000D01*
X77377442Y-74861518D01*
X77377442Y-74861518D01*
G37*
G36*
X54517443Y-74841519D02*
G01*
X54583627Y-74848037D01*
X54753466Y-74899557D01*
X54909991Y-74983222D01*
X54934361Y-75003222D01*
X55047186Y-75095814D01*
X55130448Y-75197271D01*
X55159778Y-75233009D01*
X55243443Y-75389534D01*
X55294963Y-75559373D01*
X55312359Y-75736000D01*
X55294963Y-75912627D01*
X55243443Y-76082466D01*
X55159778Y-76238991D01*
X55143366Y-76258989D01*
X55047186Y-76376186D01*
X54945729Y-76459448D01*
X54909991Y-76488778D01*
X54753466Y-76572443D01*
X54583627Y-76623963D01*
X54517443Y-76630481D01*
X54451260Y-76637000D01*
X54362740Y-76637000D01*
X54296557Y-76630481D01*
X54230373Y-76623963D01*
X54060534Y-76572443D01*
X53904009Y-76488778D01*
X53868271Y-76459448D01*
X53766814Y-76376186D01*
X53670634Y-76258989D01*
X53654222Y-76238991D01*
X53570557Y-76082466D01*
X53519037Y-75912627D01*
X53501641Y-75736000D01*
X53519037Y-75559373D01*
X53570557Y-75389534D01*
X53654222Y-75233009D01*
X53683552Y-75197271D01*
X53766814Y-75095814D01*
X53879639Y-75003222D01*
X53904009Y-74983222D01*
X54060534Y-74899557D01*
X54230373Y-74848037D01*
X54296557Y-74841519D01*
X54362740Y-74835000D01*
X54451260Y-74835000D01*
X54517443Y-74841519D01*
X54517443Y-74841519D01*
G37*
G36*
X66597487Y-73214996D02*
G01*
X66834253Y-73313068D01*
X66834255Y-73313069D01*
X66953319Y-73392625D01*
X67047339Y-73455447D01*
X67228553Y-73636661D01*
X67370932Y-73849747D01*
X67469004Y-74086513D01*
X67519000Y-74337861D01*
X67519000Y-74594139D01*
X67469004Y-74845487D01*
X67411952Y-74983222D01*
X67370931Y-75082255D01*
X67228553Y-75295339D01*
X67047339Y-75476553D01*
X66834255Y-75618931D01*
X66834254Y-75618932D01*
X66834253Y-75618932D01*
X66597487Y-75717004D01*
X66346139Y-75767000D01*
X66089861Y-75767000D01*
X65838513Y-75717004D01*
X65601747Y-75618932D01*
X65601746Y-75618932D01*
X65601745Y-75618931D01*
X65388661Y-75476553D01*
X65207447Y-75295339D01*
X65065069Y-75082255D01*
X65024048Y-74983222D01*
X64966996Y-74845487D01*
X64917000Y-74594139D01*
X64917000Y-74337861D01*
X64966996Y-74086513D01*
X65065068Y-73849747D01*
X65207447Y-73636661D01*
X65388661Y-73455447D01*
X65482681Y-73392625D01*
X65601745Y-73313069D01*
X65601747Y-73313068D01*
X65838513Y-73214996D01*
X66089861Y-73165000D01*
X66346139Y-73165000D01*
X66597487Y-73214996D01*
X66597487Y-73214996D01*
G37*
G36*
X72566487Y-73214996D02*
G01*
X72803253Y-73313068D01*
X72803255Y-73313069D01*
X72922319Y-73392625D01*
X73016339Y-73455447D01*
X73197553Y-73636661D01*
X73339932Y-73849747D01*
X73438004Y-74086513D01*
X73488000Y-74337861D01*
X73488000Y-74594139D01*
X73438004Y-74845487D01*
X73380952Y-74983222D01*
X73339931Y-75082255D01*
X73197553Y-75295339D01*
X73016339Y-75476553D01*
X72803255Y-75618931D01*
X72803254Y-75618932D01*
X72803253Y-75618932D01*
X72566487Y-75717004D01*
X72315139Y-75767000D01*
X72058861Y-75767000D01*
X71807513Y-75717004D01*
X71570747Y-75618932D01*
X71570746Y-75618932D01*
X71570745Y-75618931D01*
X71357661Y-75476553D01*
X71176447Y-75295339D01*
X71034069Y-75082255D01*
X70993048Y-74983222D01*
X70935996Y-74845487D01*
X70886000Y-74594139D01*
X70886000Y-74337861D01*
X70935996Y-74086513D01*
X71034068Y-73849747D01*
X71176447Y-73636661D01*
X71357661Y-73455447D01*
X71451681Y-73392625D01*
X71570745Y-73313069D01*
X71570747Y-73313068D01*
X71807513Y-73214996D01*
X72058861Y-73165000D01*
X72315139Y-73165000D01*
X72566487Y-73214996D01*
X72566487Y-73214996D01*
G37*
G36*
X59866487Y-73214996D02*
G01*
X60103253Y-73313068D01*
X60103255Y-73313069D01*
X60222319Y-73392625D01*
X60316339Y-73455447D01*
X60497553Y-73636661D01*
X60639932Y-73849747D01*
X60738004Y-74086513D01*
X60788000Y-74337861D01*
X60788000Y-74594139D01*
X60738004Y-74845487D01*
X60680952Y-74983222D01*
X60639931Y-75082255D01*
X60497553Y-75295339D01*
X60316339Y-75476553D01*
X60103255Y-75618931D01*
X60103254Y-75618932D01*
X60103253Y-75618932D01*
X59866487Y-75717004D01*
X59615139Y-75767000D01*
X59358861Y-75767000D01*
X59107513Y-75717004D01*
X58870747Y-75618932D01*
X58870746Y-75618932D01*
X58870745Y-75618931D01*
X58657661Y-75476553D01*
X58476447Y-75295339D01*
X58334069Y-75082255D01*
X58293048Y-74983222D01*
X58235996Y-74845487D01*
X58186000Y-74594139D01*
X58186000Y-74337861D01*
X58235996Y-74086513D01*
X58334068Y-73849747D01*
X58476447Y-73636661D01*
X58657661Y-73455447D01*
X58751681Y-73392625D01*
X58870745Y-73313069D01*
X58870747Y-73313068D01*
X59107513Y-73214996D01*
X59358861Y-73165000D01*
X59615139Y-73165000D01*
X59866487Y-73214996D01*
X59866487Y-73214996D01*
G37*
G36*
X77377443Y-72321519D02*
G01*
X77443627Y-72328037D01*
X77613466Y-72379557D01*
X77769991Y-72463222D01*
X77805729Y-72492552D01*
X77907186Y-72575814D01*
X77990448Y-72677271D01*
X78019778Y-72713009D01*
X78103443Y-72869534D01*
X78154963Y-73039373D01*
X78172359Y-73216000D01*
X78154963Y-73392627D01*
X78103443Y-73562466D01*
X78019778Y-73718991D01*
X77990448Y-73754729D01*
X77907186Y-73856186D01*
X77805729Y-73939448D01*
X77769991Y-73968778D01*
X77613466Y-74052443D01*
X77443627Y-74103963D01*
X77377443Y-74110481D01*
X77311260Y-74117000D01*
X77222740Y-74117000D01*
X77156557Y-74110481D01*
X77090373Y-74103963D01*
X76920534Y-74052443D01*
X76764009Y-73968778D01*
X76728271Y-73939448D01*
X76626814Y-73856186D01*
X76543552Y-73754729D01*
X76514222Y-73718991D01*
X76430557Y-73562466D01*
X76379037Y-73392627D01*
X76361641Y-73216000D01*
X76379037Y-73039373D01*
X76430557Y-72869534D01*
X76514222Y-72713009D01*
X76543552Y-72677271D01*
X76626814Y-72575814D01*
X76728271Y-72492552D01*
X76764009Y-72463222D01*
X76920534Y-72379557D01*
X77090373Y-72328037D01*
X77156557Y-72321519D01*
X77222740Y-72315000D01*
X77311260Y-72315000D01*
X77377443Y-72321519D01*
X77377443Y-72321519D01*
G37*
G36*
X55308000Y-74097000D02*
G01*
X53506000Y-74097000D01*
X53506000Y-72295000D01*
X55308000Y-72295000D01*
X55308000Y-74097000D01*
X55308000Y-74097000D01*
G37*
M02*
